<?xml version="1.0" encoding="utf-8"?>
<!-- Generator: Adobe Illustrator 16.0.0, SVG Export Plug-In . SVG Version: 6.00 Build 0)  -->
<!DOCTYPE svg PUBLIC "-//W3C//DTD SVG 1.1//EN" "http://www.w3.org/Graphics/SVG/1.1/DTD/svg11.dtd">
<svg version="1.1" id="Layer_1" xmlns="http://www.w3.org/2000/svg" xmlns:xlink="http://www.w3.org/1999/xlink" x="0px" y="0px"
	 width="183.333px" height="82.666px" viewBox="0 0 183.333 82.666" enable-background="new 0 0 183.333 82.666"
	 xml:space="preserve">
<rect x="-16.333" y="-258.001" fill="none" width="192" height="185"/>
<polygon fill="#FFFFFF" stroke="#000000" stroke-miterlimit="10" points="-88.429,191.687 -66.777,154.187 -45.127,191.687 
	-23.476,229.187 -66.777,229.187 -110.079,229.187 "/>
<polygon fill="#FFFFFF" stroke="#000000" stroke-miterlimit="10" points="-88.22,273.229 -77.66,291.812 -66.569,269.728 
	-56.321,291.78 -44.918,273.229 -23.267,235.729 -66.569,235.729 -109.871,235.729 "/>
<polygon fill="#FFFFFF" stroke="#000000" stroke-width="15" stroke-miterlimit="10" points="17.629,232.228 48.84,288.312 
	65.931,261.228 82.179,288.28 114.233,232.228 65.723,157.687 "/>
<polygon fill="#FFFFFF" stroke="#000000" stroke-miterlimit="10" points="-65.777,328.187 -3.476,403.187 -65.777,403.187 
	-128.079,403.187 "/>
<polygon fill="#FFFFFF" stroke="#000000" stroke-miterlimit="10" points="-63.321,475.78 -3.267,409.728 -49.495,409.728 "/>
<polygon fill="#FFFFFF" stroke="#000000" stroke-miterlimit="10" points="-83.161,409.728 -126.871,409.728 -67.66,475.812 "/>
<polygon fill="#FFFFFF" stroke="#000000" stroke-miterlimit="10" points="-56.495,409.728 -65.569,409.728 -76.161,409.728 
	-65.569,461.728 "/>
<polygon fill="#2E3192" points="252.583,182.705 274.233,145.205 295.885,182.705 317.535,220.205 294.164,220.205 274.233,196.205 
	253.163,220.205 230.932,220.205 "/>
<polygon fill="#262262" points="209.333,257.871 230.984,220.371 252.634,257.871 274.286,295.371 273.914,329.371 230.984,257.371 
	209.914,295.371 187.682,295.371 "/>
<polygon fill="#27AAE1" points="296,257.955 317.65,220.455 339.301,257.955 360.953,295.455 337.581,295.455 317.65,257.455 
	274.58,329.455 274.349,295.455 "/>
<polygon fill="#2E3192" points="494.572,165.208 516.223,127.708 537.874,165.208 559.524,202.708 536.153,202.708 516.223,202.708 
	495.152,202.708 472.922,202.708 "/>
<polygon fill="#262262" points="451.322,240.374 472.973,202.874 494.623,240.374 516.275,277.874 515.903,311.874 489.973,277.874 
	451.902,277.874 429.672,277.874 "/>
<polygon fill="#27AAE1" points="537.989,240.458 559.64,202.958 581.29,240.458 602.942,277.958 579.57,277.958 539.64,277.958 
	516.569,311.958 516.338,277.958 "/>
<polygon fill="#00A99F" points="35.439,-101.627 -7.861,-101.627 13.789,-139.128 35.439,-176.628 47.125,-156.388 57.091,-139.127 
	67.626,-120.88 78.741,-101.628 "/>
<polygon fill="#758988" points="122.098,-101.63 78.797,-101.63 100.447,-139.129 122.098,-176.63 157.042,-196.876 
	135.249,-153.852 154.284,-120.882 165.399,-101.63 "/>
<polygon fill="#FFD02C" points="78.837,-176.728 35.536,-176.728 57.187,-214.228 78.837,-251.729 90.522,-231.487 
	110.488,-196.907 157.104,-196.938 122.139,-176.727 "/>
<g>
	<path fill="#677674" d="M-3.663-78.501l-0.864-2.12h-3.997l-0.864,2.12h-2.12l4.051-9.521h1.917l4.051,9.521H-3.663z
		 M-6.526-85.523l-1.256,3.065h2.512L-6.526-85.523z"/>
	<path fill="#677674" d="M4.543-78.501H0.857v-9.453h3.687c2.971,0,5.023,2.039,5.023,4.699v0.027
		C9.567-80.567,7.515-78.501,4.543-78.501z M7.393-83.228c0-1.675-1.148-2.85-2.85-2.85H2.937v5.699h1.607
		c1.702,0,2.85-1.148,2.85-2.822V-83.228z"/>
	<path fill="#677674" d="M18.044-78.501l-2.025-3.025h-1.634v3.025h-2.08v-9.453h4.321c2.228,0,3.565,1.175,3.565,3.12v0.026
		c0,1.526-0.824,2.485-2.025,2.931l2.309,3.376H18.044z M18.085-84.727c0-0.891-0.621-1.351-1.634-1.351h-2.066v2.715h2.107
		c1.013,0,1.593-0.54,1.593-1.337V-84.727z"/>
	<path fill="#677674" d="M23.051-78.501v-9.453h2.08v9.453H23.051z"/>
	<path fill="#677674" d="M28.383-78.501v-9.453h7.13v1.851H30.45v1.917h4.456v1.851H30.45v1.985h5.131v1.85H28.383z"/>
	<path fill="#677674" d="M44.95-78.501l-4.578-6.01v6.01h-2.053v-9.453h1.917l4.43,5.82v-5.82h2.052v9.453H44.95z"/>
	<path fill="#677674" d="M56.506-78.501l-4.578-6.01v6.01h-2.053v-9.453h1.917l4.43,5.82v-5.82h2.052v9.453H56.506z"/>
	<path fill="#677674" d="M61.431-78.501v-9.453h7.13v1.851h-5.064v1.917h4.456v1.851h-4.456v1.985h5.131v1.85H61.431z"/>
	<path fill="#677674" d="M83.695-78.501v-6.171l-2.66,4.037H80.98l-2.633-3.997v6.131h-2.039v-9.453h2.242l2.485,3.997l2.485-3.997
		h2.241v9.453H83.695z"/>
	<path fill="#677674" d="M92.118-80.339c-2.174,0-3.768-1.675-3.768-3.74v-0.027c0-2.066,1.58-3.768,3.794-3.768
		c1.364,0,2.215,0.459,2.89,1.215l-1.256,1.351c-0.459-0.486-0.918-0.797-1.647-0.797c-1.026,0-1.755,0.905-1.755,1.972v0.027
		c0,1.107,0.716,1.998,1.836,1.998c0.689,0,1.162-0.297,1.661-0.77l1.202,1.216C94.373-80.893,93.562-80.339,92.118-80.339z"/>
	<path fill="#677674" d="M101.203-78.501h-3.687v-9.453h3.687c2.971,0,5.023,2.039,5.023,4.699v0.027
		C106.227-80.567,104.174-78.501,101.203-78.501z M104.053-83.228c0-1.675-1.148-2.85-2.85-2.85h-1.607v5.699h1.607
		c1.702,0,2.85-1.148,2.85-2.822V-83.228z"/>
	<path fill="#677674" d="M113.556-78.339c-2.917,0-5.01-2.174-5.01-4.861v-0.027c0-2.688,2.12-4.889,5.037-4.889
		c2.917,0,5.01,2.175,5.01,4.861v0.027C118.593-80.54,116.473-78.339,113.556-78.339z M116.418-83.228
		c0-1.62-1.188-2.971-2.863-2.971c-1.674,0-2.836,1.323-2.836,2.943v0.027c0,1.621,1.188,2.971,2.863,2.971
		c1.674,0,2.835-1.323,2.835-2.943V-83.228z"/>
	<path fill="#677674" d="M127.961-78.501l-4.578-6.01v6.01h-2.053v-9.453h1.917l4.43,5.82v-5.82h2.052v9.453H127.961z"/>
	<path fill="#677674" d="M139.517-78.501l-4.578-6.01v6.01h-2.053v-9.453h1.917l4.43,5.82v-5.82h2.052v9.453H139.517z"/>
	<path fill="#677674" d="M144.442-78.501v-9.453h7.13v1.851h-5.064v1.917h4.456v1.851h-4.456v1.985h5.131v1.85H144.442z"/>
	<path fill="#677674" d="M154.378-78.501v-9.453h2.08v7.562h4.713v1.891H154.378z"/>
	<path fill="#677674" d="M163.625-78.501v-9.453h2.08v7.562h4.713v1.891H163.625z"/>
</g>
<text transform="matrix(1 0 0 1 350.167 336.499)" fill="#262262" font-family="'GothamHTF-Bold'" font-size="13.5">ADRIENNE McDONNELL</text>
<polygon fill="#FFFFFF" points="78.773,-176.629 35.472,-176.629 57.123,-139.128 78.773,-101.628 90.458,-121.868 
	100.424,-139.129 110.959,-157.376 122.075,-176.628 "/>
<polygon opacity="0.7" fill="#00A99F" points="234.191,-214.917 255.841,-252.417 277.493,-214.917 299.144,-177.417 
	255.843,-177.417 212.541,-177.417 "/>
<polygon opacity="0.7" fill="#758988" points="277.679,-215.337 299.329,-252.837 320.979,-215.337 299.329,-177.837 
	256.028,-177.837 "/>
<polygon opacity="0.9" fill="#FFD02C" points="364.329,-215.337 342.679,-252.837 321.028,-215.337 342.679,-177.837 
	385.979,-177.837 "/>
<g>
	<path fill="#677674" d="M215.742-155.658l-0.864-2.12h-3.997l-0.864,2.12h-2.12l4.051-9.521h1.917l4.051,9.521H215.742z
		 M212.879-162.681l-1.256,3.065h2.512L212.879-162.681z"/>
	<path fill="#677674" d="M223.948-155.658h-3.687v-9.453h3.687c2.971,0,5.023,2.039,5.023,4.699v0.027
		C228.972-157.725,226.919-155.658,223.948-155.658z M226.798-160.385c0-1.675-1.148-2.85-2.85-2.85h-1.607v5.699h1.607
		c1.702,0,2.85-1.148,2.85-2.822V-160.385z"/>
	<path fill="#677674" d="M237.449-155.658l-2.025-3.025h-1.634v3.025h-2.08v-9.453h4.321c2.228,0,3.565,1.175,3.565,3.12v0.026
		c0,1.526-0.824,2.485-2.025,2.931l2.309,3.376H237.449z M237.49-161.884c0-0.891-0.621-1.351-1.634-1.351h-2.066v2.715h2.107
		c1.013,0,1.593-0.54,1.593-1.337V-161.884z"/>
	<path fill="#677674" d="M242.456-155.658v-9.453h2.08v9.453H242.456z"/>
	<path fill="#677674" d="M247.788-155.658v-9.453h7.131v1.851h-5.064v1.917h4.456v1.851h-4.456v1.985h5.131v1.85H247.788z"/>
	<path fill="#677674" d="M264.354-155.658l-4.578-6.01v6.01h-2.053v-9.453h1.918l4.43,5.82v-5.82h2.053v9.453H264.354z"/>
	<path fill="#677674" d="M275.911-155.658l-4.578-6.01v6.01h-2.053v-9.453h1.918l4.43,5.82v-5.82h2.052v9.453H275.911z"/>
	<path fill="#677674" d="M280.836-155.658v-9.453h7.13v1.851h-5.063v1.917h4.456v1.851h-4.456v1.985h5.132v1.85H280.836z"/>
	<path fill="#677674" d="M303.1-155.658v-6.171l-2.66,4.037h-0.054l-2.634-3.997v6.131h-2.039v-9.453h2.241l2.485,3.997l2.485-3.997
		h2.24v9.453H303.1z"/>
	<path fill="#677674" d="M311.522-157.496c-2.174,0-3.768-1.675-3.768-3.74v-0.027c0-2.066,1.58-3.768,3.795-3.768
		c1.363,0,2.215,0.459,2.889,1.215l-1.256,1.351c-0.459-0.486-0.918-0.797-1.646-0.797c-1.027,0-1.756,0.905-1.756,1.972v0.027
		c0,1.107,0.716,1.998,1.836,1.998c0.689,0,1.162-0.297,1.662-0.77l1.201,1.216C313.777-158.05,312.968-157.496,311.522-157.496z"/>
	<path fill="#677674" d="M320.608-155.658h-3.688v-9.453h3.688c2.971,0,5.023,2.039,5.023,4.699v0.027
		C325.632-157.725,323.579-155.658,320.608-155.658z M323.458-160.385c0-1.675-1.148-2.85-2.85-2.85h-1.607v5.699h1.607
		c1.701,0,2.85-1.148,2.85-2.822V-160.385z"/>
	<path fill="#677674" d="M332.96-155.496c-2.916,0-5.01-2.174-5.01-4.861v-0.027c0-2.688,2.121-4.889,5.037-4.889
		c2.917,0,5.01,2.175,5.01,4.861v0.027C337.997-157.697,335.878-155.496,332.96-155.496z M335.823-160.385
		c0-1.62-1.188-2.971-2.863-2.971c-1.674,0-2.836,1.323-2.836,2.943v0.027c0,1.621,1.189,2.971,2.863,2.971
		c1.675,0,2.836-1.323,2.836-2.943V-160.385z"/>
	<path fill="#677674" d="M347.366-155.658l-4.578-6.01v6.01h-2.053v-9.453h1.918l4.43,5.82v-5.82h2.051v9.453H347.366z"/>
	<path fill="#677674" d="M358.921-155.658l-4.578-6.01v6.01h-2.053v-9.453h1.918l4.43,5.82v-5.82h2.053v9.453H358.921z"/>
	<path fill="#677674" d="M363.847-155.658v-9.453h7.131v1.851h-5.064v1.917h4.455v1.851h-4.455v1.985h5.131v1.85H363.847z"/>
	<path fill="#677674" d="M373.782-155.658v-9.453h2.08v7.562h4.713v1.891H373.782z"/>
	<path fill="#677674" d="M383.03-155.658v-9.453h2.08v7.562h4.713v1.891H383.03z"/>
</g>
<polygon opacity="0.7" fill="#00A99F" points="27.044,41.082 48.694,3.582 70.346,41.082 91.997,78.583 48.696,78.583 5.394,78.583 
	"/>
<polygon opacity="0.7" fill="#758988" points="70.532,40.662 92.182,3.162 113.833,40.662 92.182,78.163 48.881,78.163 "/>
<polygon opacity="0.9" fill="#FFD02C" points="157.182,40.662 135.532,3.162 113.881,40.662 135.532,78.163 178.833,78.163 "/>
<g>
	<path fill="#677674" d="M213.447,34.218l-1.407-3.452h-6.508l-1.411,3.452h-3.452l6.599-15.508h3.123l6.6,15.508H213.447z
		 M208.786,22.782l-2.045,4.989h4.089L208.786,22.782z"/>
	<path fill="#677674" d="M226.815,34.218h-6.004V18.819h6.004c4.84,0,8.182,3.321,8.182,7.655v0.043
		C234.997,30.852,231.655,34.218,226.815,34.218z M231.458,26.518c0-2.727-1.87-4.641-4.643-4.641h-2.617v9.281h2.617
		c2.772,0,4.643-1.868,4.643-4.595V26.518z"/>
	<path fill="#677674" d="M248.809,34.218l-3.302-4.928h-2.66v4.928h-3.387V18.819h7.038c3.626,0,5.809,1.915,5.809,5.083v0.043
		c0,2.484-1.346,4.05-3.301,4.776l3.762,5.496H248.809z M248.872,24.079c0-1.451-1.011-2.202-2.659-2.202h-3.366V26.3h3.431
		c1.648,0,2.595-0.88,2.595-2.179V24.079z"/>
	<path fill="#677674" d="M256.963,34.218V18.819h3.389v15.398H256.963z"/>
	<path fill="#677674" d="M265.646,34.218V18.819h11.617v3.015h-8.248v3.122h7.258v3.016h-7.258v3.232h8.355v3.014H265.646z"/>
	<path fill="#677674" d="M292.632,34.218l-7.455-9.789v9.789h-3.343V18.819h3.123l7.214,9.479v-9.479h3.345v15.398H292.632z"/>
	<path fill="#677674" d="M311.459,34.218L304,24.429v9.789h-3.345V18.819h3.123l7.219,9.479v-9.479h3.341v15.398H311.459z"/>
	<path fill="#677674" d="M319.48,34.218V18.819h11.614v3.015h-8.248v3.122h7.258v3.016h-7.258v3.232h8.358v3.014H319.48z"/>
	<path fill="#677674" d="M212.702,63.188V53.14l-4.335,6.576h-0.086l-4.293-6.512v9.983h-3.319V47.792h3.646l4.052,6.512
		l4.048-6.512h3.649v15.396H212.702z"/>
	<path fill="#677674" d="M226.42,60.194c-3.539,0-6.138-2.726-6.138-6.092v-0.045c0-3.365,2.574-6.138,6.182-6.138
		c2.22,0,3.608,0.751,4.705,1.981l-2.045,2.198c-0.747-0.79-1.494-1.295-2.682-1.295c-1.674,0-2.861,1.472-2.861,3.208v0.045
		c0,1.804,1.167,3.257,2.992,3.257c1.123,0,1.892-0.487,2.706-1.256l1.957,1.983C230.094,59.297,228.773,60.194,226.42,60.194z"/>
	<path fill="#677674" d="M241.219,63.188h-6.005V47.792h6.005c4.84,0,8.185,3.322,8.185,7.654v0.043
		C249.403,59.824,246.059,63.188,241.219,63.188z M245.86,55.489c0-2.727-1.87-4.641-4.642-4.641h-2.618v9.282h2.618
		c2.771,0,4.642-1.868,4.642-4.597V55.489z"/>
	<path fill="#677674" d="M261.339,63.453c-4.751,0-8.16-3.541-8.16-7.919v-0.045c0-4.375,3.454-7.962,8.206-7.962
		c4.753,0,8.159,3.543,8.159,7.919v0.043C269.544,59.868,266.092,63.453,261.339,63.453z M266.002,55.489
		c0-2.637-1.932-4.84-4.663-4.84c-2.726,0-4.619,2.161-4.619,4.797v0.043c0,2.64,1.937,4.839,4.665,4.839
		c2.728,0,4.617-2.152,4.617-4.794V55.489z"/>
	<path fill="#677674" d="M284.805,63.188l-7.455-9.789v9.789h-3.347V47.792h3.125l7.217,9.479v-9.479h3.34v15.396H284.805z"/>
	<path fill="#677674" d="M303.627,63.188l-7.457-9.789v9.789h-3.347V47.792h3.128l7.214,9.479v-9.479h3.346v15.396H303.627z"/>
	<path fill="#677674" d="M311.65,63.188V47.792h11.615v3.016h-8.249v3.119h7.255v3.018h-7.255v3.23h8.359v3.013H311.65z"/>
	<path fill="#677674" d="M327.835,63.188V47.792h3.388v12.32h7.676v3.075H327.835z"/>
	<path fill="#677674" d="M342.898,63.188V47.792h3.388v12.32h7.677v3.075H342.898z"/>
</g>
</svg>
