<?xml version="1.0" encoding="utf-8"?>
<!-- Generator: Adobe Illustrator 16.0.0, SVG Export Plug-In . SVG Version: 6.00 Build 0)  -->
<!DOCTYPE svg PUBLIC "-//W3C//DTD SVG 1.1//EN" "http://www.w3.org/Graphics/SVG/1.1/DTD/svg11.dtd">
<svg version="1.1" id="Layer_1" xmlns="http://www.w3.org/2000/svg" xmlns:xlink="http://www.w3.org/1999/xlink" x="0px" y="0px"
	 width="1400px" height="1400px" viewBox="0 0 1400 1400" enable-background="new 0 0 1400 1400" xml:space="preserve">
<path fill="#E2E260" d="M1393.791,696.127c0,382.801-310.326,693.127-693.126,693.127c-382.803,0-693.129-310.326-693.129-693.127
	C7.536,313.326,317.862,3,700.665,3C1083.465,3,1393.791,313.326,1393.791,696.127z"/>
<g>
	<path fill="#C6C34A" d="M700.5,1386.477c-382.098,0-692.955-310.856-692.955-692.953C7.546,311.427,318.403,0.57,700.5,0.57
		c382.096,0,692.953,310.857,692.953,692.954C1393.453,1075.62,1082.597,1386.477,700.5,1386.477z M700.5,19.926
		c-371.424,0-673.599,302.175-673.599,673.598s302.175,673.595,673.599,673.595c371.423,0,673.595-302.172,673.595-673.595
		S1071.924,19.926,700.5,19.926z"/>
	<path fill="#C6C34A" d="M299.549,476.212c-32.336,41.21-37.645,91.023-11.852,111.262c25.789,20.237,72.91,3.235,105.248-37.971
		c8.666-11.048,18.279-15.419,22.984-26.966c12.851-31.533,7.748-69.481-11.131-84.292c-19.613-15.393-61.117-9.919-89.52,12.029
		C306.333,457.188,307.295,466.343,299.549,476.212z"/>
	<path fill="#C6C34A" d="M255.914,574.153c0,0-15.896-40.061-11.614-52.909c23.229-69.682,36.133-63.229,36.133-63.229l10.323-7.743
		l6.453-9.033c0,0,37.422-25.808,82.586-25.808c-61.94,14.194-81.297,34.841-81.297,34.841s-24.517,25.808-38.712,70.971
		C256.041,533.968,255.914,574.153,255.914,574.153z"/>
	<path fill="#C6C34A" d="M1079.988,209.581c-18.87,5.832-31.564-4.69-56.13-24.782c-27.257-22.294-38.149-43.479-29.84-51.972
		c6.454-2.581,29.681-1.292,59.921,21.203C1079.406,172.971,1089.511,190.894,1079.988,209.581z"/>
	<ellipse fill="#C6C34A" cx="889.483" cy="431.563" rx="27.099" ry="17.421"/>
	<path fill="#C6C34A" d="M928.839,298.651c0,19.599-13.546,25.162-65.161,40.647c-20.649,1.291-98.721-21.048-98.721-40.647
		c0-19.6,34.198-44.521,62.586-44.521C872.796,254.131,928.839,279.052,928.839,298.651z"/>
	<path fill="#C6C34A" d="M710.116,184.448c-15.263-36.489-78.715-28.388-159.184-11.048
		c-47.283,18.791-123.193,90.696-107.931,127.186c34.84,49.037,126.46,11.614,163.203,4.958
		C686.89,276.069,725.603,199.934,710.116,184.448z"/>
	<path fill="#C6C34A" d="M1125.422,480.235c-5.729,12.271-32.422,7.197-53.981-2.866c-21.562-10.057-29.818-21.294-24.094-33.562
		c5.728-12.272,26.532-10.542,49.404-4.004C1124.348,447.691,1128.219,470.918,1125.422,480.235z"/>
	<g>
		<g>
			<path fill="#C6C34A" d="M1333.389,523.831c0,0-14.167-94.205-63.18-149.684c-3.418-3.868,4.762-18.662,0-20.647
				c-30.995-12.912-41.913-56.588-58.07-73.552c-16.92-17.77-55.611-48.492-76.137-61.941c-8.812-5.775-37.417-19.353-37.417-19.353
				s23.351,43.382,12.905,51.618c-36.141-1.295-82.177-35.646-117.449-68.401c-54.198-50.326-52.897-70.97,25.829-64.512
				c-40.021-20.655-83.897-42.592-138.076-56.778c-19.946-5.222-56.844-27.187-77.424-28.389
				c-25.289-1.477-76.201,18.229-100.654,11.613c-23.387-6.328-25.824-19.364-96.779,5.162c-22.055,7.624-70.746,1.728-92.91,9.034
				c-9.048,2.983-24.62,14.757-33.552,18.065c-104.541,38.705-131.613,70.967-131.613,70.967s143.221-69.686-60.649,107.104
				c-6.021,5.22-21.083,11.551-27.098,16.776c-25.148,21.843-77.44,92.906-95.493,92.91c-3.99,0-3.871-15.484-3.871-15.484
				s-24.532,3.867,34.841-55.488c2.165-2.163,9.166,5.708,11.614,3.871c46.441-34.843,152.543-113.109,130.318-125.172
				c-118.718,20.646-99.53,69.54-131.607,94.202c-33.566,25.806-82.601,81.296-107.106,163.884
				c-5.055,17.034-16.788,20.645-34.852,61.939c-1.993,4.556-4.25,18.646-3.222,23.338c23.897,109.034,24.612,177.09,41.934,216.682
				c-6.454-141.949,51.615-218.082,51.615-218.082l25.81-65.81c0,0,169.023-207.766,87.728-85.176
				c6.614-6.553,109.684-110.976-9.012,36.14c9.991,5.239,112.244-127.759,38.691-23.236c16.179-14.511,52.906-69.682,65.832-56.77
				c6.882-5.931,39.982-37.429,36.132-3.871c4.207-0.036,13.39,1.206,16.776-1.292c-15.507-37.429,107.083-224.54,269.696-161.302
				c29.658,12.898,78.695-2.587,49.038,63.232c8.079,2.212,23.896-9.456,32.261-9.034c9.684,0.49,36.11,14.187,36.11,14.187
				s-25.046,12.609-30.952,19.363c-7.527,8.606-20.33,35.184-12.902,43.876c43.854-95.499,148.397-19.357,148.397-19.357
				s45.143,10.315,51.617,42.584c15.464-10.331-5.162-43.875-5.162-43.875s132.719,27.472,149.689,64.522
				c28.368,61.933,50.001,52.232,60.649,73.554c19.334,38.704,41.563,52.563,54.199,70.971
				c16.751-98.078,100.652,163.883,100.652,163.883l12.902-56.778L1333.389,523.831z M644.33,121.217
				c-60.649-14.195-29.679-40.003-29.679-40.003s-5.162,20.646,33.55,25.808c36.132,0,41.292-21.937,41.292-21.937
				S714.012,117.346,644.33,121.217z M809.502,161.218c-9.98,0-18.066-9.492-18.066-14.838c0-5.345,8.086-9.678,18.066-9.678
				c9.978,0,18.065,4.333,18.065,9.678C827.567,151.727,819.479,161.218,809.502,161.218z M1319.192,598.676
				c-20.646-113.558-25.807-176.79-40.001-184.531c-78.553-42.842-56.782-68.392-56.782-68.392S1338.547,405.113,1319.192,598.676z"
				/>
		</g>
	</g>
	<path fill="#C6C34A" d="M1125.633,437.369c-21.934-14.194-34.841-14.194-34.841-14.194s-10.982-9.153-15.484-10.323
		c-7.829-2.034-32.259,2.581-32.259,2.581S1099.827,385.753,1125.633,437.369z"/>
</g>
<g>
	<path fill="#FFFFFF" d="M372.992,607.703h-12.874l1.669-164.264h12.159l0.715-0.238v0.238v0.239l47.682,140.423l49.351-144.238
		l11.92,4.292h0.954l-1.907,162.833h-12.874l1.431-126.357L428.064,606.75l-0.564,0.75l-10.879,0.203L374.184,482.3L372.992,607.703
		z"/>
	<path fill="#FFFFFF" d="M552.034,608.18H539.16l0.477-166.648h12.874L552.034,608.18z"/>
	<path fill="#FFFFFF" d="M674.573,439.625l10.013,7.629l-55.072,73.191l60.556,82.728l-10.49,7.629l-61.033-83.205l-1.192,82.013
		H604.48l2.623-169.271h12.874l-1.192,72.953L674.573,439.625z"/>
	<path fill="#FFFFFF" d="M742.174,612.17l-0.132-5.182l-0.715-164.979l-0.154-5.007h6.114h59.364v12.874h-52.45l0.238,65.801
		l49.112-0.477v12.874l-48.874,0.477l0.238,70.807l53.165,0.477v12.874l-58.887-0.477L742.174,612.17z"/>
	<path fill="#FFFFFF" d="M1011.676,520.922l11.921,4.292l-16.689,49.351l19.073,29.563l-10.967,7.152l-13.351-20.98
		c-1.114,2.861-2.385,5.405-3.815,7.629c-4.611,7.312-10.489,12.554-17.642,15.735c-7.312,3.178-14.424,4.209-21.338,3.099
		c-6.914-1.114-13.351-4.213-19.312-9.298c-5.96-5.084-10.054-11.682-12.277-19.788c-4.612-17.005-3.814-32.104,2.384-45.298
		c4.291-8.899,11.999-18.197,23.126-27.894c-0.478-0.477-0.876-1.032-1.192-1.669l-0.477-1.192l-0.716-0.954l0.239-0.238
		l-4.53-8.821c-2.86-5.562-4.769-9.536-5.722-11.92c-4.135-10.169-4.451-19.944-0.954-29.324
		c2.701-7.309,6.914-12.952,12.636-16.927c5.722-3.971,11.921-5.8,18.597-5.483c6.831,0.32,12.714,2.902,17.642,7.749
		c4.925,4.85,7.868,11.406,8.821,19.668c0.634,5.882,0.357,11.366-0.834,16.45c-1.192,5.089-3.379,9.775-6.557,14.066
		c-3.182,4.292-6.161,7.908-8.94,10.848c-2.782,2.943-6.478,6.318-11.086,10.132l28.132,43.867L1011.676,520.922z M992.842,576.71
		l-32.9-51.496c-9.22,8.106-15.419,15.657-18.597,22.649c-4.928,10.013-5.483,22.172-1.668,36.477
		c1.907,7.312,5.878,12.718,11.92,16.212c5.878,3.658,12.196,4.649,18.953,2.98c6.754-1.669,12.196-5.759,16.331-12.278
		C989.266,587.599,991.251,582.752,992.842,576.71z M962.325,505.426l0.477,0.477c8.106-7.152,13.947-13.47,17.523-18.954
		s4.888-12.196,3.934-20.146c-0.637-5.245-2.306-9.179-5.007-11.801c-2.704-2.623-5.804-4.09-9.298-4.411
		c-3.658-0.156-7.234,0.954-10.729,3.338c-3.498,2.384-6.12,5.96-7.867,10.729c-2.384,6.358-2.067,13.112,0.953,20.265
		c0.954,2.544,2.623,6.12,5.007,10.729C959.703,499.942,961.371,503.202,962.325,505.426z"/>
	<path fill="#FFFFFF" d="M210.04,894.985l-12.397-3.337l43.39-165.218l6.804-0.261l7.978-0.454l41.721,165.933l-12.397,3.337
		l-11.92-47.682l-51.02,0.954L210.04,894.985z M269.881,834.43l-21.457-85.589l-22.648,86.543L269.881,834.43z"/>
	<path fill="#FFFFFF" d="M356.897,723.331c1.11,0,4.131-0.037,9.06-0.119c4.925-0.078,8.464-0.078,10.609,0
		c2.146,0.082,5.521,0.32,10.132,0.716c4.608,0.398,8.344,1.035,11.205,1.907c2.861,0.875,6.117,2.146,9.775,3.814
		c3.654,1.669,6.914,3.777,9.775,6.317c8.422,7.312,14.979,17.248,19.668,29.802c4.687,12.557,7.35,25.908,7.987,40.053
		c0.633,14.304-0.715,27.976-4.053,41.006c-3.498,13.034-8.981,23.685-16.45,31.947c-13.828,15.418-36,21.852-66.516,19.311
		c-1.751-0.16-3.182-0.834-4.292-2.026c-1.114-1.192-1.669-2.581-1.669-4.172h-0.238h-0.238l-0.477-159.258
		c-0.477-0.793-0.715-1.747-0.715-2.86c0-1.747,0.633-3.256,1.907-4.53C353.638,723.969,355.147,723.331,356.897,723.331z
		 M364.05,736.205l0.477,149.482c23.364,1.114,40.209-4.053,50.542-15.496c6.039-6.832,10.568-15.933,13.589-27.298
		c3.018-11.362,4.292-23.483,3.814-36.357c-0.637-12.874-3.021-24.795-7.152-35.762c-4.135-10.967-9.618-19.389-16.45-25.271
		c-3.498-3.017-7.949-5.282-13.351-6.794c-5.405-1.509-10.054-2.344-13.947-2.504C377.676,736.049,371.835,736.049,364.05,736.205z"
		/>
	<path fill="#FFFFFF" d="M532.842,800.576c6.675,0.16,12.714-1.39,18.119-4.649c5.401-3.256,9.455-7.391,12.159-12.397
		c2.701-5.006,3.893-10.729,3.576-17.165c-0.32-6.438-2.466-12.595-6.437-18.477c-4.452-6.355-11.842-10.17-22.172-11.444
		c-5.722-0.633-13.351-0.555-22.887,0.239l-0.238,155.681h-12.875l0.239-157.35c-0.797-0.954-1.274-2.064-1.431-3.338
		c-0.16-1.907,0.317-3.535,1.431-4.888c1.11-1.349,2.541-2.104,4.291-2.265c15.258-1.431,26.225-1.669,32.9-0.715
		c14.145,1.59,24.556,7.233,31.232,16.927c4.768,6.836,7.629,14.147,8.583,21.934c0.954,7.789,0.157,14.982-2.384,21.576
		c-2.544,6.597-6.598,12.438-12.159,17.522c-5.565,5.089-12.081,8.505-19.549,10.252l33.616,77.006l-11.92,5.245l-35.046-80.82
		c-1.591-0.157-2.943-0.872-4.053-2.146c-1.114-1.271-1.669-2.779-1.669-4.53c0-1.747,0.674-3.219,2.026-4.41
		C529.542,801.172,531.091,800.576,532.842,800.576z"/>
	<path fill="#FFFFFF" d="M647.275,894.271h-12.874l0.477-166.647h12.874L647.275,894.271z"/>
	<path fill="#FFFFFF" d="M699.839,898.174l-0.117-5.096L699.008,728.1l0.333-4.924l5.627-0.083h59.364v12.874h-52.45l0.238,65.801
		l49.112-0.477v12.874l-48.874,0.477l0.238,70.808l53.165,0.477V898.8l-58.887-0.477L699.839,898.174z"/>
	<path fill="#FFFFFF" d="M832.275,891.887h-12.874l-0.954-162.834l6.385-1.378l6.729-1.244l64.847,137.801l0.478-135.894h12.874
		l-0.716,166.887l-5.045,1.45l-5.922,1.172l-66.516-141.615L832.275,891.887z"/>
	<path fill="#FFFFFF" d="M976.035,891.887h-12.874l-0.954-162.834l7.293-1.543l5.82-1.079l64.847,137.801l0.478-135.894h12.874
		l-0.716,166.887l-4.971,1.118l-5.996,1.504L975.32,756.231L976.035,891.887z"/>
	<path fill="#FFFFFF" d="M1105.665,898.342l-0.175-5.264l-0.715-164.979l-0.108-4.926l6.068-0.081h59.364v12.874h-52.45
		l0.238,65.801l49.112-0.477v12.874l-48.874,0.477l0.238,70.808l53.165,0.477V898.8l-58.887-0.477L1105.665,898.342z"/>
</g>
</svg>
