<?xml version="1.0" standalone="no"?>
<!DOCTYPE svg PUBLIC "-//W3C//DTD SVG 1.1//EN" "http://www.w3.org/Graphics/SVG/1.1/DTD/svg11.dtd" >
<svg>
<metadata>
Created by FontForge 20090914 at Sun Jul  3 15:46:35 2016
 By www-data
LDF
</metadata>
<defs>
<font id="RedWood-Thick" horiz-adv-x="558" >
  <font-face 
    font-family="RedWood Thick"
    font-weight="700"
    font-stretch="normal"
    units-per-em="1000"
    panose-1="2 0 6 3 0 0 0 0 0 0"
    ascent="800"
    descent="-200"
    x-height="476"
    cap-height="699"
    bbox="-22.999 -250.2 668 776.196"
    underline-thickness="50"
    underline-position="-100"
    unicode-range="U+0020-U+3000"
  />
<missing-glyph horiz-adv-x="364" 
d="M66 33h199v600h-199v-600zM33 0v666h265v-666h-265z" />
    <glyph glyph-name=".notdef" horiz-adv-x="364" 
d="M66 33h199v600h-199v-600zM33 0v666h265v-666h-265z" />
    <glyph glyph-name="space" unicode=" " horiz-adv-x="300" 
 />
    <glyph glyph-name="exclam" unicode="!" horiz-adv-x="319" 
d="M104 700h54l3 -503h-54zM107 68l54 2l3 -75l-54 -2z" />
    <glyph glyph-name="quotedbl" unicode="&#x22;" horiz-adv-x="378" 
d="M62 696h54l3 -233h-54zM168 696h54l1 -222h-54z" />
    <glyph glyph-name="numbersign" unicode="#" horiz-adv-x="456" 
d="M187 271l10 150l-59 1l-12 -151h61zM28 217v54h44l12 152h-41v54l45 -1l17 225l54 -4l-17 -221l59 -1l15 217l54 -4l-15 -214h45v-54l-49 1l-10 -150h38v-54h-42l-15 -222l-54 4l15 218h-61l-17 -225l-54 4l17 221h-40z" />
    <glyph glyph-name="dollar" unicode="$" horiz-adv-x="543" 
d="M237 313l0.000976562 -269l20 4c26 7.33301 46 20.833 60 40.5s19 45.167 15 76.5c-2.66699 20 -8.33398 42 -17.001 66s-18.334 42.667 -29.001 56c-3.33301 4 -6.66602 7.33301 -9.99902 10s-6 4.5 -8 5.5s-6.33301 2.5 -13 4.5s-12.667 4 -18 6zM183.001 401v251.999
c-4.66699 -1.33301 -9.33398 -3.33301 -14.001 -6c-22.667 -10 -40 -27.167 -52 -51.5s-15.667 -54.166 -11 -89.499c4.66699 -39.333 30.334 -74.333 77.001 -105zM183.001 774.999l54.001 0.00292969v-63c44.667 -4 86.334 -21.667 125.001 -53
c6 -4.66699 9.33301 -10.667 10 -18s-1.33301 -14 -6 -20s-10.667 -9.33301 -18 -10s-14 1.33301 -20 6c-28.667 23.333 -59 36.666 -91 39.999v-285l13 -6c2.66699 -1.33301 8.33398 -3.33301 17.001 -6s15.667 -5.16699 21 -7.5s11.833 -6.33301 19.5 -12
s14.5 -12.167 20.5 -19.5c14 -18 26.333 -41.5 37 -70.5s17.667 -55.5 21 -79.5c5.33301 -45.333 -3 -83.333 -25 -114s-52.333 -51 -91 -61c-10.667 -2.66699 -21.667 -4.66699 -33 -6v-69h-54v71c-49.333 7.33301 -91.333 28.333 -126 63
c-5.33301 5.33301 -8 11.666 -8 18.999s2.66699 13.666 8 18.999s11.666 8 18.999 8s13.666 -2.66699 18.999 -8c24 -24 53.333 -39.333 88 -46v291c-78.667 42.667 -122.334 96 -131.001 160c-6 46.667 -0.333008 87.5 17 122.5s43 60.167 77 75.5
c12 5.33301 24.333 9.33301 37 12v67z" />
    <glyph glyph-name="percent" unicode="%" horiz-adv-x="703" 
d="M440 301c-22 -12.667 -39.1689 -32.9971 -51.502 -60.9971s-18.166 -59 -17.499 -93c0.666992 -36.667 7.66699 -67 21 -91c12.667 -21.333 27.667 -32 45 -32c12.667 0 23.334 7.33301 32.001 22c10.667 16.667 18 40.667 22 72
c3.33301 31.333 3.83301 60.666 1.5 87.999s-6.5 47 -12.5 59c-4.66699 9.33301 -9 15.666 -13 18.999c-2 1.33301 -3.83301 2.66602 -5.5 3.99902s-4.5 3.33301 -8.5 6zM467.998 347.003c21.333 -13.333 32.335 -20.333 33.002 -21c10 -8 19 -20.333 27 -37
c8.66699 -18 14.667 -44 18 -78c3.33301 -33.333 2.66602 -66.666 -2.00098 -99.999c-5.33301 -38.667 -15 -69.667 -29 -93c-19.333 -32.667 -45.333 -48.667 -78 -48c-38.667 0.666992 -69.334 20.667 -92.001 60c-18 31.333 -27.333 70 -28 116c-0.666992 30 3 58 11 84
c7.33301 27.333 20.333 53 39 77s41.667 41 69 51c14 5.33301 24.667 1.66602 32 -11.001zM165 726.003c6 1.33301 11.9961 0.666992 17.9961 -2c0.666992 0 4.33398 -1.33301 11.001 -4s13.5 -5.66699 20.5 -9s12.833 -7 17.5 -11c22 -17.333 36.667 -46 44 -86
c6.66699 -34 6.33398 -70 -0.999023 -108c-6.66699 -40 -19.667 -73 -39 -99c-23.333 -32.667 -52.666 -49 -87.999 -49c-40 0 -70.333 20 -91 60c-14.667 30 -21.667 67.667 -21 113c0.666992 42.667 7.66699 81.667 21 117c16.667 41.333 38.667 67 66 77
c8 3.33301 18 4.33301 30 3l10 -1c0.666992 -0.666992 1.33398 -1 2.00098 -1zM389.996 727.004l50 -18l-261 -739l-50 18zM166.996 672.004c-3.33301 0 -7.33203 0.334961 -11.999 1.00195l-3 1h-6l-5 1c-12 -4.66699 -23 -20.334 -33 -47.001
c-11.333 -30 -17.333 -62.333 -18 -97c-0.666992 -36.667 4.66602 -66.334 15.999 -89.001c10 -20 24 -30 42 -30c16.667 0 31.667 9 45 27c14 19.333 23.667 45 29 77c6 31.333 6.33301 61 1 89c-4.66699 26 -13 43.667 -25 53c-2.66699 2 -5.16699 3.66699 -7.5 5
s-5.83301 3 -10.5 5z" />
    <glyph glyph-name="ampersand" unicode="&#x26;" horiz-adv-x="613" 
d="M319 132l-137.999 216.002c-38.667 -34 -64.667 -65.667 -78 -95c-20.667 -42 -23 -93 -7 -153c8 -30.667 24.667 -53.334 50 -68.001c24.667 -15.333 51.167 -19.5 79.5 -12.5s51.166 24.167 68.499 51.5c10 15.333 18.333 35.666 25 60.999zM191.001 431.002l2 -2
c34 30 58.5 56.5 73.5 79.5s20.5 51.167 16.5 84.5c-2.66699 22 -9.66699 38.5 -21 49.5s-24.333 17.167 -39 18.5c-15.333 0.666992 -30.333 -4 -45 -14s-25.667 -25 -33 -45c-10 -26.667 -8.66699 -55 4 -85c4 -10.667 11 -25.667 21 -45c10 -18 17 -31.667 21 -41z
M398.001 366.002l49.998 -18.0029l-70 -207l80 -124l-46 -30l-56 88c-4.66699 -12 -10 -22.667 -16 -32c-19.333 -30.667 -44 -52.667 -74 -66c-30.667 -13.333 -60.5 -17.666 -89.5 -12.999s-56 17.667 -81 39s-42.167 49 -51.5 83c-19.333 71.333 -16 134.666 10 189.999
c18 37.333 50.333 76.333 97 117c-2 2 -3.66699 4.33301 -5 7l-2 5l-3 4l1 1l-19 37c-12 23.333 -20 40 -24 50c-17.333 42.667 -18.666 83.667 -3.99902 123c11.333 30.667 29 54.334 53 71.001s50 24.334 78 23.001c28.667 -1.33301 53.334 -12.166 74.001 -32.499
s33 -47.833 37 -82.5c2.66699 -24.667 1.5 -47.667 -3.5 -69s-14.167 -41 -27.5 -59s-25.833 -33.167 -37.5 -45.5s-27.167 -26.5 -46.5 -42.5l118 -184z" />
    <glyph glyph-name="quotesingle" unicode="'" horiz-adv-x="280" 
d="M69 693h54l2 -216h-54z" />
    <glyph glyph-name="parenleft" unicode="(" horiz-adv-x="358" 
d="M199 705c-6.66699 -22 -19.0039 -50.6689 -37.0039 -86.002c-18 -37.333 -30 -63.666 -36 -78.999c-25.333 -72.667 -38.666 -148.334 -39.999 -227.001s7.83398 -154.667 27.501 -228s48.5 -145.666 86.5 -216.999c3.33301 -6.66699 3.83301 -13.667 1.5 -21
s-6.66602 -12.666 -12.999 -15.999s-13.166 -3.83301 -20.499 -1.5s-12.666 6.5 -15.999 12.5c-40 75.333 -70.333 151.666 -91 228.999s-30.334 158.333 -29.001 243s16 166 44 244c6 18 18.667 46.333 38 85c17.333 34 28.333 60 33 78
c2 6.66699 6.33301 11.834 13 15.501s13.5 4.5 20.5 2.5s12.333 -6.33301 16 -13s4.5 -13.667 2.5 -21z" />
    <glyph glyph-name="parenright" unicode=")" horiz-adv-x="356" 
d="M69 732c54 -93.333 91.667 -188.333 113 -285s24.5 -195.5 9.5 -296.5s-49.5 -197.5 -103.5 -289.5c-3.33301 -6 -8.66602 -10 -15.999 -12s-14.166 -1.16699 -20.499 2.5s-10.5 9.16699 -12.5 16.5s-1 14.333 3 21c50 85.333 82 175 96 269s11 186.5 -9 277.5
s-55.333 181.167 -106 270.5c-4 6 -5 12.667 -3 20s6.16699 12.833 12.5 16.5s13.166 4.5 20.499 2.5s12.666 -6.33301 15.999 -13z" />
    <glyph glyph-name="asterisk" unicode="*" horiz-adv-x="516" 
d="M168 688h54v-124l125 33l14 -52l-124 -32l79 -130l-46 -28l-71 116l-73 -106l-44 30l76 111l-114 28l12 52l112 -27v129z" />
    <glyph glyph-name="plus" unicode="+" horiz-adv-x="698" 
d="M106 278v54l193 -4v207h54l-1 -208l190 -3v-54l-190 4v-216h-54l1 217z" />
    <glyph glyph-name="comma" unicode="," horiz-adv-x="288" 
d="M80 101l52 -14l-60 -222l-52 14z" />
    <glyph glyph-name="hyphen" unicode="-" horiz-adv-x="327" 
d="M50 233v54h121v-54h-121z" />
    <glyph glyph-name="period" unicode="." horiz-adv-x="267" 
d="M57 48l54 2l1 -38l-54 -2z" />
    <glyph glyph-name="slash" unicode="/" horiz-adv-x="419" 
d="M211 724l52 -12l-178 -760l-52 12z" />
    <glyph glyph-name="zero" unicode="0" horiz-adv-x="545" 
d="M204 727c5.33301 4 11.6719 5.66504 19.0049 4.99805c53.333 -6 94.333 -42.667 123 -110c22.667 -53.333 36.667 -121.666 42 -204.999c4 -74 0.666992 -147 -10 -219c-10.667 -72.667 -26.334 -125.334 -47.001 -158.001c-4 -5.33301 -8.33301 -10.666 -13 -15.999
s-8.33398 -9 -11.001 -11l-13 -10c-6 -4.66699 -9.66699 -7.66699 -11 -9l-1 -2l-3 -2l-4 -4c-8 -8 -16 -13 -24 -15c-52 -14 -97.667 4.66699 -137 56c-26 34.667 -44.667 76.334 -56 125.001c-10 42.667 -17 90.667 -21 144c-4 54 -3 112.667 3 176
c3.33301 30 8.66602 57.833 15.999 83.5s17.166 50.5 29.499 74.5s28.666 44.5 48.999 61.5s43.5 28.833 69.5 35.5zM223.006 675.998c-71.333 -15.333 -114.668 -85.332 -130.001 -209.999c-5.33301 -60 -6.16602 -115.333 -2.49902 -166s10.167 -96 19.5 -136
c10 -41.333 25.667 -76 47 -104c24 -32 50 -44.333 78 -37c0.666992 0 1.33398 0.333008 2.00098 1c6.66699 7.33301 10.667 11.333 12 12l13 10l10 8l6 6c2.66699 2.66699 5 6 7 10c17.333 25.333 30.666 70.666 39.999 135.999c10 68.667 13 138 9 208
c-4.66699 77.333 -17 139.333 -37 186c-19.333 44 -43 69.667 -71 77c-1.33301 -0.666992 -2.33301 -1 -3 -1z" />
    <glyph glyph-name="one" unicode="1" horiz-adv-x="430" 
d="M111 556l-32 42l151 116l9 -12h36v-711h-54v649z" />
    <glyph glyph-name="two" unicode="2" horiz-adv-x="517" 
d="M49 36c15.333 30 40.002 70.335 74.002 121.002c48 73.333 76 116.666 84 129.999c64.667 104 98 186.333 100 247c1.33301 39.333 -6.5 70 -23.5 92s-37.833 34.667 -62.5 38s-48.834 -2.66699 -72.501 -18s-40.834 -39.333 -51.501 -72
c-2.66699 -6.66699 -7.33398 -11.667 -14.001 -15s-13.5 -3.83301 -20.5 -1.5s-12.167 6.83301 -15.5 13.5s-4 13.667 -2 21c15.333 44 40.333 77.333 75 100c34 22 70 30.333 108 25c40 -5.33301 72.667 -24.333 98 -57c24.667 -32.667 36.334 -75.334 35.001 -128.001
c-2 -70 -38 -161.333 -108 -274l-86 -130c-22 -34 -39 -61.333 -51 -82l224 -1v-54l-281 1v9c-6 4 -10 9.33301 -12 16s-1.33301 13 2 19z" />
    <glyph glyph-name="three" unicode="3" horiz-adv-x="546" 
d="M75 115c18.667 -48.667 50.6592 -74.8301 95.9922 -78.4971s88 13.5 128 51.5c29.333 28.667 41.666 67.334 36.999 116.001s-23 86.334 -55 113.001l-13 9c-3.33301 2.66699 -7.16602 4.83398 -11.499 6.50098s-8.16602 2.66699 -11.499 3
s-9.16602 1.16602 -17.499 2.49902s-15.833 3 -22.5 5c-2 0 -3.66699 0.333008 -5 1l-11 -2c-7.33301 -0.666992 -14 1.16602 -20 5.49902s-9.5 10.166 -10.5 17.499s0.666992 14 5 20s10.166 9.66699 17.499 11l33 5c14.667 2 23.334 3.66699 26.001 5
c24 11.333 42 28.666 54 51.999s17.5 48.666 16.5 75.999s-7.83301 53.333 -20.5 78c-18.667 36.667 -43 57.334 -73 62.001c-36 5.33301 -74.667 -14.334 -116 -59.001c-5.33301 -5.33301 -11.666 -8.16602 -18.999 -8.49902s-13.666 2 -18.999 7
s-8.16602 11.167 -8.49902 18.5s1.83398 13.666 6.50098 18.999c54.667 59.333 109.334 84.666 164.001 75.999c24.667 -4 46.667 -14.333 66 -31c19.333 -16 35 -36 47 -60c14 -28 22.667 -57.333 26 -88c2.66699 -32 -1.83301 -64 -13.5 -96s-31.167 -57.667 -58.5 -77
c8 -4.66699 15.667 -10 23 -16c28 -23.333 48.667 -53.833 62 -91.5s16.833 -76.834 10.5 -117.501s-23.166 -74 -50.499 -100c-24.667 -23.333 -51.834 -41 -81.501 -53s-59.167 -17 -88.5 -15c-32 2.66699 -60.5 13.667 -85.5 33s-43.833 46 -56.5 80
c-2.66699 7.33301 -2.5 14.333 0.5 21s8 11.334 15 14.001s13.833 2.5 20.5 -0.5s11.334 -7.83301 14.001 -14.5z" />
    <glyph glyph-name="four" unicode="4" horiz-adv-x="549" 
d="M87 218l177 3l-3 360zM45 187l-26 13l242 505l45 -22h8l4 -461l74 2l2 -54l-75 -1l1 -161h-54l-1 159l-219 -4z" />
    <glyph glyph-name="five" unicode="5" horiz-adv-x="524" 
d="M340 707l-1.99707 -54l-202 5v-219c68 24 122.667 15.333 164 -26c37.333 -37.333 59.666 -98.666 66.999 -183.999c5.33301 -64.667 -2.33398 -119.667 -23.001 -165c-28.667 -63.333 -77.334 -95 -146.001 -95c-33.333 0 -61.5 8.33301 -84.5 25
s-43.833 39.334 -62.5 68.001c-4.66699 6 -6.16699 12.667 -4.5 20s5.5 13.166 11.5 17.499s12.667 5.66602 20 3.99902s13 -5.5 17 -11.5c16 -23.333 31.667 -40.666 47 -51.999s34 -17 56 -17c46 0 78.333 21 97 63c16.667 37.333 22.667 83.666 18 138.999
c-6 72 -23 122 -51 150c-28.667 28 -70.667 30 -126 6v-1h-3l-9 -4c-11.333 -5.33301 -21.333 -4 -30 4h-12v313h33l1 20z" />
    <glyph glyph-name="six" unicode="6" horiz-adv-x="555" 
d="M112 334l-5.99902 -11.001c-24.667 -80 -28 -146.333 -10 -199c8 -21.333 20.667 -40.166 38 -56.499s37 -27.5 59 -33.5c47.333 -14 85.666 -2 114.999 36c16 22 27.167 52.333 33.5 91s5.83301 77 -1.5 115c-8 38.667 -22 68 -42 88
c-20.667 21.333 -47.334 29.666 -80.001 24.999c-4.66699 -0.666992 -9.16699 -1.5 -13.5 -2.5s-9 -2.66699 -14 -5s-9.16699 -4.16602 -12.5 -5.49902s-8 -4 -14 -8l-12 -8l-15 -11c-7.33301 -5.33301 -12.333 -8.66602 -15 -9.99902
c-3.33301 -2.66699 -6.66602 -4.33398 -9.99902 -5.00098zM243.001 704.999l48 -24.001l-132 -254c18 8 35.667 13.333 53 16c49.333 6 90.666 -7.66699 123.999 -41c28 -27.333 47 -65.666 57 -114.999c9.33301 -42 10 -86.833 2 -134.5s-23 -85.834 -45 -114.501
c-21.333 -28.667 -48.166 -47.667 -80.499 -57s-62.833 -9 -91.5 1c-30 8.66699 -57 24 -81 46s-41 48 -51 78c-22.667 64.667 -19.667 143.334 9 236.001l1 2c2 8 4.66699 15.667 8 23c2 6 5.66699 10.667 11 14z" />
    <glyph glyph-name="seven" unicode="7" horiz-adv-x="535" 
d="M63 656l-2 54l303 10l1 -30l14 -5l-239 -686l-50 18l225 647z" />
    <glyph glyph-name="eight" unicode="8" horiz-adv-x="554" 
d="M207 348c-10 1.33301 -19.334 4.00098 -28.001 8.00098c-28 -18 -48 -37 -60 -57c-16 -26 -25 -57 -27 -93c-2 -35.333 3.33301 -68 16 -98c12.667 -30.667 30.667 -53.334 54 -68.001c24 -14 52.667 -17.333 86 -10c28.667 6.66699 51.334 22.667 68.001 48
s26.334 55.666 29.001 90.999c2 35.333 -3.66699 68.333 -17 99s-32 53 -56 67c-2 0.666992 -10 2.33398 -24 5.00098l-12 2c-4.66699 0.666992 -8.83398 1.16699 -12.501 1.5s-6.16699 0.5 -7.5 0.5c-3.33301 0.666992 -6.33301 2 -9 4zM134.999 392.001
c-28 25.333 -48.3311 56.166 -60.998 92.499s-16.334 71.833 -11.001 106.5c5.33301 32.667 19 61 41 85s51.333 39.333 88 46c5.33301 6 12 9 20 9c63.333 0 110.333 -22.333 141 -67c26.667 -37.333 37 -83.333 31 -138c-6 -50.667 -23.667 -93.667 -53 -129
c-7.33301 -8 -15 -15.333 -23 -22c32 -20.667 55.667 -50.334 71 -89.001s21.666 -78.667 18.999 -120c-2.66699 -44.667 -15.667 -84.667 -39 -120s-56.333 -58 -99 -68c-48 -11.333 -89.5 -6.16602 -124.5 15.501s-60.833 53.167 -77.5 94.5
c-15.333 36.667 -21.833 77.334 -19.5 122.001s13.833 83.667 34.5 117c14 23.333 34.667 45 62 65zM225.001 672.001c-32.667 -2 -57.834 -11.167 -75.501 -27.5s-28.5 -37.166 -32.5 -62.499c-4.66699 -25.333 -2 -51.833 8 -79.5s25.667 -51.5 47 -71.5
c2.66699 -2.66699 5.83398 -5.66699 9.50098 -9s6.5 -6 8.5 -8l5 -5c6 -4 13 -6.66699 21 -8c27.333 -4.66699 52 5.66602 74 30.999c22.667 26.667 36 60 40 100c4.66699 41.333 -2.33301 75 -21 101c-16 24 -40.333 38 -73 42c-3.33301 -2 -7 -3 -11 -3z" />
    <glyph glyph-name="nine" unicode="9" horiz-adv-x="551" 
d="M314 385c6 19.333 10.832 36.166 14.499 50.499s7 30.166 10 47.499s4 33.833 3 49.5s-3.83301 30.834 -8.5 45.501c-9.33301 28 -22.666 50.5 -39.999 67.5s-36.333 27.167 -57 30.5c-20 3.33301 -40.167 -0.333984 -60.5 -11.001s-38.5 -29 -54.5 -55
c-20.667 -34 -31.167 -72.5 -31.5 -115.5s8.16699 -78.5 25.5 -106.5c17.333 -28.667 40.333 -45 69 -49c34 -5.33301 73 8.33398 117 41.001c4 2.66699 8.33301 4.33398 13 5.00098zM189.999 -20l-50.0029 22l138 301c-36 -16 -70 -21.667 -102 -17
c-45.333 6 -81 31 -107 75c-22.667 36.667 -33.667 81.667 -33 135c0.666992 52.667 13.667 100 39 142c20.667 34.667 46.334 60 77.001 76c30 15.333 61 20.333 93 15c31.333 -5.33301 59.333 -19.833 84 -43.5s43.334 -54.167 56.001 -91.5c6 -18 9.5 -37 10.5 -57
s-0.166992 -40.333 -3.5 -61s-7 -38.667 -11 -54s-9.33301 -33.333 -16 -54h2l-5 -11l-4 -12c-1.33301 -4 -3.66602 -7.66699 -6.99902 -11z" />
    <glyph glyph-name="colon" unicode=":" horiz-adv-x="303" 
d="M93 494h54l1 -70h-54zM94 71h54v-64h-54v64z" />
    <glyph glyph-name="semicolon" unicode=";" horiz-adv-x="302" 
d="M90 485h54v-58h-54v58zM94 92l52 -12l-33 -156l-52 12z" />
    <glyph glyph-name="less" unicode="&#x3c;" horiz-adv-x="734" 
d="M539 554l24 -48l-398 -208l414 -205l-24 -48l-460 228l6 11l-17 33z" />
    <glyph glyph-name="equal" unicode="=" horiz-adv-x="707" 
d="M112 369v54l433 -5v-54zM115 186v54l436 2v-54z" />
    <glyph glyph-name="greater" unicode="&#x3e;" horiz-adv-x="725" 
d="M84 494l24 48l461 -232l-24 -48l-12 6l-411 -217l-26 48l377 199z" />
    <glyph glyph-name="question" unicode="?" horiz-adv-x="469" 
d="M133 75l54 4l4 -69l-54 -4zM14 576c8.66699 25.333 21.0029 49.8271 37.0029 73.4941s34.333 42.5 55 56.5c16 10.667 32.667 17.834 50 21.501s35.666 2.33398 54.999 -3.99902s38 -18.166 56 -35.499c12.667 -12.667 21.667 -24 27 -34
c5.33301 -9.33301 9.66602 -23 12.999 -41c6.66699 -26 8.66699 -51 6 -75s-7 -44 -13 -60c-5.33301 -14.667 -13.666 -30.667 -24.999 -48l-27 -38c-12.667 -17.333 -22.5 -32.166 -29.5 -44.499s-12.833 -26.5 -17.5 -42.5c-3.33301 -10 -5.5 -21 -6.5 -33
s-1.66699 -26.5 -2 -43.5s-0.833008 -30.167 -1.5 -39.5c-0.666992 -7.33301 -3.83398 -13.5 -9.50098 -18.5s-12.167 -7.16699 -19.5 -6.5s-13.5 3.83398 -18.5 9.50098s-7.16699 12.167 -6.5 19.5c0.666992 5.33301 1.16699 17.166 1.5 35.499s1.33301 35.333 3 51
s4.16699 29.5 7.5 41.5c6 18 13.5 35.167 22.5 51.5s20.333 34 34 53s21.834 30.5 24.501 34.5c8.66699 13.333 15.167 25.666 19.5 36.999s7.66602 26.5 9.99902 45.5s0.833008 39.167 -4.5 60.5c-2.66699 12.667 -5.33398 21.334 -8.00098 26.001
c-2.66699 5.33301 -8.66699 12.333 -18 21c-30 29.333 -61 33 -93 11c-15.333 -10 -29.166 -24.333 -41.499 -43s-21.833 -38 -28.5 -58c-2.66699 -7.33301 -7.33398 -12.666 -14.001 -15.999s-13.5 -3.83301 -20.5 -1.5s-12.167 6.83301 -15.5 13.5s-4 13.334 -2 20.001z
" />
    <glyph glyph-name="at" unicode="@" horiz-adv-x="770" 
d="M476 510c-2.66699 -12 -8.99414 -35.6631 -18.9941 -70.9961c-12 -42 -19.667 -70.667 -23 -86c-8 -32.667 -12.667 -60 -14 -82c-2 -24 -0.666992 -41.667 4 -53c8.66699 -18.667 18 -28 28 -28c10 -0.666992 22.333 6.33301 37 21c16 15.333 30.333 34.166 43 56.499
s20 40.5 22 54.5c4.66699 35.333 6.5 69.666 5.5 102.999s-6.83301 65 -17.5 95s-24.5 56.5 -41.5 79.5s-39.167 41.5 -66.5 55.5s-58.333 21.333 -93 22c-56 2 -102.333 -14 -139 -48c-64.667 -60 -104 -135 -118 -225c-7.33301 -43.333 -6 -90 4 -140
c9.33301 -49.333 26 -94 50 -134c25.333 -42 56.666 -73.333 93.999 -94c37.333 -20 79.666 -25.667 126.999 -17c18.667 4 38.667 11.333 60 22s39.333 21 54 31l55 42c6 4.66699 12.667 6.5 20 5.5s13.333 -4.33301 18 -10s6.5 -12.167 5.5 -19.5
s-4.16699 -13.333 -9.5 -18c-24 -18.667 -43.5 -33.334 -58.5 -44.001s-35.333 -22.5 -61 -35.5s-50.167 -21.5 -73.5 -25.5c-60.667 -11.333 -114.5 -4.16602 -161.5 21.501s-85.833 63.5 -116.5 113.5c-26.667 45.333 -45.334 96 -56.001 152
s-12.334 108.667 -5.00098 158c16.667 102.667 62 188.334 136 257.001c47.333 43.333 106.333 64 177 62c37.333 -1.33301 71.333 -8.33301 102 -21s56 -29.5 76 -50.5s37.333 -45.333 52 -73s24.667 -56.667 30 -87s9 -61.5 11 -93.5s0 -62.667 -6 -92
c-3.33301 -20.667 -12.833 -44.834 -28.5 -72.501s-33.167 -50.834 -52.5 -69.501c-26 -24.667 -51.667 -36.667 -77 -36c-32 0.666992 -56.667 20.667 -74 60l-1 1c-18 -22 -36.333 -38.667 -55 -50c-26 -16 -51.333 -21 -76 -15c-26.667 7.33301 -49 28.333 -67 63
c-18.667 36 -21.667 88.333 -9 157c10.667 61.333 28 109.666 52 144.999c16 24.667 36 42.667 60 54c23.333 11.333 47 15 71 11c29.333 -4.66699 53.333 -19.334 72 -44.001l1 4c1.33301 7.33301 5.16602 13 11.499 17s13.166 5.16699 20.499 3.5s13 -5.66699 17 -12
s5 -13.166 3 -20.499zM399.006 442.004c-4 20 -11.167 35.668 -21.5 47.001s-22 18 -35 20s-26.5 -0.333008 -40.5 -7s-26.667 -18.334 -38 -35.001c-19.333 -29.333 -33.666 -71 -42.999 -125c-10.667 -56.667 -9.33398 -97.667 3.99902 -123
c10.667 -20 21.667 -31.667 33 -35c9.33301 -2 20.666 1 33.999 9c26.667 16.667 51.334 45 74.001 85c2 24 7.33301 53.333 16 88c4 18.667 10 42 18 70c-0.666992 2 -1 4 -1 6z" />
    <glyph glyph-name="A" unicode="A" horiz-adv-x="574" 
d="M302 251l-90 359l-95 -363zM51 -3l-52 14l182 693l25 -7l37 10l175 -696l-52 -14l-50 200l-214 -4z" />
    <glyph glyph-name="B" unicode="B" horiz-adv-x="573" 
d="M111 656l-1 -281c66 6.66699 117 18.667 153 36c55.333 26.667 79.333 70 72 130c-5.33301 44.667 -25 77.667 -59 99c-19.333 12.667 -48.666 19 -87.999 19c-10.667 0 -28.334 -0.666992 -53.001 -2c-9.33301 0 -17.333 -0.333008 -24 -1zM249 347
c-36.667 -12 -83.333 -20.665 -140 -25.998l-1 -289c45.333 -0.666992 77 -0.333984 95 0.999023c43.333 2.66699 75.333 11 96 25c26.667 18 45.167 40.667 55.5 68s12.5 55.666 6.5 84.999s-18.667 56.333 -38 81s-43 42.667 -71 54c-1.33301 0.666992 -2.33301 1 -3 1z
M83.001 710.002c8.66699 -0.666992 25 -0.333984 49 0.999023c26 1.33301 45 2 57 2c48.667 0 87 -9 115 -27c48.667 -31.333 77 -77.666 85 -138.999c9.33301 -75.333 -16.667 -132.333 -78 -171c26.667 -18 48.834 -40.5 66.501 -67.5s29.834 -55.833 36.501 -86.5
c7.33301 -40 4.16602 -78.5 -9.50098 -115.5s-38.834 -67.833 -75.501 -92.5c-28.667 -19.333 -69.334 -31 -122.001 -35c-9.33301 -0.666992 -48.333 -1 -117 -1c-7.33301 0 -13.666 2.66699 -18.999 8s-8 11.666 -8 18.999c0 2.66699 0.333008 5.33398 1 8.00098h-10
l2 328c-0.666992 1.33301 -1 2.33301 -1 3c0 2.66699 0.333008 5 1 7l1 322c-1.33301 3.33301 -2 7 -2 11c0 7.33301 2.83301 13.5 8.5 18.5s12.167 7.5 19.5 7.5z" />
    <glyph glyph-name="C" unicode="C" horiz-adv-x="607" 
d="M394 607c-44 53.333 -92.0039 74.333 -144.004 63c-23.333 -4.66699 -45.166 -16.834 -65.499 -36.501s-36.833 -45.834 -49.5 -78.501c-14.667 -38 -25.5 -84.667 -32.5 -140s-7.16699 -108.333 -0.5 -159c14.667 -122 62.334 -192.333 143.001 -211
c32 -7.33301 59.833 -5.16602 83.5 6.50098s49.167 32.834 76.5 63.501c4.66699 5.33301 10.834 8.33301 18.501 9s14.167 -1.5 19.5 -6.5s8.33301 -11.333 9 -19s-1.66602 -14.167 -6.99902 -19.5c-32 -36 -64.167 -62 -96.5 -78s-70.833 -18.667 -115.5 -8
c-29.333 6.66699 -55.333 18.334 -78 35.001s-41.167 37 -55.5 61s-25.5 49.167 -33.5 75.5s-14 54.833 -18 85.5c-6.66699 55.333 -6.16699 112.666 1.5 171.999s19.5 110.333 35.5 153c15.333 39.333 36.5 72 63.5 98s57.167 42.667 90.5 50
c34.667 7.33301 69.167 4 103.5 -10s65.5 -38 93.5 -72c4.66699 -6 6.66699 -12.667 6 -20s-4 -13.333 -10 -18s-12.667 -6.66699 -20 -6s-13.333 4 -18 10z" />
    <glyph glyph-name="D" unicode="D" horiz-adv-x="620" 
d="M123 663l2.00098 -627.001c98 -4.66699 168.667 17 212 65c25.333 28.667 44.333 66.834 57 114.501s18 98.5 16 152.5c-2.66699 54 -12.667 104 -30 150s-40.333 81.333 -69 106c-14.667 12.667 -33.334 22.167 -56.001 28.5s-42.167 9.83301 -58.5 10.5
s-40.833 0.666992 -73.5 0zM93.001 716.999c4.66699 0 17.333 0.170898 38 0.503906s35.5 0.333008 44.5 0s23.167 -1.33301 42.5 -3s35 -4.33398 47 -8.00098s25.667 -9 41 -16s29 -15.833 41 -26.5c35.333 -30.667 62.833 -72.334 82.5 -125.001
s30.834 -108.667 33.501 -168c2.66699 -60 -3 -117.333 -17 -172c-14.667 -54.667 -37.667 -99.334 -69 -134.001c-58 -64.667 -151 -91.667 -279 -81c-7.33301 0.666992 -13.333 3.5 -18 8.5s-7 10.833 -7 17.5h-1h-1l-2 668c-2 3.33301 -3 7.33301 -3 12
c0 7.33301 2.66699 13.666 8 18.999s11.666 8 18.999 8z" />
    <glyph glyph-name="E" unicode="E" horiz-adv-x="496" 
d="M93 5h-30l-3 692h25v21h249v-54h-220l1 -276l206 2v-54l-205 -2l1 -297l223 -2v-54l-247 2v22z" />
    <glyph glyph-name="F" unicode="F" horiz-adv-x="488" 
d="M110 337l-4 -329h-54l8 677h24l-1 19l248 8l2 -54l-219 -7l-4 -260l194 -7l-2 -54z" />
    <glyph glyph-name="G" unicode="G" horiz-adv-x="602" 
d="M395 601c-42.667 54.667 -87.3311 80.666 -133.998 77.999c-47.333 -2.66699 -86.333 -35.334 -117 -98.001c-18.667 -38.667 -31.334 -85 -38.001 -139s-6 -108.667 2 -164c8.66699 -57.333 25 -107.5 49 -150.5s55.333 -73.833 94 -92.5
c26.667 -11.333 50.167 -14.166 70.5 -8.49902s42.5 19.5 66.5 41.5l3 261l-90 -1v54l125 2v-16h19l-3 -292c8.66699 -12 7.66699 -23.333 -3 -34c-15.333 -15.333 -30.166 -28 -44.499 -38s-30.333 -18.667 -48 -26s-36.667 -10.333 -57 -9s-41.166 7.33301 -62.499 18
c-48 24 -86.333 61.167 -115 111.5s-47.667 107.5 -57 171.5c-8.66699 59.333 -9.33398 119 -2.00098 179c7.33301 59.333 21.666 111.333 42.999 156c18.667 39.333 42 70 70 92s58.667 34 92 36c32 1.33301 63.5 -6.66699 94.5 -24s59.167 -42.666 84.5 -75.999
c4.66699 -5.33301 6.5 -11.833 5.5 -19.5s-4.33301 -13.667 -10 -18s-12.334 -6 -20.001 -5s-13.5 4.5 -17.5 10.5z" />
    <glyph glyph-name="H" unicode="H" horiz-adv-x="622" 
d="M410 693h54l3 -696h-54l-1 334h-280l1 -331h-54l-2 697h54l1 -312h279z" />
    <glyph glyph-name="I" unicode="I" horiz-adv-x="285" 
d="M128 0h-54l2 699h54z" />
    <glyph glyph-name="J" unicode="J" horiz-adv-x="421" 
d="M212 685h54.001v-520h-1c0.666992 -76.667 -14.666 -130 -45.999 -160c-40 -38 -84 -45.333 -132 -22c-35.333 16.667 -64.333 45.334 -87 86.001c-4 6 -5 12.667 -3 20s6.16699 12.833 12.5 16.5s13.166 4.5 20.499 2.5s12.666 -6.33301 15.999 -13
c18 -30.667 39.333 -52 64 -64c26 -12 49.667 -8 71 12c10 9.33301 17.333 22.666 22 39.999s7.16699 32 7.5 44s0.5 31.333 0.5 58c0 2.66699 0.333008 5 1 7v493z" />
    <glyph glyph-name="K" unicode="K" horiz-adv-x="577" 
d="M357 707l42 -32l-231 -307l254 -347l-44 -32l-256 349l-5 -344h-54l11 710h54l-5 -306z" />
    <glyph glyph-name="L" unicode="L" horiz-adv-x="471" 
d="M69 690h54l-3 -648l195 -2v-54l-226 2v20h-23z" />
    <glyph glyph-name="M" unicode="M" horiz-adv-x="746" 
d="M123 2h-54l7 689h51l3 1v-1v-1l200 -589l207 605l50 -18h4l-8 -683h-54l6 530l-181 -529l-18 6l-30 -10l-178 526z" />
    <glyph glyph-name="N" unicode="N" horiz-adv-x="603" 
d="M123 10h-54l-4 683h31l24 11l272 -578l2 570h54l-3 -683l2 -6l-2 -1v-10h-22l-24 -11l-6 11h-1h-1v5l-271 578z" />
    <glyph glyph-name="O" unicode="O" horiz-adv-x="645" 
d="M261 728c5.33301 3.33301 10.667 4.66797 16 4.00098c70.667 -6 125.667 -52.333 165 -139c32.667 -72.667 48.334 -158.667 47.001 -258c-1.33301 -98.667 -19 -182.334 -53 -251.001c-18 -36.667 -41 -65.667 -69 -87s-60 -30.666 -96 -27.999
c-74.667 5.33301 -133.334 48.666 -176.001 129.999c-36.667 69.333 -55.667 152 -57 248c-0.666992 96.667 17.333 180 54 250c40.667 78 97 121.667 169 131zM273.001 675.002c-56 -4.66699 -100.668 -38.998 -134.001 -102.998c-32 -62 -47.667 -136.667 -47 -224
c0.666992 -88 17.334 -162.667 50.001 -224c34 -63.333 78.333 -97 133 -101c45.333 -3.33301 83 25 113 85c30 60.667 45.667 136.667 47 228s-12.667 169.666 -42 234.999c-28.667 63.333 -66 98.666 -112 105.999z" />
    <glyph glyph-name="P" unicode="P" horiz-adv-x="562" 
d="M94 710c53.333 3.33301 95.6689 3.33008 127.002 -0.00292969c56 -5.33301 98.333 -20.333 127 -45c20 -16.667 34.833 -38.167 44.5 -64.5s14.5 -53.666 14.5 -81.999s-5 -55.5 -15 -81.5s-24.333 -47.333 -43 -64c-9.33301 -8 -19.333 -14.833 -30 -20.5
s-19.834 -10 -27.501 -13s-18.5 -5.5 -32.5 -7.5s-23.167 -3.33301 -27.5 -4s-14.833 -1.33398 -31.5 -2.00098s-25.667 -1 -27 -1c-7.33301 -0.666992 -13.666 1.5 -18.999 6.5s-8.33301 11.333 -9 19s1.5 14.167 6.5 19.5s11.5 8.33301 19.5 9
c3.33301 0 11.5 0.333008 24.5 1s21.167 1.33398 24.5 2.00098l20 2c10 0.666992 17.333 1.66699 22 3l16 5c7.33301 2.66699 13.666 5.66699 18.999 9s10.666 7.33301 15.999 12c26.667 22.667 40 57.834 40 105.501s-13 82.5 -39 104.5c-20.667 18 -53.667 29 -99 33
c-25.333 2.66699 -56 3.33398 -92 2.00098l4 -650h-54l-4 673v3v7h1c4 12 12 18.333 24 19z" />
    <glyph glyph-name="Q" unicode="Q" horiz-adv-x="650" 
d="M281 -7h-6.99902c-74.667 5.33301 -134 47.333 -178 126c-36.667 66.667 -55.667 147 -57 241s16.334 174.667 53.001 242c41.333 76 98.666 118.333 171.999 127c5.33301 3.33301 10.666 4.66602 15.999 3.99902c62 -5.33301 112 -39 150 -101
c31.333 -51.333 51.333 -116.333 60 -195c8 -73.333 5.33301 -145.666 -8 -216.999s-36.333 -125 -69 -161l-14 -14h92v-54l-210 1v1zM276.001 676c-56.667 -4.66699 -101.998 -38.001 -135.998 -100.001c-32.667 -59.333 -48.334 -131.333 -47.001 -216
c0.666992 -84 17.667 -155.667 51 -215c34 -61.333 78.667 -94 134 -98l21 -1c0.666992 0 2.66699 1.33301 6 4l19 12c5.33301 2.66699 11 5.66699 17 9s10.333 5.66602 13 6.99902l8 7c4 2.66699 7.66699 6 11 10c26 28.667 45 74.834 57 138.501s14.333 129.5 7 197.5
c-8.66699 70.667 -26.334 128.334 -53.001 173.001c-26.667 43.333 -60 68 -100 74z" />
    <glyph glyph-name="R" unicode="R" horiz-adv-x="563" 
d="M211 393c28 -0.666992 53.333 5.83398 76 19.501s39.667 31 51 52s16.333 45 15 72s-10.333 52.833 -27 77.5c-18.667 26.667 -49.667 42.667 -93 48c-24 2.66699 -56 2.33398 -96 -0.999023l-1 -653h-54l1 660c-3.33301 4 -5.33301 8.66699 -6 14
c-0.666992 8 1.33301 14.833 6 20.5s10.667 8.83398 18 9.50098c64 6 110 7 138 3c59.333 -6.66699 103 -30.334 131 -71.001c20 -28.667 32 -59.334 36 -92.001s0.666992 -62.834 -10 -90.501s-27.667 -52.167 -51 -73.5s-50.666 -35.666 -81.999 -42.999l141 -323l-50 -22
l-147 339c-6.66699 0.666992 -12.334 3.66699 -17.001 9s-7 11.666 -7 18.999s2.83301 13.5 8.5 18.5s12.167 7.5 19.5 7.5z" />
    <glyph glyph-name="S" unicode="S" horiz-adv-x="524" 
d="M312 629c-16.667 18 -34.0078 30.832 -52.0078 38.499s-34.667 10.5 -50 8.5s-30 -7.33301 -44 -16c-21.333 -14 -37.333 -34.667 -48 -62s-13 -57.666 -7 -90.999c2 -10 4.66699 -19.333 8 -28s8 -17 14 -25l15 -20c4.66699 -5.33301 12 -12 22 -20l21 -18l26 -18.5
c12.667 -9 21.334 -15.5 26.001 -19.5c18.667 -13.333 34.5 -26.166 47.5 -38.499s26.167 -28 39.5 -47s23.333 -41.167 30 -66.5s9.66699 -53.333 9 -84c-0.666992 -30 -9.16699 -56 -25.5 -78s-37.166 -39.333 -62.499 -52c-24 -11.333 -49.833 -17.666 -77.5 -18.999
s-54.167 2.66699 -79.5 12c-8 3.33301 -16.167 8 -24.5 14s-14.666 11 -18.999 15s-10.5 10.333 -18.5 19s-12.333 13.334 -13 14.001c-5.33301 5.33301 -8 11.833 -8 19.5s2.66699 14 8 19s11.833 7.5 19.5 7.5s13.834 -2.66699 18.501 -8l15 -16l16 -15
c2.66699 -3.33301 6.5 -6.83301 11.5 -10.5s9.83301 -6.5 14.5 -8.5c37.333 -14.667 75 -12.667 113 6c38 18 57.333 45 58 81c0.666992 26 -1.66602 48.667 -6.99902 68c-4.66699 20 -12.334 37.667 -23.001 53s-21.5 28.166 -32.5 38.499s-24.833 21.5 -41.5 33.5
c-2 2 -11.333 8.83301 -28 20.5s-27.667 19.667 -33 24s-14.666 12.5 -27.999 24.5s-23 22.667 -29 32s-12.5 21.166 -19.5 35.499s-11.833 29.5 -14.5 45.5c-8.66699 43.333 -5.66699 83.833 9 121.5s37.667 66.5 69 86.5c21.333 14 44.166 22.167 68.499 24.5
s49.333 -1.83398 75 -12.501s49.5 -28 71.5 -52c4.66699 -5.33301 6.83398 -11.666 6.50098 -18.999s-3.16602 -13.5 -8.49902 -18.5s-11.666 -7.33301 -18.999 -7s-13.666 3.16602 -18.999 8.49902z" />
    <glyph glyph-name="T" unicode="T" horiz-adv-x="452" 
d="M4 656v54l292 3v-54l-129 -1v-661h-54v660z" />
    <glyph glyph-name="U" unicode="U" horiz-adv-x="611" 
d="M60 685l53.999 0.00390625l5 -414v-1c0.666992 -8.66699 1.33398 -23.334 2.00098 -44.001s1.33398 -35.334 2.00098 -44.001c2 -34.667 6.66699 -60 14 -76c11.333 -26.667 30.833 -46.334 58.5 -59.001s56.5 -16.334 86.5 -11.001s53.667 18.666 71 39.999
c9.33301 11.333 17 23.333 23 36c6 12 10.333 25.667 13 41s4.66699 28.5 6 39.5s2.5 27 3.5 48s1.83301 37.5 2.5 49.5l1 403h54l-1 -441h-1h-1c-1.33301 -26 -2.5 -44.167 -3.5 -54.5s-3.16699 -26.666 -6.5 -48.999s-9 -41.833 -17 -58.5s-18.333 -32.667 -31 -48
c-26 -31.333 -60 -50.833 -102 -58.5s-82.667 -2.5 -122 15.5s-67.333 46.333 -84 85c-9.33301 21.333 -15.333 52.666 -18 93.999c-0.666992 10 -1 23 -1 39c-0.666992 16.667 -1.33398 28.334 -2.00098 35.001h-1z" />
    <glyph glyph-name="V" unicode="V" 
d="M-1 678l52 14l149 -593l150 596l52 -14l-172 -684l-4 2l1 -6l-52 -14z" />
    <glyph glyph-name="W" unicode="W" horiz-adv-x="824" 
d="M0 682l52 12l136 -583l113 563l-1 5h2l4 17l36 -7l10 2l1 -4l5 -1l-2 -11l131 -551l129 575l52 -12l-153 -683l-21 5l-33 -8l-130 547l-110 -542l-10 2l2 -8l-52 -12z" />
    <glyph glyph-name="X" unicode="X" 
d="M338 712l48 -24l-153 -323l169 -353l-48 -24l-151 314l-153 -324l-48 24l171 363l-151 316l48 24l133 -278z" />
    <glyph glyph-name="Y" unicode="Y" horiz-adv-x="539" 
d="M-10 689l50 22l141 -321l154 310l48 -24l-169 -341v-21l1 -1h-1v-305h-54v295z" />
    <glyph glyph-name="Z" unicode="Z" horiz-adv-x="506" 
d="M46 652v54l293 4v-27l12 -5l-258 -628l232 -2v-54l-254 3l-3 -7l-18 7l-32 13l265 645z" />
    <glyph glyph-name="bracketleft" unicode="[" horiz-adv-x="335" 
d="M175 735v-54h-78l-5 -799l88 -6l-4 -54l-121 8l1 11h-18l5 870h25v24h107z" />
    <glyph glyph-name="backslash" unicode="\" horiz-adv-x="416" 
d="M33 710l52 12l175 -761l-52 -12z" />
    <glyph glyph-name="bracketright" unicode="]" horiz-adv-x="346" 
d="M44 -148l4 54l87 -5l2 777l-87 -5l-4 54l122 7l2 -23h21l-2 -854h-23l-1 -12z" />
    <glyph glyph-name="asciicircum" unicode="^" horiz-adv-x="730" 
d="M131 232l-48 22l218 462l24 -11l24 12l225 -462l-48 -24l-201 412z" />
    <glyph glyph-name="underscore" unicode="_" horiz-adv-x="654" 
d="M0 -139v54l498 6v-54z" />
    <glyph glyph-name="grave" unicode="`" horiz-adv-x="310" 
d="M12 693l46 28l96 -163l-46 -28z" />
    <glyph glyph-name="a" unicode="a" horiz-adv-x="472" 
d="M261 158l-2.00293 91c-24 -0.666992 -41.5 -1.5 -52.5 -2.5s-24.667 -3.5 -41 -7.5s-29.666 -9.66699 -39.999 -17s-19.166 -21.833 -26.499 -43.5s-10.666 -45.167 -9.99902 -70.5c0.666992 -26 5.16699 -46.333 13.5 -61s18.833 -22.667 31.5 -24
c19.333 -2.66699 40.333 10.333 63 39c8.66699 11.333 18.667 26.333 30 45c1.33301 2 5 8.33301 11 19l14 24c2.66699 3.33301 5.66699 6 9 8zM316.997 5l-53.998 -0.000976562l-1 57c-8 -12.667 -15.667 -23.667 -23 -33c-35.333 -44.667 -72.333 -64.667 -111 -60
c-22 2.66699 -40.167 11.834 -54.5 27.501s-24.166 32.834 -29.499 51.501s-8.33301 38.334 -9 59.001c-0.666992 31.333 4.16602 62.166 14.499 92.499s25.166 52.5 44.499 66.5c14.667 10 33 18 55 24s39.833 9.5 53.5 10.5s32.5 1.83301 56.5 2.5l-1 27
c-2.66699 8 -6.33398 24.667 -11.001 50c-4 20 -8.66699 34.333 -14 43c-14 26 -34 36.333 -60 31c-26.667 -6 -51.334 -22.333 -74.001 -49c-5.33301 -6 -11.666 -9.33301 -18.999 -10s-13.833 1.5 -19.5 6.5s-8.83398 11.167 -9.50098 18.5s1.33301 13.666 6 18.999
c30.667 36.667 65.334 59 104.001 67c24 5.33301 46.5 3.33301 67.5 -6s38.5 -26.333 52.5 -51c7.33301 -14 13.666 -33.667 18.999 -59c4.66699 -25.333 8.33398 -41.333 11.001 -48h1v-3c1.33301 -4.66699 1.33301 -9 0 -13z" />
    <glyph glyph-name="b" unicode="b" horiz-adv-x="562" 
d="M114 281l1 -87.999c0 -0.666992 0.333008 -1.33398 1 -2.00098l10 -34l10 -33c2 -8 5.33301 -17.167 10 -27.5s9.66699 -19.5 15 -27.5c18.667 -26.667 42 -41.667 70 -45c48.667 -6 83.667 27.667 105 101c9.33301 32 14.666 67.333 15.999 106
c2 39.333 0.666992 69.333 -4 90c-8 49.333 -23.333 85.5 -46 108.5s-46.667 33.167 -72 30.5c-26 -2.66699 -50.167 -18.5 -72.5 -47.5s-36.166 -70.833 -41.499 -125.5zM58 736.001l54.002 -0.000976562l2 -293c30 42.667 67 66.334 111 71.001
c42.667 4 80.334 -10.667 113.001 -44s54 -80.333 64 -141c4.66699 -23.333 6 -56.833 4 -100.5s-8 -83.167 -18 -118.5c-6 -20 -13.333 -38.333 -22 -55s-19.334 -32.167 -32.001 -46.5s-28.334 -25 -47.001 -32s-39.334 -9.16699 -62.001 -6.5
c-44.667 5.33301 -80.667 28.333 -108 69l-1 1v-40h-54z" />
    <glyph glyph-name="c" unicode="c" horiz-adv-x="467" 
d="M266 411c-42.667 40.667 -78.3281 51.665 -106.995 32.998c-28.667 -19.333 -49.667 -60.333 -63 -123c-12.667 -62.667 -12.5 -123.167 0.5 -181.5s35.5 -93.833 67.5 -106.5c18.667 -7.33301 35 -8.66602 49 -3.99902c13.333 4.66699 27.666 15.334 42.999 32.001
c5.33301 5.33301 11.666 8.16602 18.999 8.49902s13.666 -2 18.999 -7s8.16602 -11.167 8.49902 -18.5s-1.83398 -13.666 -6.50098 -18.999c-22 -24 -44 -39.667 -66 -47c-26.667 -8.66699 -55.334 -7 -86.001 5c-49.333 19.333 -82.666 67.333 -99.999 144
c-14.667 66 -15 134.333 -1 205c16 76.667 45 129 87 157c52.667 34.667 110.667 21.334 174 -39.999c5.33301 -4.66699 8 -10.834 8 -18.501s-2.5 -14.167 -7.5 -19.5s-11.333 -8 -19 -8s-14.167 2.66699 -19.5 8z" />
    <glyph glyph-name="d" unicode="d" horiz-adv-x="516" 
d="M306 173v123.998l-8 25l-10 26c-1.33301 4.66699 -3.83301 11 -7.5 19s-7.83398 15 -12.501 21c-28 40.667 -57 59.667 -87 57c-22.667 -1.33301 -41 -13.833 -55 -37.5s-23.333 -56.167 -28 -97.5c-4 -36.667 -4.16699 -74.5 -0.5 -113.5s9.5 -69.5 17.5 -91.5
c6.66699 -17.333 15.834 -32.666 27.501 -45.999s24.167 -22.666 37.5 -27.999c26 -10.667 48.333 -1 67 29c11.333 18.667 29.333 53.667 54 105c1.33301 3.33301 3 6 5 8zM304 746.998l54.001 0.000976562l3 -753h-54v62c-4.66699 -8.66699 -9.33398 -16.667 -14.001 -24
c-17.333 -27.333 -38.166 -45.333 -62.499 -54s-48.166 -7.66699 -71.499 3c-20.667 8.66699 -39.334 22.5 -56.001 41.5s-29.334 40.5 -38.001 64.5c-9.33301 26 -16.166 60.5 -20.499 103.5s-4.5 84.833 -0.5 125.5c5.33301 49.333 17.333 89 36 119
c23.333 39.333 55.666 60.666 96.999 63.999c47.333 3.33301 90 -20 128 -70z" />
    <glyph glyph-name="e" unicode="e" horiz-adv-x="502" 
d="M95 290h197.003c1.33301 28 0.666016 49 -2.00098 63c-2.66699 18 -9.33398 35.667 -20.001 53s-23.334 30.666 -38.001 39.999c-29.333 20 -57.333 16 -84 -12c-15.333 -16 -27.5 -37.167 -36.5 -63.5s-14.5 -53.166 -16.5 -80.499zM301.003 236l-208.001 -0.000976562
c0 -50.667 5.33301 -93.667 16 -129c9.33301 -30.667 21.666 -53 36.999 -67c16.667 -15.333 38 -21 64 -17c22 2.66699 38.333 9 49 19c11.333 8.66699 21.333 23.667 30 45c2.66699 7.33301 7.5 12.333 14.5 15s14 2.66699 21 0s11.833 -7.5 14.5 -14.5
s2.66699 -13.833 0 -20.5c-12.667 -30 -27.667 -52.333 -45 -67c-19.333 -16 -44.666 -26.333 -75.999 -31c-42.667 -6 -78.667 4.33301 -108 31c-22.667 20.667 -40 51.334 -52 92.001c-17.333 56 -23 123 -17 201c2.66699 32 9.66699 64.333 21 97
c10.667 32 26 58.667 46 80c16 17.333 33.333 29.333 52 36s36.5 8.5 53.5 5.5s33.167 -9.83301 48.5 -20.5c20.667 -14 38.334 -32.833 53.001 -56.5s24.334 -48.167 29.001 -73.5c1.33301 -10 2.16602 -20.667 2.49902 -32s0 -25.833 -1 -43.5s-1.5 -27.167 -1.5 -28.5
c0 -7.33301 -2.83301 -13.5 -8.5 -18.5s-12.167 -7.5 -19.5 -7.5c-5.33301 0 -10.333 1.66699 -15 5z" />
    <glyph glyph-name="f" unicode="f" horiz-adv-x="394" 
d="M14 433l-0.00195312 53.9951l58 1l1 98c-0.666992 3.33301 -1 6.33301 -1 9l1 11v1c2.66699 32.667 7 59.334 13 80.001c12.667 48 34.667 76.667 66 86c10 2.66699 22 3.66699 36 3l13 -1c4.66699 -0.666992 8.33398 -1 11.001 -1c7.33301 0 13.666 -2.66699 18.999 -8
s8 -11.666 8 -18.999s-2.66699 -13.666 -8 -18.999s-11.666 -8 -18.999 -8c-4 0 -9 0.333008 -15 1c-0.666992 0 -2.66699 0.166992 -6 0.5s-5.66602 0.5 -6.99902 0.5c-7.33301 0.666992 -12.666 0.333984 -15.999 -0.999023c-12.667 -3.33301 -22.667 -19.333 -30 -48
c-4.66699 -17.333 -8.33398 -40.666 -11.001 -69.999l-1 -114l75 1v-54l-75 -1l-4 -433h-54l4 432z" />
    <glyph glyph-name="g" unicode="g" horiz-adv-x="515" 
d="M302 167l-2 184c-16 39.333 -33.833 66.333 -53.5 81s-38.5 20.334 -56.5 17.001c-20 -4.66699 -39 -19.167 -57 -43.5s-31 -57.5 -39 -99.5c-9.33301 -54 -6.83301 -106.833 7.5 -158.5s34.5 -88.834 60.5 -111.501c22 -18.667 43 -21.667 63 -9
c30 19.333 55.667 66 77 140zM359 12c2.66699 -44 -1.83594 -87 -13.5029 -129s-29.5 -74.667 -53.5 -98c-29.333 -29.333 -63 -40.333 -101 -33c-38.667 8 -78 35.667 -118 83c-5.33301 5.33301 -7.66602 11.666 -6.99902 18.999s3.83398 13.5 9.50098 18.5
s12.167 7.16699 19.5 6.5s13.333 -4 18 -10c32 -37.333 61.333 -58.666 88 -63.999c20 -4 37.667 2 53 18c15.333 15.333 27.833 37.666 37.5 66.999s14.5 61.333 14.5 96h-2l-1 48c-14.667 -23.333 -31 -40.666 -49 -51.999c-23.333 -14 -45.666 -19.333 -66.999 -16
s-41.333 13 -60 29c-34.667 30 -60.5 75.5 -77.5 136.5s-19.5 122.5 -7.5 184.5c8.66699 49.333 25.167 90.833 49.5 124.5s53.5 53.834 87.5 60.501c44 9.33301 83.667 -5.66699 119 -45v19h54l1 -114l1 -3c2.66699 -6.66699 2.66699 -13.334 0 -20.001l4 -319
c0.666992 -2.66699 1 -5 1 -7z" />
    <glyph glyph-name="h" unicode="h" horiz-adv-x="508" 
d="M58 738l53.999 0.000976562l-2 -295c5.33301 6.66699 11 13 17 19c21.333 22 47 34.667 77 38s58 -2.66699 84 -18s44.333 -37 55 -65c7.33301 -18.667 10.333 -48 9 -88h1l-1 -324h-54l1 296c-0.666992 2 -1 4.33301 -1 7c0 5.33301 0.166992 13.666 0.5 24.999
s0.5 19.833 0.5 25.5s-0.5 12.167 -1.5 19.5s-2.5 13.666 -4.5 18.999c-10 26 -29 41.833 -57 47.5s-51.667 -1.16602 -71 -20.499c-28.667 -29.333 -47 -73 -55 -131l-2 -288h-54l2 269c-1.33301 4 -2 8 -2 12c0.666992 4 1.33398 7.66699 2.00098 11z" />
    <glyph glyph-name="i" unicode="i" horiz-adv-x="278" 
d="M69 489l54 -2l-11 -492l-54 2zM66 668l54 2l2 -53l-54 -2z" />
    <glyph glyph-name="j" unicode="j" horiz-adv-x="279" 
d="M69 472l53.999 0.000976562v-579c1.33301 -38.667 -2 -67 -10 -85c-15.333 -36.667 -51.666 -55 -108.999 -55c-7.33301 0 -13.666 2.66699 -18.999 8s-8 11.666 -8 18.999s2.66699 13.666 8 18.999s11.666 8 18.999 8c33.333 0 53.333 7.33301 60 22
c4 10.667 5.33301 40 4 88c0 2.66699 0.333008 5.33398 1 8.00098v547zM62.999 662.001l54 2l2 -52l-54 -2z" />
    <glyph glyph-name="k" unicode="k" horiz-adv-x="503" 
d="M272 471l42 -34l-144 -183l178 -238l-44 -32l-194 260l-1 -247h-54l3 736h54l-2 -484l14 11l-11 9z" />
    <glyph glyph-name="l" unicode="l" horiz-adv-x="271" 
d="M62 741h54v-747h-54v747z" />
    <glyph glyph-name="m" unicode="m" horiz-adv-x="750" 
d="M62 472l53.9941 -0.000976562v-40c5.33301 8 10.333 15 15 21c18.667 22.667 39.667 37 63 43c27.333 7.33301 56 2.33301 86 -15c25.333 -14.667 43 -33 53 -55c33.333 44.667 72.333 69.334 117 74.001c34 4 63.833 -5.5 89.5 -28.5s42.834 -57.5 51.501 -103.5
c2.66699 -13.333 3.33398 -34.333 2.00098 -63h1h1l-1 -300h-54l1 270c-1.33301 3.33301 -2 6.33301 -2 9c0 7.33301 0.5 21 1.5 41s0.5 31 -1.5 33c-7.33301 34.667 -18.5 58.667 -33.5 72s-31.5 19 -49.5 17c-19.333 -2.66699 -38.666 -12.334 -57.999 -29.001
s-34.666 -38.667 -45.999 -66c-0.666992 -2.66699 -2 -4.66699 -4 -6c0.666992 -9.33301 1.33398 -22.5 2.00098 -39.5s1.33398 -28.833 2.00098 -35.5c0 -3.33301 -0.333008 -7 -1 -11l4 -269h-54l-5 307c-2 50.667 -5.33301 83.667 -10 99
c-4.66699 14.667 -16 27.334 -34 38.001c-16.667 9.33301 -31.334 12.333 -44.001 9c-12 -2.66699 -23.667 -11 -35 -25c-19.333 -24 -36.666 -61.333 -51.999 -112c-0.666992 -2 -1.66699 -4 -3 -6l4 -310h-54z" />
    <glyph glyph-name="n" unicode="n" horiz-adv-x="508" 
d="M52 494l54 0.000976562v-57c6.66699 8.66699 13.667 17 21 25c21.333 22 47 34.667 77 38s58 -2.66699 84 -18s44.333 -37 55 -65c7.33301 -18.667 10.333 -48 9 -88h1l-1 -324h-54l1 296c-0.666992 2 -1 4.33301 -1 7c0 5.33301 0.166992 13.666 0.5 24.999
s0.5 19.833 0.5 25.5s-0.5 12.167 -1.5 19.5s-2.5 13.666 -4.5 18.999c-10 26 -29 41.833 -57 47.5s-51.667 -1.16602 -71 -20.499c-30 -30.667 -49 -78.667 -57 -144l-2 -6l1 -270h-54z" />
    <glyph glyph-name="o" unicode="o" horiz-adv-x="522" 
d="M198 463c-27.333 -10 -48.6709 -23 -64.0039 -39c-19.333 -20 -33.666 -54.167 -42.999 -102.5s-10.666 -97.166 -3.99902 -146.499c7.33301 -51.333 22 -90.333 44 -117c22.667 -26.667 51.667 -36.667 87 -30c26.667 5.33301 48.334 24.333 65.001 57
c16 32 25.667 72.667 29 122c2.66699 47.333 -1.16602 92.666 -11.499 135.999s-24.166 74.333 -41.499 93c-9.33301 10 -17 16 -23 18c-2.66699 0.666992 -7.33398 2 -14.001 4c-10 2 -18 3.66699 -24 5zM220.995 513l12 -2.99707c9.33301 -2 16.333 -3.66699 21 -5
c14 -5.33301 29 -16.333 45 -33c23.333 -24.667 41 -62.334 53 -113.001s16.333 -102.334 13 -155.001c-2.66699 -56.667 -14 -104.667 -34 -144c-24.667 -48 -59 -76 -103 -84c-56 -11.333 -102 4.66699 -138 48c-28.667 34.667 -47.334 82.667 -56.001 144
c-7.33301 55.333 -5.66602 111.166 5.00098 167.499s29.667 98.5 57 126.5c23.333 24.667 56.333 43.667 99 57c10 2.66699 18.667 0.666992 26 -6z" />
    <glyph glyph-name="p" unicode="p" 
d="M119 330l-0.000976562 -186.001v-2c7.33301 -24.667 18.833 -47.667 34.5 -69s32.834 -36.666 51.501 -45.999c18 -9.33301 35.333 -11.333 52 -6c19.333 6 37.333 22 54 48c18.667 29.333 30.667 72.666 36 129.999c4.66699 54.667 2 100.334 -8 137.001
c-12 42.667 -28.333 73.167 -49 91.5s-41.667 26.5 -63 24.5s-42 -13.333 -62 -34s-35.333 -50 -46 -88zM65.999 490.999l54.001 0.00195312v-43c29.333 34.667 63.333 54 102 58c37.333 3.33301 71.166 -8.83398 101.499 -36.501s52.833 -67.5 67.5 -119.5
c12 -42 15 -94 9 -156c-6 -66.667 -20.333 -117.667 -43 -153c-24 -38 -52 -62 -84 -72c-30 -9.33301 -60.667 -6 -92 10c-22.667 11.333 -43.667 28.666 -63 51.999l-1 -268h-54l2 557c-1.33301 4.66699 -1.33301 9.66699 0 15v2z" />
    <glyph glyph-name="q" unicode="q" horiz-adv-x="514" 
d="M305 480l54.0029 -0.00195312l-1 -325c1.33301 -5.33301 1.33301 -11 0 -17l-2 -378h-54l1 288c-6 -10 -12 -18.333 -18 -25c-14.667 -17.333 -32.667 -30.666 -54 -39.999s-43 -11.666 -65 -6.99902c-21.333 4 -40 12.333 -56 25s-28.833 28.167 -38.5 46.5
s-17.334 37.333 -23.001 57s-9.5 40.834 -11.5 63.501c-4.66699 41.333 -4.33398 83.666 0.999023 126.999s14 79 26 107c19.333 44.667 44.333 75.667 75 93c29.333 16.667 60.666 18.667 93.999 6c26.667 -10.667 50.667 -30 72 -58v37zM299.003 326.998
c-6.66699 30.667 -17.999 57.167 -33.999 79.5s-33.333 37.166 -52 44.499c-16.667 6.66699 -32.667 5.66699 -48 -3c-19.333 -11.333 -36.333 -34 -51 -68c-10 -23.333 -17.333 -54 -22 -92c-5.33301 -39.333 -6 -77.666 -2 -114.999
c4.66699 -41.333 14.334 -74.5 29.001 -99.5s33.667 -40.167 57 -45.5c11.333 -2 23.166 -0.333008 35.499 5s22.833 13.333 31.5 24c8.66699 10 19.667 26.333 33 49c16 27.333 25.333 43 28 47v163c-2.66699 3.33301 -4.33398 7 -5.00098 11z" />
    <glyph glyph-name="r" unicode="r" horiz-adv-x="399" 
d="M58 466h54v-29c26 36 58.667 59 98 69c7.33301 2 14.166 1 20.499 -3s10.5 -9.5 12.5 -16.5s1 -13.667 -3 -20s-9.33301 -10.5 -16 -12.5c-56.667 -14 -93 -67.333 -109 -160l4 -292h-54l-4 256c-3.33301 5.33301 -4.66602 11 -3.99902 17l4 23z" />
    <glyph glyph-name="s" unicode="s" horiz-adv-x="447" 
d="M236 409c-17.333 19.333 -34.6631 31.998 -51.9961 37.998s-33 6.66699 -47 2c-14 -4 -25.333 -13 -34 -27s-12.334 -32.333 -11.001 -55c0.666992 -12.667 2.83398 -23.667 6.50098 -33s10 -18.166 19 -26.499s17.167 -15.166 24.5 -20.499s19 -12.666 35 -21.999
c3.33301 -2 6 -3.66699 8 -5c34.667 -20.667 59.667 -41 75 -61c23.333 -31.333 33.666 -70 30.999 -116c-2 -35.333 -14 -62.5 -36 -81.5s-48.667 -28.5 -80 -28.5c-28 -0.666992 -55.667 6 -83 20s-48.666 33.333 -63.999 58c-4 6 -5.16699 12.667 -3.5 20
s5.66699 13 12 17s13.166 5.16699 20.499 3.5s13 -5.83398 17 -12.501c10 -16 24.5 -28.833 43.5 -38.5s37.833 -14.167 56.5 -13.5c40 0.666992 61 20.667 63 60c2 32 -4.66699 58.333 -20 79c-11.333 14.667 -31.333 30.667 -60 48
c-1.33301 1.33301 -6.16602 4.33301 -14.499 9s-13.666 7.83398 -15.999 9.50098s-7.33301 5 -15 10s-12.834 8.83301 -15.501 11.5l-14 12c-6.66699 6 -11.334 11.333 -14.001 16l-12 17c-4 6.66699 -7 13.167 -9 19.5s-3.83301 13.5 -5.5 21.5
s-2.83398 16.333 -3.50098 25c-1.33301 33.333 5.5 62.166 20.5 86.499s35.833 40.833 62.5 49.5c25.333 8 52 7.16699 80 -2.5s53 -27.5 75 -53.5c5.33301 -6 7.66602 -12.667 6.99902 -20s-3.83398 -13.5 -9.50098 -18.5s-12.167 -7.16699 -19.5 -6.5
s-13.333 3.66699 -18 9z" />
    <glyph glyph-name="t" unicode="t" horiz-adv-x="371" 
d="M16 430l-2 54.002l53 1l-1 123h54l1 -122l76 2l2 -54l-78 -2l2 -324h-1c0.666992 -32.667 3.33398 -52.667 8.00098 -60c5.33301 -10.667 24 -14 56 -10c7.33301 0.666992 13.833 -1.33301 19.5 -6s9 -10.667 10 -18s-0.833008 -13.833 -5.5 -19.5
s-10.667 -9.16699 -18 -10.5c-56.667 -6.66699 -93.334 6.33301 -110.001 39c-2.66699 5.33301 -5 11.166 -7 17.499s-3.33301 14.166 -4 23.499l-1 20c-0.666992 4 -1.16699 12.167 -1.5 24.5s-0.5 19.166 -0.5 20.499c0 2.66699 0.333008 5.33398 1 8.00098l-2 294z" />
    <glyph glyph-name="u" unicode="u" horiz-adv-x="516" 
d="M115 163c0 -50 7.33008 -86.666 21.9971 -109.999c10 -16.667 23.333 -24.667 40 -24c18.667 0.666992 39.834 11.667 63.501 33s44.834 51.333 63.501 90l-5 323h54l8 -475h-54l-1 54c-40.667 -50.667 -83 -77 -127 -79c-37.333 -1.33301 -66.666 15 -87.999 49
c-18 29.333 -28 69.666 -30 120.999h-1l5 331h54l-5 -307c0.666992 -2 1 -4 1 -6z" />
    <glyph glyph-name="v" unicode="v" horiz-adv-x="464" 
d="M5 462l52 14l105 -375l94 360l52 -14l-117 -448l2 -6l-52 -14z" />
    <glyph glyph-name="w" unicode="w" horiz-adv-x="644" 
d="M14 468l52 12l78 -351l83 349l28 -7l24 6l81 -348l76 345l52 -12l-100 -453h-1l1 -3l-52 -12l-83 359l-82 -345v-2h-1l-1 -4l-8 2l-42 -10z" />
    <glyph glyph-name="x" unicode="x" horiz-adv-x="477" 
d="M261 487l48 -26l-113 -211l126 -237l-48 -26l-108 205l-114 -214l-48 26l131 246l-109 205l48 26l92 -174z" />
    <glyph glyph-name="y" unicode="y" horiz-adv-x="469" 
d="M261 487l52 -14l-175 -672l-52 14l46 176l-130 473l52 14l105 -382z" />
    <glyph glyph-name="z" unicode="z" horiz-adv-x="433" 
d="M46 433l-2 54l222 5l1 -23l10 -5l-9 -22v-4h-2l-185 -401l183 -2v-54l-232 3v29l-17 8l191 416z" />
    <glyph glyph-name="braceleft" unicode="{" horiz-adv-x="357" 
d="M175 681c-16.667 0 -28.3301 -0.169922 -34.9971 -0.50293s-13.334 -1.83301 -20.001 -4.5s-12 -7.33398 -16 -14.001c-4.66699 -6 -7.66699 -21 -9 -45c-1.33301 -22 -1.33301 -50.667 0 -86c0.666992 -11.333 1.66699 -32 3 -62s2.16602 -49.5 2.49902 -58.5
s0.166016 -23.833 -0.500977 -44.5c0 -2 -0.166992 -4.66699 -0.5 -8s-0.5 -5.66602 -0.5 -6.99902c-0.666992 -8 -1.33398 -15 -2.00098 -21c-3.33301 -22 -10.666 -38 -21.999 -48c-2 -2 -4 -3.66699 -6 -5c8 -8 14.667 -17.667 20 -29c11.333 -23.333 17 -56.333 17 -99
c0 -9.33301 -1.66699 -46 -5 -110c-2.66699 -42.667 -2.33398 -75.334 0.999023 -98.001c4 -26.667 12.667 -45 26 -55c2 -1.33301 4 -2.33301 6 -3s4.66699 -1.16699 8 -1.5s6.16602 -0.666016 8.49902 -0.999023s6.33301 -0.666016 12 -0.999023s10.5 -0.5 14.5 -0.5
c7.33301 -0.666992 13.5 -3.66699 18.5 -9s7.16699 -11.833 6.5 -19.5s-3.66699 -14 -9 -19s-12 -7.16699 -20 -6.5c-0.666992 0 -4.16699 0.166992 -10.5 0.5s-11.5 0.666016 -15.5 0.999023s-9.33301 1 -16 2s-13 2.83301 -19 5.5s-11.333 6 -16 10
c-24.667 18.667 -40.334 48.334 -47.001 89.001c-4 24.667 -4.66699 61 -2 109c3.33301 63.333 5 99 5 107c0 34.667 -3.66699 59.667 -11 75c-2.66699 5.33301 -5.66699 9.66602 -9 12.999s-6.16602 6 -8.49902 8s-7.5 5.33301 -15.5 10
c-10 1.33301 -17 6.66602 -21 15.999c-1.33301 4 -2 8.33301 -2 13c0 5.33301 1.66699 10.666 5 15.999c6 8.66699 14.333 12.667 25 12l5 2c2.66699 0.666992 4.66699 1.33398 6 2.00098c6.66699 2 11 4 13 6l1 1c0 0.666992 0.5 2.33398 1.5 5.00098s1.83301 6 2.5 10
c0.666992 4.66699 1 10 1 16c0 1.33301 0.166992 4 0.5 8s0.5 6.66699 0.5 8c0.666992 18.667 0.833984 32.167 0.500977 40.5s-1.16602 26.833 -2.49902 55.5l-3 63c-1.33301 38 -1.33301 68.667 0 92c2.66699 32.667 8.33398 56.334 17.001 71.001
c4 5.33301 8.5 10.333 13.5 15s9.66699 8.66699 14 12s9.66602 6 15.999 8s11.5 3.5 15.5 4.5s9.66699 1.83301 17 2.5s12 1 14 1h15h12c7.33301 0 13.666 -2.66699 18.999 -8s8 -11.666 8 -18.999s-2.66699 -13.666 -8 -18.999s-11.666 -8 -18.999 -8z" />
    <glyph glyph-name="bar" unicode="|" horiz-adv-x="300" 
d="M85 730h54l6 -967h-54z" />
    <glyph glyph-name="braceright" unicode="}" horiz-adv-x="392" 
d="M56 748c1.33301 0 5.66895 0.165039 13.002 0.498047s12.833 0.333008 16.5 0s9 -1 16 -2s13.5 -3 19.5 -6s12 -6.83301 18 -11.5c22 -16.667 35.667 -46.667 41 -90c2.66699 -24.667 3 -62.667 1 -114c-2.66699 -62.667 -3.66699 -100 -3 -112
c1.33301 -34 6.33301 -56.667 15 -68c2 -3.33301 4.16699 -6 6.5 -8s5.83301 -4.66699 10.5 -8l10 -8c3.33301 -1.33301 6.33301 -3.33301 9 -6c5.33301 -6 8 -12.667 8 -20s-2.33301 -13.666 -7 -18.999c-2 -2.66699 -4.66699 -4.66699 -8 -6
c-28.667 -31.333 -43.667 -76.333 -45 -135c-0.666992 -18 0.333008 -47.667 3 -89c2.66699 -42 4 -72.333 4 -91v-9v-13c0 -3.33301 -0.333008 -8.16602 -1 -14.499s-1.5 -11.833 -2.5 -16.5s-2.66699 -9.66699 -5 -15s-4.83301 -10.333 -7.5 -15
c-6.66699 -9.33301 -15.167 -16.833 -25.5 -22.5s-18.833 -9.16699 -25.5 -10.5s-15.834 -2.5 -27.501 -3.5s-17.834 -1.5 -18.501 -1.5c-8 -0.666992 -14.833 1.16602 -20.5 5.49902s-9 10.333 -10 18s0.666992 14.334 5 20.001s10.166 9.16699 17.499 10.5
c8 0.666992 16.5 1.33398 25.5 2.00098s14.833 1.33398 17.5 2.00098s5.66699 1.83398 9 3.50098s6.33301 4.5 9 8.5c3.33301 4.66699 5.33301 21.667 6 51c0 16.667 -1.33301 45.667 -4 87s-3.66699 72.666 -3 93.999c1.33301 64.667 17 116.667 47 156
c-9.33301 8 -16.333 15 -21 21c-14.667 20.667 -23 53 -25 97c-0.666992 16 0.333008 55 3 117c2 48.667 1.66699 84 -1 106c-3.33301 28 -9.66602 46 -18.999 54c-2.66699 2 -5 3.5 -7 4.5s-4.83301 1.66699 -8.5 2s-6.16699 0.5 -7.5 0.5h-12h-16
c-7.33301 0 -13.666 2.66699 -18.999 8s-8 11.666 -8 18.999s2.66699 13.666 8 18.999s11.666 8 18.999 8z" />
    <glyph glyph-name="asciitilde" unicode="~" horiz-adv-x="724" 
d="M74 282c6.66699 4.66699 17.998 13.3359 33.998 26.0029c16 13.333 28.667 23 38 29c34.667 23.333 69 33.333 103 30c31.333 -3.33301 62.666 -15.333 93.999 -36c4.66699 -2.66699 16 -10.334 34 -23.001c11.333 -8 20 -13.667 26 -17c15.333 -8 29.333 -9.66699 42 -5
c20.667 8 46 31 76 69c4.66699 6 10.667 9.33301 18 10s14 -1.33301 20 -6s9.33301 -10.667 10 -18s-1.33301 -14 -6 -20c-36 -45.333 -69 -73.666 -99 -84.999c-28 -10.667 -56.667 -8.33398 -86 6.99902c-8.66699 4.66699 -19.667 11.667 -33 21
c-15.333 11.333 -25.666 18.666 -30.999 21.999c-24 16 -47.667 25 -71 27c-20.667 2 -43 -4.66699 -67 -20c-6.66699 -4.66699 -18 -13.334 -34 -26.001c-17.333 -14 -30 -23.667 -38 -29c-6 -4.66699 -12.667 -6.16699 -20 -4.5s-13.166 5.5 -17.499 11.5
s-5.66602 12.667 -3.99902 20s5.5 13 11.5 17z" />
    <glyph glyph-name="quoteleft" unicode="&#x2018;" horiz-adv-x="285" 
d="M77 699l52 -10l-44 -222l-52 10z" />
    <glyph glyph-name="quoteright" unicode="&#x2019;" horiz-adv-x="285" 
d="M77 696l52 -12l-58 -235l-52 12z" />
    <glyph glyph-name="quotedblleft" unicode="&#x201c;" horiz-adv-x="391" 
d="M88 705l52 -12l-50 -227l-52 12zM183 695l52 -10l-44 -218l-52 10z" />
    <glyph glyph-name="quotedblright" unicode="&#x201d;" horiz-adv-x="388" 
d="M80 694l52 -12l-47 -216l-52 12zM180 704l52 -10l-44 -239l-52 10z" />
    <glyph glyph-name="ideographicspace" unicode="&#x3000;" horiz-adv-x="1000" 
 />
    <glyph glyph-name=".null" horiz-adv-x="0" 
 />
    <glyph glyph-name="nonmarkingreturn" horiz-adv-x="333" 
 />
  </font>
</defs>
</svg>
