<?xml version="1.0" encoding="UTF-8" standalone="no"?>
<!-- Created with Inkscape (http://www.inkscape.org/) -->

<svg
   xmlns:dc="http://purl.org/dc/elements/1.1/"
   xmlns:cc="http://creativecommons.org/ns#"
   xmlns:rdf="http://www.w3.org/1999/02/22-rdf-syntax-ns#"
   xmlns:svg="http://www.w3.org/2000/svg"
   xmlns="http://www.w3.org/2000/svg"
   xmlns:sodipodi="http://sodipodi.sourceforge.net/DTD/sodipodi-0.dtd"
   xmlns:inkscape="http://www.inkscape.org/namespaces/inkscape"
   width="900"
   height="900"
   id="svg3854"
   version="1.1"
   inkscape:version="0.91 r13725"
   sodipodi:docname="Label Seal.svg"
   viewBox="0 0 900 900">
  <defs
     id="defs3856" />
  <sodipodi:namedview
     id="base"
     pagecolor="#ffffff"
     bordercolor="#666666"
     borderopacity="1.0"
     inkscape:pageopacity="0.0"
     inkscape:pageshadow="2"
     inkscape:zoom="0.60111111"
     inkscape:cx="450"
     inkscape:cy="450"
     inkscape:document-units="px"
     inkscape:current-layer="layer1"
     showgrid="false"
     inkscape:window-width="1366"
     inkscape:window-height="716"
     inkscape:window-x="-8"
     inkscape:window-y="-8"
     inkscape:window-maximized="1"
     units="in"
     inkscape:snap-nodes="false" />
  <metadata
     id="metadata3859">
    <rdf:RDF>
      <cc:Work
         rdf:about="">
        <dc:format>image/svg+xml</dc:format>
        <dc:type
           rdf:resource="http://purl.org/dc/dcmitype/StillImage" />
        <dc:title></dc:title>
      </cc:Work>
    </rdf:RDF>
  </metadata>
  <g
     inkscape:label="Layer 1"
     inkscape:groupmode="layer"
     id="layer1"
     transform="translate(0,-152.359)">
    <path
       style="fill:#211d1e"
       d="m 437.23829,1005.1172 c -8.56758,-0.8671 -17.08927,-2.0245 -25.55772,-3.5596 -6.83683,0.1859 -13.70054,-0.3343 -20.34348,-2.15395 -9.91507,-2.67317 -20.30553,-3.39497 -30.04698,-6.65411 -6.17208,-0.61988 -12.49749,-0.27013 -18.43364,-2.4685 -11.5247,-3.76038 -24.07623,-4.6132 -34.84777,-10.45293 -3.94987,-3.97802 -8.00891,-6.73464 -13.70777,-6.4416 -6.2047,-3.06333 -13.24623,-3.86789 -19.27467,-7.39661 -5.27193,-2.05257 -8.98392,-6.62338 -14.41101,-8.32799 -5.99001,-3.6395 -12.45262,-6.35752 -18.3417,-10.2386 -5.69601,-4.8975 -13.63353,-6.15459 -19.07758,-11.34243 -8.46394,-5.65596 -16.45478,-12.01659 -23.42289,-19.46137 -6.05478,-3.23589 -6.75296,-10.79419 -12.5921,-13.79146 -5.75927,-0.93598 -9.21573,-6.2395 -12.74872,-10.09508 -5.98785,0.0972 -7.56554,-7.02408 -11.95188,-10.18004 -5.67233,-5.75726 -10.26111,-12.65015 -16.6202,-17.68044 -5.10871,-2.82311 -7.39148,-8.86934 -11.43934,-12.93004 -5.38634,-6.60105 -12.41262,-12.01011 -16.22054,-19.75686 -4.33789,-3.57269 -5.4421,-9.31072 -8.84051,-13.40527 -2.51268,-5.12617 -7.00966,-9.88248 -8.10101,-15.32675 -3.067756,-4.95583 -4.636916,-10.73181 -7.775163,-15.84259 -0.724332,-6.19187 -7.154714,-8.7455 -8.534372,-14.85513 -3.124285,-6.58199 -6.794334,-12.9442 -8.444581,-20.12752 -2.397211,-6.01323 -2.942239,-12.80115 -5.810926,-18.43874 -2.560326,-4.46835 -1.49024,-11.29692 -4.841138,-14.4485 4.204193,-2.52241 -5.33495,-8.33591 -2.078321,-12.6194 1.233453,-0.56381 8.289621,-0.73193 3.648914,-0.86499 -6.24204,0.66274 -7.56201,-6.86628 -6.774621,-11.56159 0.300993,-4.89921 -6.278957,-6.2835 -4.659577,-12.11578 -1.48503,-4.89661 -2.915371,-9.99571 -1.62625,-14.75351 -5.277631,-1.97403 0.96339,-9.45244 -2.080154,-12.77395 -0.901156,-3.42021 3.273128,-6.17741 0.80402,-10.08572 -1.186991,-4.40231 -2.710106,-9.44727 -1.593182,-14.83847 -0.478646,-4.71671 3.816184,-9.33693 -1.285085,-11.72525 2.08166,-5.52287 -1.623881,-11.81231 1.513077,-17.01984 1.778859,-5.69761 -1.527225,-11.85513 -0.497628,-17.96815 0.231414,-13.43978 -1.852222,-27.28592 2.141517,-40.34005 -2.48899,-4.04634 0.389025,-6.46913 4.302738,-6.61124 -1.102988,-1.15778 -7.306898,-1.40223 -4.848065,-5.90546 1.675329,-2.65823 5.942549,-2.92954 1.994286,-6.22816 -3.820879,-4.34789 2.375705,-7.01725 -0.06222,-12.10891 0.993404,-5.40389 0.719503,-11.01936 3.01866,-16.37146 -0.794605,-5.32869 8.291768,-2.37297 7.546481,-5.75899 -4.534823,2.04085 -6.933856,-0.46317 -4.524043,-4.87621 -0.696962,-5.97167 4.625305,-9.93431 5.456788,-15.78651 2.024964,-5.92013 5.029136,-11.24192 7.742137,-16.7816 2.295523,-4.68531 3.017771,-9.86067 5.821237,-14.25102 2.415085,-4.77762 5.101536,-9.43308 7.108719,-14.47325 1.992211,-6.48877 8.197317,-10.65527 9.494146,-17.47994 1.780986,-5.32893 5.825636,-9.61777 8.143626,-14.65503 1.75153,-5.60178 6.90478,-10.1529 10.16139,-15.07454 3.78715,-4.83258 5.54088,-11.01604 9.87782,-15.45513 0.0871,-2.96398 7.77704,-0.39045 3.44385,-3.66658 -1.55594,-5.86411 7.81199,-6.45555 8.71058,-10.0048 -0.17703,-5.31305 7.11128,-8.71621 10.07101,-12.99896 4.41204,-4.42886 7.19657,-10.10567 12.32853,-13.89521 3.33474,-3.3836 7.27463,-5.30547 8.30681,-10.23002 2.17975,-2.66768 10.13321,-0.0636 9.8907,-2.59244 -6.8408,-1.28339 4.1578,-4.93217 4.60087,-8.45657 4.94709,-4.42573 12.04835,-5.89449 16.40718,-11.3821 5.35721,-3.159 9.40814,-7.95993 14.18705,-11.89651 4.37185,-3.72983 10.06527,-6.08838 13.7981,-10.37059 2.15938,-4.914 11.15325,-3.36278 11.95217,-9.66498 3.70546,-3.53425 9.83019,-1.54046 11.65399,-6.19367 6.03432,-0.97545 9.28333,-7.31758 15.13223,-8.26735 5.83612,-3.59755 12.9303,-4.7984 18.21891,-9.56411 5.24692,-4.54242 13.11843,-3.61352 19.15285,-7.02055 2.67766,-0.92361 5.40958,-1.95946 2.21181,-3.83815 2.34519,-3.26737 6.76187,3.94133 9.40195,-0.37506 2.71791,1.20172 6.96458,-2.76529 7.68264,-1.67914 2.51092,1.11354 3.76233,-5.91814 7.90257,-3.18146 5.21073,-0.42498 10.4173,-1.98721 15.62952,-2.53113 -0.33778,-3.7506 5.78555,-3.73312 8.18787,-4.41923 2.62439,2.11557 10.00234,2.65106 5.29895,-1.23232 4.35151,-3.5315 10.75773,-1.64048 16.02796,-2.17321 10.91628,-1.07956 21.6654,-3.50657 32.41157,-5.64676 10.17667,-1.17946 20.52243,-0.57103 30.76552,-0.81609 22.48201,0.16547 44.98701,-0.19509 67.45218,0.76076 4.95927,2.09648 9.81207,1.55249 15.26564,1.73455 7.16138,0.2612 14.19358,1.84287 21.35749,1.89956 5.41764,1.65653 11,1.60018 16.17475,3.97716 4.38851,1.61118 11.92254,2.09943 10.39359,7.01781 4.77445,-4.91323 12.06238,0.0382 17.51513,1.68489 5.69001,1.184 10.90264,3.77564 16.22236,6.0302 7.13546,1.5779 12.97692,6.1301 19.40768,9.32132 3.73114,4.59065 10.229,4.82507 14.05422,9.25063 2.1699,1.8284 2.93358,5.87945 4.84538,1.44977 5.0141,2.64425 10.10631,6.40381 15.56885,8.87146 6.22092,3.57544 12.57285,7.14 17.56597,12.34965 5.45438,4.77433 12.28257,7.43692 17.6193,12.36299 4.24056,4.15592 10.16094,6.24018 13.7274,10.99585 5.34597,3.02613 9.90932,7.17713 14.72129,10.94639 6.11843,2.67145 8.03809,10.12795 12.78517,14.19152 6.29854,1.96139 9.0303,7.52995 14.24271,10.71346 6.99013,4.3119 10.98638,11.88493 16.6539,17.64215 1.93132,3.01112 10.6874,10.76252 3.21486,11.91293 2.92297,1.67927 6.34872,-1.84111 8.80331,2.6624 6.61033,5.73296 8.69032,14.6732 14.51807,21.00227 2.39951,3.26826 0.70548,9.56921 6.07268,9.6969 0.54847,6.20273 6.71465,9.15213 8.35662,14.98791 2.41975,5.52419 3.47439,11.38097 6.08511,16.73371 1.76369,5.5144 4.80339,10.90873 6.92637,16.46603 1.43295,5.21314 2.6393,10.50221 5.12219,15.36137 2.73609,5.69609 3.45147,11.9444 4.45901,18.05927 2.83629,5.06996 3.02103,10.97466 5.0494,16.37818 2.01036,7.57047 5.00685,14.97243 5.48681,22.85331 2.6839,8.79535 4.18182,17.877 5.22278,27.00785 1.65862,4.75952 0.4155,10.71516 3.8407,14.13438 0.007,2.76406 -4.48784,4.71398 -0.47244,7.03597 3.09493,8.76271 2.69306,18.30545 1.99307,27.43141 1.31259,5.31549 1.70964,10.93036 -0.77803,15.99138 0.4098,3.6403 2.32996,6.98704 1.15403,10.47554 4.02145,3.70284 -3.7315,10.02649 -0.23418,13.36323 -0.47958,5.48348 -1.60232,10.90384 -2.11259,16.37791 -0.77115,5.98435 4.41008,11.90971 1.83628,17.50299 -3.29785,4.59596 1.95437,11.94842 -3.56343,14.9389 -0.90956,4.59199 -1.99377,9.17215 -1.82425,14.0176 -1.74919,6.16521 -3.44476,12.45474 -4.60705,18.66369 -0.86374,3.0066 -3.52234,4.54099 -0.34811,6.75588 -1.41307,4.95 -0.96904,10.75845 -6.40177,13.21975 -0.478,5.26375 -2.26558,9.90231 -3.41764,14.95847 -0.75983,5.07223 -0.17776,10.11961 -3.75409,14.41465 -0.22968,5.75936 -3.73062,10.21457 -5.20949,15.25185 -1.26345,6.69851 -5.38926,12.52407 -7.03323,19.09105 -3.75723,5.74978 -9.48963,10.19616 -11.79648,16.86553 -4.10335,3.60604 -5.88449,8.789 -9.50016,12.91455 -4.04345,3.57715 -5.41757,9.43022 -9.33756,12.93582 -2.01464,4.83751 -7.29549,6.67133 -9.53471,10.96886 -3.25639,5.24266 -8.17583,8.66281 -12.83442,12.60036 -1.86807,4.36437 -3.84358,12.67192 -10.81116,9.83412 -2.56383,3.08987 -2.38122,9.78959 -6.86753,12.80908 -4.61461,4.57458 -9.00601,9.86852 -14.85547,12.83726 -3.58587,2.75558 -6.06748,8.62438 -10.36481,11.79451 -5.88017,5.59709 -11.74242,11.40952 -18.73583,15.60931 -5.61768,2.39146 -8.7931,8.78628 -14.48018,11.901 -4.15742,4.08104 -10.58164,4.46833 -14.11604,9.37586 -6.87681,3.93205 -12.82272,9.48437 -20.04076,12.94625 -9.4696,5.03344 -19.46633,9.0994 -28.58171,14.7678 -5.82248,2.52861 -12.79473,1.61413 -18.05311,5.59751 -6.09116,3.24657 -13.48478,2.0007 -19.35759,5.82372 -5.40363,2.61785 -10.93136,4.5712 -16.50557,6.64843 -7.79402,4.47873 -17.11207,5.24612 -24.96491,9.57674 -6.28137,2.53086 -13.33683,1.19339 -19.51614,4.03775 -5.89248,0.99289 -11.57159,2.9716 -17.64542,3.06219 -13.5817,1.0716 -27.28002,1.5032 -40.70232,3.8849 -7.24691,0.591 -14.54018,0.9471 -21.75359,1.6295 -1.45125,-0.073 -2.89857,-0.2185 -4.33844,-0.4107 z m 46.63898,-17.29494 c 6.32601,-1.18042 12.55144,-2.80644 19.0271,-2.97047 6.3059,-0.66544 12.33999,-2.81274 18.71179,-3.16502 5.99726,-1.36929 12.08908,-1.91522 18.19079,-2.67235 7.40647,-1.21384 14.78231,-3.09879 21.50668,-6.40658 6.23961,-0.90431 11.93806,-3.5822 17.92019,-5.25247 4.43484,-2.37776 6.99245,-5.79318 11.96416,-6.84346 5.74356,-0.6109 10.72052,-3.98472 16.24619,-5.43192 5.49433,-2.95215 11.75684,-4.20877 16.92337,-7.77458 8.26683,-2.62876 13.92763,-10.03448 22.29137,-12.41458 4.58212,-3.01548 9.64343,-4.86571 14.22328,-7.89182 7.93354,-1.94136 12.57049,-9.43741 19.59783,-12.92087 5.35842,-5.31663 12.0189,-9.10071 17.19819,-14.64877 4.1589,-4.09922 9.61285,-6.44867 13.55949,-10.83141 8.4104,-7.56786 16.91022,-15.07642 24.25721,-23.70999 5.69968,-4.97449 10.87414,-10.47925 15.68657,-16.31236 4.71945,-3.84051 8.63367,-8.2411 11.37077,-13.7445 3.53545,-3.87054 6.36777,-8.23997 10.07191,-12.01202 2.51307,-4.46506 5.55686,-8.57773 7.86988,-13.06863 3.88022,-6.982 9.74206,-12.6344 13.76257,-19.47534 2.7888,-5.18736 6.39193,-9.95906 8.84518,-15.29958 0.72538,-5.19787 3.34812,-10.30936 5.65716,-15.26091 2.73374,-5.10027 3.92905,-10.8567 7.08971,-15.62577 2.38468,-6.33637 3.93753,-13.03403 6.85043,-18.9443 1.33463,-5.53654 4.55616,-10.4631 5.46834,-16.17502 3.529,-4.89618 4.42391,-10.80243 4.66547,-16.72083 0.42386,-7.62432 1.66817,-15.15759 2.77454,-22.68362 0.15214,-5.27174 4.78561,-9.45867 3.42317,-14.43539 -0.19618,-6.32766 0.67607,-12.88225 1.44089,-18.76156 1.84065,-3.50711 -3.1913,-7.06253 -0.88903,-11.30528 0.30093,-5.18282 -0.0743,-11.94324 4.07752,-14.79573 2.71842,-0.1191 4.75017,-0.19795 0.86728,-0.53813 -7.83314,-1.07359 -1.39723,-10.66532 -3.39277,-15.70229 -1.61053,-5.45793 -1.99798,-11.14775 -1.70583,-16.8538 0.9562,-6.26335 -2.28112,-11.81907 -2.24767,-17.98466 0.84692,-6.02794 -3.37629,-10.62851 -2.5695,-16.61169 -0.33695,-8.07643 -2.4781,-15.87829 -4.56083,-23.62728 -1.51588,-5.79914 -0.0981,-12.56011 -4.20723,-17.44726 -1.99003,-6.1745 -2.65454,-12.7206 -4.61778,-18.92877 -0.7743,-6.12411 -1.31817,-12.57503 -4.62831,-17.96386 -0.9184,-5.14953 -5.17475,-10.02485 -4.01759,-15.25496 -0.67749,-6.38305 -3.20541,-12.42439 -5.90514,-18.28188 -2.09445,-5.45426 -4.40573,-10.49118 -6.43711,-16.03808 -2.68102,-4.56958 -5.57584,-8.96962 -7.93093,-13.76079 -3.73594,-4.38801 -5.97458,-9.87416 -10.29752,-13.99479 -4.09994,-4.85405 -8.0947,-9.857 -11.67556,-15.08086 -1.92103,-7.03244 -8.36913,-11.40741 -12.17799,-17.36103 -10.67854,-14.60942 -22.96777,-27.95238 -35.27846,-41.18303 -3.74984,-4.66423 -10.16929,-6.76758 -13.99479,-11.74368 -6.34956,-6.08147 -13.29173,-11.4674 -20.27222,-16.77712 -3.99163,-4.54192 -9.24442,-7.39778 -13.80346,-11.28223 -7.29702,-5.4544 -14.62978,-11.05246 -22.75614,-15.14881 -3.76245,-3.75701 -7.00692,-6.777 -12.66174,-6.84184 -4.7443,-2.02414 -8.30734,-4.86653 -12.82584,-7.22911 -5.18512,-2.28304 -9.95818,-5.86607 -15.39082,-7.06746 -5.68148,-2.68363 -11.36079,-5.49465 -16.81229,-8.62784 -5.51552,-1.54375 -11.15741,-4.63397 -16.90459,-6.41092 -5.19803,-3.18342 -11.23244,-4.02887 -16.3826,-7.11272 -6.85704,-0.61257 -13.29519,-3.76284 -20.22593,-3.67796 -5.66449,-0.53807 -4.46805,-3.78447 -0.21523,-4.91808 -5.14868,-3.28743 -6.12969,5.42436 -11.83748,3.02792 -13.04276,-1.33996 -25.67312,-5.21127 -38.76387,-6.21739 -5.67771,-2.33286 -11.49402,-1.19014 -17.40416,-0.55966 -15.92357,0.47554 -32.0943,-0.62381 -47.74189,3.06141 -6.6052,1.0947 -13.24475,-0.87389 -19.85683,0.52774 -2.04,1.20311 -3.98264,-5.30704 -4.61316,-1.8386 4.03681,3.10923 -7.48073,4.55997 -10.04968,5.41603 -15.41034,3.80103 -31.25252,5.6388 -46.45478,10.30373 -5.16539,1.02155 -9.91668,1.46153 -14.21985,4.61674 -4.76128,1.57588 -8.6605,-3.50701 -12.74143,0.84639 -1.27191,1.80426 3.84089,-0.76221 4.94387,-0.98703 1.06378,6.46474 -10.1144,6.12121 -13.78876,10.08125 -5.8454,2.66004 -11.4426,6.11877 -17.81045,7.64469 -5.91694,2.64855 -11.23793,6.4438 -17.36995,8.7039 -4.75127,2.82298 -9.86761,5.23884 -15.04915,7.18475 -3.62221,2.90185 -6.80692,6.06786 -11.44762,7.65678 -4.45528,2.91706 -9.32591,5.17009 -13.54633,8.50623 -4.57299,4.21304 -10.40003,5.72583 -14.77108,9.77418 -4.39493,4.43627 -9.50351,7.84406 -14.41895,11.94837 -4.61388,2.76755 -6.95682,8.06549 -12.45525,9.58443 -7.50466,8.69314 -16.3384,16.15041 -24.39009,24.34304 -5.60973,4.85319 -10.6119,10.3495 -14.35866,16.78363 -3.90588,4.01664 -8.50246,7.47598 -11.88835,12.08803 -3.78077,4.80712 -6.76104,10.16327 -10.89621,14.71095 -3.05251,5.45952 -6.98232,10.31565 -9.96933,15.8047 -2.88445,5.38169 -7.15797,10.15679 -8.89924,16.04039 -5.09686,2.42304 -4.17672,9.46702 -8.50835,12.36986 -0.51514,2.98468 -3.633197,3.71007 -3.225345,7.43025 -1.673881,5.47069 -6.6284,8.43948 -7.501418,14.17647 -3.379481,5.45991 -3.516679,12.22754 -8.027687,17.05437 -2.624332,3.85858 -2.740627,9.14898 -5.041276,12.46922 2.474399,4.35535 -5.330431,6.10712 -4.41429,9.36159 -0.815473,4.55013 -3.247521,10.04375 -3.69107,15.27466 -1.617062,3.51982 0.04889,10.34187 -3.777059,11.53459 1.961729,3.92834 -4.6431,3.9686 -0.596634,7.81625 0.591292,4.73585 -1.405789,11.06929 -5.058372,13.30099 5.160826,1.32034 0.0036,7.9263 -4.06652,6.14615 2.070199,0.96413 7.316021,6.0037 4.314231,10.19304 -1.327193,6.67055 1.45844,13.24593 -0.221336,19.7637 -0.925817,10.58188 -0.256351,21.22275 -1.615079,31.78144 -1.761134,6.17843 2.147716,12.24616 -0.486406,18.07304 1.392861,4.19436 0.762563,10.32701 1.658866,13.05142 -5.855643,1.05406 2.322765,3.01396 0.941055,6.92888 1.23943,8.49758 3.300217,17.46822 0.710908,25.89016 4.202903,3.38016 -4.004022,0.66316 -0.925229,3.82795 5.501927,5.69856 5.70733,14.06809 5.877352,21.46887 2.459275,5.23973 5.590496,10.26238 5.657001,16.26172 1.355992,5.32774 4.414128,10.37406 2.890217,15.56368 3.564658,2.16476 0.586211,4.2601 4.564343,6.11891 1.605973,6.84886 0.949104,14.70687 5.266913,20.66753 2.965705,4.47108 6.291307,9.22966 8.066039,14.54487 2.14948,6.57974 6.927586,11.98044 8.669346,18.76708 2.96783,4.59381 6.29537,9.11404 8.67655,14.15328 4.40648,8.0243 8.02868,16.62816 13.41647,24.01432 2.96986,5.11933 6.51387,9.99415 9.77701,15.0025 2.73687,4.96487 6.328,8.18845 9.10422,12.60785 3.46062,4.76687 7.03951,9.51491 11.13695,13.91514 3.70831,4.70116 9.0538,7.78926 12.22906,13.00466 3.21654,4.54154 7.6469,8.19157 10.42077,13.01937 7.53518,-0.50606 8.39003,8.56838 13.8638,12.18472 4.54025,3.78084 10.13043,6.52196 13.18869,11.97151 0.766,3.93766 5.19727,4.36652 7.80051,4.33822 -3.28305,2.65483 3.41546,3.82463 3.4754,6.69058 5.02987,2.92666 10.31634,5.49986 14.6452,9.47271 5.68218,2.52926 10.50513,6.60508 16.50078,8.59802 6.09782,2.57845 11.20491,7.02467 17.47487,9.2787 8.31004,4.18743 16.36606,9.26465 25.22554,12.08237 4.57559,3.71297 10.27332,5.61669 15.64627,7.85144 5.8852,2.51794 11.90217,5.32866 18.01008,6.89925 6.66099,0.71471 12.25242,5.58493 19.16168,5.30255 6.47984,1.78958 12.60731,4.8698 19.33941,5.8503 6.09426,1.11581 12.35512,0.91178 18.33939,2.71855 15.13571,2.24199 30.46559,2.77177 45.65482,4.51009 19.1901,0.42984 38.44234,0.32905 57.58209,-1.21841 l 0.91683,-0.13235 -0.002,10e-4 z m -44.55523,-15.42261 c -4.90742,-0.6312 -10.51715,-0.29993 -15.65986,-1.19959 -5.85761,-1.57211 -12.03634,-2.48566 -17.68382,0.31678 -5.73726,0.5091 -11.15744,-2.09031 -16.88395,-2.22352 -8.04353,-0.82129 -16.21024,-1.54328 -23.89279,-4.0928 -6.50846,-0.8877 -12.52371,-3.71218 -18.93653,-5.2022 -5.96883,-2.21151 -12.36541,-1.91195 -17.9621,-5.01549 -4.67834,-3.16332 -10.1746,-5.0441 -15.20508,-7.71617 -5.62326,-1.49257 -10.4349,-5.11939 -16.11878,-6.29361 -4.78202,-3.98607 -10.62339,-6.61786 -16.65168,-8.24319 -5.43207,-1.8029 -10.77647,-3.38793 -15.21248,-7.18947 -5.29338,-2.95013 -10.80501,-5.51044 -16.08334,-8.47644 -6.03762,-1.74025 -9.37325,-8.353 -15.4996,-11.06731 -8.9101,-4.21573 -15.24163,-12.00859 -23.25786,-17.52012 -3.82249,-4.16747 -8.85406,-6.87052 -13.02083,-10.60009 -3.95577,-3.78817 -7.2898,-7.95164 -10.56056,-12.25549 -3.64201,-5.09722 -7.44847,-9.77479 -12.56355,-13.3733 -3.84095,-5.44033 -8.96782,-9.6016 -13.18312,-14.65648 -3.52795,-4.98321 -6.93671,-9.84135 -10.47662,-14.78425 -1.56429,-6.2244 -8.06486,-7.88489 -11.3189,-12.68804 -5.59043,-7.47939 -10.62578,-15.43036 -14.93271,-23.73472 -3.02221,-8.86783 -10.58273,-15.53013 -12.70191,-24.76608 -3.0424,-4.54301 -4.25484,-9.71924 -7.58923,-14.0687 -2.40105,-4.63975 -4.609563,-9.42902 -6.081002,-14.42682 -3.389257,-4.95694 -4.981111,-10.92122 -6.635226,-16.681 -1.083052,-3.00747 -2.365353,-11.42012 1.105702,-4.66959 3.46393,4.8551 6.641628,9.60127 7.588749,15.67523 2.706197,7.45151 6.708517,14.31459 10.353987,21.30161 2.05598,6.37679 5.81212,12.10163 8.96934,17.98484 3.40796,4.96489 6.08419,10.33249 8.84149,15.64425 7.57679,11.37015 14.95359,22.89435 22.8924,34.0151 3.20748,5.43022 7.71149,9.86138 11.7101,14.82509 2.09523,5.194 7.25029,7.57723 10.17146,12.41041 4.95152,3.63985 9.85482,7.78063 13.47152,12.82873 7.13874,8.6114 15.59897,16.11171 23.80381,23.71779 7.06081,5.43957 13.4314,11.6829 20.36345,17.2766 6.01234,4.80842 12.48759,8.99642 18.34536,13.9935 11.93868,7.76925 24.54645,14.6833 37.97287,19.51153 12.84796,6.31666 26.86895,9.67043 40.08664,15.02652 13.29172,5.11215 27.21974,8.34539 40.8518,12.41078 14.59233,3.48548 29.59811,4.93325 44.51334,6.29426 21.75609,1.71742 43.63113,1.25145 65.39982,0.0346 9.55588,-2.06745 19.42354,-2.33661 29.08527,-3.92466 9.98891,-1.49121 20.37942,-1.66543 29.80813,-5.5999 10.49752,-0.86286 20.5227,-4.3264 30.81874,-6.36871 10.94322,-3.38096 21.35524,-8.25461 32.26605,-11.76101 15.46845,-5.53183 29.62457,-14.05871 44.49045,-20.90508 6.31886,0.86005 -3.16142,6.35758 -5.72219,7.233 -6.39383,2.61342 -10.6819,8.81367 -17.52921,10.46652 -4.70325,4.01167 -10.5662,5.43977 -15.7671,8.35659 -6.84174,5.33974 -15.95343,6.02189 -23.75525,9.3868 -5.32457,3.19925 -11.60874,2.64451 -17.25377,5.01731 -6.1177,0.64268 -12.08888,2.05209 -17.81142,4.26215 -5.90884,1.10914 -11.15935,4.47828 -17.31341,4.06783 -19.75712,2.84387 -39.5378,5.64094 -59.47094,6.94169 -9.79308,0.54318 -19.64926,1.65953 -29.44706,0.82248 l -0.7286,-0.31816 0,-3e-5 z m -18.19357,-13.72026 c -5.23676,-1.57028 -10.75049,0.24375 -15.9216,-2.44024 -6.98798,-0.55386 -13.47779,-3.80099 -20.49525,-4.61661 -6.0898,-1.58653 -12.38653,-1.6851 -18.52043,-2.58623 -6.65248,-2.20008 -13.96606,-0.75849 -20.40624,-3.82821 -9.81708,-2.57406 -20.20243,-3.8489 -29.1263,-9.00587 -7.13258,-2.9786 -14.30331,-5.9157 -20.83841,-10.08405 -8.37954,-3.7345 -14.75229,-11.17852 -23.71698,-13.6077 -3.62824,-3.93163 -8.71973,-6.30335 -12.52466,-10.26734 -5.64843,-5.00766 -13.40905,-7.23111 -18.04598,-13.40962 -5.91343,-3.86549 -10.58135,-9.47817 -16.41779,-13.55588 -6.41752,-5.60628 -11.67264,-12.47257 -18.78452,-17.30654 -5.18494,-3.40989 -7.92748,-9.08908 -12.36304,-13.30316 -4.36872,-3.91001 -7.10893,-9.1411 -11.08461,-13.34094 -6.16505,-5.54282 -10.98463,-12.37248 -16.23393,-18.71138 -4.69662,-4.22073 -6.94689,-10.38395 -11.17479,-15.02942 -2.34064,-4.68611 -5.67169,-8.13391 -8.92058,-12.38124 -2.39301,-5.26357 -6.08842,-9.62577 -8.66171,-14.75642 -4.32313,-7.57362 -9.15926,-15.04207 -11.87447,-23.34599 -2.8407,-4.11422 -4.58378,-8.58727 -6.93828,-13.03112 -1.92374,-5.29254 -3.84571,-10.45756 -6.04557,-15.7295 -3.24986,-9.20844 -5.90561,-18.76773 -10.29509,-27.45967 -0.65613,-5.29323 -3.981105,-9.80293 -4.522955,-15.16622 -1.091441,-6.33405 -2.67176,-12.58489 -4.158449,-18.71319 0.238974,-4.05646 -2.413127,-7.11511 -0.347919,-10.75485 -2.115335,-8.10916 -2.456062,-16.61131 -2.926027,-24.95429 1.319353,-10.1438 0.743372,-20.51416 3.040073,-30.52404 0.875656,-6.13361 -0.821256,-12.72037 1.70689,-18.53155 3.818775,-1.31952 1.000303,7.77378 1.609541,10.30053 -1.325371,17.99628 -0.298817,36.06097 -0.380078,54.06985 -3.845874,2.79863 2.569858,6.48941 1.656517,11.04982 1.612917,8.92824 1.056687,18.34774 4.881907,26.76255 -0.49498,5.58094 3.16816,10.44606 3.34955,15.73318 1.00215,6.46133 6.63171,11.30692 7.62326,17.88201 1.8059,4.85335 4.93995,9.46113 5.78041,14.41109 5.37069,5.07413 6.81468,12.79094 10.28697,19.11179 2.56831,5.62805 5.57397,11.12032 7.32493,17.06211 2.57058,4.72268 5.86149,8.21456 9.01218,12.48446 3.20102,2.22503 0.46188,5.9615 4.64892,6.05484 3.36647,4.39714 6.45827,9.19445 10.11815,12.87936 1.7224,5.9085 7.13454,9.72057 9.1312,15.41362 4.04102,4.53193 8.30421,8.96748 10.95159,14.53616 4.06466,4.25863 7.73203,8.95511 11.40283,13.22568 4.59222,2.70677 6.59769,8.22933 10.64162,11.66619 3.92178,2.64545 5.56037,9.67892 10.79946,8.40275 0.54202,5.27868 5.63545,9.18095 9.58252,11.91177 3.67451,3.68898 8.75366,5.85705 12.25319,9.88063 5.04075,4.87423 11.17813,8.42263 16.14714,13.41886 5.27858,5.05753 11.47323,8.91072 17.73678,12.57797 5.22303,4.21349 11.69055,6.50336 17.0486,10.56547 5.65127,3.79983 12.0791,6.22372 17.63453,10.16762 5.83941,3.49602 12.70378,3.70996 19.11687,4.90154 5.545,1.43532 11.05637,6.27923 16.17827,6.22077 3.86075,-3.28369 7.50759,4.65385 12.47303,3.65399 5.64078,1.6362 10.84756,4.3919 16.79355,4.8389 8.83227,2.69008 17.76194,5.0317 26.92774,6.29211 10.55116,2.19295 21.23464,3.94898 32.05169,3.62698 l 12.38154,-7.5e-4 c 14.70895,1.12408 14.1364,2.14402 21.09305,0.52507 4.80793,-1.49907 10.60772,-1.01039 15.97946,-2.68232 6.74855,-1.05885 13.33161,-3.22165 20.24907,-2.78825 4.97703,-1.53278 10.25192,-1.87646 15.44079,-2.56193 5.65035,-1.33173 11.21708,-2.22665 16.92903,-3.17333 6.56184,0.71359 11.78356,-3.6241 18.07485,-3.73611 2.87742,-0.15893 7.22217,-1.7116 1.89288,-1.23573 2.64909,-3.48495 9.92104,-0.82794 13.42822,-4.76103 3.52869,0.54167 7.27854,0.78471 7.59659,-3.24759 5.51036,-1.87409 11.03701,-3.27507 16.54283,-5.63522 5.25217,-2.861 11.08065,-3.57794 15.95594,-6.23027 4.14,-5.2025 11.08768,-5.02682 16.47883,-8.06494 6.08886,-0.95433 8.48836,-7.1445 14.5453,-7.39907 2.21433,-4.60274 9.52629,-4.65125 12.92994,-9.3862 4.50334,-4.87895 11.21323,-6.5563 15.61538,-11.61793 5.2354,-2.23752 9.27497,-6.19391 14.0163,-9.46512 4.69382,-3.77642 9.18035,-7.88583 12.78171,-12.70881 3.36525,-4.70639 9.77079,-6.69069 13.16249,-11.53331 5.82771,-6.29615 11.98159,-12.38771 18.87696,-17.47844 3.09459,-4.30031 4.94234,-9.55257 9.25077,-12.99466 4.46107,-4.07493 7.51281,-9.28302 10.67609,-14.33627 3.20274,-4.56275 7.33897,-8.98198 9.17346,-14.18039 3.64238,-4.75061 5.30499,-10.74488 9.44304,-15.19817 4.32519,-8.35018 9.71585,-16.16972 12.8429,-25.11404 3.33705,-9.58069 8.08239,-18.60391 10.77933,-28.41474 2.33637,-6.03576 2.91417,-12.79974 7.12096,-17.97918 2.01882,-5.20728 4.07617,-10.45097 4.97437,-16.18563 2.51361,-12.28596 6.46426,-24.40992 6.56789,-37.05027 2.75932,-24.21126 1.39178,-48.65814 0.0659,-72.92059 -1.51721,-16.52848 -5.42176,-32.72505 -6.78361,-49.27323 -0.49899,-5.29601 -4.00501,-9.34333 -1.90627,-14.77393 -3.43475,-4.57514 -2.22865,-11.19689 -6.0379,-16.28011 -3.615,-6.63325 -4.51249,-14.3974 -8.32829,-20.93166 -2.78589,-1.7509 -6.05057,-0.56581 -1.48489,-2.39049 1.32937,-4.9347 -4.05055,-9.86552 -5.25283,-14.80651 -0.7499,-5.81679 -3.80611,-10.64548 -5.97164,-16.02269 -2.56913,-5.34465 -6.21684,-10.2804 -7.36463,-16.19011 -3.43553,-6.31386 -7.41779,-12.34122 -11.13916,-18.49787 -5.1646,-8.0573 -12.26215,-14.617 -17.33497,-22.74905 -7.32264,-8.01924 -13.42799,-17.10316 -20.70898,-25.19111 -8.85508,-10.62963 -18.99348,-20.09552 -30.02149,-28.43281 -8.10708,-6.56015 -15.67701,-13.87316 -24.76527,-19.09725 -1.55151,-4.83729 -4.8527,-8.01796 -9.83286,-9.69633 -6.36137,-4.29382 -13.03977,-8.1224 -19.37893,-12.42324 -5.90953,-5.36506 -14.05035,-7.17774 -20.62886,-11.52435 -5.54293,-2.00885 -10.50771,-5.46458 -16.25786,-7.1437 -5.32392,-2.54192 -10.83603,-4.48557 -16.57222,-5.77899 -4.25569,-1.72692 -10.04145,-3.34769 -13.22444,-5.76364 10.41634,1.36348 19.95763,6.22988 30.19306,8.44906 5.25227,1.94779 10.54548,3.64975 15.31921,6.6011 5.25202,1.68489 10.56874,3.57252 14.6086,7.63307 5.43285,3.64539 11.65943,6.00236 16.65275,10.34347 5.15418,2.39094 8.03545,8.50259 13.94984,8.66406 4.57949,4.38546 10.31747,7.54829 15.34983,11.58352 6.47175,4.95744 12.3072,10.68181 18.45906,16.02297 15.14578,13.71669 28.81526,28.94178 42.52067,44.05493 2.62929,5.08954 6.53583,8.94568 10.52718,12.93043 3.84411,4.40345 7.28759,9.22527 10.35621,14.12243 4.01803,3.23974 5.39421,9.30652 8.46988,13.58137 2.28573,5.41556 5.13884,9.91097 8.12536,14.95535 3.02309,5.59909 5.01428,11.64349 8.35081,17.09347 1.62721,5.95411 5.64836,10.77468 7.0141,16.7052 4.02831,4.55849 3.15935,11.15847 6.46291,15.89393 3.32578,8.29879 7.54472,16.45834 9.67767,25.24397 1.49874,3.6896 1.59392,7.40911 3.8115,10.72196 0.0987,6.45373 1.58874,12.89777 2.5562,19.28955 0.89177,5.18274 3.38862,11.07373 2.2799,15.61225 1.83881,8.61716 1.51072,17.55367 2.88888,26.25158 4.5794,4.76392 -0.11539,11.74099 1.57251,17.59734 0.0439,5.59389 1.83556,11.43655 0.40829,16.88324 -3.04726,1.71799 2.89649,3.323 0.43206,6.48926 -0.91348,7.79734 -0.92433,15.71339 -2.48565,23.41317 2.23366,5.24064 -1.39274,10.88721 -1.20248,16.54339 -1.38436,5.45895 -2.08752,10.99422 -2.7816,16.49619 -2.94019,5.41094 -2.97986,11.43834 -3.87838,17.39595 -0.99515,6.41717 -5.09205,11.75985 -6.22632,18.10109 -2.07568,4.6659 -3.76829,9.34186 -5.02679,14.26815 -2.74291,5.72188 -4.18774,11.84633 -5.84035,17.91655 -3.07128,4.42313 -5.11777,9.54221 -6.76187,14.71979 -2.95951,9.05377 -9.74914,16.28991 -12.5057,25.40912 -4.10356,4.28847 -6.52693,9.45847 -9.62043,14.33848 -1.90042,4.57539 -4.62148,9.26622 -8.25253,12.60846 -4.17233,8.34992 -9.93024,15.90482 -15.264,23.57345 -5.0377,3.27401 -5.27296,11.11163 -11.54291,12.25837 -4.51657,0.86403 -1.71814,8.56904 -7.25304,9.70851 -4.59386,3.9105 -7.33167,9.5975 -12.38578,13.13504 -4.08484,4.19113 -9.66269,6.61627 -13.96263,10.27987 -3.64492,5.0777 -9.26674,8.6117 -13.96917,12.88849 -4.98257,3.65359 -10.15616,6.72175 -14.76112,10.78332 -5.71194,3.28795 -11.78499,5.96942 -16.9768,10.07898 -10.38465,5.78722 -20.88384,11.41835 -31.50643,16.74744 -6.92454,3.49732 -14.43383,5.73099 -21.22974,9.45369 -4.55493,3.66096 -10.79152,2.95293 -16.13002,5.01616 -7.56126,0.74636 -14.44316,4.31367 -21.86875,5.7875 -8.6406,2.41058 -17.55789,3.92207 -26.03489,6.8579 -5.63496,1.78903 -11.68449,2.27315 -17.549,3.36493 -15.01638,1.73027 -30.1569,1.92704 -45.20076,3.22972 -5.56108,2.65501 -11.13521,-0.45863 -16.82555,0.79549 -7.30701,0.31509 -14.72564,0.81588 -21.99884,-0.0317 z m 203.86429,-39.27931 c -1.66049,-4.75583 7.07418,-2.29227 2.30262,0.47598 -0.78084,0.26738 -1.7185,0.11714 -2.30262,-0.47598 z m 23.72208,-4.87395 c 4.70331,-4.34663 10.49963,-7.5698 15.80314,-11.23853 4.79052,-3.70149 9.7378,-7.22964 14.13393,-11.52143 7.92968,-6.32231 15.77595,-12.76553 22.66293,-20.24482 8.67975,-8.73579 17.85012,-17.03478 25.70917,-26.53954 4.94522,-3.94723 8.29864,-9.58556 12.04862,-14.59577 4.26913,-4.93493 8.09171,-10.22688 11.76258,-15.64046 4.09332,-5.12406 7.45917,-10.77208 11.38126,-16.02301 2.49555,-4.74713 6.60325,-8.74632 9.17967,-13.66625 2.70625,-5.96046 6.56914,-11.30954 10.09498,-16.78519 2.80724,-6.11536 5.92517,-12.04805 8.19033,-18.43053 3.3141,-6.15631 4.71259,-13.14467 8.07858,-19.30593 2.20044,-6.28494 3.08508,-12.98631 5.59846,-19.21513 3.05804,-8.21287 4.57647,-16.82341 6.20419,-25.389 2.81769,-9.34527 2.47638,-19.26038 5.10008,-28.66288 2.37966,-13.12838 4.75408,-26.40663 4.71503,-39.78177 -0.17919,-10.65036 2.37358,-21.2128 1.69721,-31.90244 0.41301,-6.79185 -0.79107,-13.57674 -0.29101,-20.3539 1.50581,2.26983 2.87158,10.57356 3.88386,15.12144 0.86202,6.90786 2.08022,14.03341 -0.42141,20.78059 -2.66143,5.63023 1.12045,11.25545 -1.3315,16.47116 -0.87341,9.19562 0.11383,18.49391 -0.9447,27.66858 -1.19137,5.34218 -1.74606,10.89881 -3.45809,16.13159 -0.89125,5.59187 0.0459,11.51943 -1.79173,16.90086 -1.40594,5.06106 -3.97592,10.3945 -4.48771,15.85745 -1.62541,5.6247 -1.35518,11.84181 -4.07174,17.30176 -0.10793,5.91019 -2.54548,10.5558 -3.65116,16.37759 -2.72142,5.97241 -3.24783,13.02768 -7.31212,18.2789 -0.62744,5.37792 -4.67396,8.65326 -5.90706,13.66207 -2.52522,5.07715 -6.08384,9.46332 -7.17864,15.19973 -2.73686,7.52822 -10.27327,11.9047 -13.02871,19.46885 -2.84849,4.7513 -6.94823,8.58104 -9.00823,13.79828 -2.92514,6.1631 -7.52512,11.03725 -11.15808,16.30653 -3.3408,6.06826 -8.93458,10.6216 -12.07047,16.86421 -4.46178,5.79858 -9.99421,10.62414 -15.6716,15.14346 -3.43495,5.25824 -8.67069,8.50177 -12.95714,12.99656 -5.64359,5.13312 -9.92171,11.6097 -16.42075,15.78997 -5.17481,2.72584 -8.76877,7.5104 -13.77821,10.55312 -7.32793,4.8001 -14.31054,10.08578 -21.41869,15.18189 -2.03756,0.58743 -8.84549,6.60444 -9.88527,3.44199 z M 87.495274,705.7397 c -0.355225,-6.0471 4.080474,3.17405 3.7e-4,0 z m -8.51786,-28.38467 c -1.114225,-5.04177 2.903357,0.26281 0.383664,0.8303 l -0.383584,-0.83053 z m -1.79604,-8.44229 c -1.42828,-5.85368 -2.334957,-11.92547 -2.48953,-17.94557 3.609597,2.61495 2.693681,9.81613 4.413667,14.18027 -0.866869,0.8317 0.08051,6.77002 -1.924137,3.7653 z m -4.69818,-39.59406 c 2.541072,-5.6701 2.102995,5.44663 0,0 z m -0.31374,-4.98384 c -0.891078,-10.80094 -0.296278,-21.7051 -0.508354,-32.5477 -0.07447,-7.56881 0.516837,-15.10581 1.851363,-22.54782 1.310718,-11.25258 0.252977,-22.9294 3.669741,-33.84126 2.760862,-9.13892 3.954833,-18.73436 7.195088,-27.76556 0.512131,-5.85831 3.310225,-10.64678 5.13808,-16.15747 1.444312,-5.60829 1.711917,-11.16168 5.716866,-15.69783 3.383704,-6.39823 4.574182,-13.71616 8.762572,-19.73651 2.36673,-5.18716 4.33114,-10.1314 7.18085,-15.30302 3.40287,-6.75685 6.36528,-13.84522 10.63555,-20.09682 3.45085,-4.85173 6.08485,-10.57959 9.47445,-15.62885 4.15839,-9.19709 10.91331,-16.91273 17.16383,-24.75018 5.53329,-7.0356 9.1469,-15.371 15.21724,-22.02993 6.79779,-8.6496 15.39308,-15.73768 21.79011,-24.7035 4.82446,-3.99209 9.36382,-7.80361 14.55957,-11.39732 9.03869,-6.1077 16.40384,-14.37409 25.97474,-19.72085 2.10577,-2.57617 8.66468,-3.45804 4.45087,0.80496 -4.61226,2.91479 -9.29701,5.85622 -13.42786,9.37721 -4.11486,4.98364 -10.83265,7.30754 -13.84668,13.22174 -4.08237,4.23296 -9.55637,6.68725 -13.36296,11.34948 -5.29203,5.30641 -10.94667,10.35872 -15.56932,16.25897 -3.55534,5.18661 -8.09999,9.80004 -11.76031,14.96501 -3.00193,5.76164 -7.73149,10.31688 -11.21023,15.73553 -2.08361,5.17127 -5.41871,9.81893 -8.81316,14.2538 -2.43075,5.17782 -6.48116,9.28636 -9.46224,14.16289 -2.05773,5.65193 -5.93375,10.25239 -7.86311,15.99455 -4.79677,6.87963 -8.70172,14.32544 -13.50445,21.20724 -2.45363,5.51499 -6.566,10.06527 -7.61915,16.11173 -2.38719,4.77384 -5.253208,9.43014 -6.109335,14.78301 -4.352497,6.50121 -6.320947,14.14928 -7.846507,21.71366 -1.253339,5.65006 -4.155467,11.20631 -4.200563,16.97345 -0.696652,7.17294 -2.156295,14.29186 -2.627995,21.5133 -1.200611,9.05254 -1.836041,18.46883 -5.711945,26.86631 1.520886,5.86425 -0.790404,11.85714 -0.779953,17.91829 -1.192519,9.41692 -1.928632,18.98901 -1.359007,28.47209 1.478515,2.31986 0.80527,12.78866 -3.197791,10.2414 z m 24.34305,-55.80865 c -2.83761,-2.31903 -0.02741,-10.93306 2.089674,-9.37207 2.984592,4.45218 -0.555844,6.20661 -2.089674,9.37207 z m 1.28895,-17.89283 c 1.261778,-7.95632 2.336166,-15.96992 2.709216,-23.99712 3.16066,-12.89528 7.52046,-25.47095 11.33448,-38.18539 2.4895,-6.56453 4.1747,-13.80725 8.58684,-19.38126 3.53512,3.49564 -3.03579,9.63529 -3.31127,14.3203 -2.165,5.78603 -3.88976,11.50231 -6.09938,17.26527 -1.0979,5.75285 -2.23239,11.26372 -4.61247,16.74104 -2.20896,9.9756 -2.40479,20.37689 -5.86511,30.05265 1.67613,3.38399 -3.671987,11.58592 -2.742306,3.18451 z M 810.36677,514.63298 c -0.46998,-6.41086 5.85273,3.09921 0.66878,1.21739 l -0.39962,-0.5481 z m -0.94822,-7.06024 c -2.08749,-7.08057 -3.40402,-14.42276 -6.6675,-21.09799 -1.3484,-5.45339 -2.47227,-10.94306 -4.2148,-16.30271 -1.08526,-5.58022 -2.5221,-11.03892 -4.42653,-16.37075 -4.69895,-9.22175 -6.99646,-19.47861 -12.19787,-28.47979 -4.22595,-8.26269 -7.77257,-16.91317 -12.9275,-24.66046 -1.80929,-7.04011 5.4398,0.8819 5.76761,3.77958 5.63663,8.39229 10.74351,17.2571 13.9304,26.9062 2.08022,6.19157 6.54772,11.47728 7.53026,18.01826 2.25864,5.37339 4.46092,10.94369 5.93403,16.63705 1.22235,6.60355 3.52191,12.81897 5.58272,19.17024 1.70628,6.99182 2.88111,14.18469 3.44044,21.33969 0.0633,1.0285 -1.18302,3.40352 -1.75126,1.06068 z m -680.51103,-57.9634 c -0.24509,-6.20312 5.2373,-11.15526 7.16468,-16.9306 4.13985,-9.0392 10.39131,-16.83759 14.6917,-25.79399 3.68842,-7.90539 9.52256,-14.4004 14.42598,-21.51278 2.60606,-6.46397 8.44783,-10.77497 12.35785,-16.42785 8.90387,-10.77042 18.9956,-20.56764 29.83997,-29.35997 2.66082,-1.08395 6.57958,-6.75159 8.72342,-5.15253 -3.84006,5.02423 -7.24249,10.52904 -11.61516,15.16808 -4.97711,4.85273 -10.90322,9.34983 -13.40133,16.03692 -5.61731,3.33277 -8.21616,9.70238 -13.16675,13.87502 -4.74456,4.53544 -8.85267,10.04059 -14.46669,13.46529 -4.22661,3.89099 -5.35557,10.22755 -9.45393,14.00311 -0.5426,5.19046 -5.80335,7.25628 -6.29711,12.51196 -1.54041,5.64798 -6.51453,9.34048 -8.42358,14.84168 -3.2216,4.57239 -3.57788,10.45224 -7.7743,14.48772 -1.19311,1.35333 -1.91228,4.76022 -2.60475,0.78794 z M 764.52539,393.1081 c -2.59842,-2.43763 -2.24392,-8.46256 0.69269,-2.79789 2.01799,1.8917 4.53562,9.28503 0.28506,4.11346 l -0.489,-0.63495 z m -4.85915,-9.44207 c -3.55788,-2.19484 -0.97945,-5.46678 0.83035,-1.28633 0.80553,1.48991 1.30537,3.83464 -0.83035,1.28633 z m -14.41257,-18.38518 c -2.93084,-3.35161 1.03557,-5.85168 2.29544,-1.25018 1.60691,2.00953 -1.17276,3.09856 -2.29544,1.25018 z m -6.2006,-9.1032 c -1.87392,-1.6148 -6.94711,-9.2137 -1.50204,-5.89646 1.62512,2.05647 8.01711,7.53593 4.45992,8.96762 -1.26762,-0.69419 -2.15609,-1.90668 -2.95788,-3.07116 z m -11.70514,-13.59643 c -2.78315,-2.26225 -4.93808,-7.8845 -0.2736,-3.20431 1.46086,1.52182 8.22347,7.00727 4.62097,7.60309 -1.67558,-1.21712 -2.98369,-2.86041 -4.34737,-4.39878 z m -11.30675,-10.2429 c -7.57801,-7.85947 -16.45537,-14.33834 -24.20418,-22.0206 -3.53388,-2.81965 -10.88269,-5.79513 -10.69343,-10.36222 11.9372,4.99844 19.41723,16.42997 29.48453,24.10717 3.58907,3.12853 9.39316,7.35291 10.68271,11.1102 -2.18822,0.60492 -3.94192,-1.42021 -5.26963,-2.83455 z m -497.82841,-0.0201 c 2.66809,-4.75932 8.70574,-6.51075 12.99175,-9.69899 2.80469,-1.01682 8.37415,-7.86937 10.10563,-4.14754 -5.2822,2.76523 -8.69029,8.13622 -14.26663,10.3747 -2.00005,1.04261 -7.2016,7.19526 -8.83075,3.47183 z M 241.495,315.00954 c 2.8955,-3.64732 8.67661,-4.43691 11.64039,-8.4626 7.06607,-3.8738 12.69272,-10.38041 20.6984,-12.52625 5.04374,-2.63075 9.66797,-5.81478 14.4581,-8.92416 5.35618,-2.41506 10.41103,-5.66063 16.02643,-7.41045 5.10883,-0.63776 8.65183,-5.60206 13.8393,-6.55777 13.72568,-2.91501 26.90377,-8.20176 40.39903,-12.1013 5.26987,-1.46674 10.60949,-2.54423 15.92425,-4.08565 8.63288,-3.30629 17.65468,-5.6216 26.61591,-7.8784 15.1436,-3.45555 30.73196,-3.70613 46.09774,-5.46507 11.45876,-2.10137 23.2333,-1.02175 34.8177,-0.86047 11.09289,0.60917 22.53049,0.774 33.03814,4.77952 1.10475,3.24827 -6.70912,-0.77192 -9.1559,-0.22448 -20.82608,-1.8279 -41.80002,-1.96291 -62.67952,-1.0911 -15.54708,0.97977 -31.0318,3.32707 -45.94615,7.90813 -13.41499,3.63826 -26.79204,7.6617 -40.33191,10.66629 -5.93653,2.49379 -12.51832,3.1454 -18.52811,5.61971 -8.28586,2.61469 -16.51867,5.36979 -24.45321,8.92325 -5.35553,1.45475 -9.74433,4.81027 -14.96167,6.5968 -4.23021,3.45679 -8.9477,5.10989 -13.72129,7.61713 -6.17982,3.11745 -11.77615,7.29945 -17.83918,10.31714 -4.97748,2.95698 -10.60155,4.8384 -14.51834,9.51053 -3.15032,0.91512 -8.90342,7.16461 -11.42011,3.6492 z m 429.42797,-21.09792 c -8.53473,-6.85643 -18.59845,-11.33965 -27.8321,-17.08684 -5.29753,-1.39523 -9.76737,-4.45218 -13.75891,-8.12099 -4.79604,-4.26273 -10.71845,-6.69729 -16.60335,-8.99752 -3.43975,-0.31741 -4.80297,-5.9177 -1.0786,-2.70478 5.42419,2.17146 10.72853,3.19659 15.07002,7.46063 5.80415,1.4753 10.16674,6.1322 16.10105,7.39369 5.67413,4.90571 12.07029,9.00501 18.60039,12.68371 3.55934,4.0312 9.30999,6.21399 12.57,9.95092 -1.00001,0.57155 -2.18043,-0.10689 -3.0685,-0.57882 z m -424.5341,-4.04515 c 2.54436,-4.53689 10.08376,-6.29775 14.41324,-10.10666 6.05559,-3.76485 12.59521,-6.69786 18.62177,-10.48136 4.4489,-3.63477 10.68698,-3.90254 15.42949,-7.20083 6.57312,-2.86572 13.41575,-5.17562 19.70707,-8.6138 6.52656,-1.20639 12.41667,-4.37365 18.72379,-6.17577 5.76893,-2.0224 11.5981,-3.2339 17.5318,-4.53302 8.07117,-3.6829 16.99683,-5.04175 25.40865,-7.82584 6.04166,-1.8762 12.33553,-2.88258 18.35574,-4.66345 10.05338,-0.006 19.6115,-4.15474 29.6911,-4.24381 1.25682,3.23314 -8.11217,3.20772 -10.97755,4.34387 -10.98769,2.74637 -22.09041,4.99478 -33.30207,6.60553 -5.47238,1.76346 -10.81088,3.78571 -16.39899,5.19466 -6.35177,1.35421 -12.2115,3.47163 -18.40519,5.18816 -4.96796,2.81538 -10.6691,3.45752 -15.89665,5.51953 -10.62872,3.49649 -21.09484,7.69969 -31.24305,12.48871 -7.35238,2.03134 -13.98249,6.02692 -21.09142,8.78878 -5.28496,3.80412 -11.66175,5.54165 -16.97373,9.40315 -4.62415,1.41083 -9.16392,6.38819 -13.594,6.31215 z m 327.52476,-31.33793 c 0.23912,-2.88853 2.37073,2.71211 0,0 z m 21.55763,-6.49846 c -6.0639,-1.10212 -11.42243,-4.08098 -17.5049,-5.25157 -6.38635,-2.52769 -12.99903,-4.56283 -19.56319,-6.60646 -12.05464,-2.83257 -24.25401,-5.01884 -36.4359,-7.22259 -7.40532,-1.72643 3.40218,-2.22683 5.61457,-1.29855 7.45112,1.90258 15.20224,1.65847 22.6501,3.5922 6.12079,0.62981 11.83368,1.9147 17.17505,4.82137 5.43838,2.25725 10.72439,4.40952 16.42344,5.80786 5.99788,1.9708 12.35825,3.63276 17.75523,6.86471 0.39073,1.58994 -5.24474,-0.30275 -6.1144,-0.70697 z m -62.51712,-2.1246 c -1.58132,-0.5675 -10.57177,-1.45003 -6.22557,-3.03312 2.95626,1.50072 10.70252,0.74584 10.8259,3.668 -1.51565,0.41368 -3.24273,0.13704 -4.60033,-0.63488 z m -32.09745,-19.04254 c -5.72458,-0.82022 -11.42444,-2.26452 -17.05396,-2.68036 5.7476,-2.06545 12.26635,0.11564 18.31142,-0.0678 4.4166,0.33845 10.53386,1.0972 13.35389,3.14052 -4.78723,0.97302 -9.78018,-0.0666 -14.61135,-0.39234 z m -23.73682,-2.27215 c -3.95259,-2.72378 5.96353,-1.83653 0.92079,0.17195 z m -48.86568,-1.90753 c 3.21746,-1.2222 11.80793,-2.64808 12.54559,-0.55659 -3.89451,0.86347 -8.89551,1.55104 -12.54559,0.55659 z m 16.18449,-0.27565 c 3.54161,-0.79518 11.50302,-1.3882 12.94093,0.53919 -4.20989,0.44343 -8.87303,0.72134 -12.94093,-0.53919 z m 307.35325,630.69388 c -0.91452,-3.4541 -5.65727,3.69344 -0.72431,0.90693 l 0.45304,-0.43293 z M 59.548614,666.34692 c -1.809235,-1.77278 -1.789436,2.86975 0,0 z m -3.28754,-39.34189 c -4.066826,-0.52266 0.851455,1.43095 0,0 z M 842.09055,548.26202 c -2.72625,-3.2645 -0.40303,3.68385 0,0 z M 57.392854,539.63897 c -3.989803,-3.3791 -1.494714,3.64774 0,0 z m 3.88037,-16.3838 c 1.636682,-2.75895 -8.322856,1.92036 -1.420107,0.59034 l 0.7818,-0.26579 z m 2.58692,-8.14103 c -3.493953,-7.73704 -2.163595,5.07738 0,0 z m -1.72462,-8.24277 c -4.329739,-2.56859 -3.060408,2.12284 0.672411,0.67504 l -0.105886,-0.25733 z m 0,-3.44922 c -4.329734,-2.56861 -3.060415,2.12285 0.672411,0.67504 l -0.105886,-0.25733 z m 5.17384,-4.24896 c -0.995191,-3.76753 -8.832805,-5.24662 -3.434545,-0.5029 0.760708,0.73694 2.802408,2.24753 3.434545,0.5029 z m 12.93457,-41.95712 c -1.58947,-2.83124 -6.766507,3.45217 -1.339626,1.32931 0.550922,-0.26071 1.271664,-0.62965 1.339626,-1.32931 z m 0,-9.84375 c -2.321725,-3.47507 -2.032178,3.35725 0,0 z m 12.07228,-19.02163 c -1.428277,-2.29596 -2.749372,3.52651 0,0 z m 14.228026,-27.54286 c -3.98978,-3.37905 -1.49471,3.64769 0,0 z m 5.76666,-12.66134 c -4.06682,-0.52265 0.85146,1.43093 0,0 z m 35.19283,-43.4394 c -1.80922,-1.77277 -1.78941,2.86977 0,0 z m 13.59928,-15.30891 c -0.7429,-3.59793 -3.40393,4.62278 0,0 z m 4.03246,-7.99607 c -3.99739,-1.92391 -0.0669,4.43576 0,0 z m 551.48967,-20.96057 c -3.05537,-2.96435 -3.69012,1.56344 0,0 z M 214.92522,279.49603 c -4.06683,-0.52264 0.85147,1.43092 0,0 z m 450.9856,-16.38377 c -4.06682,-0.52265 0.85143,1.43092 0,0 z m -414.06815,-2.91109 c -1.80933,-1.77272 -1.78937,2.8698 0,0 z m 404.42111,-4.26061 c -4.84115,-2.60921 -2.74262,1.54391 0.8623,0.69657 z M 261.82279,253.4566 c -1.95622,-3.10794 -7.77483,0.50253 -2.1685,0.75934 0.51074,-0.14994 2.17777,0.15315 2.1685,-0.75934 z m 3.26629,-3.98333 c 1.59051,-2.19516 9.75637,-0.8807 3.15506,-2.68594 -3.0502,-1.43376 -8.94615,7.15873 -3.15506,2.68594 z m -3.3299,-2.15577 c -1.50225,-3.25122 -3.57285,2.85388 0,0 z m 374.24043,-1.7246 c -1.11693,-2.97526 -5.32865,1.87248 -0.74138,0.60899 z m -351.38934,-3.44923 c -2.32177,-3.47508 -2.03219,3.35728 0,0 z m 8.44654,-7.65956 c -3.07249,-5.19916 -1.11068,7.60782 0.47011,0.73854 z m 325.35505,-1.2189 c -5.56027,-2.23741 2.11234,4.78679 0,0 z m -305.04239,-5.37222 c -3.41958,-3.24181 0.29754,5.09225 0,0 z m 285.98216,-0.73915 c -2.54003,-2.22919 -7.57319,0.70941 -1.61357,0.30454 l 0.83873,-0.0711 0.77484,-0.23348 z M 332.03706,221.5115 c -1.6569,-2.75065 -8.69763,-4.73627 -3.57561,-0.42495 0.71346,0.59768 3.27176,2.22417 3.57561,0.42495 z m 232.39122,-7.8239 c -0.74447,-2.30209 -7.39713,-5.34146 -4.90232,-0.19419 2.13108,-1.53265 3.20175,2.74084 4.90232,0.19419 z m -202.04886,-1.45135 c -4.06683,-0.52267 0.85143,1.43096 0,0 z m 167.98779,-7.07118 c -2.4361,-3.0478 -6.18118,0.53967 -8.63819,0.42382 2.80386,0.11887 6.00716,0.66083 8.63819,-0.42382 z m -118.99808,-0.96282 c -1.39381,-2.35831 -6.65341,0.44288 -1.67374,0.8623 0.46883,-0.0537 1.59507,-0.12332 1.67374,-0.8623 z m 12.452,-0.77913 c -1.67846,-2.14726 -11.49051,-0.84224 -4.26011,0.15243 1.35129,-0.1512 3.28083,1.30581 4.26011,-0.15243 z m 83.42553,-0.67222 c -4.06683,-0.52264 0.85145,1.43093 0,0 z m 326.86757,524.23822 c -3.66942,-3.79743 2.27258,-3.98958 0.97163,0.0475 l -0.4153,0.0681 -0.55633,-0.11568 z M 293.46686,225.2389 c 3.17675,-0.97013 1.34056,1.56253 0,0 z m 90.3085,-23.09185 c 2.19674,-2.43064 6.19443,0.78506 1.34984,0.30448 l -0.70164,-0.071 -0.6482,-0.23343 z"
       id="path4146"
       inkscape:connector-curvature="0"
       sodipodi:nodetypes="cccccccccccccccccccccccccccccccccccccccccccccccccccccccccccccccccccccccccccccccccccccccccccccccccccccccccccccccccccccccccccccccccccccccccccccccccccccccccccccccccccccccccccccccccccccccccccccccccccccccccccccccccccccccccccccccccccccccccccccccccccccccccccccccccccccccccccccccccccccccccccccccccccccccccccccccccccccccccccccccccccccccccccccccccccccccccccccccccccccccccccccccccccccccccccccccccccccccccccccccccccccccccccccccccccccccccccccccccccccccccccccccccccccccccccccccccccccccccccccccccccccccccccccccccccccccccccccccccccccccccccccccccccccccccccccccccccccccccccccccccccccccccccccccccccccccccccccccccccccccccccccccccccccccccccccccccccccccccccccccccccccccccccccccccccccccccccccccccccccccccccccccccccccccccccccccccccccccccccccccccccccccccccccccccccccccccccccccccccccccccccccccccccccccccccccccccccccccccccccccccccccccccccccccccccccccccccccccccccccccccccccccccccccccccccccccc" />
  </g>
</svg>
