<?xml version="1.0" standalone="no"?>
<!DOCTYPE svg PUBLIC "-//W3C//DTD SVG 1.1//EN" "http://www.w3.org/Graphics/SVG/1.1/DTD/svg11.dtd" >
<svg>
<metadata>
Created by FontForge 20090622 at Sun Sep 18 23:12:35 2016
 By deploy user
Copyright (c) 2015 by Typesketchbook. All rights reserved.
</metadata>
<defs>
<font id="MeltowSan100-Regular" horiz-adv-x="634" >
  <font-face 
    font-family="Meltow San 100"
    font-weight="400"
    font-stretch="normal"
    units-per-em="1000"
    panose-1="2 0 0 0 0 0 0 0 0 0"
    ascent="750"
    descent="-250"
    x-height="567"
    cap-height="568"
    bbox="-244 -338 1103 839"
    underline-thickness="35"
    underline-position="-74"
    unicode-range="U+0020-U+FB02"
  />
<missing-glyph horiz-adv-x="574" 
d="M43 0v627h510v-627h-510zM87 45q0 2 0.5 4t0.5 4h8v-9zM505 580v-6h-5v6h5zM507 46h-7v7h7v-7zM89 583h7v-9h-6zM96 53h404v521h-404v-521z" />
    <glyph glyph-name="fi" unicode="fi" horiz-adv-x="805" 
d="M181 19q0 -8 -6 -13.5t-13 -5.5h-43q-7 0 -13 5.5t-6 13.5v530q0 8 6 13.5t13 5.5h355q8 0 13.5 -6t5.5 -13v-38q0 -7 -5.5 -13t-13.5 -6h-293v-206h225q8 0 13.5 -6t5.5 -13v-38q0 -7 -5.5 -13t-13.5 -6h-225v-191zM623 549q0 8 6 13.5t13 5.5h43q7 0 13 -5.5t6 -13.5
v-530q0 -8 -6 -13.5t-13 -5.5h-43q-7 0 -13 5.5t-6 13.5v530z" />
    <glyph glyph-name="fl" unicode="fl" horiz-adv-x="1044" 
d="M181 19q0 -8 -6 -13.5t-13 -5.5h-43q-7 0 -13 5.5t-6 13.5v530q0 8 6 13.5t13 5.5h355q8 0 13.5 -6t5.5 -13v-38q0 -7 -5.5 -13t-13.5 -6h-293v-206h225q8 0 13.5 -6t5.5 -13v-38q0 -7 -5.5 -13t-13.5 -6h-225v-191zM703 76h273q8 0 13.5 -6t5.5 -13v-38q0 -7 -5.5 -13
t-13.5 -6h-335q-7 0 -13 5.5t-6 13.5v530q0 8 6 13.5t13 5.5h43q7 0 13 -5.5t6 -13.5v-473z" />
    <glyph glyph-name=".notdef" horiz-adv-x="574" 
d="M43 0v627h510v-627h-510zM87 45q0 2 0.5 4t0.5 4h8v-9zM505 580v-6h-5v6h5zM507 46h-7v7h7v-7zM89 583h7v-9h-6zM96 53h404v521h-404v-521z" />
    <glyph glyph-name=".null" horiz-adv-x="0" 
 />
    <glyph glyph-name="nonmarkingreturn" horiz-adv-x="283" 
 />
    <glyph glyph-name="space" unicode=" " horiz-adv-x="225" 
 />
    <glyph glyph-name="exclam" unicode="!" horiz-adv-x="392" 
d="M155 549q0 8 6 13.5t13 5.5h43q7 0 13 -5.5t6 -13.5v-360q0 -8 -6 -13.5t-13 -5.5h-43q-7 0 -13 5.5t-6 13.5v360zM150 37q0 19 13.5 32.5t32.5 13.5t32.5 -13.5t13.5 -32.5t-13.5 -32.5t-32.5 -13.5t-32.5 13.5t-13.5 32.5z" />
    <glyph glyph-name="quotedbl" unicode="&#x22;" horiz-adv-x="534" 
d="M150 553q0 6 5 10.5t10 4.5h34q5 0 10 -4.5t5 -10.5v-124q0 -6 -5 -10.5t-10 -4.5h-34q-5 0 -10 4.5t-5 10.5v124zM320 553q0 6 5 10.5t10 4.5h34q5 0 10 -4.5t5 -10.5v-124q0 -6 -5 -10.5t-10 -4.5h-34q-5 0 -10 4.5t-5 10.5v124z" />
    <glyph glyph-name="numbersign" unicode="#" horiz-adv-x="784" 
d="M312 375l-52 -177h177l52 177h-177zM648 198q8 0 13.5 -6t5.5 -13v-36q0 -7 -5.5 -13t-13.5 -6h-147l-29 -99q-4 -10 -10 -17.5t-19 -7.5h-36q-20 0 -20 29l28 95h-177l-29 -99q-4 -10 -10 -17.5t-19 -7.5h-36q-20 0 -20 29l28 95h-53q-8 0 -13.5 6t-5.5 13v36
q0 7 5.5 13t13.5 6h75l52 177h-92q-8 0 -13.5 6t-5.5 13v36q0 7 5.5 13t13.5 6h114l28 94q4 10 10.5 17.5t19.5 7.5h36q18 0 18 -29l-26 -90h177l28 94q4 10 10.5 17.5t19.5 7.5h36q18 0 18 -29l-26 -90h88q8 0 13.5 -6t5.5 -13v-36q0 -7 -5.5 -13t-13.5 -6h-110l-53 -177
h126z" />
    <glyph glyph-name="dollar" unicode="$" horiz-adv-x="558" 
d="M249 -6q-72 6 -122 37.5t-65 83.5q0 8 3.5 17t14.5 9h44q11 0 16.5 -5.5t10.5 -15.5q7 -15 21.5 -25t32.5 -16t38.5 -8.5t39.5 -2.5q24 0 49 2t45 11t32.5 26.5t12.5 47.5q0 31 -27 50t-68 33t-88.5 27t-88.5 32.5t-68 48.5t-27 75q0 69 52.5 110t141.5 43v116
q0 8 6 13.5t13 5.5h43q7 0 13 -5.5t6 -13.5v-123q59 -11 100.5 -38.5t54.5 -72.5q0 -8 -4 -17t-11 -9h-49q-3 0 -10 3.5t-15 17.5q-8 16 -22.5 25.5t-32.5 14t-39.5 6t-44.5 1.5q-59 0 -90 -20t-31 -54q0 -27 27 -44.5t68 -31.5t88.5 -27.5t88.5 -33.5t68 -49t27 -74
q0 -42 -13 -72.5t-36 -51t-54.5 -31.5t-69.5 -15v-117q0 -8 -6 -13.5t-13 -5.5h-43q-7 0 -13 5.5t-6 13.5v117z" />
    <glyph glyph-name="percent" unicode="%" horiz-adv-x="728" 
d="M420 543q4 10 10 17.5t19 7.5h29q20 0 20 -29l-189 -514q-4 -10 -10 -17.5t-19 -7.5h-31q-18 0 -18 29zM182 574q23 0 43.5 -9t35.5 -24t24 -35.5t9 -43.5t-9 -43.5t-24 -35.5t-35.5 -24t-43.5 -9t-43.5 9t-35.5 24t-24 35.5t-9 43.5t9 43.5t24 35.5t35.5 24t43.5 9z
M182 419q16 0 28.5 12.5t12.5 31.5q0 17 -12.5 29.5t-28.5 12.5q-19 0 -31.5 -12.5t-12.5 -29.5q0 -19 12.5 -31.5t31.5 -12.5zM546 215q23 0 43.5 -9t35.5 -24t24 -35.5t9 -43.5t-9 -43.5t-24 -35.5t-35.5 -24t-43.5 -9t-43.5 9t-35.5 24t-24 35.5t-9 43.5t9 43.5t24 35.5
t35.5 24t43.5 9zM546 60q19 0 31.5 12.5t12.5 31.5q0 17 -12.5 29.5t-31.5 12.5q-16 0 -28.5 -12.5t-12.5 -29.5q0 -19 12.5 -31.5t28.5 -12.5z" />
    <glyph glyph-name="ampersand" unicode="&#x26;" horiz-adv-x="766" 
d="M309 63q7 0 18 2t26 9t34 21.5t41 39.5l-127 129q-17 -11 -34.5 -23.5t-32 -27t-24 -30.5t-9.5 -33q0 -28 11 -45t27 -26.5t35 -12.5t35 -3zM586 301q8 8 16 8q9 0 15 -6l22 -21q7 -6 7 -16q0 -8 -6 -15l-107 -111l110 -116q0 -14 -6.5 -19t-15.5 -5h-36q-9 0 -18 4
t-14 9l-74 72q-28 -34 -55 -53t-50.5 -28t-40 -11t-23.5 -2q-36 0 -70.5 8.5t-61 27t-42.5 48.5t-16 73q0 15 5.5 34.5t20 42t40 46t64.5 45.5q-31 38 -42 66.5t-11 44.5q0 26 9.5 52.5t31 47.5t56 34t85.5 13q37 0 68.5 -5.5t54.5 -14.5q14 -5 14 -23l-8 -30
q-5 -14 -24 -14q-19 6 -42.5 9.5t-40.5 3.5q-35 0 -57.5 -4t-36 -13t-19 -23.5t-5.5 -36.5q0 -14 8 -28.5t20.5 -30t29 -32l34.5 -34.5l106 -107z" />
    <glyph glyph-name="quotesingle" unicode="'" horiz-adv-x="364" 
d="M150 553q0 6 5 10.5t10 4.5h34q5 0 10 -4.5t5 -10.5v-124q0 -6 -5 -10.5t-10 -4.5h-34q-5 0 -10 4.5t-5 10.5v124z" />
    <glyph glyph-name="parenleft" unicode="(" horiz-adv-x="436" 
d="M150 286q0 116 13.5 224.5t41.5 223.5q2 8 7 13.5t12 5.5h43q7 0 13 -5.5t6 -13.5q-28 -117 -41.5 -225t-13.5 -223t13.5 -230.5t41.5 -232.5q0 -8 -6 -13.5t-13 -5.5h-43q-7 0 -12 5.5t-7 13.5q-28 115 -41.5 231t-13.5 232z" />
    <glyph glyph-name="parenright" unicode=")" horiz-adv-x="436" 
d="M286 286q0 -116 -13.5 -232t-41.5 -231q-2 -8 -7 -13.5t-12 -5.5h-43q-7 0 -13 5.5t-6 13.5q28 117 41.5 232.5t13.5 230.5t-13.5 223t-41.5 225q0 8 6 13.5t13 5.5h43q7 0 12 -5.5t7 -13.5q28 -115 41.5 -223.5t13.5 -224.5z" />
    <glyph glyph-name="asterisk" unicode="*" horiz-adv-x="466" 
d="M175 288q-4 -4 -6 -4q-2 -1 -7 -1q-3 0 -9 2l-39 29l-5 6q-1 3 -1 6q0 2 1 4.5t2 4.5l52 70l-75 41q-6 2 -8 12q0 6 2 8l23 42q3 8 15 8q1 0 2.5 -0.5t2.5 -0.5l69 -37v82q0 5 4.5 9.5t10.5 4.5h48q7 0 11 -4.5t4 -9.5v-82l69 37q1 0 2.5 0.5t2.5 0.5q12 0 15 -8l23 -42
q2 -2 2 -8q-2 -10 -8 -12l-75 -41l52 -70q1 -2 2 -4.5t1 -4.5q0 -3 -1 -6l-5 -6l-39 -29q-6 -2 -9 -2q-5 0 -7 1q-2 0 -6 4l-58 79z" />
    <glyph glyph-name="plus" unicode="+" horiz-adv-x="537" 
d="M309 190v-123q0 -8 -6 -13.5t-13 -5.5h-43q-7 0 -13 5.5t-6 13.5v123h-109q-8 0 -13.5 6t-5.5 13v38q0 7 5.5 13t13.5 6h109v122q0 8 6 13.5t13 5.5h43q7 0 13 -5.5t6 -13.5v-122h109q8 0 13.5 -6t5.5 -13v-38q0 -7 -5.5 -13t-13.5 -6h-109z" />
    <glyph glyph-name="comma" unicode="," horiz-adv-x="288" 
d="M124 76q0 6 5 10.5t10 4.5h34q5 0 10 -4.5t5 -10.5l-24 -122q0 -6 -5 -10.5t-10 -4.5h-34q-5 0 -10 4.5t-5 10.5z" />
    <glyph glyph-name="hyphen" unicode="-" horiz-adv-x="496" 
d="M377 279q8 0 13.5 -6t5.5 -13v-38q0 -7 -5.5 -13t-13.5 -6h-258q-8 0 -13.5 6t-5.5 13v38q0 7 5.5 13t13.5 6h258z" />
    <glyph glyph-name="period" unicode="." horiz-adv-x="292" 
d="M100 37q0 19 13.5 32.5t32.5 13.5t32.5 -13.5t13.5 -32.5t-13.5 -32.5t-32.5 -13.5t-32.5 13.5t-13.5 32.5z" />
    <glyph glyph-name="slash" unicode="/" horiz-adv-x="714" 
d="M479 729q4 10 10 17.5t19 7.5h36q20 0 20 -29l-329 -897q-4 -10 -10 -17.5t-19 -7.5h-38q-18 0 -18 29z" />
    <glyph glyph-name="zero" unicode="0" horiz-adv-x="588" 
d="M294 67q51 0 83 21t49.5 53t24 69t6.5 70q0 46 -9.5 86t-29.5 69.5t-50.5 46t-73.5 16.5t-73.5 -16.5t-50.5 -46t-29.5 -69.5t-9.5 -86q0 -33 6.5 -70t24 -69t49.5 -53t83 -21zM294 -9q-62 0 -108 21t-76 59.5t-45 91.5t-15 117t15 118t45 93t76 61t108 22t108 -22
t76 -61t45 -93t15 -118t-15 -117t-45 -91.5t-76 -59.5t-108 -21z" />
    <glyph glyph-name="one" unicode="1" horiz-adv-x="329" 
d="M59 492q-8 0 -13.5 6t-5.5 13l43 44q3 3 7.5 8t12.5 5h107q8 0 13.5 -6t5.5 -13v-530q0 -8 -6 -13.5t-13 -5.5h-43q-7 0 -13 5.5t-6 13.5v473h-89z" />
    <glyph glyph-name="two" unicode="2" horiz-adv-x="530" 
d="M80 121q0 37 17 65.5t43.5 49.5t58 37l61.5 30q25 11 48.5 22.5t41.5 25t28.5 30.5t10.5 38q0 16 -5.5 30t-18.5 25t-33.5 17.5t-51.5 6.5q-52 0 -77 -15t-34 -41q-5 -14 -10.5 -17.5t-8.5 -3.5h-49q-15 0 -15 27q5 27 17 50t34.5 40t57 26.5t84.5 9.5q92 0 141.5 -43.5
t49.5 -113.5q0 -41 -17 -70t-43 -50t-57.5 -36t-60.5 -27l-43 -20t-42.5 -25t-32.5 -31t-13 -38v-44h290q8 0 13.5 -6t5.5 -13v-38q0 -7 -5.5 -13t-13.5 -6h-352q-8 0 -13.5 6t-5.5 13v102z" />
    <glyph glyph-name="three" unicode="3" horiz-adv-x="513" 
d="M246 319q35 0 57.5 4.5t35.5 15.5t18 29.5t5 46.5q0 22 -5 37.5t-18 25.5t-35.5 15t-57.5 5q-51 0 -76.5 -15.5t-34.5 -40.5q-8 -14 -15.5 -16.5t-10.5 -2.5h-43q-7 0 -11 6t-4 14q4 28 16 52t34.5 41.5t58 27.5t86.5 10q60 0 98.5 -11.5t60 -32.5t30 -50t8.5 -65
q0 -14 -1 -35t-8 -41.5t-22 -37t-42 -21.5q27 -9 42 -24.5t22 -33t8 -36t1 -33.5q0 -36 -8.5 -65.5t-30 -51t-60 -33.5t-98.5 -12q-52 0 -87.5 9.5t-58.5 27t-34.5 41t-15.5 51.5q0 8 4 14t11 6h46q3 0 10 -2.5t11 -15.5q8 -27 33 -41t81 -14q35 0 57.5 5.5t35.5 16t18 26.5
t5 38q0 28 -5 46t-18 27.5t-35.5 13t-57.5 3.5h-32q-8 0 -13.5 6t-5.5 13v38q0 7 5.5 13t13.5 6h32z" />
    <glyph glyph-name="four" unicode="4" horiz-adv-x="540" 
d="M108 214h218v264zM407 138v-119q0 -8 -6 -13.5t-13 -5.5h-43q-7 0 -13 5.5t-6 13.5v119h-267q-8 0 -13.5 6t-5.5 13v88q0 9 6 15l239 292q10 16 26 16h77q7 0 13 -5.5t6 -13.5v-335h74q8 0 13.5 -6t5.5 -13v-38q0 -7 -5.5 -13t-13.5 -6h-74z" />
    <glyph glyph-name="five" unicode="5" horiz-adv-x="541" 
d="M97 108q0 8 6 13.5t13 5.5h42q7 0 14 -1.5t11 -9.5q15 -32 41 -40.5t59 -8.5q35 0 58 7t36 20.5t18 34t5 46.5t-5 45.5t-18 32t-36 19t-58 6.5q-9 0 -22.5 -1t-27.5 -4t-27 -8t-21 -13q-5 -5 -12 -9t-12 -4h-49q-7 0 -13 5.5t-6 13.5v291q0 7 5.5 13t13.5 6h311
q8 0 13.5 -6t5.5 -13v-38q0 -7 -5.5 -13t-13.5 -6h-249v-168q22 10 39 16t31 9t27.5 4t28.5 1q49 0 83.5 -14t56.5 -38.5t31.5 -57t9.5 -69.5q0 -36 -8.5 -69t-30.5 -58.5t-60.5 -41t-98.5 -15.5q-44 0 -76.5 8.5t-54.5 23.5t-35.5 36.5t-19.5 48.5z" />
    <glyph glyph-name="six" unicode="6" horiz-adv-x="525" 
d="M268 284q-36 0 -59 -11.5t-35.5 -29.5t-17.5 -40t-5 -42q0 -13 5 -29.5t17.5 -30.5t35.5 -24t59 -10t58.5 9.5t35 24.5t17.5 32.5t5 32.5q0 20 -5 41t-17.5 38t-35 28t-58.5 11zM362 445q-12 19 -32.5 36t-61.5 17q-36 0 -59 -10t-35.5 -27t-17.5 -40t-5 -48v-60
q12 18 31.5 27.5t39.5 14t37 5t25 0.5q46 0 80.5 -15.5t56.5 -41.5t33 -59.5t11 -69.5q0 -33 -8.5 -66t-30 -59t-60 -42t-98.5 -16t-98.5 16t-60.5 41.5t-30.5 57t-8.5 63.5v222q0 36 8.5 69t30.5 58.5t60.5 40.5t98.5 15q40 0 71 -11t53 -28t35 -38.5t18 -43.5
q0 -8 -6 -13.5t-13 -5.5h-42q-7 0 -12 1.5t-10 9.5z" />
    <glyph glyph-name="seven" unicode="7" horiz-adv-x="456" 
d="M387 568q8 0 13.5 -6t5.5 -13v-48q0 -7 -1.5 -11t-1.5 -5l-175 -466q-2 -7 -7 -13t-12 -6h-49q-7 0 -13 5.5t-6 13.5l178 473h-260q-8 0 -13.5 6t-5.5 13v38q0 7 5.5 13t13.5 6h328z" />
    <glyph glyph-name="eight" unicode="8" horiz-adv-x="536" 
d="M268 323q36 0 58.5 6.5t35.5 18.5t18 29t5 38q0 15 -5 30t-18 26.5t-35.5 19t-58.5 7.5t-58.5 -7.5t-35.5 -19t-18 -26.5t-5 -30q0 -21 5 -38t18 -29t35.5 -18.5t58.5 -6.5zM268 67q36 0 58.5 5.5t35.5 16t18 26t5 35.5q0 19 -5 36.5t-18 31t-35.5 21.5t-58.5 8t-58.5 -8
t-35.5 -21.5t-18 -31t-5 -36.5q0 -20 5 -35.5t18 -26t35.5 -16t58.5 -5.5zM268 -9q-60 0 -98.5 12t-60.5 33.5t-30.5 51t-8.5 65.5q0 15 2.5 33t11.5 36t26.5 34t46.5 27q-30 4 -47 20t-26 36.5t-11.5 41.5t-2.5 35q0 30 8.5 58.5t30.5 50.5t60.5 35.5t98.5 13.5t98.5 -13.5
t60.5 -35.5t30.5 -50.5t8.5 -58.5q0 -14 -2.5 -35t-11.5 -41.5t-26 -36.5t-47 -20q29 -11 46.5 -27t26.5 -34t11.5 -36t2.5 -33q0 -36 -8.5 -65.5t-30.5 -51t-60.5 -33.5t-98.5 -12z" />
    <glyph glyph-name="nine" unicode="9" horiz-adv-x="525" 
d="M257 281q36 0 59 11.5t35.5 29.5t17.5 40t5 42q0 13 -5 29.5t-17.5 30.5t-35.5 24t-59 10t-58.5 -9.5t-35 -24.5t-17.5 -32.5t-5 -32.5q0 -20 5 -41t17.5 -38t35 -28t58.5 -11zM163 120q12 -19 32.5 -36t61.5 -17q36 0 59 10t35.5 27t17.5 39.5t5 48.5v60
q-12 -18 -31.5 -27.5t-39.5 -14t-37 -5t-25 -0.5q-47 0 -81 15.5t-56 41.5t-33 59.5t-11 69.5q0 33 8.5 66t30 59t60 42t98.5 16t98.5 -16t60.5 -41.5t30.5 -57t8.5 -63.5v-222q0 -36 -8.5 -69t-30.5 -58.5t-60.5 -40.5t-98.5 -15q-40 0 -71 10.5t-53 28t-35.5 39
t-17.5 43.5q0 8 6 13.5t13 5.5h42q7 0 12 -1.5t10 -9.5z" />
    <glyph glyph-name="colon" unicode=":" horiz-adv-x="292" 
d="M100 46q0 19 13.5 32.5t32.5 13.5t32.5 -13.5t13.5 -32.5t-13.5 -32.5t-32.5 -13.5t-32.5 13.5t-13.5 32.5zM100 409q0 19 13.5 32.5t32.5 13.5t32.5 -13.5t13.5 -32.5t-13.5 -32.5t-32.5 -13.5t-32.5 13.5t-13.5 32.5z" />
    <glyph glyph-name="semicolon" unicode=";" horiz-adv-x="300" 
d="M124 76q0 6 5 10.5t10 4.5h34q5 0 10 -4.5t5 -10.5l-24 -122q0 -6 -5 -10.5t-10 -4.5h-34q-5 0 -10 4.5t-5 10.5zM108 409q0 19 13.5 32.5t32.5 13.5t32.5 -13.5t13.5 -32.5t-13.5 -32.5t-32.5 -13.5t-32.5 13.5t-13.5 32.5z" />
    <glyph glyph-name="less" unicode="&#x3c;" horiz-adv-x="474" 
d="M276 543q7 10 16 10h58q7 0 13 -5.5t6 -13.5l-174 -252l179 -263q0 -8 -6 -13.5t-13 -5.5h-58q-9 0 -16 10l-181 266v9z" />
    <glyph glyph-name="equal" unicode="=" horiz-adv-x="496" 
d="M377 133q8 0 13.5 -6t5.5 -13v-38q0 -7 -5.5 -13t-13.5 -6h-258q-8 0 -13.5 6t-5.5 13v38q0 7 5.5 13t13.5 6h258zM377 326q8 0 13.5 -6t5.5 -13v-38q0 -7 -5.5 -13t-13.5 -6h-258q-8 0 -13.5 6t-5.5 13v38q0 7 5.5 13t13.5 6h258z" />
    <glyph glyph-name="greater" unicode="&#x3e;" horiz-adv-x="474" 
d="M374 285v-9l-181 -266q-7 -10 -16 -10h-58q-7 0 -13 5.5t-6 13.5l179 263l-174 252q0 8 6 13.5t13 5.5h58q9 0 16 -10z" />
    <glyph glyph-name="question" unicode="?" horiz-adv-x="588" 
d="M181 439q0 -8 -5.5 -14t-12.5 -6h-44q-7 0 -13 5.5t-6 13.5q11 63 62 99.5t136 36.5q91 0 140.5 -43.5t49.5 -113.5q0 -39 -20.5 -70t-51.5 -55t-68 -42t-70 -32v-71q0 -8 -6 -13.5t-13 -5.5h-43q-7 0 -13 5.5t-6 13.5v92q0 5 4 10.5t9 7.5l69 35q26 13 49.5 26.5
t41 27.5t27.5 30.5t10 36.5q0 16 -5.5 31t-18.5 27t-34 19.5t-51 7.5q-17 0 -35.5 -3t-35 -10t-29 -18.5t-17.5 -27.5zM192 37q0 19 13.5 32.5t32.5 13.5t32.5 -13.5t13.5 -32.5t-13.5 -32.5t-32.5 -13.5t-32.5 13.5t-13.5 32.5z" />
    <glyph glyph-name="at" unicode="@" horiz-adv-x="817" 
d="M585 -65q8 0 13.5 -6t5.5 -13v-38q0 -7 -5.5 -13t-13.5 -6h-236q-63 0 -110 18.5t-77.5 50t-46 74.5t-15.5 91v304q0 48 15.5 90.5t46 75t77.5 51t110 18.5h119q63 0 109.5 -16.5t77.5 -43.5t46.5 -62t15.5 -72v-224q0 -35 -8 -65t-30 -52t-60.5 -34t-98.5 -12t-98.5 13
t-60.5 35.5t-30.5 53t-8.5 65.5q0 36 7.5 69t28.5 58t58 40t96 15q15 0 47 -4.5t77 -28.5v56q0 24 -11 48t-30.5 43.5t-46.5 32t-58 12.5h-141q-84 0 -126 -47.5t-42 -150.5v-230q0 -103 42 -149.5t126 -46.5h236zM520 127q36 0 58.5 7t35 19.5t17.5 29t5 35.5q0 21 -5 40.5
t-17.5 34t-35 23t-58.5 8.5q-35 0 -58 -8t-36 -22t-18 -33.5t-5 -42.5q0 -22 5 -39t18 -28.5t36 -17.5t58 -6z" />
    <glyph glyph-name="A" unicode="A" horiz-adv-x="576" 
d="M330 568q7 0 12.5 -6t7.5 -14l181 -529q0 -8 -6 -13.5t-13 -5.5h-41q-7 0 -13 5.5t-8 13.5l-34 96h-256l-34 -96q-2 -8 -8 -13.5t-13 -5.5h-41q-7 0 -13 5.5t-6 13.5l181 529q2 8 7.5 14t12.5 6h84zM288 499l-101 -308h202z" />
    <glyph glyph-name="B" unicode="B" horiz-adv-x="577" 
d="M181 234v-158h152q36 0 58 5.5t34.5 15.5t16.5 24.5t4 32.5q0 16 -4 31t-16.5 25.5t-34.5 17t-58 6.5h-152zM333 310q36 0 58 7t34.5 19t16.5 27.5t4 32.5v10q0 16 -4 31.5t-16.5 27.5t-34.5 19.5t-58 7.5h-152v-182h152zM337 568q49 0 85 -13.5t59.5 -37t34.5 -53.5
t11 -63q0 -13 -3 -32.5t-13 -39t-29 -35.5t-51 -20q33 -4 52 -21t28.5 -38t12.5 -42t3 -32q0 -27 -7 -52.5t-28 -45t-58 -31.5t-97 -12h-218q-7 0 -13 5.5t-6 13.5v530q0 8 6 13.5t13 5.5h218z" />
    <glyph glyph-name="C" unicode="C" horiz-adv-x="577" 
d="M535 94q-34 -51 -92 -77t-133 -26q-63 0 -113 21t-85 59.5t-53.5 91.5t-18.5 117t18.5 118t53.5 93t85 61t113 22q73 0 132 -24.5t93 -73.5q2 -3 2 -9q0 -12 -8 -17l-27 -21q-3 -2 -9 -2q-9 0 -17 8q-32 38 -75.5 50.5t-88.5 12.5q-50 0 -86 -17t-59.5 -46t-35 -69
t-11.5 -86q0 -47 11 -86.5t34 -67.5t59 -43.5t86 -15.5q45 0 89 14.5t76 53.5q8 8 18 8q6 0 9 -2l27 -20q8 -5 8 -17q0 -7 -2 -10z" />
    <glyph glyph-name="D" unicode="D" horiz-adv-x="603" 
d="M299 76q51 0 84.5 15.5t53 43.5t27.5 65.5t8 82.5q0 42 -8 79.5t-27.5 66.5t-53 46t-84.5 17h-118v-416h118zM119 0q-7 0 -13 5.5t-6 13.5v530q0 8 6 13.5t13 5.5h180q63 0 110.5 -21.5t79.5 -59.5t48 -90t16 -114t-16 -114t-48 -89.5t-79.5 -58.5t-110.5 -21h-180z" />
    <glyph glyph-name="E" unicode="E" horiz-adv-x="561" 
d="M390 322q8 0 13.5 -6t5.5 -13v-38q0 -7 -5.5 -13t-13.5 -6h-209v-170h291q8 0 13.5 -6t5.5 -13v-38q0 -7 -5.5 -13t-13.5 -6h-353q-7 0 -13 5.5t-6 13.5v530q0 8 6 13.5t13 5.5h353q8 0 13.5 -6t5.5 -13v-38q0 -7 -5.5 -13t-13.5 -6h-291v-170h209z" />
    <glyph glyph-name="F" unicode="F" horiz-adv-x="523" 
d="M181 19q0 -8 -6 -13.5t-13 -5.5h-43q-7 0 -13 5.5t-6 13.5v530q0 8 6 13.5t13 5.5h355q8 0 13.5 -6t5.5 -13v-38q0 -7 -5.5 -13t-13.5 -6h-293v-206h225q8 0 13.5 -6t5.5 -13v-38q0 -7 -5.5 -13t-13.5 -6h-225v-191z" />
    <glyph glyph-name="G" unicode="G" horiz-adv-x="619" 
d="M476 45q-33 -26 -76.5 -40t-89.5 -14q-63 0 -113 21t-85 59.5t-53.5 91.5t-18.5 117t18.5 118t53.5 93t85 61t113 22q73 0 132 -24.5t93 -73.5q2 -3 2 -9q0 -12 -8 -17l-27 -21q-3 -2 -9 -2q-9 0 -17 8q-32 38 -75.5 50.5t-88.5 12.5q-50 0 -86 -17t-59.5 -46t-35 -69
t-11.5 -86q0 -47 11 -86.5t34 -67.5t59 -43.5t86 -15.5q20 0 43.5 5.5t46 15t41 23t28.5 29.5v83h-70q-8 0 -13.5 6t-5.5 13v38q0 7 5.5 13t13.5 6h131q7 0 13 -5.5t6 -13.5v-261q0 -8 -6 -13.5t-13 -5.5h-25q-7 0 -11.5 6t-7.5 13z" />
    <glyph glyph-name="H" unicode="H" horiz-adv-x="633" 
d="M181 228v-209q0 -8 -6 -13.5t-13 -5.5h-43q-7 0 -13 5.5t-6 13.5v530q0 8 6 13.5t13 5.5h43q7 0 13 -5.5t6 -13.5v-245h271v245q0 8 6 13.5t13 5.5h43q7 0 13 -5.5t6 -13.5v-530q0 -8 -6 -13.5t-13 -5.5h-43q-7 0 -13 5.5t-6 13.5v209h-271z" />
    <glyph glyph-name="I" unicode="I" horiz-adv-x="281" 
d="M100 549q0 8 6 13.5t13 5.5h43q7 0 13 -5.5t6 -13.5v-530q0 -8 -6 -13.5t-13 -5.5h-43q-7 0 -13 5.5t-6 13.5v530z" />
    <glyph glyph-name="J" unicode="J" horiz-adv-x="559" 
d="M121 130q11 -20 23.5 -33t28.5 -20.5t35.5 -10.5t45.5 -3q50 0 79 17.5t43.5 48t18 71.5t3.5 88v204h-148q-8 0 -13.5 6t-5.5 13v38q0 7 5.5 13t13.5 6h210q8 0 13.5 -6t5.5 -13v-292q0 -64 -12 -114t-39 -84.5t-70 -53t-104 -18.5q-43 0 -80 9.5t-64.5 28t-45.5 45
t-24 60.5q0 8 6 13.5t13 5.5h36q10 0 16 -5.5t10 -13.5z" />
    <glyph glyph-name="K" unicode="K" horiz-adv-x="604" 
d="M503 568q7 0 13.5 -5.5t6.5 -13.5l-123 -160l164 -370q0 -8 -6 -13.5t-13 -5.5h-46q-7 0 -12.5 5.5t-9.5 13.5l-134 298l-162 -204v-94q0 -8 -6 -13.5t-13 -5.5h-43q-7 0 -13 5.5t-6 13.5v530q0 8 6 13.5t13 5.5h43q7 0 13 -5.5t6 -13.5v-310l248 316q4 5 11 9t12 4h51z
" />
    <glyph glyph-name="L" unicode="L" horiz-adv-x="523" 
d="M181 76h273q8 0 13.5 -6t5.5 -13v-38q0 -7 -5.5 -13t-13.5 -6h-335q-7 0 -13 5.5t-6 13.5v530q0 8 6 13.5t13 5.5h43q7 0 13 -5.5t6 -13.5v-473z" />
    <glyph glyph-name="M" unicode="M" horiz-adv-x="770" 
d="M379 141q-7 0 -11 6l-187 296v-424q0 -8 -6 -13.5t-13 -5.5h-43q-7 0 -13 5.5t-6 13.5v530q0 8 6 13.5t13 5.5h59q9 0 16 -10l191 -300l191 300q7 10 16 10h59q7 0 13 -5.5t6 -13.5v-530q0 -8 -6 -13.5t-13 -5.5h-43q-7 0 -13 5.5t-6 13.5v424l-187 -296q-4 -6 -11 -6
h-12z" />
    <glyph glyph-name="N" unicode="N" horiz-adv-x="644" 
d="M544 19q0 -8 -6 -13.5t-13 -5.5h-56q-12 0 -18 7t-10 13l-260 412v-413q0 -8 -6 -13.5t-13 -5.5h-43q-7 0 -13 5.5t-6 13.5v530q0 8 6 13.5t13 5.5h51q12 0 18 -7t10 -13l265 -420v421q0 8 6 13.5t13 5.5h43q7 0 13 -5.5t6 -13.5v-530z" />
    <glyph glyph-name="O" unicode="O" horiz-adv-x="630" 
d="M315 67q51 0 86 15.5t56.5 43.5t31.5 67.5t10 86.5q0 46 -10 86t-31.5 69.5t-56.5 46t-86 16.5t-86 -16.5t-56.5 -46t-31.5 -69.5t-10 -86q0 -47 10 -86.5t31.5 -67.5t56.5 -43.5t86 -15.5zM315 -9q-63 0 -112.5 21t-83 59.5t-51.5 91.5t-18 117t18 118t51.5 93t83 61
t112.5 22t112.5 -22t83 -61t51.5 -93t18 -118t-18 -117t-51.5 -91.5t-83 -59.5t-112.5 -21z" />
    <glyph glyph-name="P" unicode="P" horiz-adv-x="557" 
d="M181 492v-264h105q53 0 84.5 10.5t48.5 28t22 41t5 49.5v9q0 26 -5 49t-22 40t-48.5 27t-84.5 10h-105zM286 568q62 0 107.5 -15t75 -41.5t44 -63.5t14.5 -82v-9q0 -97 -56 -151t-180 -54h-110v-133q0 -8 -6 -13.5t-13 -5.5h-43q-7 0 -13 5.5t-6 13.5v530q0 8 6 13.5
t13 5.5h167z" />
    <glyph glyph-name="Q" unicode="Q" horiz-adv-x="630" 
d="M389 -3q-17 -5 -35.5 -5.5t-38.5 -0.5q-63 0 -112.5 21t-83 59.5t-51.5 91.5t-18 117t18 118t51.5 93t83 61t112.5 22t112.5 -22t83 -61t51.5 -93t18 -118q0 -84 -30 -149t-87 -103l54 -104q1 -2 1 -7q0 -13 -10 -18l-39 -18q-4 -2 -7 -2q-13 0 -18 11zM315 67
q51 0 86 15.5t56.5 43.5t31.5 67.5t10 86.5q0 46 -10 86t-31.5 69.5t-56.5 46t-86 16.5t-86 -16.5t-56.5 -46t-31.5 -69.5t-10 -86q0 -47 10 -86.5t31.5 -67.5t56.5 -43.5t86 -15.5z" />
    <glyph glyph-name="R" unicode="R" horiz-adv-x="577" 
d="M343 155q-24 -3 -52 -3h-110v-133q0 -8 -6 -13.5t-13 -5.5h-43q-7 0 -13 5.5t-6 13.5v530q0 8 6 13.5t13 5.5h167q62 0 107.5 -15t75 -41.5t44 -63.5t14.5 -82v-9q0 -68 -27 -115t-85 -70l73 -153q0 -8 -6 -13.5t-13 -5.5h-41q-7 0 -12.5 6t-8.5 13zM181 492v-264h105
q53 0 84.5 10.5t48.5 28t22 41t5 49.5v9q0 26 -5 49t-22 40t-48.5 27t-84.5 10h-105z" />
    <glyph glyph-name="S" unicode="S" horiz-adv-x="558" 
d="M490 456q0 -8 -4 -17t-11 -9h-49q-3 0 -10 3.5t-15 17.5q-8 16 -22.5 25.5t-32.5 14t-39.5 6t-44.5 1.5q-59 0 -90 -20t-31 -54q0 -27 27 -44.5t68 -31.5t88.5 -27.5t88.5 -33.5t68 -49t27 -74q0 -49 -16.5 -82t-46 -53t-70 -28.5t-87.5 -8.5q-42 0 -78.5 8.5t-65 24
t-48.5 38.5t-29 52q0 8 3.5 17t14.5 9h44q11 0 16.5 -5.5t10.5 -15.5q7 -15 21.5 -25t32.5 -16t38.5 -8.5t39.5 -2.5q24 0 49 2t45 11t32.5 26.5t12.5 47.5q0 31 -27 50t-68 33t-88.5 27t-88.5 32.5t-68 48.5t-27 75q0 71 54 112t147 41q42 0 80 -7.5t68.5 -22.5t51.5 -37
t29 -51z" />
    <glyph glyph-name="T" unicode="T" horiz-adv-x="513" 
d="M297 19q0 -8 -6 -13.5t-13 -5.5h-43q-7 0 -13 5.5t-6 13.5v473h-152q-8 0 -13.5 6t-5.5 13v38q0 7 5.5 13t13.5 6h385q8 0 13.5 -6t5.5 -13v-38q0 -7 -5.5 -13t-13.5 -6h-152v-473z" />
    <glyph glyph-name="U" unicode="U" 
d="M317 -9q-128 0 -182.5 67.5t-54.5 208.5v282q0 8 6 13.5t13 5.5h43q7 0 13 -5.5t6 -13.5v-282q0 -48 5.5 -85t22.5 -62.5t47.5 -39t80.5 -13.5t80.5 13.5t47.5 39t22.5 62.5t5.5 85v282q0 8 6 13.5t13 5.5h43q7 0 13 -5.5t6 -13.5v-282q0 -141 -54.5 -208.5t-182.5 -67.5
z" />
    <glyph glyph-name="V" unicode="V" horiz-adv-x="576" 
d="M288 69l162 480q2 8 8 13.5t13 5.5h41q7 0 13 -5.5t6 -13.5l-181 -529q-2 -8 -7.5 -14t-12.5 -6h-84q-7 0 -12.5 6t-7.5 14l-181 529q0 8 6 13.5t13 5.5h41q7 0 13 -5.5t8 -13.5z" />
    <glyph glyph-name="W" unicode="W" horiz-adv-x="821" 
d="M418 568q8 0 14.5 -4t10.5 -13l154 -455l96 453q2 8 8 13.5t13 5.5h38q7 0 13 -5.5t6 -13.5l-112 -529q-3 -13 -13.5 -16.5t-17.5 -3.5h-55q-6 0 -15.5 3.5t-13.5 15.5l-135 388l-132 -388q-4 -12 -13.5 -15.5t-15.5 -3.5h-55q-7 0 -17.5 3.5t-13.5 16.5l-112 529
q0 8 6 13.5t13 5.5h38q7 0 13 -5.5t8 -13.5l96 -453l154 455q4 9 10.5 13t11.5 4h18v0z" />
    <glyph glyph-name="X" unicode="X" horiz-adv-x="588" 
d="M144 18q-6 -10 -14.5 -14t-15.5 -4h-45q-7 0 -13 5.5t-6 13.5l182 264l-182 265q0 8 6 13.5t13 5.5h45q7 0 15.5 -4t14.5 -14l150 -217l150 217q6 10 14.5 14t15.5 4h45q7 0 13 -5.5t6 -13.5l-182 -265l182 -264q0 -8 -6 -13.5t-13 -5.5h-45q-7 0 -15.5 4t-14.5 14
l-150 217z" />
    <glyph glyph-name="Y" unicode="Y" horiz-adv-x="487" 
d="M388 549q4 7 10 13t17 6h43q7 0 13 -5.5t6 -13.5l-193 -366v-164q0 -8 -6 -13.5t-13 -5.5h-43q-7 0 -13 5.5t-6 13.5v164l-193 366q0 8 6 13.5t13 5.5h44q11 0 17 -6t10 -13l144 -271z" />
    <glyph glyph-name="Z" unicode="Z" horiz-adv-x="569" 
d="M163 76h317q8 0 13.5 -6t5.5 -13v-38q0 -7 -5.5 -13t-13.5 -6h-391q-8 0 -13.5 6t-5.5 13v63q0 5 3 9t7 8l327 393h-318q-8 0 -13.5 6t-5.5 13v38q0 7 5.5 13t13.5 6h391q8 0 13.5 -6t5.5 -13v-64q0 -5 -3 -10.5t-7 -9.5z" />
    <glyph glyph-name="bracketleft" unicode="[" horiz-adv-x="520" 
d="M231 -120h170q8 0 13.5 -6t5.5 -13v-38q0 -7 -5.5 -13t-13.5 -6h-232q-7 0 -13 5.5t-6 13.5v911q0 8 6 13.5t13 5.5h232q8 0 13.5 -6t5.5 -13v-38q0 -7 -5.5 -13t-13.5 -6h-170v-797z" />
    <glyph glyph-name="backslash" unicode="\" horiz-adv-x="714" 
d="M564 -168q0 -29 -18 -29h-38q-13 0 -19 7.5t-10 17.5l-329 897q0 29 20 29h36q13 0 19 -7.5t10 -17.5z" />
    <glyph glyph-name="bracketright" unicode="]" horiz-adv-x="520" 
d="M289 677h-170q-8 0 -13.5 6t-5.5 13v38q0 7 5.5 13t13.5 6h232q7 0 13 -5.5t6 -13.5v-911q0 -8 -6 -13.5t-13 -5.5h-232q-8 0 -13.5 6t-5.5 13v38q0 7 5.5 13t13.5 6h170v797z" />
    <glyph glyph-name="asciicircum" unicode="^" horiz-adv-x="476" 
d="M280 574q6 0 13.5 -5t9.5 -10l73 -144q0 -7 -4.5 -12.5t-12.5 -5.5h-41q-8 0 -15.5 6t-9.5 12l-55 109l-56 -109q-2 -6 -9.5 -12t-15.5 -6h-40q-8 0 -12.5 5.5t-4.5 12.5l73 144q2 5 9.5 10t13.5 5h84z" />
    <glyph glyph-name="underscore" unicode="_" horiz-adv-x="496" 
d="M377 -9q8 0 13.5 -6t5.5 -13v-38q0 -7 -5.5 -13t-13.5 -6h-258q-8 0 -13.5 6t-5.5 13v38q0 7 5.5 13t13.5 6h258z" />
    <glyph glyph-name="grave" unicode="`" horiz-adv-x="289" 
d="M189 471q0 -6 -5 -10.5t-10 -4.5h-34q-5 0 -9 4.5t-6 10.5l-25 88q0 6 5 10.5t10 4.5h34q5 0 9 -4.5t6 -10.5z" />
    <glyph glyph-name="a" unicode="a" horiz-adv-x="576" 
d="M330 568q7 0 12.5 -6t7.5 -14l181 -529q0 -8 -6 -13.5t-13 -5.5h-41q-7 0 -13 5.5t-8 13.5l-34 96h-256l-34 -96q-2 -8 -8 -13.5t-13 -5.5h-41q-7 0 -13 5.5t-6 13.5l181 529q2 8 7.5 14t12.5 6h84zM288 499l-101 -308h202z" />
    <glyph glyph-name="b" unicode="b" horiz-adv-x="577" 
d="M181 234v-158h152q36 0 58 5.5t34.5 15.5t16.5 24.5t4 32.5q0 16 -4 31t-16.5 25.5t-34.5 17t-58 6.5h-152zM333 310q36 0 58 7t34.5 19t16.5 27.5t4 32.5v10q0 16 -4 31.5t-16.5 27.5t-34.5 19.5t-58 7.5h-152v-182h152zM337 568q49 0 85 -13.5t59.5 -37t34.5 -53.5
t11 -63q0 -13 -3 -32.5t-13 -39t-29 -35.5t-51 -20q33 -4 52 -21t28.5 -38t12.5 -42t3 -32q0 -27 -7 -52.5t-28 -45t-58 -31.5t-97 -12h-218q-7 0 -13 5.5t-6 13.5v530q0 8 6 13.5t13 5.5h218z" />
    <glyph glyph-name="c" unicode="c" horiz-adv-x="577" 
d="M535 94q-34 -51 -92 -77t-133 -26q-63 0 -113 21t-85 59.5t-53.5 91.5t-18.5 117t18.5 118t53.5 93t85 61t113 22q73 0 132 -24.5t93 -73.5q2 -3 2 -9q0 -12 -8 -17l-27 -21q-3 -2 -9 -2q-9 0 -17 8q-32 38 -75.5 50.5t-88.5 12.5q-50 0 -86 -17t-59.5 -46t-35 -69
t-11.5 -86q0 -47 11 -86.5t34 -67.5t59 -43.5t86 -15.5q45 0 89 14.5t76 53.5q8 8 18 8q6 0 9 -2l27 -20q8 -5 8 -17q0 -7 -2 -10z" />
    <glyph glyph-name="d" unicode="d" horiz-adv-x="603" 
d="M299 76q51 0 84.5 15.5t53 43.5t27.5 65.5t8 82.5q0 42 -8 79.5t-27.5 66.5t-53 46t-84.5 17h-118v-416h118zM119 0q-7 0 -13 5.5t-6 13.5v530q0 8 6 13.5t13 5.5h180q63 0 110.5 -21.5t79.5 -59.5t48 -90t16 -114t-16 -114t-48 -89.5t-79.5 -58.5t-110.5 -21h-180z" />
    <glyph glyph-name="e" unicode="e" horiz-adv-x="561" 
d="M390 322q8 0 13.5 -6t5.5 -13v-38q0 -7 -5.5 -13t-13.5 -6h-209v-170h291q8 0 13.5 -6t5.5 -13v-38q0 -7 -5.5 -13t-13.5 -6h-353q-7 0 -13 5.5t-6 13.5v530q0 8 6 13.5t13 5.5h353q8 0 13.5 -6t5.5 -13v-38q0 -7 -5.5 -13t-13.5 -6h-291v-170h209z" />
    <glyph glyph-name="f" unicode="f" horiz-adv-x="523" 
d="M181 19q0 -8 -6 -13.5t-13 -5.5h-43q-7 0 -13 5.5t-6 13.5v530q0 8 6 13.5t13 5.5h355q8 0 13.5 -6t5.5 -13v-38q0 -7 -5.5 -13t-13.5 -6h-293v-206h225q8 0 13.5 -6t5.5 -13v-38q0 -7 -5.5 -13t-13.5 -6h-225v-191z" />
    <glyph glyph-name="g" unicode="g" horiz-adv-x="619" 
d="M476 45q-33 -26 -76.5 -40t-89.5 -14q-63 0 -113 21t-85 59.5t-53.5 91.5t-18.5 117t18.5 118t53.5 93t85 61t113 22q73 0 132 -24.5t93 -73.5q2 -3 2 -9q0 -12 -8 -17l-27 -21q-3 -2 -9 -2q-9 0 -17 8q-32 38 -75.5 50.5t-88.5 12.5q-50 0 -86 -17t-59.5 -46t-35 -69
t-11.5 -86q0 -47 11 -86.5t34 -67.5t59 -43.5t86 -15.5q20 0 43.5 5.5t46 15t41 23t28.5 29.5v83h-70q-8 0 -13.5 6t-5.5 13v38q0 7 5.5 13t13.5 6h131q7 0 13 -5.5t6 -13.5v-261q0 -8 -6 -13.5t-13 -5.5h-25q-7 0 -11.5 6t-7.5 13z" />
    <glyph glyph-name="h" unicode="h" horiz-adv-x="633" 
d="M181 228v-209q0 -8 -6 -13.5t-13 -5.5h-43q-7 0 -13 5.5t-6 13.5v530q0 8 6 13.5t13 5.5h43q7 0 13 -5.5t6 -13.5v-245h271v245q0 8 6 13.5t13 5.5h43q7 0 13 -5.5t6 -13.5v-530q0 -8 -6 -13.5t-13 -5.5h-43q-7 0 -13 5.5t-6 13.5v209h-271z" />
    <glyph glyph-name="i" unicode="i" horiz-adv-x="281" 
d="M100 549q0 8 6 13.5t13 5.5h43q7 0 13 -5.5t6 -13.5v-530q0 -8 -6 -13.5t-13 -5.5h-43q-7 0 -13 5.5t-6 13.5v530z" />
    <glyph glyph-name="j" unicode="j" horiz-adv-x="559" 
d="M121 130q11 -20 23.5 -33t28.5 -20.5t35.5 -10.5t45.5 -3q50 0 79 17.5t43.5 48t18 71.5t3.5 88v204h-148q-8 0 -13.5 6t-5.5 13v38q0 7 5.5 13t13.5 6h210q8 0 13.5 -6t5.5 -13v-292q0 -64 -12 -114t-39 -84.5t-70 -53t-104 -18.5q-43 0 -80 9.5t-64.5 28t-45.5 45
t-24 60.5q0 8 6 13.5t13 5.5h36q10 0 16 -5.5t10 -13.5z" />
    <glyph glyph-name="k" unicode="k" horiz-adv-x="604" 
d="M503 568q7 0 13.5 -5.5t6.5 -13.5l-123 -160l164 -370q0 -8 -6 -13.5t-13 -5.5h-46q-7 0 -12.5 5.5t-9.5 13.5l-134 298l-162 -204v-94q0 -8 -6 -13.5t-13 -5.5h-43q-7 0 -13 5.5t-6 13.5v530q0 8 6 13.5t13 5.5h43q7 0 13 -5.5t6 -13.5v-310l248 316q4 5 11 9t12 4h51z
" />
    <glyph glyph-name="l" unicode="l" horiz-adv-x="523" 
d="M181 76h273q8 0 13.5 -6t5.5 -13v-38q0 -7 -5.5 -13t-13.5 -6h-335q-7 0 -13 5.5t-6 13.5v530q0 8 6 13.5t13 5.5h43q7 0 13 -5.5t6 -13.5v-473z" />
    <glyph glyph-name="m" unicode="m" horiz-adv-x="770" 
d="M379 141q-7 0 -11 6l-187 296v-424q0 -8 -6 -13.5t-13 -5.5h-43q-7 0 -13 5.5t-6 13.5v530q0 8 6 13.5t13 5.5h59q9 0 16 -10l191 -300l191 300q7 10 16 10h59q7 0 13 -5.5t6 -13.5v-530q0 -8 -6 -13.5t-13 -5.5h-43q-7 0 -13 5.5t-6 13.5v424l-187 -296q-4 -6 -11 -6
h-12z" />
    <glyph glyph-name="n" unicode="n" horiz-adv-x="644" 
d="M544 19q0 -8 -6 -13.5t-13 -5.5h-56q-12 0 -18 7t-10 13l-260 412v-413q0 -8 -6 -13.5t-13 -5.5h-43q-7 0 -13 5.5t-6 13.5v530q0 8 6 13.5t13 5.5h51q12 0 18 -7t10 -13l265 -420v421q0 8 6 13.5t13 5.5h43q7 0 13 -5.5t6 -13.5v-530z" />
    <glyph glyph-name="o" unicode="o" horiz-adv-x="630" 
d="M315 67q51 0 86 15.5t56.5 43.5t31.5 67.5t10 86.5q0 46 -10 86t-31.5 69.5t-56.5 46t-86 16.5t-86 -16.5t-56.5 -46t-31.5 -69.5t-10 -86q0 -47 10 -86.5t31.5 -67.5t56.5 -43.5t86 -15.5zM315 -9q-63 0 -112.5 21t-83 59.5t-51.5 91.5t-18 117t18 118t51.5 93t83 61
t112.5 22t112.5 -22t83 -61t51.5 -93t18 -118t-18 -117t-51.5 -91.5t-83 -59.5t-112.5 -21z" />
    <glyph glyph-name="p" unicode="p" horiz-adv-x="557" 
d="M181 492v-264h105q53 0 84.5 10.5t48.5 28t22 41t5 49.5v9q0 26 -5 49t-22 40t-48.5 27t-84.5 10h-105zM286 568q62 0 107.5 -15t75 -41.5t44 -63.5t14.5 -82v-9q0 -97 -56 -151t-180 -54h-110v-133q0 -8 -6 -13.5t-13 -5.5h-43q-7 0 -13 5.5t-6 13.5v530q0 8 6 13.5
t13 5.5h167z" />
    <glyph glyph-name="q" unicode="q" horiz-adv-x="630" 
d="M389 -3q-17 -5 -35.5 -5.5t-38.5 -0.5q-63 0 -112.5 21t-83 59.5t-51.5 91.5t-18 117t18 118t51.5 93t83 61t112.5 22t112.5 -22t83 -61t51.5 -93t18 -118q0 -84 -30 -149t-87 -103l54 -104q1 -2 1 -7q0 -13 -10 -18l-39 -18q-4 -2 -7 -2q-13 0 -18 11zM315 67
q51 0 86 15.5t56.5 43.5t31.5 67.5t10 86.5q0 46 -10 86t-31.5 69.5t-56.5 46t-86 16.5t-86 -16.5t-56.5 -46t-31.5 -69.5t-10 -86q0 -47 10 -86.5t31.5 -67.5t56.5 -43.5t86 -15.5z" />
    <glyph glyph-name="r" unicode="r" horiz-adv-x="577" 
d="M343 155q-24 -3 -52 -3h-110v-133q0 -8 -6 -13.5t-13 -5.5h-43q-7 0 -13 5.5t-6 13.5v530q0 8 6 13.5t13 5.5h167q62 0 107.5 -15t75 -41.5t44 -63.5t14.5 -82v-9q0 -68 -27 -115t-85 -70l73 -153q0 -8 -6 -13.5t-13 -5.5h-41q-7 0 -12.5 6t-8.5 13zM181 492v-264h105
q53 0 84.5 10.5t48.5 28t22 41t5 49.5v9q0 26 -5 49t-22 40t-48.5 27t-84.5 10h-105z" />
    <glyph glyph-name="s" unicode="s" horiz-adv-x="558" 
d="M490 456q0 -8 -4 -17t-11 -9h-49q-3 0 -10 3.5t-15 17.5q-8 16 -22.5 25.5t-32.5 14t-39.5 6t-44.5 1.5q-59 0 -90 -20t-31 -54q0 -27 27 -44.5t68 -31.5t88.5 -27.5t88.5 -33.5t68 -49t27 -74q0 -49 -16.5 -82t-46 -53t-70 -28.5t-87.5 -8.5q-42 0 -78.5 8.5t-65 24
t-48.5 38.5t-29 52q0 8 3.5 17t14.5 9h44q11 0 16.5 -5.5t10.5 -15.5q7 -15 21.5 -25t32.5 -16t38.5 -8.5t39.5 -2.5q24 0 49 2t45 11t32.5 26.5t12.5 47.5q0 31 -27 50t-68 33t-88.5 27t-88.5 32.5t-68 48.5t-27 75q0 71 54 112t147 41q42 0 80 -7.5t68.5 -22.5t51.5 -37
t29 -51z" />
    <glyph glyph-name="t" unicode="t" horiz-adv-x="513" 
d="M297 19q0 -8 -6 -13.5t-13 -5.5h-43q-7 0 -13 5.5t-6 13.5v473h-152q-8 0 -13.5 6t-5.5 13v38q0 7 5.5 13t13.5 6h385q8 0 13.5 -6t5.5 -13v-38q0 -7 -5.5 -13t-13.5 -6h-152v-473z" />
    <glyph glyph-name="u" unicode="u" 
d="M317 -9q-128 0 -182.5 67.5t-54.5 208.5v282q0 8 6 13.5t13 5.5h43q7 0 13 -5.5t6 -13.5v-282q0 -48 5.5 -85t22.5 -62.5t47.5 -39t80.5 -13.5t80.5 13.5t47.5 39t22.5 62.5t5.5 85v282q0 8 6 13.5t13 5.5h43q7 0 13 -5.5t6 -13.5v-282q0 -141 -54.5 -208.5t-182.5 -67.5
z" />
    <glyph glyph-name="v" unicode="v" horiz-adv-x="576" 
d="M288 69l162 480q2 8 8 13.5t13 5.5h41q7 0 13 -5.5t6 -13.5l-181 -529q-2 -8 -7.5 -14t-12.5 -6h-84q-7 0 -12.5 6t-7.5 14l-181 529q0 8 6 13.5t13 5.5h41q7 0 13 -5.5t8 -13.5z" />
    <glyph glyph-name="w" unicode="w" horiz-adv-x="821" 
d="M418 568q8 0 14.5 -4t10.5 -13l154 -455l96 453q2 8 8 13.5t13 5.5h38q7 0 13 -5.5t6 -13.5l-112 -529q-3 -13 -13.5 -16.5t-17.5 -3.5h-55q-6 0 -15.5 3.5t-13.5 15.5l-135 388l-132 -388q-4 -12 -13.5 -15.5t-15.5 -3.5h-55q-7 0 -17.5 3.5t-13.5 16.5l-112 529
q0 8 6 13.5t13 5.5h38q7 0 13 -5.5t8 -13.5l96 -453l154 455q4 9 10.5 13t11.5 4h18v0z" />
    <glyph glyph-name="x" unicode="x" horiz-adv-x="588" 
d="M144 18q-6 -10 -14.5 -14t-15.5 -4h-45q-7 0 -13 5.5t-6 13.5l182 264l-182 265q0 8 6 13.5t13 5.5h45q7 0 15.5 -4t14.5 -14l150 -217l150 217q6 10 14.5 14t15.5 4h45q7 0 13 -5.5t6 -13.5l-182 -265l182 -264q0 -8 -6 -13.5t-13 -5.5h-45q-7 0 -15.5 4t-14.5 14
l-150 217z" />
    <glyph glyph-name="y" unicode="y" horiz-adv-x="487" 
d="M388 549q4 7 10 13t17 6h43q7 0 13 -5.5t6 -13.5l-193 -366v-164q0 -8 -6 -13.5t-13 -5.5h-43q-7 0 -13 5.5t-6 13.5v164l-193 366q0 8 6 13.5t13 5.5h44q11 0 17 -6t10 -13l144 -271z" />
    <glyph glyph-name="z" unicode="z" horiz-adv-x="569" 
d="M163 76h317q8 0 13.5 -6t5.5 -13v-38q0 -7 -5.5 -13t-13.5 -6h-391q-8 0 -13.5 6t-5.5 13v63q0 5 3 9t7 8l327 393h-318q-8 0 -13.5 6t-5.5 13v38q0 7 5.5 13t13.5 6h391q8 0 13.5 -6t5.5 -13v-64q0 -5 -3 -10.5t-7 -9.5z" />
    <glyph glyph-name="braceleft" unicode="{" horiz-adv-x="508" 
d="M80 285q0 9 5 15.5t15 6.5q19 3 31.5 12t19 20.5t9 24t2.5 23.5v159q0 40 9 78t33 66.5t64.5 46t103.5 17.5h34q10 0 16 -6.5t6 -15.5v-32q0 -9 -6 -15.5t-16 -6.5h-34q-42 0 -67.5 -14t-39 -35t-17.5 -45t-4 -44v-148q0 -13 -1 -28.5t-5.5 -31.5t-15.5 -32t-30 -29
q19 -13 30 -29t15.5 -32t5.5 -31.5t1 -28.5v-132q0 -20 4 -44t17.5 -45t39 -35t67.5 -14h34q10 0 16 -6.5t6 -15.5v-32q0 -9 -6 -15.5t-16 -6.5h-34q-63 0 -103.5 17.5t-64.5 46t-33 66t-9 78.5v140q0 10 -2.5 23t-9 24.5t-19 20.5t-31.5 12q-20 3 -20 22v31z" />
    <glyph glyph-name="bar" unicode="|" horiz-adv-x="381" 
d="M150 735q0 8 6 13.5t13 5.5h43q7 0 13 -5.5t6 -13.5v-913q0 -8 -6 -13.5t-13 -5.5h-43q-7 0 -13 5.5t-6 13.5v913z" />
    <glyph glyph-name="braceright" unicode="}" horiz-adv-x="508" 
d="M428 254q0 -19 -20 -22t-32 -12t-18.5 -20.5t-9 -24.5t-2.5 -23v-140q0 -41 -9 -78.5t-33 -66t-64.5 -46t-103.5 -17.5h-34q-10 0 -16 6.5t-6 15.5v32q0 9 6 15.5t16 6.5h34q42 0 67.5 14t39 35t17.5 45t4 44v132q0 13 1 28.5t5.5 31.5t15 32t30.5 29q-20 13 -30.5 29
t-15 32t-5.5 31.5t-1 28.5v148q0 20 -4 44t-17.5 45t-39 35t-67.5 14h-34q-10 0 -16 6.5t-6 15.5v32q0 9 6 15.5t16 6.5h34q63 0 103.5 -17.5t64.5 -46t33 -66.5t9 -78v-159q0 -11 2.5 -23.5t9 -24t18.5 -20.5t32 -12q10 0 15 -6.5t5 -15.5v-31z" />
    <glyph glyph-name="asciitilde" unicode="~" horiz-adv-x="514" 
d="M320 156q-20 0 -34.5 5.5t-28 11.5t-28.5 11.5t-35 5.5q-14 0 -27 -4.5t-24 -10.5q-4 -2 -8 -2q-13 0 -18 10l-15 27q-2 4 -2 8q0 13 9 18q41 30 85 30q12 0 27.5 -5.5l32 -11.5t33.5 -11.5t33 -5.5q14 0 27 4.5t24 10.5q4 2 8 2q13 0 18 -10l15 -27q2 -4 2 -8
q0 -5 -2 -10.5t-7 -7.5q-41 -30 -85 -30z" />
    <glyph glyph-name="ellipsis" unicode="&#x2026;" horiz-adv-x="1128" 
d="M100 37q0 19 13.5 32.5t32.5 13.5t32.5 -13.5t13.5 -32.5t-13.5 -32.5t-32.5 -13.5t-32.5 13.5t-13.5 32.5zM518 37q0 19 13.5 32.5t32.5 13.5t32.5 -13.5t13.5 -32.5t-13.5 -32.5t-32.5 -13.5t-32.5 13.5t-13.5 32.5zM936 37q0 19 13.5 32.5t32.5 13.5t32.5 -13.5
t13.5 -32.5t-13.5 -32.5t-32.5 -13.5t-32.5 13.5t-13.5 32.5z" />
    <glyph glyph-name="quoteleft" unicode="&#x2018;" horiz-adv-x="292" 
d="M189 454q0 -19 -12.5 -32t-31.5 -13t-31.5 13t-13.5 32q0 7 2 16t7.5 22t15 31.5t24.5 44.5q3 6 10 6q2 0 6 -2l21 -7q6 -3 6 -10q0 -2 -0.5 -3.5t-0.5 -2.5l-19 -61q8 -6 12.5 -15t4.5 -19z" />
    <glyph glyph-name="quoteright" unicode="&#x2019;" horiz-adv-x="292" 
d="M103 529q0 19 12.5 32t31.5 13t31.5 -13t13.5 -32q0 -7 -2 -16t-7.5 -22t-15 -31.5t-24.5 -44.5q-3 -6 -10 -6q-2 0 -6 2l-21 7q-6 3 -6 10q0 2 0.5 3.5t0.5 2.5l19 61q-17 14 -17 34z" />
    <glyph glyph-name="quotedblleft" unicode="&#x201c;" horiz-adv-x="431" 
d="M189 454q0 -19 -12.5 -32t-31.5 -13t-31.5 13t-13.5 32q0 7 2 16t7.5 22t15 31.5t24.5 44.5q3 6 10 6q2 0 6 -2l21 -7q6 -3 6 -10q0 -2 -0.5 -3.5t-0.5 -2.5l-19 -61q8 -6 12.5 -15t4.5 -19zM328 454q0 -19 -12.5 -32t-31.5 -13t-31.5 13t-13.5 32q0 7 2 16t7.5 22
t15 31.5t24.5 44.5q3 6 10 6q2 0 6 -2l21 -7q6 -3 6 -10q0 -2 -0.5 -3.5t-0.5 -2.5l-19 -61q8 -6 12.5 -15t4.5 -19z" />
    <glyph glyph-name="quotedblright" unicode="&#x201d;" horiz-adv-x="431" 
d="M242 529q0 19 12.5 32t31.5 13t31.5 -13t13.5 -32q0 -7 -2 -16t-7.5 -22t-15 -31.5t-24.5 -44.5q-3 -6 -10 -6q-2 0 -6 2l-21 7q-6 3 -6 10q0 2 0.5 3.5t0.5 2.5l19 61q-17 14 -17 34zM103 529q0 19 12.5 32t31.5 13t31.5 -13t13.5 -32q0 -7 -2 -16t-7.5 -22t-15 -31.5
t-24.5 -44.5q-3 -6 -10 -6q-2 0 -6 2l-21 7q-6 3 -6 10q0 2 0.5 3.5t0.5 2.5l19 61q-17 14 -17 34z" />
    <glyph glyph-name="bullet" unicode="&#x2022;" horiz-adv-x="292" 
d="M100 226q0 19 13.5 32.5t32.5 13.5t32.5 -13.5t13.5 -32.5t-13.5 -32.5t-32.5 -13.5t-32.5 13.5t-13.5 32.5z" />
    <glyph glyph-name="endash" unicode="&#x2013;" horiz-adv-x="496" 
d="M377 279q8 0 13.5 -6t5.5 -13v-38q0 -7 -5.5 -13t-13.5 -6h-258q-8 0 -13.5 6t-5.5 13v38q0 7 5.5 13t13.5 6h258z" />
    <glyph glyph-name="emdash" unicode="&#x2014;" horiz-adv-x="662" 
d="M543 279q8 0 13.5 -6t5.5 -13v-38q0 -7 -5.5 -13t-13.5 -6h-424q-8 0 -13.5 6t-5.5 13v38q0 7 5.5 13t13.5 6h424z" />
    <glyph glyph-name="uni00A0" unicode="&#xa0;" horiz-adv-x="224" 
 />
    <glyph glyph-name="uni25CC" unicode="&#x25cc;" horiz-adv-x="512" 
 />
    <glyph glyph-name="ZWSP" unicode="&#x200b;" horiz-adv-x="0" 
 />
    <glyph glyph-name="onequarter" unicode="&#xbc;" horiz-adv-x="802" 
d="M436 548q2 8 9.5 14t18.5 6h32q8 0 13.5 -6t5.5 -17l-196 -535q-4 -8 -11.5 -14t-17.5 -6h-33q-7 0 -12.5 6t-5.5 17zM219 568q7 0 10 -4.5t3 -9.5v-267q0 -5 -3 -9t-10 -4h-44q-5 0 -9 4t-4 9v214h-69q-5 0 -9 4.5t-4 9.5l38 44q7 9 19 9h82zM654 294q6 0 10.5 -5
t4.5 -10v-149h38q6 0 10.5 -5t4.5 -11v-37q0 -7 -4.5 -10.5t-10.5 -3.5h-38v-49q0 -5 -2.5 -9.5t-10.5 -4.5h-43q-5 0 -9.5 4.5t-4.5 9.5v49h-136q-5 0 -9.5 3.5t-4.5 10.5v49q0 5 3 10.5l6 10.5l115 141q4 6 11 6h70zM532 130h67v81z" />
    <glyph glyph-name="onehalf" unicode="&#xbd;" horiz-adv-x="780" 
d="M436 548q2 8 9.5 14t18.5 6h32q8 0 13.5 -6t5.5 -17l-196 -535q-4 -8 -11.5 -14t-17.5 -6h-33q-7 0 -12.5 6t-5.5 17zM219 568q7 0 10 -4.5t3 -9.5v-267q0 -5 -3 -9t-10 -4h-44q-5 0 -9 4t-4 9v214h-69q-5 0 -9 4.5t-4 9.5l38 44q7 9 19 9h82zM483 70q0 28 23 46
t50.5 30.5l50.5 23.5t23 26q0 6 -0.5 13t-4.5 13.5t-13 10.5t-25 4q-25 0 -32.5 -15.5t-7.5 -32.5q0 -5 -4.5 -8.5t-9.5 -3.5h-42q-5 0 -9.5 4t-4.5 15q0 21 3.5 40.5t14.5 34.5t33 24t59 9q33 0 55 -7.5t34.5 -21t18 -31t5.5 -38.5q0 -31 -10 -48.5t-30 -31.5
q-14 -9 -29.5 -17l-30 -15.5t-25.5 -14t-14 -12.5h127q5 0 8.5 -3.5t3.5 -8.5v-43q0 -6 -3.5 -9t-8.5 -3h-194q-5 0 -8 3.5t-3 8.5v58z" />
    <glyph glyph-name="threequarters" unicode="&#xbe;" horiz-adv-x="813" 
d="M455 548q2 8 9.5 14t18.5 6h32q8 0 13.5 -6t5.5 -17l-196 -535q-4 -8 -11.5 -14t-17.5 -6h-33q-7 0 -12.5 6t-5.5 17zM665 294q6 0 10.5 -5t4.5 -10v-149h38q6 0 10.5 -5t4.5 -11v-37q0 -7 -4.5 -10.5t-10.5 -3.5h-38v-49q0 -5 -2.5 -9.5t-10.5 -4.5h-43q-5 0 -9.5 4.5
t-4.5 9.5v49h-136q-5 0 -9.5 3.5t-4.5 10.5v49q0 5 3 10.5l6 10.5l115 141q4 6 11 6h70zM543 130h67v81zM271 424q18 -5 25.5 -21t7.5 -29q0 -20 -4 -38t-16 -31.5t-33.5 -22t-56.5 -8.5t-57.5 10t-35 25.5t-17 35t-4.5 39.5q0 5 4 9t9 4h44q7 0 10 -4t3 -9q0 -25 12 -34
t32 -9q19 0 28.5 5t9.5 20q0 16 -9.5 22t-20.5 6h-6q-4 0 -7 3.5t-3 8.5v37q0 11 10 11h6q11 0 20.5 3t9.5 14q0 14 -7 25t-31 11q-20 0 -32 -8.5t-12 -34.5q0 -5 -3 -9t-10 -4h-44q-5 0 -9 4t-4 9q0 19 4 39t16 35.5t34 25.5t57 10t57 -8.5t34.5 -22t17 -32t4.5 -37.5
q0 -13 -7 -26.5t-26 -23.5z" />
    <glyph glyph-name="questiondown" unicode="&#xbf;" horiz-adv-x="588" 
d="M407 126q0 8 5.5 14t12.5 6h44q7 0 13 -5.5t6 -13.5q-11 -63 -62 -99.5t-136 -36.5q-91 0 -140.5 43.5t-49.5 113.5q0 39 20.5 70t51.5 55t68 42t70 32v71q0 8 6 13.5t13 5.5h43q7 0 13 -5.5t6 -13.5v-92q0 -5 -4 -10.5t-9 -7.5l-69 -35l-49.5 -27t-41 -27t-27.5 -30.5
t-10 -36.5q0 -16 5.5 -31t18.5 -27t34 -19.5t51 -7.5q17 0 35.5 3t35 10t29 18t17.5 28zM396 528q0 -19 -13.5 -32.5t-32.5 -13.5t-32.5 13.5t-13.5 32.5t13.5 32.5t32.5 13.5t32.5 -13.5t13.5 -32.5z" />
    <glyph glyph-name="Superstore" horiz-adv-x="705" 
d="M351 505q53 0 99 -20t80.5 -54.5t54.5 -80.5t20 -99q0 -52 -20 -97.5t-54.5 -79.5t-80.5 -54t-99 -20q-52 0 -97.5 20t-79.5 54t-54 79.5t-20 97.5q0 53 20 99t54 80.5t79.5 54.5t97.5 20zM458 90q14 0 23 5.5t9 21.5q0 17 -5.5 23.5t-18.5 6.5v133q0 26 -9.5 43
t-22.5 28q5 2 9.5 2h9.5h9.5t9.5 -2h11v65q-31 -4 -61.5 -11.5t-53.5 -20.5q-9 2 -17 2h-20q-23 0 -44 -3t-44 -11v-63h6q19 6 39.5 11t36.5 5q9 0 21.5 -0.5t24.5 -4.5t20 -13t8 -25l-82 -8q-18 -2 -36 -6t-33 -14t-24 -27t-9 -45q0 -42 28.5 -67t73.5 -25q11 0 22 0.5
t21 2.5v54l-6 4q-7 -3 -12 -3.5t-11 -0.5q-16 0 -30.5 9t-14.5 32q0 8 3.5 13.5t15.5 9.5t34.5 8t59.5 10v-71q0 -36 10 -52t40 -16h9z" />
    <glyph glyph-name="yen" unicode="&#xa5;" horiz-adv-x="487" 
d="M146 290l-136 259q0 8 6 13.5t13 5.5h44q11 0 17 -6t10 -13l144 -271l144 271q4 7 10 13t17 6h43q7 0 13 -5.5t6 -13.5l-137 -259h41q8 0 13.5 -6t5.5 -13v-38q0 -7 -5.5 -13t-13.5 -6h-81l-16 -31v-14h97q8 0 13.5 -6t5.5 -13v-38q0 -7 -5.5 -13t-13.5 -6h-97v-74
q0 -8 -6 -13.5t-13 -5.5h-43q-7 0 -13 5.5t-6 13.5v74h-100q-8 0 -13.5 6t-5.5 13v38q0 7 5.5 13t13.5 6h100v14l-17 31h-83q-8 0 -13.5 6t-5.5 13v38q0 7 5.5 13t13.5 6h43z" />
    <glyph glyph-name="Euro" unicode="&#x20ac;" horiz-adv-x="781" 
d="M199 389q26 85 91.5 135t163.5 50q73 0 132 -24.5t93 -73.5q2 -3 2 -9q0 -12 -8 -17l-27 -21q-3 -2 -9 -2q-9 0 -17 8q-32 38 -75.5 50.5t-88.5 12.5q-68 0 -110.5 -29.5t-62.5 -79.5h94q8 0 13.5 -6t5.5 -13v-38q0 -7 -5.5 -13t-13.5 -6h-112q-1 -8 -1 -16.5v-16.5v-23
t2 -22h111q8 0 13.5 -6t5.5 -13v-38q0 -7 -5.5 -13t-13.5 -6h-89q21 -44 62 -68t104 -24q45 0 89 14.5t76 53.5q8 8 18 8q6 0 9 -2l27 -20q8 -5 8 -17q0 -7 -2 -10q-34 -51 -92 -77t-133 -26q-94 0 -158 45t-92 123h-85q-8 0 -13.5 6t-5.5 13v38q0 7 5.5 13t13.5 6h67
q-1 11 -1.5 22t-0.5 23v16.5t1 16.5h-66q-8 0 -13.5 6t-5.5 13v38q0 7 5.5 13t13.5 6h80z" />
    <glyph glyph-name="ocircumflex" unicode="&#xf4;" horiz-adv-x="630" 
d="M315 67q51 0 86 15.5t56.5 43.5t31.5 67.5t10 86.5q0 46 -10 86t-31.5 69.5t-56.5 46t-86 16.5t-86 -16.5t-56.5 -46t-31.5 -69.5t-10 -86q0 -47 10 -86.5t31.5 -67.5t56.5 -43.5t86 -15.5zM315 -9q-63 0 -112.5 21t-83 59.5t-51.5 91.5t-18 117t18 118t51.5 93t83 61
t112.5 22t112.5 -22t83 -61t51.5 -93t18 -118t-18 -117t-51.5 -91.5t-83 -59.5t-112.5 -21zM353 809q6 0 13.5 -5t9.5 -10l69 -144q0 -7 -4.5 -12.5t-12.5 -5.5h-41q-8 0 -15.5 6t-9.5 12l-47 109l-48 -109q-2 -6 -9.5 -12t-15.5 -6h-40q-8 0 -12.5 5.5t-4.5 12.5l69 144
q2 5 9.5 10t13.5 5h76z" />
    <glyph glyph-name="Agrave" unicode="&#xc0;" horiz-adv-x="576" 
d="M330 568q7 0 12.5 -6t7.5 -14l181 -529q0 -8 -6 -13.5t-13 -5.5h-41q-7 0 -13 5.5t-8 13.5l-34 96h-256l-34 -96q-2 -8 -8 -13.5t-13 -5.5h-41q-7 0 -13 5.5t-6 13.5l181 529q2 8 7.5 14t12.5 6h84zM288 499l-101 -308h202zM316 647q0 -6 -5 -10.5t-10 -4.5h-34
q-5 0 -9 4.5t-6 10.5l-39 85q0 6 5 10.5t10 4.5h34q5 0 11.5 -4t8.5 -10z" />
    <glyph glyph-name="Aacute" unicode="&#xc1;" horiz-adv-x="576" 
d="M330 568q7 0 12.5 -6t7.5 -14l181 -529q0 -8 -6 -13.5t-13 -5.5h-41q-7 0 -13 5.5t-8 13.5l-34 96h-256l-34 -96q-2 -8 -8 -13.5t-13 -5.5h-41q-7 0 -13 5.5t-6 13.5l181 529q2 8 7.5 14t12.5 6h84zM288 499l-101 -308h202zM290 733q2 6 8.5 10t11.5 4h34q5 0 10 -4.5
t5 -10.5l-39 -85q-2 -6 -6 -10.5t-9 -4.5h-34q-5 0 -10 4.5t-5 10.5z" />
    <glyph glyph-name="Acircumflex" unicode="&#xc2;" horiz-adv-x="576" 
d="M330 568q7 0 12.5 -6t7.5 -14l181 -529q0 -8 -6 -13.5t-13 -5.5h-41q-7 0 -13 5.5t-8 13.5l-34 96h-256l-34 -96q-2 -8 -8 -13.5t-13 -5.5h-41q-7 0 -13 5.5t-6 13.5l181 529q2 8 7.5 14t12.5 6h84zM288 499l-101 -308h202zM326 809q6 0 13.5 -5t9.5 -10l69 -144
q0 -7 -4.5 -12.5t-12.5 -5.5h-41q-8 0 -15.5 6t-9.5 12l-47 109l-48 -109q-2 -6 -9.5 -12t-15.5 -6h-40q-8 0 -12.5 5.5t-4.5 12.5l69 144q2 5 9.5 10t13.5 5h76z" />
    <glyph glyph-name="Atilde" unicode="&#xc3;" horiz-adv-x="576" 
d="M330 568q7 0 12.5 -6t7.5 -14l181 -529q0 -8 -6 -13.5t-13 -5.5h-41q-7 0 -13 5.5t-8 13.5l-34 96h-256l-34 -96q-2 -8 -8 -13.5t-13 -5.5h-41q-7 0 -13 5.5t-6 13.5l181 529q2 8 7.5 14t12.5 6h84zM288 499l-101 -308h202zM352 632q-20 0 -34.5 5.5t-28 11.5t-28.5 11.5
t-35 5.5q-14 0 -27 -4.5t-24 -10.5q-4 -2 -8 -2q-13 0 -18 10l-15 27q-2 4 -2 8q0 13 9 18q41 30 85 30q12 0 27.5 -5.5l32 -11.5t33.5 -11.5t33 -5.5q14 0 27 4.5t24 10.5q4 2 8 2q13 0 18 -10l15 -27q2 -4 2 -8q0 -5 -2 -10.5t-7 -7.5q-41 -30 -85 -30z" />
    <glyph glyph-name="Adieresis" unicode="&#xc4;" horiz-adv-x="576" 
d="M330 568q7 0 12.5 -6t7.5 -14l181 -529q0 -8 -6 -13.5t-13 -5.5h-41q-7 0 -13 5.5t-8 13.5l-34 96h-256l-34 -96q-2 -8 -8 -13.5t-13 -5.5h-41q-7 0 -13 5.5t-6 13.5l181 529q2 8 7.5 14t12.5 6h84zM288 499l-101 -308h202zM154 679q0 19 13.5 32.5t32.5 13.5t32.5 -13.5
t13.5 -32.5t-13.5 -32.5t-32.5 -13.5t-32.5 13.5t-13.5 32.5zM331 678q0 19 13.5 32.5t32.5 13.5t32.5 -13.5t13.5 -32.5t-13.5 -32.5t-32.5 -13.5t-32.5 13.5t-13.5 32.5z" />
    <glyph glyph-name="copyright" unicode="&#xa9;" horiz-adv-x="784" 
d="M392 574q60 0 113.5 -23t93 -62.5t62.5 -93t23 -113.5t-23 -113.5t-62.5 -93t-93 -62.5t-113.5 -23t-113.5 23t-93 62.5t-62.5 93t-23 113.5t23 113.5t62.5 93t93 62.5t113.5 23zM392 52q48 0 90 18t73.5 49.5t49.5 73.5t18 89q0 48 -18 90t-49.5 73.5t-73.5 49.5t-90 18
q-47 0 -89 -18t-73.5 -49.5t-49.5 -73.5t-18 -90q0 -47 18 -89t49.5 -73.5t73.5 -49.5t89 -18zM390 361q-32 0 -46.5 -25.5t-14.5 -57.5q0 -33 14.5 -56t46.5 -23q18 0 36 7.5t29 27.5q5 7 12 7q3 0 7 -2l29 -18q6 -6 6 -13q0 -4 -1 -6q-16 -32 -45.5 -50.5t-72.5 -18.5
q-64 0 -98.5 40.5t-34.5 104.5q0 32 9 59t26 47t41.5 31.5t56.5 11.5q43 0 72.5 -18.5t45.5 -50.5q1 -2 1 -6q0 -7 -6 -13l-30 -13q-4 -2 -7 -2q-7 0 -12 7q-11 19 -28.5 24.5t-35.5 5.5z" />
    <glyph glyph-name="agrave" unicode="&#xe0;" horiz-adv-x="576" 
d="M330 568q7 0 12.5 -6t7.5 -14l181 -529q0 -8 -6 -13.5t-13 -5.5h-41q-7 0 -13 5.5t-8 13.5l-34 96h-256l-34 -96q-2 -8 -8 -13.5t-13 -5.5h-41q-7 0 -13 5.5t-6 13.5l181 529q2 8 7.5 14t12.5 6h84zM288 499l-101 -308h202zM316 647q0 -6 -5 -10.5t-10 -4.5h-34
q-5 0 -9 4.5t-6 10.5l-39 85q0 6 5 10.5t10 4.5h34q5 0 11.5 -4t8.5 -10z" />
    <glyph glyph-name="aacute" unicode="&#xe1;" horiz-adv-x="576" 
d="M330 568q7 0 12.5 -6t7.5 -14l181 -529q0 -8 -6 -13.5t-13 -5.5h-41q-7 0 -13 5.5t-8 13.5l-34 96h-256l-34 -96q-2 -8 -8 -13.5t-13 -5.5h-41q-7 0 -13 5.5t-6 13.5l181 529q2 8 7.5 14t12.5 6h84zM288 499l-101 -308h202zM290 733q2 6 8.5 10t11.5 4h34q5 0 10 -4.5
t5 -10.5l-39 -85q-2 -6 -6 -10.5t-9 -4.5h-34q-5 0 -10 4.5t-5 10.5z" />
    <glyph glyph-name="acircumflex" unicode="&#xe2;" horiz-adv-x="576" 
d="M330 568q7 0 12.5 -6t7.5 -14l181 -529q0 -8 -6 -13.5t-13 -5.5h-41q-7 0 -13 5.5t-8 13.5l-34 96h-256l-34 -96q-2 -8 -8 -13.5t-13 -5.5h-41q-7 0 -13 5.5t-6 13.5l181 529q2 8 7.5 14t12.5 6h84zM288 499l-101 -308h202zM326 809q6 0 13.5 -5t9.5 -10l69 -144
q0 -7 -4.5 -12.5t-12.5 -5.5h-41q-8 0 -15.5 6t-9.5 12l-47 109l-48 -109q-2 -6 -9.5 -12t-15.5 -6h-40q-8 0 -12.5 5.5t-4.5 12.5l69 144q2 5 9.5 10t13.5 5h76z" />
    <glyph glyph-name="atilde" unicode="&#xe3;" horiz-adv-x="576" 
d="M330 568q7 0 12.5 -6t7.5 -14l181 -529q0 -8 -6 -13.5t-13 -5.5h-41q-7 0 -13 5.5t-8 13.5l-34 96h-256l-34 -96q-2 -8 -8 -13.5t-13 -5.5h-41q-7 0 -13 5.5t-6 13.5l181 529q2 8 7.5 14t12.5 6h84zM288 499l-101 -308h202zM352 632q-20 0 -34.5 5.5t-28 11.5t-28.5 11.5
t-35 5.5q-14 0 -27 -4.5t-24 -10.5q-4 -2 -8 -2q-13 0 -18 10l-15 27q-2 4 -2 8q0 13 9 18q41 30 85 30q12 0 27.5 -5.5l32 -11.5t33.5 -11.5t33 -5.5q14 0 27 4.5t24 10.5q4 2 8 2q13 0 18 -10l15 -27q2 -4 2 -8q0 -5 -2 -10.5t-7 -7.5q-41 -30 -85 -30z" />
    <glyph glyph-name="adieresis" unicode="&#xe4;" horiz-adv-x="576" 
d="M330 568q7 0 12.5 -6t7.5 -14l181 -529q0 -8 -6 -13.5t-13 -5.5h-41q-7 0 -13 5.5t-8 13.5l-34 96h-256l-34 -96q-2 -8 -8 -13.5t-13 -5.5h-41q-7 0 -13 5.5t-6 13.5l181 529q2 8 7.5 14t12.5 6h84zM288 499l-101 -308h202zM154 679q0 19 13.5 32.5t32.5 13.5t32.5 -13.5
t13.5 -32.5t-13.5 -32.5t-32.5 -13.5t-32.5 13.5t-13.5 32.5zM331 678q0 19 13.5 32.5t32.5 13.5t32.5 -13.5t13.5 -32.5t-13.5 -32.5t-32.5 -13.5t-32.5 13.5t-13.5 32.5z" />
    <glyph glyph-name="egrave" unicode="&#xe8;" horiz-adv-x="561" 
d="M390 322q8 0 13.5 -6t5.5 -13v-38q0 -7 -5.5 -13t-13.5 -6h-209v-170h291q8 0 13.5 -6t5.5 -13v-38q0 -7 -5.5 -13t-13.5 -6h-353q-7 0 -13 5.5t-6 13.5v530q0 8 6 13.5t13 5.5h353q8 0 13.5 -6t5.5 -13v-38q0 -7 -5.5 -13t-13.5 -6h-291v-170h209zM340 647
q0 -6 -5 -10.5t-10 -4.5h-34q-5 0 -9 4.5t-6 10.5l-39 85q0 6 5 10.5t10 4.5h34q5 0 11.5 -4t8.5 -10z" />
    <glyph glyph-name="eacute" unicode="&#xe9;" horiz-adv-x="561" 
d="M390 322q8 0 13.5 -6t5.5 -13v-38q0 -7 -5.5 -13t-13.5 -6h-209v-170h291q8 0 13.5 -6t5.5 -13v-38q0 -7 -5.5 -13t-13.5 -6h-353q-7 0 -13 5.5t-6 13.5v530q0 8 6 13.5t13 5.5h353q8 0 13.5 -6t5.5 -13v-38q0 -7 -5.5 -13t-13.5 -6h-291v-170h209zM303 733q2 6 8.5 10
t11.5 4h34q5 0 10 -4.5t5 -10.5l-39 -85q-2 -6 -6 -10.5t-9 -4.5h-34q-5 0 -10 4.5t-5 10.5z" />
    <glyph glyph-name="ecircumflex" unicode="&#xea;" horiz-adv-x="561" 
d="M390 322q8 0 13.5 -6t5.5 -13v-38q0 -7 -5.5 -13t-13.5 -6h-209v-170h291q8 0 13.5 -6t5.5 -13v-38q0 -7 -5.5 -13t-13.5 -6h-353q-7 0 -13 5.5t-6 13.5v530q0 8 6 13.5t13 5.5h353q8 0 13.5 -6t5.5 -13v-38q0 -7 -5.5 -13t-13.5 -6h-291v-170h209zM339 809q6 0 13.5 -5
t9.5 -10l69 -144q0 -7 -4.5 -12.5t-12.5 -5.5h-41q-8 0 -15.5 6t-9.5 12l-47 109l-48 -109q-2 -6 -9.5 -12t-15.5 -6h-40q-8 0 -12.5 5.5t-4.5 12.5l69 144q2 5 9.5 10t13.5 5h76z" />
    <glyph glyph-name="edieresis" unicode="&#xeb;" horiz-adv-x="561" 
d="M390 322q8 0 13.5 -6t5.5 -13v-38q0 -7 -5.5 -13t-13.5 -6h-209v-170h291q8 0 13.5 -6t5.5 -13v-38q0 -7 -5.5 -13t-13.5 -6h-353q-7 0 -13 5.5t-6 13.5v530q0 8 6 13.5t13 5.5h353q8 0 13.5 -6t5.5 -13v-38q0 -7 -5.5 -13t-13.5 -6h-291v-170h209zM178 678
q0 19 13.5 32.5t32.5 13.5t32.5 -13.5t13.5 -32.5t-13.5 -32.5t-32.5 -13.5t-32.5 13.5t-13.5 32.5zM316 678q0 19 13.5 32.5t32.5 13.5t32.5 -13.5t13.5 -32.5t-13.5 -32.5t-32.5 -13.5t-32.5 13.5t-13.5 32.5z" />
    <glyph glyph-name="Ograve" unicode="&#xd2;" horiz-adv-x="630" 
d="M315 67q51 0 86 15.5t56.5 43.5t31.5 67.5t10 86.5q0 46 -10 86t-31.5 69.5t-56.5 46t-86 16.5t-86 -16.5t-56.5 -46t-31.5 -69.5t-10 -86q0 -47 10 -86.5t31.5 -67.5t56.5 -43.5t86 -15.5zM315 -9q-63 0 -112.5 21t-83 59.5t-51.5 91.5t-18 117t18 118t51.5 93t83 61
t112.5 22t112.5 -22t83 -61t51.5 -93t18 -118t-18 -117t-51.5 -91.5t-83 -59.5t-112.5 -21zM346 647q0 -6 -5 -10.5t-10 -4.5h-34q-5 0 -9 4.5t-6 10.5l-39 85q0 6 5 10.5t10 4.5h34q5 0 11.5 -4t8.5 -10z" />
    <glyph glyph-name="Oacute" unicode="&#xd3;" horiz-adv-x="630" 
d="M315 67q51 0 86 15.5t56.5 43.5t31.5 67.5t10 86.5q0 46 -10 86t-31.5 69.5t-56.5 46t-86 16.5t-86 -16.5t-56.5 -46t-31.5 -69.5t-10 -86q0 -47 10 -86.5t31.5 -67.5t56.5 -43.5t86 -15.5zM315 -9q-63 0 -112.5 21t-83 59.5t-51.5 91.5t-18 117t18 118t51.5 93t83 61
t112.5 22t112.5 -22t83 -61t51.5 -93t18 -118t-18 -117t-51.5 -91.5t-83 -59.5t-112.5 -21zM318 733q2 6 8.5 10t11.5 4h34q5 0 10 -4.5t5 -10.5l-39 -85q-2 -6 -6 -10.5t-9 -4.5h-34q-5 0 -10 4.5t-5 10.5z" />
    <glyph glyph-name="Ocircumflex" unicode="&#xd4;" horiz-adv-x="630" 
d="M315 67q51 0 86 15.5t56.5 43.5t31.5 67.5t10 86.5q0 46 -10 86t-31.5 69.5t-56.5 46t-86 16.5t-86 -16.5t-56.5 -46t-31.5 -69.5t-10 -86q0 -47 10 -86.5t31.5 -67.5t56.5 -43.5t86 -15.5zM315 -9q-63 0 -112.5 21t-83 59.5t-51.5 91.5t-18 117t18 118t51.5 93t83 61
t112.5 22t112.5 -22t83 -61t51.5 -93t18 -118t-18 -117t-51.5 -91.5t-83 -59.5t-112.5 -21zM353 809q6 0 13.5 -5t9.5 -10l69 -144q0 -7 -4.5 -12.5t-12.5 -5.5h-41q-8 0 -15.5 6t-9.5 12l-47 109l-48 -109q-2 -6 -9.5 -12t-15.5 -6h-40q-8 0 -12.5 5.5t-4.5 12.5l69 144
q2 5 9.5 10t13.5 5h76z" />
    <glyph glyph-name="Otilde" unicode="&#xd5;" horiz-adv-x="630" 
d="M315 67q51 0 86 15.5t56.5 43.5t31.5 67.5t10 86.5q0 46 -10 86t-31.5 69.5t-56.5 46t-86 16.5t-86 -16.5t-56.5 -46t-31.5 -69.5t-10 -86q0 -47 10 -86.5t31.5 -67.5t56.5 -43.5t86 -15.5zM315 -9q-63 0 -112.5 21t-83 59.5t-51.5 91.5t-18 117t18 118t51.5 93t83 61
t112.5 22t112.5 -22t83 -61t51.5 -93t18 -118t-18 -117t-51.5 -91.5t-83 -59.5t-112.5 -21zM378 632q-20 0 -34.5 5.5t-28 11.5t-28.5 11.5t-35 5.5q-14 0 -27 -4.5t-24 -10.5q-4 -2 -8 -2q-13 0 -18 10l-15 27q-2 4 -2 8q0 13 9 18q41 30 85 30q12 0 27.5 -5.5l32 -11.5
t33.5 -11.5t33 -5.5q14 0 27 4.5t24 10.5q4 2 8 2q13 0 18 -10l15 -27q2 -4 2 -8q0 -5 -2 -10.5t-7 -7.5q-41 -30 -85 -30z" />
    <glyph glyph-name="Odieresis" unicode="&#xd6;" horiz-adv-x="630" 
d="M315 67q51 0 86 15.5t56.5 43.5t31.5 67.5t10 86.5q0 46 -10 86t-31.5 69.5t-56.5 46t-86 16.5t-86 -16.5t-56.5 -46t-31.5 -69.5t-10 -86q0 -47 10 -86.5t31.5 -67.5t56.5 -43.5t86 -15.5zM315 -9q-63 0 -112.5 21t-83 59.5t-51.5 91.5t-18 117t18 118t51.5 93t83 61
t112.5 22t112.5 -22t83 -61t51.5 -93t18 -118t-18 -117t-51.5 -91.5t-83 -59.5t-112.5 -21zM187 678q0 19 13.5 32.5t32.5 13.5t32.5 -13.5t13.5 -32.5t-13.5 -32.5t-32.5 -13.5t-32.5 13.5t-13.5 32.5zM349 678q0 19 13.5 32.5t32.5 13.5t32.5 -13.5t13.5 -32.5
t-13.5 -32.5t-32.5 -13.5t-32.5 13.5t-13.5 32.5z" />
    <glyph glyph-name="igrave" unicode="&#xec;" horiz-adv-x="281" 
d="M100 549q0 8 6 13.5t13 5.5h43q7 0 13 -5.5t6 -13.5v-530q0 -8 -6 -13.5t-13 -5.5h-43q-7 0 -13 5.5t-6 13.5v530zM167 647q0 -6 -5 -10.5t-10 -4.5h-34q-5 0 -9 5t-6 10l-39 85q0 6 5 10.5t10 4.5h34q5 0 11.5 -4t8.5 -10z" />
    <glyph glyph-name="iacute" unicode="&#xed;" horiz-adv-x="281" 
d="M181 19q0 -8 -6 -13.5t-13 -5.5h-43q-7 0 -13 5.5t-6 13.5v530q0 8 6 13.5t13 5.5h43q7 0 13 -5.5t6 -13.5v-530zM148 733q2 6 8.5 10t11.5 4h34q5 0 10 -4.5t5 -10.5l-39 -85q-2 -5 -6 -10t-9 -5h-34q-5 0 -10 4.5t-5 10.5z" />
    <glyph glyph-name="icircumflex" unicode="&#xee;" horiz-adv-x="281" 
d="M100 549q0 8 6 13.5t13 5.5h43q7 0 13 -5.5t6 -13.5v-530q0 -8 -6 -13.5t-13 -5.5h-43q-7 0 -13 5.5t-6 13.5v530zM178 809q6 0 13.5 -5t9.5 -10l69 -144q0 -7 -4.5 -12.5t-12.5 -5.5h-41q-8 0 -15.5 6t-9.5 12l-47 109l-48 -109q-2 -6 -9.5 -12t-15.5 -6h-40
q-8 0 -12.5 5.5t-4.5 12.5l69 144q2 5 9.5 10t13.5 5h76z" />
    <glyph glyph-name="idieresis" unicode="&#xef;" horiz-adv-x="281" 
d="M100 549q0 8 6 13.5t13 5.5h43q7 0 13 -5.5t6 -13.5v-530q0 -8 -6 -13.5t-13 -5.5h-43q-7 0 -13 5.5t-6 13.5v530zM29 678q0 19 13.5 32.5t32.5 13.5t32.5 -13.5t13.5 -32.5t-13.5 -32.5t-32.5 -13.5t-32.5 13.5t-13.5 32.5zM160 678q0 19 13.5 32.5t32.5 13.5
t32.5 -13.5t13.5 -32.5t-13.5 -32.5t-32.5 -13.5t-32.5 13.5t-13.5 32.5z" />
    <glyph glyph-name="oacute" unicode="&#xf3;" horiz-adv-x="630" 
d="M315 67q51 0 86 15.5t56.5 43.5t31.5 67.5t10 86.5q0 46 -10 86t-31.5 69.5t-56.5 46t-86 16.5t-86 -16.5t-56.5 -46t-31.5 -69.5t-10 -86q0 -47 10 -86.5t31.5 -67.5t56.5 -43.5t86 -15.5zM315 -9q-63 0 -112.5 21t-83 59.5t-51.5 91.5t-18 117t18 118t51.5 93t83 61
t112.5 22t112.5 -22t83 -61t51.5 -93t18 -118t-18 -117t-51.5 -91.5t-83 -59.5t-112.5 -21zM318 733q2 6 8.5 10t11.5 4h34q5 0 10 -4.5t5 -10.5l-39 -85q-2 -6 -6 -10.5t-9 -4.5h-34q-5 0 -10 4.5t-5 10.5z" />
    <glyph glyph-name="ograve" unicode="&#xf2;" horiz-adv-x="630" 
d="M315 67q51 0 86 15.5t56.5 43.5t31.5 67.5t10 86.5q0 46 -10 86t-31.5 69.5t-56.5 46t-86 16.5t-86 -16.5t-56.5 -46t-31.5 -69.5t-10 -86q0 -47 10 -86.5t31.5 -67.5t56.5 -43.5t86 -15.5zM315 -9q-63 0 -112.5 21t-83 59.5t-51.5 91.5t-18 117t18 118t51.5 93t83 61
t112.5 22t112.5 -22t83 -61t51.5 -93t18 -118t-18 -117t-51.5 -91.5t-83 -59.5t-112.5 -21zM346 647q0 -6 -5 -10.5t-10 -4.5h-34q-5 0 -9 4.5t-6 10.5l-39 85q0 6 5 10.5t10 4.5h34q5 0 11.5 -4t8.5 -10z" />
    <glyph glyph-name="ntilde" unicode="&#xf1;" horiz-adv-x="644" 
d="M544 19q0 -8 -6 -13.5t-13 -5.5h-56q-12 0 -18 7t-10 13l-260 412v-413q0 -8 -6 -13.5t-13 -5.5h-43q-7 0 -13 5.5t-6 13.5v530q0 8 6 13.5t13 5.5h51q12 0 18 -7t10 -13l265 -420v421q0 8 6 13.5t13 5.5h43q7 0 13 -5.5t6 -13.5v-530zM374 632q-20 0 -34.5 5.5t-28 11.5
t-28.5 11.5t-35 5.5q-14 0 -27 -4.5t-24 -10.5q-4 -2 -8 -2q-13 0 -18 10l-15 27q-2 4 -2 8q0 13 9 18q41 30 85 30q12 0 27.5 -5.5l32 -11.5t33.5 -11.5t33 -5.5q14 0 27 4.5t24 10.5q4 2 8 2q13 0 18 -10l15 -27q2 -4 2 -8q0 -5 -2 -10.5t-7 -7.5q-41 -30 -85 -30z" />
    <glyph glyph-name="ydieresis" unicode="&#xff;" horiz-adv-x="487" 
d="M388 549q4 7 10 13t17 6h43q7 0 13 -5.5t6 -13.5l-193 -366v-164q0 -8 -6 -13.5t-13 -5.5h-43q-7 0 -13 5.5t-6 13.5v164l-193 366q0 8 6 13.5t13 5.5h44q11 0 17 -6t10 -13l144 -271zM123 678q0 19 13.5 32.5t32.5 13.5t32.5 -13.5t13.5 -32.5t-13.5 -32.5t-32.5 -13.5
t-32.5 13.5t-13.5 32.5zM269 678q0 19 13.5 32.5t32.5 13.5t32.5 -13.5t13.5 -32.5t-13.5 -32.5t-32.5 -13.5t-32.5 13.5t-13.5 32.5z" />
    <glyph glyph-name="plusminus" unicode="&#xb1;" horiz-adv-x="537" 
d="M309 312v-123q0 -8 -6 -13.5t-13 -5.5h-43q-7 0 -13 5.5t-6 13.5v123h-109q-8 0 -13.5 6t-5.5 13v38q0 7 5.5 13t13.5 6h109v122q0 8 6 13.5t13 5.5h43q7 0 13 -5.5t6 -13.5v-122h109q8 0 13.5 -6t5.5 -13v-38q0 -7 -5.5 -13t-13.5 -6h-109zM418 77q8 0 13.5 -6t5.5 -13
v-38q0 -7 -5.5 -13t-13.5 -6h-299q-8 0 -13.5 6t-5.5 13v38q0 7 5.5 13t13.5 6h299z" />
    <glyph glyph-name="onesuperior" unicode="&#xb9;" horiz-adv-x="312" 
d="M219 568q7 0 10 -4.5t3 -9.5v-267q0 -5 -3 -9t-10 -4h-44q-5 0 -9 4t-4 9v214h-69q-5 0 -9 4.5t-4 9.5l38 44q7 9 19 9h82v0z" />
    <glyph glyph-name="twosuperior" unicode="&#xb2;" horiz-adv-x="383" 
d="M86 340q0 28 23 46t50.5 30.5l50.5 23.5t23 26q0 6 -0.5 13t-4.5 13.5t-13 10.5t-25 4q-25 0 -32.5 -15.5t-7.5 -32.5q0 -5 -4.5 -8.5t-9.5 -3.5h-42q-5 0 -9.5 4t-4.5 15q0 21 3.5 40.5t14.5 34.5t33 24t59 9q33 0 55 -7.5t34.5 -21t18 -31t5.5 -38.5q0 -31 -10 -48.5
t-30 -31.5q-14 -9 -29.5 -17l-30 -15.5t-25.5 -14t-14 -12.5h127q5 0 8.5 -3.5t3.5 -8.5v-43q0 -6 -3.5 -9t-8.5 -3h-194q-5 0 -8 3.5t-3 8.5v58z" />
    <glyph glyph-name="threesuperior" unicode="&#xb3;" horiz-adv-x="384" 
d="M271 424q18 -5 25.5 -21t7.5 -29q0 -20 -4 -38t-16 -31.5t-33.5 -22t-56.5 -8.5t-57.5 10t-35 25.5t-17 35t-4.5 39.5q0 5 4 9t9 4h44q7 0 10 -4t3 -9q0 -25 12 -34t32 -9q19 0 28.5 5t9.5 20q0 16 -9.5 22t-20.5 6h-6q-4 0 -7 3.5t-3 8.5v37q0 11 10 11h6q11 0 20.5 3
t9.5 14q0 14 -7 25t-31 11q-20 0 -32 -8.5t-12 -34.5q0 -5 -3 -9t-10 -4h-44q-5 0 -9 4t-4 9q0 19 4 39t16 35.5t34 25.5t57 10t57 -8.5t34.5 -22t17 -32t4.5 -37.5q0 -13 -7 -26.5t-26 -23.5z" />
    <glyph glyph-name="Aring" unicode="&#xc5;" horiz-adv-x="576" 
d="M330 568q7 0 12.5 -6t7.5 -14l181 -529q0 -8 -6 -13.5t-13 -5.5h-41q-7 0 -13 5.5t-8 13.5l-34 96h-256l-34 -96q-2 -8 -8 -13.5t-13 -5.5h-41q-7 0 -13 5.5t-6 13.5l181 529q2 8 7.5 14t12.5 6h84zM288 499l-101 -308h202zM288 839q21 0 40 -8t33.5 -22.5t22.5 -33.5
t8 -40t-8 -39.5t-22.5 -33t-33.5 -22.5t-40 -8t-39.5 8t-33 22.5t-22.5 33t-8 39.5t8 40t22.5 33.5t33 22.5t39.5 8zM288 696q15 0 26.5 11.5t11.5 28.5t-11.5 28t-26.5 11q-17 0 -28.5 -11t-11.5 -28t11.5 -28.5t28.5 -11.5z" />
    <glyph glyph-name="degree" unicode="&#xb0;" horiz-adv-x="407" 
d="M203 574q21 0 40 -8t33.5 -22.5t22.5 -33.5t8 -40t-8 -39.5t-22.5 -33t-33.5 -22.5t-40 -8t-39.5 8t-33 22.5t-22.5 33t-8 39.5t8 40t22.5 33.5t33 22.5t39.5 8zM203 431q15 0 26.5 11.5t11.5 28.5t-11.5 28t-26.5 11q-17 0 -28.5 -11t-11.5 -28t11.5 -28.5t28.5 -11.5z
" />
    <glyph glyph-name="aring" unicode="&#xe5;" horiz-adv-x="576" 
d="M330 568q7 0 12.5 -6t7.5 -14l181 -529q0 -8 -6 -13.5t-13 -5.5h-41q-7 0 -13 5.5t-8 13.5l-34 96h-256l-34 -96q-2 -8 -8 -13.5t-13 -5.5h-41q-7 0 -13 5.5t-6 13.5l181 529q2 8 7.5 14t12.5 6h84zM288 499l-101 -308h202zM288 839q21 0 40 -8t33.5 -22.5t22.5 -33.5
t8 -40t-8 -39.5t-22.5 -33t-33.5 -22.5t-40 -8t-39.5 8t-33 22.5t-22.5 33t-8 39.5t8 40t22.5 33.5t33 22.5t39.5 8zM288 696q15 0 26.5 11.5t11.5 28.5t-11.5 28t-26.5 11q-17 0 -28.5 -11t-11.5 -28t11.5 -28.5t28.5 -11.5z" />
    <glyph glyph-name="Ugrave" unicode="&#xd9;" 
d="M317 -9q-128 0 -182.5 67.5t-54.5 208.5v282q0 8 6 13.5t13 5.5h43q7 0 13 -5.5t6 -13.5v-282q0 -48 5.5 -85t22.5 -62.5t47.5 -39t80.5 -13.5t80.5 13.5t47.5 39t22.5 62.5t5.5 85v282q0 8 6 13.5t13 5.5h43q7 0 13 -5.5t6 -13.5v-282q0 -141 -54.5 -208.5t-182.5 -67.5
zM346 647q0 -6 -5 -10.5t-10 -4.5h-34q-5 0 -9 4.5t-6 10.5l-39 85q0 6 5 10.5t10 4.5h34q5 0 11.5 -4t8.5 -10z" />
    <glyph glyph-name="Uacute" unicode="&#xda;" 
d="M317 -9q-128 0 -182.5 67.5t-54.5 208.5v282q0 8 6 13.5t13 5.5h43q7 0 13 -5.5t6 -13.5v-282q0 -48 5.5 -85t22.5 -62.5t47.5 -39t80.5 -13.5t80.5 13.5t47.5 39t22.5 62.5t5.5 85v282q0 8 6 13.5t13 5.5h43q7 0 13 -5.5t6 -13.5v-282q0 -141 -54.5 -208.5t-182.5 -67.5
zM317 733q2 6 8.5 10t11.5 4h34q5 0 10 -4.5t5 -10.5l-39 -85q-2 -6 -6 -10.5t-9 -4.5h-34q-5 0 -10 4.5t-5 10.5z" />
    <glyph glyph-name="otilde" unicode="&#xf5;" horiz-adv-x="630" 
d="M315 67q51 0 86 15.5t56.5 43.5t31.5 67.5t10 86.5q0 46 -10 86t-31.5 69.5t-56.5 46t-86 16.5t-86 -16.5t-56.5 -46t-31.5 -69.5t-10 -86q0 -47 10 -86.5t31.5 -67.5t56.5 -43.5t86 -15.5zM315 -9q-63 0 -112.5 21t-83 59.5t-51.5 91.5t-18 117t18 118t51.5 93t83 61
t112.5 22t112.5 -22t83 -61t51.5 -93t18 -118t-18 -117t-51.5 -91.5t-83 -59.5t-112.5 -21zM378 632q-20 0 -34.5 5.5t-28 11.5t-28.5 11.5t-35 5.5q-14 0 -27 -4.5t-24 -10.5q-4 -2 -8 -2q-13 0 -18 10l-15 27q-2 4 -2 8q0 13 9 18q41 30 85 30q12 0 27.5 -5.5l32 -11.5
t33.5 -11.5t33 -5.5q14 0 27 4.5t24 10.5q4 2 8 2q13 0 18 -10l15 -27q2 -4 2 -8q0 -5 -2 -10.5t-7 -7.5q-41 -30 -85 -30z" />
    <glyph glyph-name="odieresis" unicode="&#xf6;" horiz-adv-x="630" 
d="M315 67q51 0 86 15.5t56.5 43.5t31.5 67.5t10 86.5q0 46 -10 86t-31.5 69.5t-56.5 46t-86 16.5t-86 -16.5t-56.5 -46t-31.5 -69.5t-10 -86q0 -47 10 -86.5t31.5 -67.5t56.5 -43.5t86 -15.5zM315 -9q-63 0 -112.5 21t-83 59.5t-51.5 91.5t-18 117t18 118t51.5 93t83 61
t112.5 22t112.5 -22t83 -61t51.5 -93t18 -118t-18 -117t-51.5 -91.5t-83 -59.5t-112.5 -21zM187 678q0 19 13.5 32.5t32.5 13.5t32.5 -13.5t13.5 -32.5t-13.5 -32.5t-32.5 -13.5t-32.5 13.5t-13.5 32.5zM349 678q0 19 13.5 32.5t32.5 13.5t32.5 -13.5t13.5 -32.5
t-13.5 -32.5t-32.5 -13.5t-32.5 13.5t-13.5 32.5z" />
    <glyph glyph-name="Ucircumflex" unicode="&#xdb;" 
d="M317 -9q-128 0 -182.5 67.5t-54.5 208.5v282q0 8 6 13.5t13 5.5h43q7 0 13 -5.5t6 -13.5v-282q0 -48 5.5 -85t22.5 -62.5t47.5 -39t80.5 -13.5t80.5 13.5t47.5 39t22.5 62.5t5.5 85v282q0 8 6 13.5t13 5.5h43q7 0 13 -5.5t6 -13.5v-282q0 -141 -54.5 -208.5t-182.5 -67.5
zM356 809q6 0 13.5 -5t9.5 -10l69 -144q0 -7 -4.5 -12.5t-12.5 -5.5h-41q-8 0 -15.5 6t-9.5 12l-47 109l-48 -109q-2 -6 -9.5 -12t-15.5 -6h-40q-8 0 -12.5 5.5t-4.5 12.5l69 144q2 5 9.5 10t13.5 5h76z" />
    <glyph glyph-name="Udieresis" unicode="&#xdc;" 
d="M317 -9q-128 0 -182.5 67.5t-54.5 208.5v282q0 8 6 13.5t13 5.5h43q7 0 13 -5.5t6 -13.5v-282q0 -48 5.5 -85t22.5 -62.5t47.5 -39t80.5 -13.5t80.5 13.5t47.5 39t22.5 62.5t5.5 85v282q0 8 6 13.5t13 5.5h43q7 0 13 -5.5t6 -13.5v-282q0 -141 -54.5 -208.5t-182.5 -67.5
zM189 678q0 19 13.5 32.5t32.5 13.5t32.5 -13.5t13.5 -32.5t-13.5 -32.5t-32.5 -13.5t-32.5 13.5t-13.5 32.5zM359 678q0 19 13.5 32.5t32.5 13.5t32.5 -13.5t13.5 -32.5t-13.5 -32.5t-32.5 -13.5t-32.5 13.5t-13.5 32.5z" />
    <glyph glyph-name="Ydieresis" unicode="&#x178;" horiz-adv-x="487" 
d="M388 549q4 7 10 13t17 6h43q7 0 13 -5.5t6 -13.5l-193 -366v-164q0 -8 -6 -13.5t-13 -5.5h-43q-7 0 -13 5.5t-6 13.5v164l-193 366q0 8 6 13.5t13 5.5h44q11 0 17 -6t10 -13l144 -271zM123 678q0 19 13.5 32.5t32.5 13.5t32.5 -13.5t13.5 -32.5t-13.5 -32.5t-32.5 -13.5
t-32.5 13.5t-13.5 32.5zM269 678q0 19 13.5 32.5t32.5 13.5t32.5 -13.5t13.5 -32.5t-13.5 -32.5t-32.5 -13.5t-32.5 13.5t-13.5 32.5z" />
    <glyph glyph-name="Egrave" unicode="&#xc8;" horiz-adv-x="561" 
d="M390 322q8 0 13.5 -6t5.5 -13v-38q0 -7 -5.5 -13t-13.5 -6h-209v-170h291q8 0 13.5 -6t5.5 -13v-38q0 -7 -5.5 -13t-13.5 -6h-353q-7 0 -13 5.5t-6 13.5v530q0 8 6 13.5t13 5.5h353q8 0 13.5 -6t5.5 -13v-38q0 -7 -5.5 -13t-13.5 -6h-291v-170h209zM340 647
q0 -6 -5 -10.5t-10 -4.5h-34q-5 0 -9 4.5t-6 10.5l-39 85q0 6 5 10.5t10 4.5h34q5 0 11.5 -4t8.5 -10z" />
    <glyph glyph-name="Eacute" unicode="&#xc9;" horiz-adv-x="561" 
d="M390 322q8 0 13.5 -6t5.5 -13v-38q0 -7 -5.5 -13t-13.5 -6h-209v-170h291q8 0 13.5 -6t5.5 -13v-38q0 -7 -5.5 -13t-13.5 -6h-353q-7 0 -13 5.5t-6 13.5v530q0 8 6 13.5t13 5.5h353q8 0 13.5 -6t5.5 -13v-38q0 -7 -5.5 -13t-13.5 -6h-291v-170h209zM303 733q2 6 8.5 10
t11.5 4h34q5 0 10 -4.5t5 -10.5l-39 -85q-2 -6 -6 -10.5t-9 -4.5h-34q-5 0 -10 4.5t-5 10.5z" />
    <glyph glyph-name="Ecircumflex" unicode="&#xca;" horiz-adv-x="561" 
d="M390 322q8 0 13.5 -6t5.5 -13v-38q0 -7 -5.5 -13t-13.5 -6h-209v-170h291q8 0 13.5 -6t5.5 -13v-38q0 -7 -5.5 -13t-13.5 -6h-353q-7 0 -13 5.5t-6 13.5v530q0 8 6 13.5t13 5.5h353q8 0 13.5 -6t5.5 -13v-38q0 -7 -5.5 -13t-13.5 -6h-291v-170h209zM339 809q6 0 13.5 -5
t9.5 -10l69 -144q0 -7 -4.5 -12.5t-12.5 -5.5h-41q-8 0 -15.5 6t-9.5 12l-47 109l-48 -109q-2 -6 -9.5 -12t-15.5 -6h-40q-8 0 -12.5 5.5t-4.5 12.5l69 144q2 5 9.5 10t13.5 5h76z" />
    <glyph glyph-name="Edieresis" unicode="&#xcb;" horiz-adv-x="561" 
d="M390 322q8 0 13.5 -6t5.5 -13v-38q0 -7 -5.5 -13t-13.5 -6h-209v-170h291q8 0 13.5 -6t5.5 -13v-38q0 -7 -5.5 -13t-13.5 -6h-353q-7 0 -13 5.5t-6 13.5v530q0 8 6 13.5t13 5.5h353q8 0 13.5 -6t5.5 -13v-38q0 -7 -5.5 -13t-13.5 -6h-291v-170h209zM178 678
q0 19 13.5 32.5t32.5 13.5t32.5 -13.5t13.5 -32.5t-13.5 -32.5t-32.5 -13.5t-32.5 13.5t-13.5 32.5zM316 678q0 19 13.5 32.5t32.5 13.5t32.5 -13.5t13.5 -32.5t-13.5 -32.5t-32.5 -13.5t-32.5 13.5t-13.5 32.5z" />
    <glyph glyph-name="Igrave" unicode="&#xcc;" horiz-adv-x="281" 
d="M100 549q0 8 6 13.5t13 5.5h43q7 0 13 -5.5t6 -13.5v-530q0 -8 -6 -13.5t-13 -5.5h-43q-7 0 -13 5.5t-6 13.5v530zM167 647q0 -6 -5 -10.5t-10 -4.5h-34q-5 0 -9 5t-6 10l-39 85q0 6 5 10.5t10 4.5h34q5 0 11.5 -4t8.5 -10z" />
    <glyph glyph-name="Iacute" unicode="&#xcd;" horiz-adv-x="281" 
d="M181 19q0 -8 -6 -13.5t-13 -5.5h-43q-7 0 -13 5.5t-6 13.5v530q0 8 6 13.5t13 5.5h43q7 0 13 -5.5t6 -13.5v-530zM148 733q2 6 8.5 10t11.5 4h34q5 0 10 -4.5t5 -10.5l-39 -85q-2 -5 -6 -10t-9 -5h-34q-5 0 -10 4.5t-5 10.5z" />
    <glyph glyph-name="Icircumflex" unicode="&#xce;" horiz-adv-x="281" 
d="M100 549q0 8 6 13.5t13 5.5h43q7 0 13 -5.5t6 -13.5v-530q0 -8 -6 -13.5t-13 -5.5h-43q-7 0 -13 5.5t-6 13.5v530zM178 809q6 0 13.5 -5t9.5 -10l69 -144q0 -7 -4.5 -12.5t-12.5 -5.5h-41q-8 0 -15.5 6t-9.5 12l-47 109l-48 -109q-2 -6 -9.5 -12t-15.5 -6h-40
q-8 0 -12.5 5.5t-4.5 12.5l69 144q2 5 9.5 10t13.5 5h76z" />
    <glyph glyph-name="Idieresis" unicode="&#xcf;" horiz-adv-x="281" 
d="M100 549q0 8 6 13.5t13 5.5h43q7 0 13 -5.5t6 -13.5v-530q0 -8 -6 -13.5t-13 -5.5h-43q-7 0 -13 5.5t-6 13.5v530zM29 678q0 19 13.5 32.5t32.5 13.5t32.5 -13.5t13.5 -32.5t-13.5 -32.5t-32.5 -13.5t-32.5 13.5t-13.5 32.5zM160 678q0 19 13.5 32.5t32.5 13.5
t32.5 -13.5t13.5 -32.5t-13.5 -32.5t-32.5 -13.5t-32.5 13.5t-13.5 32.5z" />
    <glyph glyph-name="Eth" unicode="&#xd0;" 
d="M131 318v231q0 8 6 13.5t13 5.5h180q63 0 110.5 -21.5t79.5 -59.5t48 -90t16 -114t-16 -114t-48 -89.5t-79.5 -58.5t-110.5 -21h-180q-7 0 -13 5.5t-6 13.5v223h-62q-8 0 -13.5 6t-5.5 13v38q0 7 5.5 13t13.5 6h62zM330 76q51 0 84.5 15.5t53 43.5t27.5 65.5t8 82.5
q0 42 -8 79.5t-27.5 66.5t-53 46t-84.5 17h-118v-174h115q8 0 13.5 -6t5.5 -13v-38q0 -7 -5.5 -13t-13.5 -6h-115v-166h118z" />
    <glyph glyph-name="Ntilde" unicode="&#xd1;" horiz-adv-x="644" 
d="M544 19q0 -8 -6 -13.5t-13 -5.5h-56q-12 0 -18 7t-10 13l-260 412v-413q0 -8 -6 -13.5t-13 -5.5h-43q-7 0 -13 5.5t-6 13.5v530q0 8 6 13.5t13 5.5h51q12 0 18 -7t10 -13l265 -420v421q0 8 6 13.5t13 5.5h43q7 0 13 -5.5t6 -13.5v-530zM374 632q-20 0 -34.5 5.5t-28 11.5
t-28.5 11.5t-35 5.5q-14 0 -27 -4.5t-24 -10.5q-4 -2 -8 -2q-13 0 -18 10l-15 27q-2 4 -2 8q0 13 9 18q41 30 85 30q12 0 27.5 -5.5l32 -11.5t33.5 -11.5t33 -5.5q14 0 27 4.5t24 10.5q4 2 8 2q13 0 18 -10l15 -27q2 -4 2 -8q0 -5 -2 -10.5t-7 -7.5q-41 -30 -85 -30z" />
    <glyph glyph-name="Yacute" unicode="&#xdd;" horiz-adv-x="487" 
d="M388 549q4 7 10 13t17 6h43q7 0 13 -5.5t6 -13.5l-193 -366v-164q0 -8 -6 -13.5t-13 -5.5h-43q-7 0 -13 5.5t-6 13.5v164l-193 366q0 8 6 13.5t13 5.5h44q11 0 17 -6t10 -13l144 -271zM248 733q2 6 8.5 10t11.5 4h34q5 0 10 -4.5t5 -10.5l-39 -85q-2 -6 -6 -10.5t-9 -4.5
h-34q-5 0 -10 4.5t-5 10.5z" />
    <glyph glyph-name="yacute" unicode="&#xfd;" horiz-adv-x="487" 
d="M388 549q4 7 10 13t17 6h43q7 0 13 -5.5t6 -13.5l-193 -366v-164q0 -8 -6 -13.5t-13 -5.5h-43q-7 0 -13 5.5t-6 13.5v164l-193 366q0 8 6 13.5t13 5.5h44q11 0 17 -6t10 -13l144 -271zM248 733q2 6 8.5 10t11.5 4h34q5 0 10 -4.5t5 -10.5l-39 -85q-2 -6 -6 -10.5t-9 -4.5
h-34q-5 0 -10 4.5t-5 10.5z" />
    <glyph glyph-name="ugrave" unicode="&#xf9;" 
d="M317 -9q-128 0 -182.5 67.5t-54.5 208.5v282q0 8 6 13.5t13 5.5h43q7 0 13 -5.5t6 -13.5v-282q0 -48 5.5 -85t22.5 -62.5t47.5 -39t80.5 -13.5t80.5 13.5t47.5 39t22.5 62.5t5.5 85v282q0 8 6 13.5t13 5.5h43q7 0 13 -5.5t6 -13.5v-282q0 -141 -54.5 -208.5t-182.5 -67.5
zM346 647q0 -6 -5 -10.5t-10 -4.5h-34q-5 0 -9 4.5t-6 10.5l-39 85q0 6 5 10.5t10 4.5h34q5 0 11.5 -4t8.5 -10z" />
    <glyph glyph-name="uacute" unicode="&#xfa;" 
d="M317 -9q-128 0 -182.5 67.5t-54.5 208.5v282q0 8 6 13.5t13 5.5h43q7 0 13 -5.5t6 -13.5v-282q0 -48 5.5 -85t22.5 -62.5t47.5 -39t80.5 -13.5t80.5 13.5t47.5 39t22.5 62.5t5.5 85v282q0 8 6 13.5t13 5.5h43q7 0 13 -5.5t6 -13.5v-282q0 -141 -54.5 -208.5t-182.5 -67.5
zM317 733q2 6 8.5 10t11.5 4h34q5 0 10 -4.5t5 -10.5l-39 -85q-2 -6 -6 -10.5t-9 -4.5h-34q-5 0 -10 4.5t-5 10.5z" />
    <glyph glyph-name="ucircumflex" unicode="&#xfb;" 
d="M317 -9q-128 0 -182.5 67.5t-54.5 208.5v282q0 8 6 13.5t13 5.5h43q7 0 13 -5.5t6 -13.5v-282q0 -48 5.5 -85t22.5 -62.5t47.5 -39t80.5 -13.5t80.5 13.5t47.5 39t22.5 62.5t5.5 85v282q0 8 6 13.5t13 5.5h43q7 0 13 -5.5t6 -13.5v-282q0 -141 -54.5 -208.5t-182.5 -67.5
zM356 809q6 0 13.5 -5t9.5 -10l69 -144q0 -7 -4.5 -12.5t-12.5 -5.5h-41q-8 0 -15.5 6t-9.5 12l-47 109l-48 -109q-2 -6 -9.5 -12t-15.5 -6h-40q-8 0 -12.5 5.5t-4.5 12.5l69 144q2 5 9.5 10t13.5 5h76z" />
    <glyph glyph-name="scaron" unicode="&#x161;" horiz-adv-x="558" 
d="M490 456q0 -8 -4 -17t-11 -9h-49q-3 0 -10 3.5t-15 17.5q-8 16 -22.5 25.5t-32.5 14t-39.5 6t-44.5 1.5q-59 0 -90 -20t-31 -54q0 -27 27 -44.5t68 -31.5t88.5 -27.5t88.5 -33.5t68 -49t27 -74q0 -49 -16.5 -82t-46 -53t-70 -28.5t-87.5 -8.5q-42 0 -78.5 8.5t-65 24
t-48.5 38.5t-29 52q0 8 3.5 17t14.5 9h44q11 0 16.5 -5.5t10.5 -15.5q7 -15 21.5 -25t32.5 -16t38.5 -8.5t39.5 -2.5q24 0 49 2t45 11t32.5 26.5t12.5 47.5q0 31 -27 50t-68 33t-88.5 27t-88.5 32.5t-68 48.5t-27 75q0 71 54 112t147 41q42 0 80 -7.5t68.5 -22.5t51.5 -37
t29 -51zM237 632q-6 0 -13.5 5t-9.5 10l-69 144q0 7 4.5 12.5t12.5 5.5h40q8 0 15.5 -6t9.5 -12l48 -109l47 109q2 6 9.5 12t15.5 6h41q8 0 12.5 -5.5t4.5 -12.5l-69 -144q-2 -5 -9.5 -10t-13.5 -5h-76z" />
    <glyph glyph-name="Scaron" unicode="&#x160;" horiz-adv-x="558" 
d="M490 456q0 -8 -4 -17t-11 -9h-49q-3 0 -10 3.5t-15 17.5q-8 16 -22.5 25.5t-32.5 14t-39.5 6t-44.5 1.5q-59 0 -90 -20t-31 -54q0 -27 27 -44.5t68 -31.5t88.5 -27.5t88.5 -33.5t68 -49t27 -74q0 -49 -16.5 -82t-46 -53t-70 -28.5t-87.5 -8.5q-42 0 -78.5 8.5t-65 24
t-48.5 38.5t-29 52q0 8 3.5 17t14.5 9h44q11 0 16.5 -5.5t10.5 -15.5q7 -15 21.5 -25t32.5 -16t38.5 -8.5t39.5 -2.5q24 0 49 2t45 11t32.5 26.5t12.5 47.5q0 31 -27 50t-68 33t-88.5 27t-88.5 32.5t-68 48.5t-27 75q0 71 54 112t147 41q42 0 80 -7.5t68.5 -22.5t51.5 -37
t29 -51zM237 632q-6 0 -13.5 5t-9.5 10l-69 144q0 7 4.5 12.5t12.5 5.5h40q8 0 15.5 -6t9.5 -12l48 -109l47 109q2 6 9.5 12t15.5 6h41q8 0 12.5 -5.5t4.5 -12.5l-69 -144q-2 -5 -9.5 -10t-13.5 -5h-76z" />
    <glyph glyph-name="multiply" unicode="&#xd7;" horiz-adv-x="516" 
d="M174 71q-6 -10 -14.5 -14t-15.5 -4h-45q-7 0 -13 5.5t-6 13.5l116 170l-116 168q0 8 6 13.5t13 5.5h45q7 0 15.5 -4t14.5 -14l84 -120l84 120q6 10 14.5 14t15.5 4h45q7 0 13 -5.5t6 -13.5l-116 -168l116 -170q0 -8 -6 -13.5t-13 -5.5h-45q-7 0 -15.5 4t-14.5 14l-84 123
z" />
    <glyph glyph-name="divide" unicode="&#xf7;" horiz-adv-x="456" 
d="M357 217q8 0 13.5 -6t5.5 -13v-38q0 -7 -5.5 -13t-13.5 -6h-258q-8 0 -13.5 6t-5.5 13v38q0 7 5.5 13t13.5 6h258zM189 37q0 19 13.5 32.5t32.5 13.5t32.5 -13.5t13.5 -32.5t-13.5 -32.5t-32.5 -13.5t-32.5 13.5t-13.5 32.5zM189 320q0 19 13.5 32.5t32.5 13.5
t32.5 -13.5t13.5 -32.5t-13.5 -32.5t-32.5 -13.5t-32.5 13.5t-13.5 32.5z" />
    <glyph glyph-name="zcaron" unicode="&#x17e;" horiz-adv-x="569" 
d="M163 76h317q8 0 13.5 -6t5.5 -13v-38q0 -7 -5.5 -13t-13.5 -6h-391q-8 0 -13.5 6t-5.5 13v63q0 5 3 9t7 8l327 393h-318q-8 0 -13.5 6t-5.5 13v38q0 7 5.5 13t13.5 6h391q8 0 13.5 -6t5.5 -13v-64q0 -5 -3 -10.5t-7 -9.5zM257 632q-6 0 -13.5 5t-9.5 10l-69 144
q0 7 4.5 12.5t12.5 5.5h40q8 0 15.5 -6t9.5 -12l48 -109l47 109q2 6 9.5 12t15.5 6h41q8 0 12.5 -5.5t4.5 -12.5l-69 -144q-2 -5 -9.5 -10t-13.5 -5h-76z" />
    <glyph glyph-name="ordmasculine" unicode="&#xba;" horiz-adv-x="407" 
d="M203 574q21 0 40 -8t33.5 -22.5t22.5 -33.5t8 -40t-8 -39.5t-22.5 -33t-33.5 -22.5t-40 -8t-39.5 8t-33 22.5t-22.5 33t-8 39.5t8 40t22.5 33.5t33 22.5t39.5 8zM203 431q15 0 26.5 11.5t11.5 28.5t-11.5 28t-26.5 11q-17 0 -28.5 -11t-11.5 -28t11.5 -28.5t28.5 -11.5z
" />
    <glyph glyph-name="guillemotright" unicode="&#xbb;" horiz-adv-x="790" 
d="M690 285v-9l-181 -266q-7 -10 -16 -10h-58q-7 0 -13 5.5t-6 13.5l179 263l-174 252q0 8 6 13.5t13 5.5h58q9 0 16 -10zM374 285v-9l-181 -266q-7 -10 -16 -10h-58q-7 0 -13 5.5t-6 13.5l179 263l-174 252q0 8 6 13.5t13 5.5h58q9 0 16 -10z" />
    <glyph glyph-name="cent" unicode="&#xa2;" horiz-adv-x="697" 
d="M332 -7q-54 6 -97 29.5t-73 61t-46 87.5t-16 109t16 110t46 89t73 62.5t97 30.5v108q0 8 6 13.5t13 5.5h43q7 0 13 -5.5t6 -13.5v-108q59 -7 106 -30.5t76 -65.5q2 -3 2 -9q0 -12 -8 -17l-27 -21q-3 -2 -9 -2q-9 0 -17 8q-32 38 -75.5 50.5t-88.5 12.5q-50 0 -86 -17
t-59.5 -46t-35 -69t-11.5 -86q0 -47 11 -86.5t34 -67.5t59 -43.5t86 -15.5q45 0 89 14.5t76 53.5q8 8 18 8q6 0 9 -2l27 -20q8 -5 8 -17q0 -7 -2 -10q-29 -43 -75.5 -68.5t-106.5 -31.5v-107q0 -8 -6 -13.5t-13 -5.5h-43q-7 0 -13 5.5t-6 13.5v106z" />
    <glyph glyph-name="registered" unicode="&#xae;" horiz-adv-x="784" 
d="M392 574q60 0 113.5 -23t93 -62.5t62.5 -93t23 -113.5t-23 -113.5t-62.5 -93t-93 -62.5t-113.5 -23t-113.5 23t-93 62.5t-62.5 93t-23 113.5t23 113.5t62.5 93t93 62.5t113.5 23zM392 52q48 0 90 18t73.5 49.5t49.5 73.5t18 89q0 48 -18 90t-49.5 73.5t-73.5 49.5t-90 18
q-47 0 -89 -18t-73.5 -49.5t-49.5 -73.5t-18 -90q0 -47 18 -89t49.5 -73.5t73.5 -49.5t89 -18zM389 431q33 0 57 -9t40 -24.5t23.5 -35.5t7.5 -42v-4q0 -27 -12 -51.5t-38 -40.5l35 -74q0 -5 -4 -9.5t-9 -4.5h-47q-5 0 -9 4.5t-6 9.5l-27 55h-45v-55q0 -5 -3 -9.5t-10 -4.5
h-45q-6 0 -10 4.5t-4 9.5v267q0 5 4 9.5t10 4.5h92zM355 365v-95h40q17 0 27 4t15.5 11t7 15t1.5 16v4q0 8 -1.5 16t-7 14.5t-15.5 10.5t-27 4h-40z" />
    <glyph glyph-name="acute" unicode="&#xb4;" horiz-adv-x="303" 
d="M134 560q2 6 8.5 10t11.5 4h34q5 0 10 -4.5t5 -10.5l-39 -85q-2 -6 -6 -10.5t-9 -4.5h-34q-5 0 -10 4.5t-5 10.5z" />
    <glyph glyph-name="brokenbar" unicode="&#xa6;" horiz-adv-x="381" 
d="M150 735q0 8 6 13.5t13 5.5h43q7 0 13 -5.5t6 -13.5v-341q0 -8 -6 -13.5t-13 -5.5h-43q-7 0 -13 5.5t-6 13.5v341zM150 162q0 8 6 13.5t13 5.5h43q7 0 13 -5.5t6 -13.5v-341q0 -8 -6 -13.5t-13 -5.5h-43q-7 0 -13 5.5t-6 13.5v341z" />
    <glyph glyph-name="dieresis" unicode="&#xa8;" horiz-adv-x="469" 
d="M100 529q0 19 13.5 32.5t32.5 13.5t32.5 -13.5t13.5 -32.5t-13.5 -32.5t-32.5 -13.5t-32.5 13.5t-13.5 32.5zM277 528q0 19 13.5 32.5t32.5 13.5t32.5 -13.5t13.5 -32.5t-13.5 -32.5t-32.5 -13.5t-32.5 13.5t-13.5 32.5z" />
    <glyph glyph-name="guillemotleft" unicode="&#xab;" horiz-adv-x="790" 
d="M276 543q7 10 16 10h58q7 0 13 -5.5t6 -13.5l-174 -252l179 -263q0 -8 -6 -13.5t-13 -5.5h-58q-9 0 -16 10l-181 266v9zM592 543q7 10 16 10h58q7 0 13 -5.5t6 -13.5l-174 -252l179 -263q0 -8 -6 -13.5t-13 -5.5h-58q-9 0 -16 10l-181 266v9z" />
    <glyph glyph-name="Oslash" unicode="&#xd8;" horiz-adv-x="630" 
d="M182 22q-64 35 -98 101.5t-34 156.5q0 64 18 118t51.5 93t83 61t112.5 22q17 0 33.5 -2t32.5 -5l28 78q4 10 10 17.5t19 7.5h36q20 0 20 -29l-38 -104q60 -36 92 -103t32 -154q0 -64 -18 -117t-51.5 -91.5t-83 -59.5t-112.5 -21q-28 0 -56 5l-27 -76q-4 -10 -10 -17.5
t-19 -7.5h-38q-18 0 -18 29zM131 280q0 -64 17.5 -112t59.5 -74l146 400q-9 2 -18.5 3t-20.5 1q-51 0 -86 -16.5t-56.5 -46t-31.5 -69.5t-10 -86zM315 67q51 0 86 15.5t56.5 43.5t31.5 67.5t10 86.5q0 60 -16 107t-54 76l-144 -395q8 -1 15 -1h15z" />
    <glyph glyph-name="ccedilla" unicode="&#xe7;" horiz-adv-x="577" 
d="M535 94q-30 -45 -78.5 -70.5t-110.5 -30.5l-3 -32q29 -9 41 -30.5t12 -47.5q0 -18 -7.5 -32.5t-19.5 -24.5t-27.5 -15t-31.5 -5q-27 0 -47 6t-43 25q-2 2 -3.5 4t-1.5 5q0 4 3 10l10 20q2 2 4.5 3t8.5 1q4 0 22.5 -9t38.5 -9q11 0 19 6t8 17q0 15 -6.5 23.5t-24.5 10.5
q-10 1 -16.5 6.5t-6.5 14.5l5 53q-56 5 -100.5 28t-75.5 60.5t-47.5 88t-16.5 110.5q0 64 18.5 118t53.5 93t85 61t113 22q73 0 132 -24.5t93 -73.5q2 -3 2 -9q0 -12 -8 -17l-27 -21q-3 -2 -9 -2q-9 0 -17 8q-32 38 -75.5 50.5t-88.5 12.5q-50 0 -86 -17t-59.5 -46t-35 -69
t-11.5 -86q0 -47 11 -86.5t34 -67.5t59 -43.5t86 -15.5q45 0 89 14.5t76 53.5q8 8 18 8q6 0 9 -2l27 -20q8 -5 8 -17q0 -7 -2 -10z" />
    <glyph glyph-name="cedilla" unicode="&#xb8;" horiz-adv-x="381" 
d="M228 -45q29 -9 41 -30.5t12 -47.5q0 -18 -7.5 -32.5t-19.5 -24.5t-27.5 -15t-31.5 -5q-27 0 -47 6t-43 25q-2 2 -3.5 4t-1.5 5q0 4 3 10l10 20q2 2 4.5 3t8.5 1q4 0 22.5 -9t38.5 -9q11 0 19 6t8 17q0 15 -6.5 23.5t-24.5 10.5q-10 1 -16.5 6.5t-6.5 14.5l6 51
q0 6 5 10.5t10 4.5h35q5 0 10 -4.5t5 -10.5z" />
    <glyph glyph-name="Ccedilla" unicode="&#xc7;" horiz-adv-x="577" 
d="M535 94q-30 -45 -78.5 -70.5t-110.5 -30.5l-3 -32q29 -9 41 -30.5t12 -47.5q0 -18 -7.5 -32.5t-19.5 -24.5t-27.5 -15t-31.5 -5q-27 0 -47 6t-43 25q-2 2 -3.5 4t-1.5 5q0 4 3 10l10 20q2 2 4.5 3t8.5 1q4 0 22.5 -9t38.5 -9q11 0 19 6t8 17q0 15 -6.5 23.5t-24.5 10.5
q-10 1 -16.5 6.5t-6.5 14.5l5 53q-56 5 -100.5 28t-75.5 60.5t-47.5 88t-16.5 110.5q0 64 18.5 118t53.5 93t85 61t113 22q73 0 132 -24.5t93 -73.5q2 -3 2 -9q0 -12 -8 -17l-27 -21q-3 -2 -9 -2q-9 0 -17 8q-32 38 -75.5 50.5t-88.5 12.5q-50 0 -86 -17t-59.5 -46t-35 -69
t-11.5 -86q0 -47 11 -86.5t34 -67.5t59 -43.5t86 -15.5q45 0 89 14.5t76 53.5q8 8 18 8q6 0 9 -2l27 -20q8 -5 8 -17q0 -7 -2 -10z" />
    <glyph glyph-name="oslash" unicode="&#xf8;" horiz-adv-x="630" 
d="M182 22q-64 35 -98 101.5t-34 156.5q0 64 18 118t51.5 93t83 61t112.5 22q17 0 33.5 -2t32.5 -5l28 78q4 10 10 17.5t19 7.5h36q20 0 20 -29l-38 -104q60 -36 92 -103t32 -154q0 -64 -18 -117t-51.5 -91.5t-83 -59.5t-112.5 -21q-28 0 -56 5l-27 -76q-4 -10 -10 -17.5
t-19 -7.5h-38q-18 0 -18 29zM131 280q0 -64 17.5 -112t59.5 -74l146 400q-9 2 -18.5 3t-20.5 1q-51 0 -86 -16.5t-56.5 -46t-31.5 -69.5t-10 -86zM315 67q51 0 86 15.5t56.5 43.5t31.5 67.5t10 86.5q0 60 -16 107t-54 76l-144 -395q8 -1 15 -1h15z" />
    <glyph glyph-name="exclamdown" unicode="&#xa1;" horiz-adv-x="392" 
d="M155 370q0 8 6 13.5t13 5.5h43q7 0 13 -5.5t6 -13.5v-360q0 -8 -6 -13.5t-13 -5.5h-43q-7 0 -13 5.5t-6 13.5v360zM150 522q0 19 13.5 32.5t32.5 13.5t32.5 -13.5t13.5 -32.5t-13.5 -32.5t-32.5 -13.5t-32.5 13.5t-13.5 32.5z" />
    <glyph glyph-name="Thorn" unicode="&#xde;" horiz-adv-x="557" 
d="M100 549q0 8 6 13.5t13 5.5h43q7 0 13 -5.5t6 -13.5v-56h105q62 0 107.5 -15t75 -41.5t44 -63.5t14.5 -82v-9q0 -97 -56 -151t-180 -54h-110v-58q0 -8 -6 -13.5t-13 -5.5h-43q-7 0 -13 5.5t-6 13.5v530zM181 417v-264h105q53 0 84.5 10.5t48.5 28t22 41t5 49.5v9
q0 26 -5 49t-22 40t-48.5 27t-84.5 10h-105z" />
    <glyph glyph-name="lessequal" unicode="&#x2264;" horiz-adv-x="397" 
d="M204 466q7 10 16 10h58q7 0 13 -5.5t6 -13.5l-102 -148l102 -150q0 -8 -6 -13.5t-13 -5.5h-58q-9 0 -16 10l-104 153v9zM278 76q8 0 13.5 -6t5.5 -13v-38q0 -7 -5.5 -13t-13.5 -6h-158q-8 0 -13.5 6t-5.5 13v38q0 7 5.5 13t13.5 6h158z" />
    <glyph glyph-name="greaterequal" unicode="&#x2265;" horiz-adv-x="397" 
d="M297 312v-9l-104 -153q-7 -10 -16 -10h-58q-7 0 -13 5.5t-6 13.5l102 150l-102 148q0 8 6 13.5t13 5.5h58q9 0 16 -10zM277 76q8 0 13.5 -6t5.5 -13v-38q0 -7 -5.5 -13t-13.5 -6h-158q-8 0 -13.5 6t-5.5 13v38q0 7 5.5 13t13.5 6h158z" />
    <glyph glyph-name="mu" unicode="&#xb5;" 
d="M80 549q0 8 6 13.5t13 5.5h43q7 0 13 -5.5t6 -13.5v-282q0 -48 5.5 -85t22.5 -62.5t47.5 -39t80.5 -13.5t80.5 13.5t47.5 39t22.5 62.5t5.5 85v282q0 8 6 13.5t13 5.5h43q7 0 13 -5.5t6 -13.5v-282q0 -141 -54.5 -208.5t-182.5 -67.5q-101 0 -156 42v-185q0 -8 -6 -13.5
t-13 -5.5h-43q-7 0 -13 5.5t-6 13.5v701z" />
    <glyph glyph-name="guilsinglleft" unicode="&#x2039;" horiz-adv-x="474" 
d="M276 543q7 10 16 10h58q7 0 13 -5.5t6 -13.5l-174 -252l179 -263q0 -8 -6 -13.5t-13 -5.5h-58q-9 0 -16 10l-181 266v9z" />
    <glyph glyph-name="guilsinglright" unicode="&#x203a;" horiz-adv-x="474" 
d="M374 285v-9l-181 -266q-7 -10 -16 -10h-58q-7 0 -13 5.5t-6 13.5l179 263l-174 252q0 8 6 13.5t13 5.5h58q9 0 16 -10z" />
    <glyph glyph-name="circumflex" unicode="&#x2c6;" horiz-adv-x="460" 
d="M268 574q6 0 13.5 -5t9.5 -10l69 -144q0 -7 -4.5 -12.5t-12.5 -5.5h-41q-8 0 -15.5 6t-9.5 12l-47 109l-48 -109q-2 -6 -9.5 -12t-15.5 -6h-40q-8 0 -12.5 5.5t-4.5 12.5l69 144q2 5 9.5 10t13.5 5h76z" />
    <glyph glyph-name="caron" unicode="&#x2c7;" horiz-adv-x="460" 
d="M192 397q-6 0 -13.5 5t-9.5 10l-69 144q0 7 4.5 12.5t12.5 5.5h40q8 0 15.5 -6t9.5 -12l48 -109l47 109q2 6 9.5 12t15.5 6h41q8 0 12.5 -5.5t4.5 -12.5l-69 -144q-2 -5 -9.5 -10t-13.5 -5h-76z" />
    <glyph glyph-name="breve" unicode="&#x2d8;" horiz-adv-x="490" 
d="M246 428q-42 0 -70 11t-45 29t-24 41t-7 48q0 7 5.5 12t11.5 5h37q6 0 11.5 -5t5.5 -12q1 -16 4 -29t10.5 -22t22 -14t37.5 -5t37.5 5t22 14t10.5 22t4 29q0 7 5.5 12t11.5 5h37q6 0 11.5 -5t5.5 -12q0 -25 -7 -48t-24 -41t-44.5 -29t-68.5 -11z" />
    <glyph glyph-name="germandbls" unicode="&#xdf;" horiz-adv-x="577" 
d="M333 76q36 0 58 5.5t34.5 15.5t16.5 24.5t4 32.5q0 16 -4 31t-16.5 25.5t-34.5 17t-58 6.5h-23q-8 0 -13.5 6t-5.5 13v38q0 7 5.5 13t13.5 6h23q36 0 58 7t34.5 19t16.5 27.5t4 32.5v10q0 16 -4 31.5t-16.5 27.5t-34.5 19.5t-58 7.5h-152v-473q0 -8 -6 -13.5t-13 -5.5
h-43q-7 0 -13 5.5t-6 13.5v530q0 8 6 13.5t13 5.5h218q49 0 85 -13.5t59.5 -37t34.5 -53.5t11 -63q0 -13 -3 -32.5t-13 -39t-29 -35.5t-51 -20q33 -4 52 -21t28.5 -38t12.5 -42t3 -32q0 -27 -7 -52.5t-28 -45t-58 -31.5t-97 -12h-35q-8 0 -13.5 6t-5.5 13v38q0 7 5.5 13
t13.5 6h31z" />
    <glyph glyph-name="fraction" unicode="&#x2044;" horiz-adv-x="714" 
d="M479 729q4 10 10 17.5t19 7.5h36q20 0 20 -29l-329 -897q-4 -10 -10 -17.5t-19 -7.5h-38q-18 0 -18 29z" />
    <glyph glyph-name="Zcaron" unicode="&#x17d;" horiz-adv-x="569" 
d="M163 76h317q8 0 13.5 -6t5.5 -13v-38q0 -7 -5.5 -13t-13.5 -6h-391q-8 0 -13.5 6t-5.5 13v63q0 5 3 9t7 8l327 393h-318q-8 0 -13.5 6t-5.5 13v38q0 7 5.5 13t13.5 6h391q8 0 13.5 -6t5.5 -13v-64q0 -5 -3 -10.5t-7 -9.5zM257 632q-6 0 -13.5 5t-9.5 10l-69 144
q0 7 4.5 12.5t12.5 5.5h40q8 0 15.5 -6t9.5 -12l48 -109l47 109q2 6 9.5 12t15.5 6h41q8 0 12.5 -5.5t4.5 -12.5l-69 -144q-2 -5 -9.5 -10t-13.5 -5h-76z" />
    <glyph glyph-name="florin" unicode="&#x192;" horiz-adv-x="533" 
d="M160 196v-264q0 -67 -10 -117.5t-35 -84.5t-67.5 -51t-106.5 -17q-27 0 -57.5 7t-57 22.5t-46 39.5t-24.5 58q0 8 6 13.5t13 5.5h36q10 0 16 -5.5t10 -13.5q32 -51 104 -51q40 0 66.5 12t42.5 36t22.5 60.5t6.5 85.5v372q0 67 10 117.5t35 84.5t67 51t107 17
q27 0 57.5 -7t57 -22.5t46 -39.5t24.5 -58q0 -8 -6 -13.5t-13 -5.5h-36q-10 0 -16 5.5t-10 13.5q-32 51 -104 51q-40 0 -66.5 -12t-42.5 -36t-22.5 -60.5t-6.5 -85.5v-32h224q8 0 13.5 -6t5.5 -13v-38q0 -7 -5.5 -13t-13.5 -6h-224z" />
    <glyph glyph-name="eth" unicode="&#xf0;" 
d="M131 318v231q0 8 6 13.5t13 5.5h180q63 0 110.5 -21.5t79.5 -59.5t48 -90t16 -114t-16 -114t-48 -89.5t-79.5 -58.5t-110.5 -21h-180q-7 0 -13 5.5t-6 13.5v223h-62q-8 0 -13.5 6t-5.5 13v38q0 7 5.5 13t13.5 6h62zM330 76q51 0 84.5 15.5t53 43.5t27.5 65.5t8 82.5
q0 42 -8 79.5t-27.5 66.5t-53 46t-84.5 17h-118v-174h115q8 0 13.5 -6t5.5 -13v-38q0 -7 -5.5 -13t-13.5 -6h-115v-166h118z" />
    <glyph glyph-name="paragraph" unicode="&#xb6;" horiz-adv-x="727" 
d="M608 568q7 0 13 -5.5t6 -13.5v-530q0 -8 -6 -13.5t-13 -5.5h-43q-7 0 -13 5.5t-6 13.5v473h-172v-473q0 -8 -6 -13.5t-13 -5.5h-43q-7 0 -13 5.5t-6 13.5v245q-50 0 -86.5 12.5t-60 33.5t-35 47.5t-11.5 55.5v7q0 29 10 55.5t31.5 47t54.5 33t78 12.5h334z" />
    <glyph glyph-name="uni00AD" unicode="&#xad;" horiz-adv-x="224" 
 />
    <glyph glyph-name="logicalnot" unicode="&#xac;" horiz-adv-x="673" 
d="M442 177h-273q-8 0 -13.5 6t-5.5 13v38q0 7 5.5 13t13.5 6h335q7 0 13 -5.5t6 -13.5v-157q0 -8 -6 -13.5t-13 -5.5h-43q-7 0 -13 5.5t-6 13.5v100z" />
    <glyph glyph-name="ordfeminine" unicode="&#xaa;" horiz-adv-x="386" 
d="M198 449q11 0 23 6t12 26q0 26 -42 26q-26 0 -33.5 -8t-7.5 -19q0 -5 -3 -9t-10 -4h-44q-5 0 -9 4t-4 9q0 19 4 36.5t16 30t34 20t57 7.5t57.5 -8.5t35 -22t17.5 -32t5 -37.5v-105q0 -20 -4.5 -37t-16.5 -30t-34 -20.5t-57 -7.5t-57 7t-34.5 20t-17 29.5t-4.5 36.5
q0 19 5 34.5t18.5 26t36 16t57.5 5.5zM194 383q-23 0 -31 -6t-8 -14q0 -11 8 -16.5t31 -5.5q17 0 28 5.5t11 16.5q0 13 -13 16.5t-26 3.5z" />
    <glyph glyph-name="sterling" unicode="&#xa3;" horiz-adv-x="585" 
d="M168 297q0 69 8 120.5t30 86.5t60.5 52.5t100.5 17.5q25 0 53.5 -6.5t53.5 -20.5t44 -35.5t27 -50.5q0 -8 -4 -14t-11 -6h-48q-3 0 -10.5 2.5t-15.5 16.5q-26 38 -89 38q-39 0 -62 -12t-35.5 -37t-16.5 -63t-4 -89h143q8 0 13.5 -6t5.5 -13v-38q0 -7 -5.5 -13t-13.5 -6
h-143v-145h273q8 0 13.5 -6t5.5 -13v-38q0 -7 -5.5 -13t-13.5 -6h-453q-8 0 -13.5 6t-5.5 13v38q0 7 5.5 13t13.5 6h99v145h-99q-8 0 -13.5 6t-5.5 13v38q0 7 5.5 13t13.5 6h99z" />
    <glyph glyph-name="macron" unicode="&#xaf;" horiz-adv-x="496" 
d="M377 574q8 0 13.5 -6t5.5 -13v-38q0 -7 -5.5 -13t-13.5 -6h-258q-8 0 -13.5 6t-5.5 13v38q0 7 5.5 13t13.5 6h258z" />
    <glyph glyph-name="periodcentered" unicode="&#xb7;" horiz-adv-x="292" 
d="M100 216q0 19 13.5 32.5t32.5 13.5t32.5 -13.5t13.5 -32.5t-13.5 -32.5t-32.5 -13.5t-32.5 13.5t-13.5 32.5z" />
    <glyph glyph-name="section" unicode="&#xa7;" horiz-adv-x="579" 
d="M524 222q0 -57 -21.5 -91.5t-59.5 -54.5q27 -18 43.5 -43t16.5 -60q0 -49 -16.5 -82t-46 -53t-70 -28.5t-87.5 -8.5q-42 0 -78.5 8.5t-65 24t-48.5 38.5t-29 52q0 8 3.5 17t14.5 9h44q11 0 16.5 -5.5t10.5 -15.5q7 -15 21.5 -25t32.5 -16t38.5 -8.5t39.5 -2.5q24 0 49 2
t45 11t32.5 26.5t12.5 47.5q0 31 -27 50t-68 33t-88.5 27t-88.5 32.5t-68 48.5t-27 75q0 48 25.5 82.5t71.5 52.5q-33 19 -54.5 46t-21.5 68q0 71 54 112t147 41q42 0 80 -7.5t68.5 -22.5t51.5 -37t29 -51q0 -8 -4 -17t-11 -9h-49q-3 0 -10 3.5t-15 17.5q-8 16 -22.5 25.5
t-32.5 14t-39.5 6t-44.5 1.5q-59 0 -90 -20t-31 -54q0 -28 27 -45t68 -31t88.5 -27.5t88.5 -33.5t68 -49t27 -74zM443 213q0 26 -19.5 44t-48 29t-60.5 16t-58 5q-59 0 -90 -20t-31 -54q0 -20 23.5 -38.5t57 -33t71 -23.5t65.5 -9q38 0 64 19.5t26 64.5z" />
    <glyph glyph-name="OE" unicode="&#x152;" horiz-adv-x="835" 
d="M664 322q8 0 13.5 -6t5.5 -13v-38q0 -7 -5.5 -13t-13.5 -6h-209v-170h291q8 0 13.5 -6t5.5 -13v-38q0 -7 -5.5 -13t-13.5 -6h-355q-38 -9 -81 -9q-63 0 -113 21t-85 59.5t-53.5 91.5t-18.5 117t18.5 118t53.5 93t85 61t113 22q35 0 70 -6h366q8 0 13.5 -6t5.5 -13v-38
q0 -7 -5.5 -13t-13.5 -6h-291v-170h209zM310 67q16 0 32 1t32 5v419q-32 6 -62 6q-50 0 -86 -17t-59.5 -46t-35 -69t-11.5 -86q0 -47 11 -86.5t34 -67.5t59 -43.5t86 -15.5z" />
    <glyph glyph-name="oe" unicode="&#x153;" horiz-adv-x="835" 
d="M664 322q8 0 13.5 -6t5.5 -13v-38q0 -7 -5.5 -13t-13.5 -6h-209v-170h291q8 0 13.5 -6t5.5 -13v-38q0 -7 -5.5 -13t-13.5 -6h-355q-38 -9 -81 -9q-63 0 -113 21t-85 59.5t-53.5 91.5t-18.5 117t18.5 118t53.5 93t85 61t113 22q35 0 70 -6h366q8 0 13.5 -6t5.5 -13v-38
q0 -7 -5.5 -13t-13.5 -6h-291v-170h209zM310 67q16 0 32 1t32 5v419q-32 6 -62 6q-50 0 -86 -17t-59.5 -46t-35 -69t-11.5 -86q0 -47 11 -86.5t34 -67.5t59 -43.5t86 -15.5z" />
    <glyph glyph-name="ae" unicode="&#xe6;" horiz-adv-x="853" 
d="M158 191h234v304h-122zM205 551q4 10 10.5 13.5t8.5 3.5h540q8 0 13.5 -6t5.5 -13v-38q0 -7 -5.5 -13t-13.5 -6h-291v-170h209q8 0 13.5 -6t5.5 -13v-38q0 -7 -5.5 -13t-13.5 -6h-209v-170h291q8 0 13.5 -6t5.5 -13v-38q0 -7 -5.5 -13t-13.5 -6h-353q-7 0 -13 5.5
t-6 13.5v104h-258l-39 -104q-2 -8 -8 -13.5t-13 -5.5h-45q-7 0 -13 5.5t-6 13.5z" />
    <glyph glyph-name="AE" unicode="&#xc6;" horiz-adv-x="853" 
d="M158 191h234v304h-122zM205 551q4 10 10.5 13.5t8.5 3.5h540q8 0 13.5 -6t5.5 -13v-38q0 -7 -5.5 -13t-13.5 -6h-291v-170h209q8 0 13.5 -6t5.5 -13v-38q0 -7 -5.5 -13t-13.5 -6h-209v-170h291q8 0 13.5 -6t5.5 -13v-38q0 -7 -5.5 -13t-13.5 -6h-353q-7 0 -13 5.5
t-6 13.5v104h-258l-39 -104q-2 -8 -8 -13.5t-13 -5.5h-45q-7 0 -13 5.5t-6 13.5z" />
    <glyph glyph-name="thorn" unicode="&#xfe;" horiz-adv-x="557" 
d="M100 549q0 8 6 13.5t13 5.5h43q7 0 13 -5.5t6 -13.5v-56h105q62 0 107.5 -15t75 -41.5t44 -63.5t14.5 -82v-9q0 -97 -56 -151t-180 -54h-110v-58q0 -8 -6 -13.5t-13 -5.5h-43q-7 0 -13 5.5t-6 13.5v530zM181 417v-264h105q53 0 84.5 10.5t48.5 28t22 41t5 49.5v9
q0 26 -5 49t-22 40t-48.5 27t-84.5 10h-105z" />
    <glyph glyph-name="dotlessi" unicode="&#x131;" horiz-adv-x="281" 
d="M100 379q0 8 6 13.5t13 5.5h43q7 0 13 -5.5t6 -13.5v-360q0 -8 -6 -13.5t-13 -5.5h-43q-7 0 -13 5.5t-6 13.5v360z" />
    <glyph glyph-name="Lslash" unicode="&#x141;" horiz-adv-x="589" 
d="M247 247v-171h273q8 0 13.5 -6t5.5 -13v-38q0 -7 -5.5 -13t-13.5 -6h-335q-7 0 -13 5.5t-6 13.5v210l-87 -20q-8 0 -13.5 6t-5.5 13v34q0 7 5.5 12.5t13.5 7.5l87 20v247q0 8 6 13.5t13 5.5h43q7 0 13 -5.5t6 -13.5v-229l87 20q8 0 13.5 -6t5.5 -13v-34q0 -7 -5.5 -12.5
t-13.5 -7.5z" />
    <glyph glyph-name="lslash" unicode="&#x142;" horiz-adv-x="403" 
d="M247 256v-237q0 -8 -6 -13.5t-13 -5.5h-43q-7 0 -13 5.5t-6 13.5v219l-87 -20q-8 0 -13.5 6t-5.5 13v34q0 7 5.5 12.5t13.5 7.5l87 20v238q0 8 6 13.5t13 5.5h43q7 0 13 -5.5t6 -13.5v-220l87 20q8 0 13.5 -6t5.5 -13v-34q0 -7 -5.5 -12.5t-13.5 -7.5z" />
    <glyph glyph-name="trademark" unicode="&#x2122;" horiz-adv-x="912" 
d="M392 568q5 0 9.5 -4.5t4.5 -9.5v-40q0 -7 -4.5 -10t-9.5 -3h-79v-214q0 -5 -3.5 -9t-10.5 -4h-43q-5 0 -9 4t-4 9v214h-80q-5 0 -9 3t-4 10v40q0 5 4 9.5t9 4.5h229zM622 364q-8 0 -11 6l-51 61v-144q0 -5 -3 -9t-10 -4h-44q-5 0 -9 4t-4 9v267q0 5 4 9.5t9 4.5h21
q8 0 13 -7l89 -107l89 107q5 7 13 7h21q5 0 9 -4.5t4 -9.5v-267q0 -5 -4 -9t-9 -4h-44q-7 0 -10 4t-3 9v144l-51 -61q-3 -6 -11 -6h-8z" />
    <glyph glyph-name="dotaccent" unicode="&#x2d9;" horiz-adv-x="292" 
d="M100 528q0 19 13.5 32.5t32.5 13.5t32.5 -13.5t13.5 -32.5t-13.5 -32.5t-32.5 -13.5t-32.5 13.5t-13.5 32.5z" />
    <glyph glyph-name="ring" unicode="&#x2da;" horiz-adv-x="407" 
d="M203 574q21 0 40 -8t33.5 -22.5t22.5 -33.5t8 -40t-8 -39.5t-22.5 -33t-33.5 -22.5t-40 -8t-39.5 8t-33 22.5t-22.5 33t-8 39.5t8 40t22.5 33.5t33 22.5t39.5 8zM203 431q15 0 26.5 11.5t11.5 28.5t-11.5 28t-26.5 11q-17 0 -28.5 -11t-11.5 -28t11.5 -28.5t28.5 -11.5z
" />
    <glyph glyph-name="currency" unicode="&#xa4;" horiz-adv-x="570" 
d="M194 230q0 -46 20.5 -65.5t71.5 -19.5q49 0 69.5 19.5t20.5 65.5t-20.5 65.5t-69.5 19.5q-51 0 -71.5 -19.5t-20.5 -65.5zM457 230q0 -29 -6.5 -55t-21.5 -46l41 -112q0 -7 -3.5 -12t-11.5 -5h-55q-7 0 -10.5 5.5t-5.5 11.5l-23 63q-33 -11 -76 -11t-76 11l-23 -63
q-2 -6 -5.5 -11.5t-10.5 -5.5h-55q-8 0 -11.5 5t-3.5 12l41 112q-15 20 -21.5 46t-6.5 55t6.5 55t21.5 46l-41 112q0 7 3.5 12t11.5 5h55q7 0 10.5 -5.5t5.5 -11.5l23 -63q33 11 76 11t76 -11l23 63q2 6 5.5 11.5t10.5 5.5h55q8 0 11.5 -5t3.5 -12l-41 -112q15 -20 21.5 -46
t6.5 -55z" />
    <glyph glyph-name="dagger" unicode="&#x2020;" horiz-adv-x="483" 
d="M201 568v116q0 8 6 13.5t13 5.5h43q7 0 13 -5.5t6 -13.5v-116h137q8 0 13.5 -6t5.5 -13v-38q0 -7 -5.5 -13t-13.5 -6h-137v-473q0 -8 -6 -13.5t-13 -5.5h-43q-7 0 -13 5.5t-6 13.5v473h-137q-8 0 -13.5 6t-5.5 13v38q0 7 5.5 13t13.5 6h137z" />
    <glyph glyph-name="daggerdbl" unicode="&#x2021;" horiz-adv-x="483" 
d="M282 0v-176q0 -8 -6 -13.5t-13 -5.5h-43q-7 0 -13 5.5t-6 13.5v176h-137q-8 0 -13.5 6t-5.5 13v38q0 7 5.5 13t13.5 6h137v416h-137q-8 0 -13.5 6t-5.5 13v38q0 7 5.5 13t13.5 6h137v116q0 8 6 13.5t13 5.5h43q7 0 13 -5.5t6 -13.5v-116h137q8 0 13.5 -6t5.5 -13v-38
q0 -7 -5.5 -13t-13.5 -6h-137v-416h137q8 0 13.5 -6t5.5 -13v-38q0 -7 -5.5 -13t-13.5 -6h-137z" />
    <glyph glyph-name="tilde" unicode="&#x2dc;" horiz-adv-x="514" 
d="M320 464q-20 0 -34.5 5.5t-28 11.5t-28.5 11.5t-35 5.5q-14 0 -27 -4.5t-24 -10.5q-4 -2 -8 -2q-13 0 -18 10l-15 27q-2 4 -2 8q0 13 9 18q41 30 85 30q12 0 27.5 -5.5l32 -11.5t33.5 -11.5t33 -5.5q14 0 27 4.5t24 10.5q4 2 8 2q13 0 18 -10l15 -27q2 -4 2 -8
q0 -5 -2 -10.5t-7 -7.5q-41 -30 -85 -30z" />
    <glyph glyph-name="ogonek" unicode="&#x2db;" horiz-adv-x="359" 
d="M120 -17q3 6 9 11.5t13 5.5h29q9 0 12.5 -5.5t3.5 -11.5q-8 -11 -14.5 -31t-6.5 -37q0 -15 8 -25t19 -10q9 0 16 2t18 10q1 1 4 1q5 0 7 -1q8 -7 12.5 -15.5t8.5 -19.5q0 -2 -1 -3.5t-2 -3.5q-17 -16 -34.5 -21t-33.5 -5q-15 0 -31 4t-28.5 14t-20.5 28t-8 45
q0 15 7.5 36.5t12.5 31.5z" />
    <glyph glyph-name="Delta" unicode="&#x2206;" horiz-adv-x="720" 
d="M360 482l-153 -409h306zM119 0q-8 0 -13.5 6t-5.5 13l199 530q3 7 9.5 13t13.5 6h77q7 0 13 -6t9 -13l199 -530q0 -7 -5.5 -13t-13.5 -6h-482z" />
    <glyph glyph-name="pi" unicode="&#x3c0;" horiz-adv-x="834" 
d="M297 19q0 -8 -6 -13.5t-13 -5.5h-43q-7 0 -13 5.5t-6 13.5v473h-152q-8 0 -13.5 6t-5.5 13v38q0 7 5.5 13t13.5 6h706q8 0 13.5 -6t5.5 -13v-38q0 -7 -5.5 -13t-13.5 -6h-152v-473q0 -8 -6 -13.5t-13 -5.5h-43q-7 0 -13 5.5t-6 13.5v473h-240v-473z" />
    <glyph glyph-name="hungarumlaut" unicode="&#x2dd;" horiz-adv-x="475" 
d="M134 560q2 6 8.5 10t11.5 4h34q5 0 10 -4.5t5 -10.5l-39 -85q-2 -6 -6 -10.5t-9 -4.5h-34q-5 0 -10 4.5t-5 10.5zM306 560q2 6 8.5 10t11.5 4h34q5 0 10 -4.5t5 -10.5l-39 -85q-2 -6 -6 -10.5t-9 -4.5h-34q-5 0 -10 4.5t-5 10.5z" />
    <glyph glyph-name="quotesinglbase" unicode="&#x201a;" horiz-adv-x="292" 
d="M103 -44q0 19 12.5 32t31.5 13t31.5 -13t13.5 -32q0 -7 -2 -16t-7.5 -22t-15 -31.5t-24.5 -44.5q-3 -6 -10 -6q-2 0 -6 2l-21 7q-6 3 -6 10q0 2 0.5 3.5t0.5 2.5l19 61q-8 6 -12.5 15t-4.5 19z" />
    <glyph glyph-name="quotedblbase" unicode="&#x201e;" horiz-adv-x="431" 
d="M242 -44q0 19 12.5 32t31.5 13t31.5 -13t13.5 -32q0 -7 -2 -16t-7.5 -22t-15 -31.5t-24.5 -44.5q-3 -6 -10 -6q-2 0 -6 2l-21 7q-6 3 -6 10q0 2 0.5 3.5t0.5 2.5l19 61q-8 6 -12.5 15t-4.5 19zM103 -44q0 19 12.5 32t31.5 13t31.5 -13t13.5 -32q0 -7 -2 -16t-7.5 -22
t-15 -31.5t-24.5 -44.5q-3 -6 -10 -6q-2 0 -6 2l-21 7q-6 3 -6 10q0 2 0.5 3.5t0.5 2.5l19 61q-8 6 -12.5 15t-4.5 19z" />
    <glyph glyph-name="perthousand" unicode="&#x2030;" horiz-adv-x="1014" 
d="M420 543q4 10 10 17.5t19 7.5h29q20 0 20 -29l-189 -514q-4 -10 -10 -17.5t-19 -7.5h-31q-18 0 -18 29zM182 574q23 0 43.5 -9t35.5 -24t24 -35.5t9 -43.5t-9 -43.5t-24 -35.5t-35.5 -24t-43.5 -9t-43.5 9t-35.5 24t-24 35.5t-9 43.5t9 43.5t24 35.5t35.5 24t43.5 9z
M182 419q16 0 28.5 12.5t12.5 31.5q0 17 -12.5 29.5t-28.5 12.5q-19 0 -31.5 -12.5t-12.5 -29.5q0 -19 12.5 -31.5t31.5 -12.5zM546 215q23 0 43.5 -9t35.5 -24t24 -35.5t9 -43.5t-9 -43.5t-24 -35.5t-35.5 -24t-43.5 -9t-43.5 9t-35.5 24t-24 35.5t-9 43.5t9 43.5t24 35.5
t35.5 24t43.5 9zM546 60q19 0 31.5 12.5t12.5 31.5q0 17 -12.5 29.5t-31.5 12.5q-16 0 -28.5 -12.5t-12.5 -29.5q0 -19 12.5 -31.5t28.5 -12.5zM832 215q23 0 43.5 -9t35.5 -24t24 -35.5t9 -43.5t-9 -43.5t-24 -35.5t-35.5 -24t-43.5 -9t-43.5 9t-35.5 24t-24 35.5t-9 43.5
t9 43.5t24 35.5t35.5 24t43.5 9zM832 60q19 0 31.5 12.5t12.5 31.5q0 17 -12.5 29.5t-31.5 12.5q-16 0 -28.5 -12.5t-12.5 -29.5q0 -19 12.5 -31.5t28.5 -12.5z" />
    <glyph glyph-name="partialdiff" unicode="&#x2202;" horiz-adv-x="524" 
d="M176 471q-12 -17 -22 -20.5t-13 -3.5h-38q-5 0 -13 5t-8 14q17 51 61 79.5t114 28.5q60 0 98.5 -16.5t60.5 -44t30 -62t8 -70.5v-221q0 -31 -8.5 -61t-30 -54t-60 -39t-98.5 -15t-98.5 15t-60 39t-30 54t-8.5 61q0 36 7 68.5t26 57t53.5 39t90.5 14.5q40 0 72 -5.5
t64 -28.5v68q0 25 -5 48t-17.5 40t-35 27t-58.5 10q-26 0 -48 -6t-33 -21zM374 160q0 21 -5 40t-18 34t-35.5 23.5t-58.5 8.5t-58.5 -8.5t-35 -23.5t-17.5 -34t-5 -40q0 -16 5 -32.5t17.5 -30t35 -22t58.5 -8.5t58.5 8.5t35.5 22t18 30t5 32.5z" />
    <glyph glyph-name="Omega" unicode="&#x2126;" horiz-adv-x="932" 
d="M466 498q-50 0 -84.5 -15.5t-56.5 -43.5t-31.5 -67t-9.5 -87v-266q0 -8 -6 -13.5t-13 -5.5h-146q-8 0 -13.5 6t-5.5 13v38q0 7 5.5 13t13.5 6h84v227q0 63 17.5 113.5t51.5 85.5t82.5 53.5t111.5 18.5t111.5 -18.5t82.5 -53.5t51.5 -85.5t17.5 -113.5v-227h84
q8 0 13.5 -6t5.5 -13v-38q0 -7 -5.5 -13t-13.5 -6h-146q-7 0 -13 5.5t-6 13.5v266q0 48 -9.5 87t-31.5 67t-56.5 43.5t-84.5 15.5z" />
    <glyph glyph-name="product" unicode="&#x220f;" horiz-adv-x="834" 
d="M297 -177q0 -8 -6 -13.5t-13 -5.5h-43q-7 0 -13 5.5t-6 13.5v669h-152q-8 0 -13.5 6t-5.5 13v38q0 7 5.5 13t13.5 6h706q8 0 13.5 -6t5.5 -13v-38q0 -7 -5.5 -13t-13.5 -6h-152v-669q0 -8 -6 -13.5t-13 -5.5h-43q-7 0 -13 5.5t-6 13.5v669h-240v-669z" />
    <glyph glyph-name="summation" unicode="&#x2211;" horiz-adv-x="566" 
d="M119 0q-8 0 -13.5 6t-5.5 13v48q0 7 1.5 11t1.5 5l68 189v23l-68 190q0 1 -1.5 5t-1.5 11v48q0 7 5.5 13t13.5 6h328q8 0 13.5 -6t5.5 -13v-38q0 -7 -5.5 -13t-13.5 -6h-260l71 -197v-23l-71 -196h260q8 0 13.5 -6t5.5 -13v-38q0 -7 -5.5 -13t-13.5 -6h-328z" />
    <glyph glyph-name="minus" unicode="&#x2212;" horiz-adv-x="496" 
d="M377 279q8 0 13.5 -6t5.5 -13v-38q0 -7 -5.5 -13t-13.5 -6h-258q-8 0 -13.5 6t-5.5 13v38q0 7 5.5 13t13.5 6h258z" />
    <glyph glyph-name="lozenge" unicode="&#x25ca;" horiz-adv-x="564" 
d="M464 285l-138 -272q-2 -5 -6.5 -9t-12.5 -4h-50q-8 0 -12.5 4t-6.5 9l-138 272l134 270q2 5 6.5 9t12.5 4h58q8 0 12.5 -4t6.5 -9zM374 286l-92 183l-92 -183l92 -184z" />
    <glyph glyph-name="notequal" unicode="&#x2260;" horiz-adv-x="496" 
d="M161 71h-42q-8 0 -13.5 6t-5.5 13v38q0 7 5.5 13t13.5 6h70l40 107h-110q-8 0 -13.5 6t-5.5 13v38q0 7 5.5 13t13.5 6h138l19 52q3 8 8 14t16 6h29q17 0 17 -24l-18 -48h49q8 0 13.5 -6t5.5 -13v-38q0 -7 -5.5 -13t-13.5 -6h-77l-39 -107h116q8 0 13.5 -6t5.5 -13v-38
q0 -7 -5.5 -13t-13.5 -6h-144l-19 -51q-4 -8 -8.5 -14t-15.5 -6h-31q-15 0 -15 24z" />
    <glyph glyph-name="radical" unicode="&#x221a;" horiz-adv-x="743" 
d="M238 69l162 480q2 8 8 13.5t13 5.5h203q8 0 13.5 -6t5.5 -13v-38q0 -7 -5.5 -13t-13.5 -6h-163l-161 -472q-2 -8 -7.5 -14t-12.5 -6h-84q-7 0 -12.5 6t-7.5 14l-76 221q0 8 6 13.5t13 5.5h41q7 0 13 -5.5t8 -13.5z" />
    <glyph glyph-name="infinity" unicode="&#x221e;" horiz-adv-x="1002" 
d="M181 236q0 -35 12 -59t30.5 -38.5t41.5 -20.5t45 -6q24 0 49 6t45.5 20.5t33 38.5t12.5 59t-12.5 59t-33 38.5t-45.5 20.5t-49 6q-22 0 -45 -6t-41.5 -20.5t-30.5 -38.5t-12 -59zM902 236q0 -60 -20 -99t-50.5 -61.5t-66.5 -31t-69 -8.5q-17 0 -42 3t-52.5 14t-54.5 33.5
t-46 60.5q-20 -38 -46.5 -60.5t-54 -33.5t-53 -14t-41.5 -3q-33 0 -69 8.5t-66.5 31t-50.5 61.5t-20 99t20 98.5t50.5 61t66.5 31.5t69 9q16 0 41.5 -3t53 -14.5t54 -33.5t46.5 -60q19 38 46 60t54.5 33.5t52.5 14.5t42 3q33 0 69 -9t66.5 -31.5t50.5 -61t20 -98.5zM821 236
q0 35 -12 59t-31 38.5t-41.5 20.5t-44.5 6q-24 0 -49 -6t-45.5 -20.5t-33 -38.5t-12.5 -59t12.5 -59t33 -38.5t45.5 -20.5t49 -6q22 0 44.5 6t41.5 20.5t31 38.5t12 59z" />
    <glyph glyph-name="integral" unicode="&#x222b;" horiz-adv-x="837" 
d="M378 304q0 64 12 114t39 84.5t70 53t104 18.5q43 0 80 -9.5t64.5 -28t45.5 -45t24 -60.5q0 -8 -6 -13.5t-13 -5.5h-36q-10 0 -16 5.5t-10 13.5q-11 20 -23.5 33t-28.5 20.5t-35.5 10.5t-45.5 3q-50 0 -79 -17.5t-43.5 -48t-18 -71.5t-3.5 -88v-199q0 -64 -12 -114
t-39 -84.5t-70 -53t-104 -18.5q-43 0 -80 9.5t-64.5 28t-45.5 45t-24 60.5q0 8 6 13.5t13 5.5h36q10 0 16 -5.5t10 -13.5q11 -20 23.5 -33t28.5 -20.5t35.5 -10.5t45.5 -3q50 0 79 17.5t43.5 48t18 71.5t3.5 88v199z" />
    <glyph glyph-name="approxequal" unicode="&#x2248;" horiz-adv-x="514" 
d="M320 57q-20 0 -34.5 5.5t-28 11.5t-28.5 11.5t-35 5.5q-14 0 -27 -4.5t-24 -10.5q-4 -2 -8 -2q-13 0 -18 10l-15 27q-2 4 -2 8q0 13 9 18q41 30 85 30q12 0 27.5 -5.5l32 -11.5t33.5 -11.5t33 -5.5q14 0 27 4.5t24 10.5q4 2 8 2q13 0 18 -10l15 -27q2 -4 2 -8
q0 -5 -2 -10.5t-7 -7.5q-41 -30 -85 -30zM320 205q-20 0 -34.5 5.5t-28 11.5t-28.5 11.5t-35 5.5q-14 0 -27 -4.5t-24 -10.5q-4 -2 -8 -2q-13 0 -18 10l-15 27q-2 4 -2 8q0 13 9 18q41 30 85 30q12 0 27.5 -5.5l32 -11.5t33.5 -11.5t33 -5.5q14 0 27 4.5t24 10.5q4 2 8 2
q13 0 18 -10l15 -27q2 -4 2 -8q0 -5 -2 -10.5t-7 -7.5q-41 -30 -85 -30z" />
    <glyph glyph-name="udieresis" unicode="&#xfc;" 
d="M317 -9q-128 0 -182.5 67.5t-54.5 208.5v282q0 8 6 13.5t13 5.5h43q7 0 13 -5.5t6 -13.5v-282q0 -48 5.5 -85t22.5 -62.5t47.5 -39t80.5 -13.5t80.5 13.5t47.5 39t22.5 62.5t5.5 85v282q0 8 6 13.5t13 5.5h43q7 0 13 -5.5t6 -13.5v-282q0 -141 -54.5 -208.5t-182.5 -67.5
zM189 678q0 19 13.5 32.5t32.5 13.5t32.5 -13.5t13.5 -32.5t-13.5 -32.5t-32.5 -13.5t-32.5 13.5t-13.5 32.5zM359 678q0 19 13.5 32.5t32.5 13.5t32.5 -13.5t13.5 -32.5t-13.5 -32.5t-32.5 -13.5t-32.5 13.5t-13.5 32.5z" />
    <glyph glyph-name="aogonek" unicode="&#x105;" horiz-adv-x="576" 
d="M288 499l-101 -308h202zM416 115h-256l-34 -96q-2 -8 -8 -13.5t-13 -5.5h-41q-7 0 -13 5.5t-6 13.5l181 529q2 8 7.5 14t12.5 6h84q7 0 12.5 -6t7.5 -14l181 -529q0 -8 -6 -13.5t-13 -5.5h-41q-11 0 -20.5 -11t-9.5 -26t9.5 -24t20.5 -9q9 0 14 2t14 7q1 1 4 1q5 0 7 -1
q8 -7 12.5 -15.5t8.5 -19.5q0 -2 -1 -3.5t-2 -3.5q-17 -16 -31.5 -19.5t-30.5 -3.5q-15 0 -31.5 3.5t-30 13.5t-22 27.5t-8.5 44.5q0 42 20 63.5t44 27.5z" />
    <glyph glyph-name="Zdotaccent" unicode="&#x17b;" horiz-adv-x="569" 
d="M163 76h317q8 0 13.5 -6t5.5 -13v-38q0 -7 -5.5 -13t-13.5 -6h-391q-8 0 -13.5 6t-5.5 13v63q0 5 3 9t7 8l327 393h-318q-8 0 -13.5 6t-5.5 13v38q0 7 5.5 13t13.5 6h391q8 0 13.5 -6t5.5 -13v-64q0 -5 -3 -10.5t-7 -9.5zM246 678q0 19 13.5 32.5t32.5 13.5t32.5 -13.5
t13.5 -32.5t-13.5 -32.5t-32.5 -13.5t-32.5 13.5t-13.5 32.5z" />
    <glyph glyph-name="Zacute" unicode="&#x179;" horiz-adv-x="569" 
d="M163 76h317q8 0 13.5 -6t5.5 -13v-38q0 -7 -5.5 -13t-13.5 -6h-391q-8 0 -13.5 6t-5.5 13v63q0 5 3 9t7 8l327 393h-318q-8 0 -13.5 6t-5.5 13v38q0 7 5.5 13t13.5 6h391q8 0 13.5 -6t5.5 -13v-64q0 -5 -3 -10.5t-7 -9.5zM290 733q2 6 8.5 10t11.5 4h34q5 0 10 -4.5
t5 -10.5l-39 -85q-2 -6 -6 -10.5t-9 -4.5h-34q-5 0 -10 4.5t-5 10.5z" />
    <glyph glyph-name="Tcaron" unicode="&#x164;" horiz-adv-x="513" 
d="M297 19q0 -8 -6 -13.5t-13 -5.5h-43q-7 0 -13 5.5t-6 13.5v473h-152q-8 0 -13.5 6t-5.5 13v38q0 7 5.5 13t13.5 6h385q8 0 13.5 -6t5.5 -13v-38q0 -7 -5.5 -13t-13.5 -6h-152v-473zM218 632q-6 0 -13.5 5t-9.5 10l-69 144q0 7 4.5 12.5t12.5 5.5h40q8 0 15.5 -6t9.5 -12
l48 -109l47 109q2 6 9.5 12t15.5 6h41q8 0 12.5 -5.5t4.5 -12.5l-69 -144q-2 -5 -9.5 -10t-13.5 -5h-76z" />
    <glyph glyph-name="Scedilla" unicode="&#x15e;" horiz-adv-x="558" 
d="M490 456q0 -8 -4 -17t-11 -9h-49q-3 0 -10 3.5t-15 17.5q-8 16 -22.5 25.5t-32.5 14t-39.5 6t-44.5 1.5q-59 0 -90 -20t-31 -54q0 -27 27 -44.5t68 -31.5t88.5 -27.5t88.5 -33.5t68 -49t27 -74t-14 -76.5t-39.5 -52t-60.5 -30.5t-77 -12l-3 -32q29 -9 41 -30.5t12 -47.5
q0 -18 -7.5 -32.5t-19.5 -24.5t-27.5 -15t-31.5 -5q-27 0 -47 6t-43 25q-2 2 -3.5 4t-1.5 5q0 4 3 10l10 20q2 2 4.5 3t8.5 1q4 0 22.5 -9t38.5 -9q11 0 19 6t8 17q0 15 -6.5 23.5t-24.5 10.5q-10 1 -16.5 6.5t-6.5 14.5l5 54q-70 6 -119.5 37.5t-64.5 83.5q0 8 3.5 17
t14.5 9h44q11 0 16.5 -5.5t10.5 -15.5q7 -15 21.5 -25t32.5 -16t38.5 -8.5t39.5 -2.5q24 0 49 2t45 11t32.5 26.5t12.5 47.5q0 31 -27 50t-68 33t-88.5 27t-88.5 32.5t-68 48.5t-27 75q0 71 54 112t147 41q42 0 80 -7.5t68.5 -22.5t51.5 -37t29 -51z" />
    <glyph glyph-name="Abreve" unicode="&#x102;" horiz-adv-x="576" 
d="M330 568q7 0 12.5 -6t7.5 -14l181 -529q0 -8 -6 -13.5t-13 -5.5h-41q-7 0 -13 5.5t-8 13.5l-34 96h-256l-34 -96q-2 -8 -8 -13.5t-13 -5.5h-41q-7 0 -13 5.5t-6 13.5l181 529q2 8 7.5 14t12.5 6h84zM288 499l-101 -308h202zM288 632q-42 0 -70 11t-45 29t-24 41t-7 48
q0 7 5.5 12t11.5 5h37q6 0 11.5 -5t5.5 -12q1 -16 4 -29t10.5 -22t22 -14t37.5 -5t37.5 5t22 14t10.5 22t4 29q0 7 5.5 12t11.5 5h37q6 0 11.5 -5t5.5 -12q0 -25 -7 -48t-24 -41t-44.5 -29t-68.5 -11z" />
    <glyph glyph-name="Racute" unicode="&#x154;" horiz-adv-x="577" 
d="M343 155q-24 -3 -52 -3h-110v-133q0 -8 -6 -13.5t-13 -5.5h-43q-7 0 -13 5.5t-6 13.5v530q0 8 6 13.5t13 5.5h167q62 0 107.5 -15t75 -41.5t44 -63.5t14.5 -82v-9q0 -68 -27 -115t-85 -70l73 -153q0 -8 -6 -13.5t-13 -5.5h-41q-7 0 -12.5 6t-8.5 13zM181 492v-264h105
q53 0 84.5 10.5t48.5 28t22 41t5 49.5v9q0 26 -5 49t-22 40t-48.5 27t-84.5 10h-105zM290 733q2 6 8.5 10t11.5 4h34q5 0 10 -4.5t5 -10.5l-39 -85q-2 -6 -6 -10.5t-9 -4.5h-34q-5 0 -10 4.5t-5 10.5z" />
    <glyph glyph-name="zdotaccent" unicode="&#x17c;" horiz-adv-x="569" 
d="M163 76h317q8 0 13.5 -6t5.5 -13v-38q0 -7 -5.5 -13t-13.5 -6h-391q-8 0 -13.5 6t-5.5 13v63q0 5 3 9t7 8l327 393h-318q-8 0 -13.5 6t-5.5 13v38q0 7 5.5 13t13.5 6h391q8 0 13.5 -6t5.5 -13v-64q0 -5 -3 -10.5t-7 -9.5zM294 839q21 0 40 -8t33.5 -22.5t22.5 -33.5
t8 -40t-8 -39.5t-22.5 -33t-33.5 -22.5t-40 -8t-39.5 8t-33 22.5t-22.5 33t-8 39.5t8 40t22.5 33.5t33 22.5t39.5 8zM294 696q15 0 26.5 11.5t11.5 28.5t-11.5 28t-26.5 11q-17 0 -28.5 -11t-11.5 -28t11.5 -28.5t28.5 -11.5z" />
    <glyph glyph-name="Sacute" unicode="&#x15a;" horiz-adv-x="558" 
d="M490 456q0 -8 -4 -17t-11 -9h-49q-3 0 -10 3.5t-15 17.5q-8 16 -22.5 25.5t-32.5 14t-39.5 6t-44.5 1.5q-59 0 -90 -20t-31 -54q0 -27 27 -44.5t68 -31.5t88.5 -27.5t88.5 -33.5t68 -49t27 -74q0 -49 -16.5 -82t-46 -53t-70 -28.5t-87.5 -8.5q-42 0 -78.5 8.5t-65 24
t-48.5 38.5t-29 52q0 8 3.5 17t14.5 9h44q11 0 16.5 -5.5t10.5 -15.5q7 -15 21.5 -25t32.5 -16t38.5 -8.5t39.5 -2.5q24 0 49 2t45 11t32.5 26.5t12.5 47.5q0 31 -27 50t-68 33t-88.5 27t-88.5 32.5t-68 48.5t-27 75q0 71 54 112t147 41q42 0 80 -7.5t68.5 -22.5t51.5 -37
t29 -51zM290 733q2 6 8.5 10t11.5 4h34q5 0 10 -4.5t5 -10.5l-39 -85q-2 -6 -6 -10.5t-9 -4.5h-34q-5 0 -10 4.5t-5 10.5z" />
    <glyph glyph-name="Lcaron" unicode="&#x13d;" horiz-adv-x="523" 
d="M181 76h273q8 0 13.5 -6t5.5 -13v-38q0 -7 -5.5 -13t-13.5 -6h-335q-7 0 -13 5.5t-6 13.5v530q0 8 6 13.5t13 5.5h43q7 0 13 -5.5t6 -13.5v-473zM334 523q0 19 12.5 32t31.5 13t31.5 -13t13.5 -32q0 -7 -2 -16t-7.5 -22t-15 -31.5t-24.5 -44.5q-3 -6 -10 -6q-2 0 -6 2
l-21 7q-6 3 -6 10q0 2 0.5 3.5t0.5 2.5l19 61q-8 6 -12.5 15t-4.5 19z" />
    <glyph glyph-name="Cacute" unicode="&#x106;" horiz-adv-x="577" 
d="M535 94q-34 -51 -92 -77t-133 -26q-63 0 -113 21t-85 59.5t-53.5 91.5t-18.5 117t18.5 118t53.5 93t85 61t113 22q73 0 132 -24.5t93 -73.5q2 -3 2 -9q0 -12 -8 -17l-27 -21q-3 -2 -9 -2q-9 0 -17 8q-32 38 -75.5 50.5t-88.5 12.5q-50 0 -86 -17t-59.5 -46t-35 -69
t-11.5 -86q0 -47 11 -86.5t34 -67.5t59 -43.5t86 -15.5q45 0 89 14.5t76 53.5q8 8 18 8q6 0 9 -2l27 -20q8 -5 8 -17q0 -7 -2 -10zM309 733q2 6 8.5 10t11.5 4h34q5 0 10 -4.5t5 -10.5l-39 -85q-2 -6 -6 -10.5t-9 -4.5h-34q-5 0 -10 4.5t-5 10.5z" />
    <glyph glyph-name="racute" unicode="&#x155;" horiz-adv-x="577" 
d="M343 155q-24 -3 -52 -3h-110v-133q0 -8 -6 -13.5t-13 -5.5h-43q-7 0 -13 5.5t-6 13.5v530q0 8 6 13.5t13 5.5h167q62 0 107.5 -15t75 -41.5t44 -63.5t14.5 -82v-9q0 -68 -27 -115t-85 -70l73 -153q0 -8 -6 -13.5t-13 -5.5h-41q-7 0 -12.5 6t-8.5 13zM181 492v-264h105
q53 0 84.5 10.5t48.5 28t22 41t5 49.5v9q0 26 -5 49t-22 40t-48.5 27t-84.5 10h-105zM290 733q2 6 8.5 10t11.5 4h34q5 0 10 -4.5t5 -10.5l-39 -85q-2 -6 -6 -10.5t-9 -4.5h-34q-5 0 -10 4.5t-5 10.5z" />
    <glyph glyph-name="cacute" unicode="&#x107;" horiz-adv-x="577" 
d="M535 94q-34 -51 -92 -77t-133 -26q-63 0 -113 21t-85 59.5t-53.5 91.5t-18.5 117t18.5 118t53.5 93t85 61t113 22q73 0 132 -24.5t93 -73.5q2 -3 2 -9q0 -12 -8 -17l-27 -21q-3 -2 -9 -2q-9 0 -17 8q-32 38 -75.5 50.5t-88.5 12.5q-50 0 -86 -17t-59.5 -46t-35 -69
t-11.5 -86q0 -47 11 -86.5t34 -67.5t59 -43.5t86 -15.5q45 0 89 14.5t76 53.5q8 8 18 8q6 0 9 -2l27 -20q8 -5 8 -17q0 -7 -2 -10zM309 733q2 6 8.5 10t11.5 4h34q5 0 10 -4.5t5 -10.5l-39 -85q-2 -6 -6 -10.5t-9 -4.5h-34q-5 0 -10 4.5t-5 10.5z" />
    <glyph glyph-name="zacute" unicode="&#x17a;" horiz-adv-x="569" 
d="M163 76h317q8 0 13.5 -6t5.5 -13v-38q0 -7 -5.5 -13t-13.5 -6h-391q-8 0 -13.5 6t-5.5 13v63q0 5 3 9t7 8l327 393h-318q-8 0 -13.5 6t-5.5 13v38q0 7 5.5 13t13.5 6h391q8 0 13.5 -6t5.5 -13v-64q0 -5 -3 -10.5t-7 -9.5zM290 733q2 6 8.5 10t11.5 4h34q5 0 10 -4.5
t5 -10.5l-39 -85q-2 -6 -6 -10.5t-9 -4.5h-34q-5 0 -10 4.5t-5 10.5z" />
    <glyph glyph-name="scedilla" unicode="&#x15f;" horiz-adv-x="558" 
d="M490 456q0 -8 -4 -17t-11 -9h-49q-3 0 -10 3.5t-15 17.5q-8 16 -22.5 25.5t-32.5 14t-39.5 6t-44.5 1.5q-59 0 -90 -20t-31 -54q0 -27 27 -44.5t68 -31.5t88.5 -27.5t88.5 -33.5t68 -49t27 -74q0 -44 -14 -75.5t-38.5 -51.5t-59 -30.5t-74.5 -13.5l-3 -32q29 -9 41 -30.5
t12 -47.5q0 -18 -7.5 -32.5t-19.5 -24.5t-27.5 -15t-31.5 -5q-27 0 -47 6t-43 25q-2 2 -3.5 4t-1.5 5q0 4 3 10l10 20q2 2 4.5 3t8.5 1q4 0 22.5 -9t38.5 -9q11 0 19 6t8 17q0 15 -6.5 23.5t-24.5 10.5q-10 1 -16.5 6.5t-6.5 14.5l5 54q-72 5 -122.5 36.5t-66.5 84.5
q0 8 3.5 17t14.5 9h44q11 0 16.5 -5.5t10.5 -15.5q7 -15 21.5 -25t32.5 -16t38.5 -8.5t39.5 -2.5q24 0 49 2t45 11t32.5 26.5t12.5 47.5q0 31 -27 50t-68 33t-88.5 27t-88.5 32.5t-68 48.5t-27 75q0 71 54 112t147 41q42 0 80 -7.5t68.5 -22.5t51.5 -37t29 -51z" />
    <glyph glyph-name="sacute" unicode="&#x15b;" horiz-adv-x="558" 
d="M490 456q0 -8 -4 -17t-11 -9h-49q-3 0 -10 3.5t-15 17.5q-8 16 -22.5 25.5t-32.5 14t-39.5 6t-44.5 1.5q-59 0 -90 -20t-31 -54q0 -27 27 -44.5t68 -31.5t88.5 -27.5t88.5 -33.5t68 -49t27 -74q0 -49 -16.5 -82t-46 -53t-70 -28.5t-87.5 -8.5q-42 0 -78.5 8.5t-65 24
t-48.5 38.5t-29 52q0 8 3.5 17t14.5 9h44q11 0 16.5 -5.5t10.5 -15.5q7 -15 21.5 -25t32.5 -16t38.5 -8.5t39.5 -2.5q24 0 49 2t45 11t32.5 26.5t12.5 47.5q0 31 -27 50t-68 33t-88.5 27t-88.5 32.5t-68 48.5t-27 75q0 71 54 112t147 41q42 0 80 -7.5t68.5 -22.5t51.5 -37
t29 -51zM290 733q2 6 8.5 10t11.5 4h34q5 0 10 -4.5t5 -10.5l-39 -85q-2 -6 -6 -10.5t-9 -4.5h-34q-5 0 -10 4.5t-5 10.5z" />
    <glyph glyph-name="tcaron" unicode="&#x165;" horiz-adv-x="513" 
d="M297 19q0 -8 -6 -13.5t-13 -5.5h-43q-7 0 -13 5.5t-6 13.5v473h-152q-8 0 -13.5 6t-5.5 13v38q0 7 5.5 13t13.5 6h385q8 0 13.5 -6t5.5 -13v-38q0 -7 -5.5 -13t-13.5 -6h-152v-473zM218 632q-6 0 -13.5 5t-9.5 10l-69 144q0 7 4.5 12.5t12.5 5.5h40q8 0 15.5 -6t9.5 -12
l48 -109l47 109q2 6 9.5 12t15.5 6h41q8 0 12.5 -5.5t4.5 -12.5l-69 -144q-2 -5 -9.5 -10t-13.5 -5h-76z" />
    <glyph glyph-name="nacute" unicode="&#x144;" horiz-adv-x="644" 
d="M544 19q0 -8 -6 -13.5t-13 -5.5h-56q-12 0 -18 7t-10 13l-260 412v-413q0 -8 -6 -13.5t-13 -5.5h-43q-7 0 -13 5.5t-6 13.5v530q0 8 6 13.5t13 5.5h51q12 0 18 -7t10 -13l265 -420v421q0 8 6 13.5t13 5.5h43q7 0 13 -5.5t6 -13.5v-530zM334 733q2 6 8.5 10t11.5 4h34
q5 0 10 -4.5t5 -10.5l-39 -85q-2 -6 -6 -10.5t-9 -4.5h-34q-5 0 -10 4.5t-5 10.5z" />
    <glyph glyph-name="ncaron" unicode="&#x148;" horiz-adv-x="644" 
d="M544 19q0 -8 -6 -13.5t-13 -5.5h-56q-12 0 -18 7t-10 13l-260 412v-413q0 -8 -6 -13.5t-13 -5.5h-43q-7 0 -13 5.5t-6 13.5v530q0 8 6 13.5t13 5.5h51q12 0 18 -7t10 -13l265 -420v421q0 8 6 13.5t13 5.5h43q7 0 13 -5.5t6 -13.5v-530zM290 632q-6 0 -13.5 5t-9.5 10
l-69 144q0 7 4.5 12.5t12.5 5.5h40q8 0 15.5 -6t9.5 -12l48 -109l47 109q2 6 9.5 12t15.5 6h41q8 0 12.5 -5.5t4.5 -12.5l-69 -144q-2 -5 -9.5 -10t-13.5 -5h-76z" />
    <glyph glyph-name="ecaron" unicode="&#x11b;" horiz-adv-x="561" 
d="M390 322q8 0 13.5 -6t5.5 -13v-38q0 -7 -5.5 -13t-13.5 -6h-209v-170h291q8 0 13.5 -6t5.5 -13v-38q0 -7 -5.5 -13t-13.5 -6h-353q-7 0 -13 5.5t-6 13.5v530q0 8 6 13.5t13 5.5h353q8 0 13.5 -6t5.5 -13v-38q0 -7 -5.5 -13t-13.5 -6h-291v-170h209zM266 632q-6 0 -13.5 5
t-9.5 10l-69 144q0 7 4.5 12.5t12.5 5.5h40q8 0 15.5 -6t9.5 -12l48 -109l47 109q2 6 9.5 12t15.5 6h41q8 0 12.5 -5.5t4.5 -12.5l-69 -144q-2 -5 -9.5 -10t-13.5 -5h-76z" />
    <glyph glyph-name="eogonek" unicode="&#x119;" horiz-adv-x="561" 
d="M390 322q8 0 13.5 -6t5.5 -13v-38q0 -7 -5.5 -13t-13.5 -6h-209v-170h291q8 0 13.5 -6t5.5 -13v-38q0 -7 -5.5 -13t-13.5 -6h-56q-8 -13 -13.5 -34t-5.5 -37q0 -15 8 -25t19 -10q9 0 16 2t18 10q1 1 4 1q5 0 7 -1q8 -7 12.5 -15.5t8.5 -19.5q0 -2 -1 -3.5t-2 -3.5
q-17 -16 -34.5 -21t-33.5 -5q-15 0 -31 4t-28.5 14t-20.5 28t-8 45q0 7 2 16.5t4.5 19.5t6 19.5t6.5 15.5h-231q-7 0 -13 5.5t-6 13.5v530q0 8 6 13.5t13 5.5h353q8 0 13.5 -6t5.5 -13v-38q0 -7 -5.5 -13t-13.5 -6h-291v-170h209z" />
    <glyph glyph-name="ccaron" unicode="&#x10d;" horiz-adv-x="577" 
d="M535 94q-34 -51 -92 -77t-133 -26q-63 0 -113 21t-85 59.5t-53.5 91.5t-18.5 117t18.5 118t53.5 93t85 61t113 22q73 0 132 -24.5t93 -73.5q2 -3 2 -9q0 -12 -8 -17l-27 -21q-3 -2 -9 -2q-9 0 -17 8q-32 38 -75.5 50.5t-88.5 12.5q-50 0 -86 -17t-59.5 -46t-35 -69
t-11.5 -86q0 -47 11 -86.5t34 -67.5t59 -43.5t86 -15.5q45 0 89 14.5t76 53.5q8 8 18 8q6 0 9 -2l27 -20q8 -5 8 -17q0 -7 -2 -10zM279 632q-6 0 -13.5 5t-9.5 10l-69 144q0 7 4.5 12.5t12.5 5.5h40q8 0 15.5 -6t9.5 -12l48 -109l47 109q2 6 9.5 12t15.5 6h41q8 0 12.5 -5.5
t4.5 -12.5l-69 -144q-2 -5 -9.5 -10t-13.5 -5h-76z" />
    <glyph glyph-name="Eogonek" unicode="&#x118;" horiz-adv-x="561" 
d="M390 322q8 0 13.5 -6t5.5 -13v-38q0 -7 -5.5 -13t-13.5 -6h-209v-170h291q8 0 13.5 -6t5.5 -13v-38q0 -7 -5.5 -13t-13.5 -6h-56q-8 -13 -13.5 -34t-5.5 -37q0 -15 8 -25t19 -10q9 0 16 2t18 10q1 1 4 1q5 0 7 -1q8 -7 12.5 -15.5t8.5 -19.5q0 -2 -1 -3.5t-2 -3.5
q-17 -16 -34.5 -21t-33.5 -5q-15 0 -31 4t-28.5 14t-20.5 28t-8 45q0 7 2 16.5t4.5 19.5t6 19.5t6.5 15.5h-231q-7 0 -13 5.5t-6 13.5v530q0 8 6 13.5t13 5.5h353q8 0 13.5 -6t5.5 -13v-38q0 -7 -5.5 -13t-13.5 -6h-291v-170h209z" />
    <glyph glyph-name="ohungarumlaut" unicode="&#x151;" horiz-adv-x="630" 
d="M237 733q2 6 8.5 10t11.5 4h34q5 0 10 -4.5t5 -10.5l-39 -85q-2 -6 -6 -10.5t-9 -4.5h-34q-5 0 -10 4.5t-5 10.5zM409 733q2 6 8.5 10t11.5 4h34q5 0 10 -4.5t5 -10.5l-39 -85q-2 -6 -6 -10.5t-9 -4.5h-34q-5 0 -10 4.5t-5 10.5zM315 67q51 0 86 15.5t56.5 43.5
t31.5 67.5t10 86.5q0 46 -10 86t-31.5 69.5t-56.5 46t-86 16.5t-86 -16.5t-56.5 -46t-31.5 -69.5t-10 -86q0 -47 10 -86.5t31.5 -67.5t56.5 -43.5t86 -15.5zM315 -9q-63 0 -112.5 21t-83 59.5t-51.5 91.5t-18 117t18 118t51.5 93t83 61t112.5 22t112.5 -22t83 -61t51.5 -93
t18 -118t-18 -117t-51.5 -91.5t-83 -59.5t-112.5 -21z" />
    <glyph glyph-name="Ohungarumlaut" unicode="&#x150;" horiz-adv-x="630" 
d="M237 733q2 6 8.5 10t11.5 4h34q5 0 10 -4.5t5 -10.5l-39 -85q-2 -6 -6 -10.5t-9 -4.5h-34q-5 0 -10 4.5t-5 10.5zM409 733q2 6 8.5 10t11.5 4h34q5 0 10 -4.5t5 -10.5l-39 -85q-2 -6 -6 -10.5t-9 -4.5h-34q-5 0 -10 4.5t-5 10.5zM315 67q51 0 86 15.5t56.5 43.5
t31.5 67.5t10 86.5q0 46 -10 86t-31.5 69.5t-56.5 46t-86 16.5t-86 -16.5t-56.5 -46t-31.5 -69.5t-10 -86q0 -47 10 -86.5t31.5 -67.5t56.5 -43.5t86 -15.5zM315 -9q-63 0 -112.5 21t-83 59.5t-51.5 91.5t-18 117t18 118t51.5 93t83 61t112.5 22t112.5 -22t83 -61t51.5 -93
t18 -118t-18 -117t-51.5 -91.5t-83 -59.5t-112.5 -21z" />
    <glyph glyph-name="Ncaron" unicode="&#x147;" horiz-adv-x="644" 
d="M544 19q0 -8 -6 -13.5t-13 -5.5h-56q-12 0 -18 7t-10 13l-260 412v-413q0 -8 -6 -13.5t-13 -5.5h-43q-7 0 -13 5.5t-6 13.5v530q0 8 6 13.5t13 5.5h51q12 0 18 -7t10 -13l265 -420v421q0 8 6 13.5t13 5.5h43q7 0 13 -5.5t6 -13.5v-530zM290 632q-6 0 -13.5 5t-9.5 10
l-69 144q0 7 4.5 12.5t12.5 5.5h40q8 0 15.5 -6t9.5 -12l48 -109l47 109q2 6 9.5 12t15.5 6h41q8 0 12.5 -5.5t4.5 -12.5l-69 -144q-2 -5 -9.5 -10t-13.5 -5h-76z" />
    <glyph glyph-name="Nacute" unicode="&#x143;" horiz-adv-x="644" 
d="M544 19q0 -8 -6 -13.5t-13 -5.5h-56q-12 0 -18 7t-10 13l-260 412v-413q0 -8 -6 -13.5t-13 -5.5h-43q-7 0 -13 5.5t-6 13.5v530q0 8 6 13.5t13 5.5h51q12 0 18 -7t10 -13l265 -420v421q0 8 6 13.5t13 5.5h43q7 0 13 -5.5t6 -13.5v-530zM334 733q2 6 8.5 10t11.5 4h34
q5 0 10 -4.5t5 -10.5l-39 -85q-2 -6 -6 -10.5t-9 -4.5h-34q-5 0 -10 4.5t-5 10.5z" />
    <glyph glyph-name="Dcroat" unicode="&#x110;" 
d="M131 318v231q0 8 6 13.5t13 5.5h180q63 0 110.5 -21.5t79.5 -59.5t48 -90t16 -114t-16 -114t-48 -89.5t-79.5 -58.5t-110.5 -21h-180q-7 0 -13 5.5t-6 13.5v223h-62q-8 0 -13.5 6t-5.5 13v38q0 7 5.5 13t13.5 6h62zM330 76q51 0 84.5 15.5t53 43.5t27.5 65.5t8 82.5
q0 42 -8 79.5t-27.5 66.5t-53 46t-84.5 17h-118v-174h115q8 0 13.5 -6t5.5 -13v-38q0 -7 -5.5 -13t-13.5 -6h-115v-166h118z" />
    <glyph glyph-name="Lacute" unicode="&#x139;" horiz-adv-x="523" 
d="M181 76h273q8 0 13.5 -6t5.5 -13v-38q0 -7 -5.5 -13t-13.5 -6h-335q-7 0 -13 5.5t-6 13.5v530q0 8 6 13.5t13 5.5h43q7 0 13 -5.5t6 -13.5v-473zM136 733q2 6 8.5 10t11.5 4h34q5 0 10 -4.5t5 -10.5l-39 -85q-2 -6 -6 -10.5t-9 -4.5h-34q-5 0 -10 4.5t-5 10.5z" />
    <glyph glyph-name="lcaron" unicode="&#x13e;" horiz-adv-x="393" 
d="M100 549q0 8 6 13.5t13 5.5h43q7 0 13 -5.5t6 -13.5v-530q0 -8 -6 -13.5t-13 -5.5h-43q-7 0 -13 5.5t-6 13.5v530zM284 523q0 19 12.5 32t31.5 13t31.5 -13t13.5 -32q0 -7 -2 -16t-7.5 -22t-15 -31.5t-24.5 -44.5q-3 -6 -10 -6q-2 0 -6 2l-21 7q-6 3 -6 10q0 2 0.5 3.5
t0.5 2.5l19 61q-8 6 -12.5 15t-4.5 19z" />
    <glyph glyph-name="Ccaron" unicode="&#x10c;" horiz-adv-x="577" 
d="M535 94q-34 -51 -92 -77t-133 -26q-63 0 -113 21t-85 59.5t-53.5 91.5t-18.5 117t18.5 118t53.5 93t85 61t113 22q73 0 132 -24.5t93 -73.5q2 -3 2 -9q0 -12 -8 -17l-27 -21q-3 -2 -9 -2q-9 0 -17 8q-32 38 -75.5 50.5t-88.5 12.5q-50 0 -86 -17t-59.5 -46t-35 -69
t-11.5 -86q0 -47 11 -86.5t34 -67.5t59 -43.5t86 -15.5q45 0 89 14.5t76 53.5q8 8 18 8q6 0 9 -2l27 -20q8 -5 8 -17q0 -7 -2 -10zM279 632q-6 0 -13.5 5t-9.5 10l-69 144q0 7 4.5 12.5t12.5 5.5h40q8 0 15.5 -6t9.5 -12l48 -109l47 109q2 6 9.5 12t15.5 6h41q8 0 12.5 -5.5
t4.5 -12.5l-69 -144q-2 -5 -9.5 -10t-13.5 -5h-76z" />
    <glyph glyph-name="Ecaron" unicode="&#x11a;" horiz-adv-x="561" 
d="M390 322q8 0 13.5 -6t5.5 -13v-38q0 -7 -5.5 -13t-13.5 -6h-209v-170h291q8 0 13.5 -6t5.5 -13v-38q0 -7 -5.5 -13t-13.5 -6h-353q-7 0 -13 5.5t-6 13.5v530q0 8 6 13.5t13 5.5h353q8 0 13.5 -6t5.5 -13v-38q0 -7 -5.5 -13t-13.5 -6h-291v-170h209zM266 632q-6 0 -13.5 5
t-9.5 10l-69 144q0 7 4.5 12.5t12.5 5.5h40q8 0 15.5 -6t9.5 -12l48 -109l47 109q2 6 9.5 12t15.5 6h41q8 0 12.5 -5.5t4.5 -12.5l-69 -144q-2 -5 -9.5 -10t-13.5 -5h-76z" />
    <glyph glyph-name="Dcaron" unicode="&#x10e;" horiz-adv-x="603" 
d="M299 76q51 0 84.5 15.5t53 43.5t27.5 65.5t8 82.5q0 42 -8 79.5t-27.5 66.5t-53 46t-84.5 17h-118v-416h118zM119 0q-7 0 -13 5.5t-6 13.5v530q0 8 6 13.5t13 5.5h180q63 0 110.5 -21.5t79.5 -59.5t48 -90t16 -114t-16 -114t-48 -89.5t-79.5 -58.5t-110.5 -21h-180z
M251 632q-6 0 -13.5 5t-9.5 10l-69 144q0 7 4.5 12.5t12.5 5.5h40q8 0 15.5 -6t9.5 -12l48 -109l47 109q2 6 9.5 12t15.5 6h41q8 0 12.5 -5.5t4.5 -12.5l-69 -144q-2 -5 -9.5 -10t-13.5 -5h-76z" />
    <glyph glyph-name="Aogonek" unicode="&#x104;" horiz-adv-x="576" 
d="M288 499l-101 -308h202zM416 115h-256l-34 -96q-2 -8 -8 -13.5t-13 -5.5h-41q-7 0 -13 5.5t-6 13.5l181 529q2 8 7.5 14t12.5 6h84q7 0 12.5 -6t7.5 -14l181 -529q0 -8 -6 -13.5t-13 -5.5h-41q-11 0 -20.5 -11t-9.5 -26t9.5 -24t20.5 -9q9 0 14 2t14 7q1 1 4 1q5 0 7 -1
q8 -7 12.5 -15.5t8.5 -19.5q0 -2 -1 -3.5t-2 -3.5q-17 -16 -31.5 -19.5t-30.5 -3.5q-15 0 -31.5 3.5t-30 13.5t-22 27.5t-8.5 44.5q0 42 20 63.5t44 27.5z" />
    <glyph glyph-name="abreve" unicode="&#x103;" horiz-adv-x="576" 
d="M330 568q7 0 12.5 -6t7.5 -14l181 -529q0 -8 -6 -13.5t-13 -5.5h-41q-7 0 -13 5.5t-8 13.5l-34 96h-256l-34 -96q-2 -8 -8 -13.5t-13 -5.5h-41q-7 0 -13 5.5t-6 13.5l181 529q2 8 7.5 14t12.5 6h84zM288 499l-101 -308h202zM288 632q-42 0 -70 11t-45 29t-24 41t-7 48
q0 7 5.5 12t11.5 5h37q6 0 11.5 -5t5.5 -12q1 -16 4 -29t10.5 -22t22 -14t37.5 -5t37.5 5t22 14t10.5 22t4 29q0 7 5.5 12t11.5 5h37q6 0 11.5 -5t5.5 -12q0 -25 -7 -48t-24 -41t-44.5 -29t-68.5 -11z" />
    <glyph glyph-name="Uhungarumlaut" unicode="&#x170;" 
d="M317 -9q-128 0 -182.5 67.5t-54.5 208.5v282q0 8 6 13.5t13 5.5h43q7 0 13 -5.5t6 -13.5v-282q0 -48 5.5 -85t22.5 -62.5t47.5 -39t80.5 -13.5t80.5 13.5t47.5 39t22.5 62.5t5.5 85v282q0 8 6 13.5t13 5.5h43q7 0 13 -5.5t6 -13.5v-282q0 -141 -54.5 -208.5t-182.5 -67.5
zM238 733q2 6 8.5 10t11.5 4h34q5 0 10 -4.5t5 -10.5l-39 -85q-2 -6 -6 -10.5t-9 -4.5h-34q-5 0 -10 4.5t-5 10.5zM410 733q2 6 8.5 10t11.5 4h34q5 0 10 -4.5t5 -10.5l-39 -85q-2 -6 -6 -10.5t-9 -4.5h-34q-5 0 -10 4.5t-5 10.5z" />
    <glyph glyph-name="Uring" unicode="&#x16e;" 
d="M317 -9q-128 0 -182.5 67.5t-54.5 208.5v282q0 8 6 13.5t13 5.5h43q7 0 13 -5.5t6 -13.5v-282q0 -48 5.5 -85t22.5 -62.5t47.5 -39t80.5 -13.5t80.5 13.5t47.5 39t22.5 62.5t5.5 85v282q0 8 6 13.5t13 5.5h43q7 0 13 -5.5t6 -13.5v-282q0 -141 -54.5 -208.5t-182.5 -67.5
zM318 839q21 0 40 -8t33.5 -22.5t22.5 -33.5t8 -40t-8 -39.5t-22.5 -33t-33.5 -22.5t-40 -8t-39.5 8t-33 22.5t-22.5 33t-8 39.5t8 40t22.5 33.5t33 22.5t39.5 8zM318 696q15 0 26.5 11.5t11.5 28.5t-11.5 28t-26.5 11q-17 0 -28.5 -11t-11.5 -28t11.5 -28.5t28.5 -11.5z
" />
    <glyph glyph-name="Rcaron" unicode="&#x158;" horiz-adv-x="577" 
d="M343 155q-24 -3 -52 -3h-110v-133q0 -8 -6 -13.5t-13 -5.5h-43q-7 0 -13 5.5t-6 13.5v530q0 8 6 13.5t13 5.5h167q62 0 107.5 -15t75 -41.5t44 -63.5t14.5 -82v-9q0 -68 -27 -115t-85 -70l73 -153q0 -8 -6 -13.5t-13 -5.5h-41q-7 0 -12.5 6t-8.5 13zM181 492v-264h105
q53 0 84.5 10.5t48.5 28t22 41t5 49.5v9q0 26 -5 49t-22 40t-48.5 27t-84.5 10h-105zM250 632q-6 0 -13.5 5t-9.5 10l-69 144q0 7 4.5 12.5t12.5 5.5h40q8 0 15.5 -6t9.5 -12l48 -109l47 109q2 6 9.5 12t15.5 6h41q8 0 12.5 -5.5t4.5 -12.5l-69 -144q-2 -5 -9.5 -10
t-13.5 -5h-76z" />
    <glyph glyph-name="uni0162" unicode="&#x162;" horiz-adv-x="513" 
d="M235 0q-7 0 -13 5.5t-6 13.5v473h-152q-8 0 -13.5 6t-5.5 13v38q0 7 5.5 13t13.5 6h385q8 0 13.5 -6t5.5 -13v-38q0 -7 -5.5 -13t-13.5 -6h-152v-438q24 -6 44 -27.5t20 -63.5q0 -27 -8.5 -44.5t-22 -27.5t-30 -13.5t-31.5 -3.5q-16 0 -30.5 3.5t-31.5 19.5q-1 2 -2 3.5
t-1 3.5q4 11 8.5 19.5t12.5 15.5q2 1 7 1q3 0 4 -1q9 -5 14 -7t14 -2q11 0 20.5 9t9.5 24t-9.5 26t-20.5 11h-29z" />
    <glyph glyph-name="lacute" unicode="&#x13a;" horiz-adv-x="281" 
d="M181 19q0 -8 -6 -13.5t-13 -5.5h-43q-7 0 -13 5.5t-6 13.5v530q0 8 6 13.5t13 5.5h43q7 0 13 -5.5t6 -13.5v-530zM148 733q2 6 8.5 10t11.5 4h34q5 0 10 -4.5t5 -10.5l-39 -85q-2 -5 -6 -10t-9 -5h-34q-5 0 -10 4.5t-5 10.5z" />
    <glyph glyph-name="uni0163" unicode="&#x163;" horiz-adv-x="513" 
d="M235 0q-7 0 -13 5.5t-6 13.5v473h-152q-8 0 -13.5 6t-5.5 13v38q0 7 5.5 13t13.5 6h385q8 0 13.5 -6t5.5 -13v-38q0 -7 -5.5 -13t-13.5 -6h-152v-438q24 -6 44 -27.5t20 -63.5q0 -27 -8.5 -44.5t-22 -27.5t-30 -13.5t-31.5 -3.5q-16 0 -30.5 3.5t-31.5 19.5q-1 2 -2 3.5
t-1 3.5q4 11 8.5 19.5t12.5 15.5q2 1 7 1q3 0 4 -1q9 -5 14 -7t14 -2q11 0 20.5 9t9.5 24t-9.5 26t-20.5 11h-29z" />
    <glyph glyph-name="uhungarumlaut" unicode="&#x171;" 
d="M317 -9q-128 0 -182.5 67.5t-54.5 208.5v282q0 8 6 13.5t13 5.5h43q7 0 13 -5.5t6 -13.5v-282q0 -48 5.5 -85t22.5 -62.5t47.5 -39t80.5 -13.5t80.5 13.5t47.5 39t22.5 62.5t5.5 85v282q0 8 6 13.5t13 5.5h43q7 0 13 -5.5t6 -13.5v-282q0 -141 -54.5 -208.5t-182.5 -67.5
zM238 733q2 6 8.5 10t11.5 4h34q5 0 10 -4.5t5 -10.5l-39 -85q-2 -6 -6 -10.5t-9 -4.5h-34q-5 0 -10 4.5t-5 10.5zM410 733q2 6 8.5 10t11.5 4h34q5 0 10 -4.5t5 -10.5l-39 -85q-2 -6 -6 -10.5t-9 -4.5h-34q-5 0 -10 4.5t-5 10.5z" />
    <glyph glyph-name="uring" unicode="&#x16f;" 
d="M317 -9q-128 0 -182.5 67.5t-54.5 208.5v282q0 8 6 13.5t13 5.5h43q7 0 13 -5.5t6 -13.5v-282q0 -48 5.5 -85t22.5 -62.5t47.5 -39t80.5 -13.5t80.5 13.5t47.5 39t22.5 62.5t5.5 85v282q0 8 6 13.5t13 5.5h43q7 0 13 -5.5t6 -13.5v-282q0 -141 -54.5 -208.5t-182.5 -67.5
zM318 839q21 0 40 -8t33.5 -22.5t22.5 -33.5t8 -40t-8 -39.5t-22.5 -33t-33.5 -22.5t-40 -8t-39.5 8t-33 22.5t-22.5 33t-8 39.5t8 40t22.5 33.5t33 22.5t39.5 8zM318 696q15 0 26.5 11.5t11.5 28.5t-11.5 28t-26.5 11q-17 0 -28.5 -11t-11.5 -28t11.5 -28.5t28.5 -11.5z
" />
    <glyph glyph-name="rcaron" unicode="&#x159;" horiz-adv-x="577" 
d="M343 155q-24 -3 -52 -3h-110v-133q0 -8 -6 -13.5t-13 -5.5h-43q-7 0 -13 5.5t-6 13.5v530q0 8 6 13.5t13 5.5h167q62 0 107.5 -15t75 -41.5t44 -63.5t14.5 -82v-9q0 -68 -27 -115t-85 -70l73 -153q0 -8 -6 -13.5t-13 -5.5h-41q-7 0 -12.5 6t-8.5 13zM181 492v-264h105
q53 0 84.5 10.5t48.5 28t22 41t5 49.5v9q0 26 -5 49t-22 40t-48.5 27t-84.5 10h-105zM250 632q-6 0 -13.5 5t-9.5 10l-69 144q0 7 4.5 12.5t12.5 5.5h40q8 0 15.5 -6t9.5 -12l48 -109l47 109q2 6 9.5 12t15.5 6h41q8 0 12.5 -5.5t4.5 -12.5l-69 -144q-2 -5 -9.5 -10
t-13.5 -5h-76z" />
    <glyph glyph-name="dcaron" unicode="&#x10f;" horiz-adv-x="722" 
d="M299 76q51 0 84.5 15.5t53 43.5t27.5 65.5t8 82.5q0 42 -8 79.5t-27.5 66.5t-53 46t-84.5 17h-118v-416h118zM119 0q-7 0 -13 5.5t-6 13.5v530q0 8 6 13.5t13 5.5h180q63 0 110.5 -21.5t79.5 -59.5t48 -90t16 -114t-16 -114t-48 -89.5t-79.5 -58.5t-110.5 -21h-180z
M613 523q0 19 12.5 32t31.5 13t31.5 -13t13.5 -32q0 -7 -2 -16t-7.5 -22t-15 -31.5t-24.5 -44.5q-3 -6 -10 -6q-2 0 -6 2l-21 7q-6 3 -6 10q0 2 0.5 3.5t0.5 2.5l19 61q-8 6 -12.5 15t-4.5 19z" />
    <glyph glyph-name="dcroat" unicode="&#x111;" 
d="M131 318v231q0 8 6 13.5t13 5.5h180q63 0 110.5 -21.5t79.5 -59.5t48 -90t16 -114t-16 -114t-48 -89.5t-79.5 -58.5t-110.5 -21h-180q-7 0 -13 5.5t-6 13.5v223h-62q-8 0 -13.5 6t-5.5 13v38q0 7 5.5 13t13.5 6h62zM330 76q51 0 84.5 15.5t53 43.5t27.5 65.5t8 82.5
q0 42 -8 79.5t-27.5 66.5t-53 46t-84.5 17h-118v-174h115q8 0 13.5 -6t5.5 -13v-38q0 -7 -5.5 -13t-13.5 -6h-115v-166h118z" />
    <glyph glyph-name="Amacron" unicode="&#x100;" horiz-adv-x="576" 
d="M330 568q7 0 12.5 -6t7.5 -14l181 -529q0 -8 -6 -13.5t-13 -5.5h-41q-7 0 -13 5.5t-8 13.5l-34 96h-256l-34 -96q-2 -8 -8 -13.5t-13 -5.5h-41q-7 0 -13 5.5t-6 13.5l181 529q2 8 7.5 14t12.5 6h84zM288 499l-101 -308h202zM417 708q8 0 13.5 -6t5.5 -13v-38
q0 -7 -5.5 -13t-13.5 -6h-258q-8 0 -13.5 6t-5.5 13v38q0 7 5.5 13t13.5 6h258z" />
    <glyph glyph-name="umacron" unicode="&#x16b;" 
d="M317 -9q-128 0 -182.5 67.5t-54.5 208.5v282q0 8 6 13.5t13 5.5h43q7 0 13 -5.5t6 -13.5v-282q0 -48 5.5 -85t22.5 -62.5t47.5 -39t80.5 -13.5t80.5 13.5t47.5 39t22.5 62.5t5.5 85v282q0 8 6 13.5t13 5.5h43q7 0 13 -5.5t6 -13.5v-282q0 -141 -54.5 -208.5t-182.5 -67.5
zM447 708q8 0 13.5 -6t5.5 -13v-38q0 -7 -5.5 -13t-13.5 -6h-258q-8 0 -13.5 6t-5.5 13v38q0 7 5.5 13t13.5 6h258z" />
    <glyph glyph-name="tbar" unicode="&#x167;" horiz-adv-x="513" 
d="M216 315v177h-152q-8 0 -13.5 6t-5.5 13v38q0 7 5.5 13t13.5 6h385q8 0 13.5 -6t5.5 -13v-38q0 -7 -5.5 -13t-13.5 -6h-152v-177h93q8 0 13.5 -6t5.5 -13v-38q0 -7 -5.5 -13t-13.5 -6h-93v-220q0 -8 -6 -13.5t-13 -5.5h-43q-7 0 -13 5.5t-6 13.5v220h-93q-8 0 -13.5 6
t-5.5 13v38q0 7 5.5 13t13.5 6h93z" />
    <glyph glyph-name="uni0137" unicode="&#x137;" horiz-adv-x="604" 
d="M503 568q7 0 13.5 -5.5t6.5 -13.5l-123 -160l164 -370q0 -8 -6 -13.5t-13 -5.5h-46q-7 0 -12.5 5.5t-9.5 13.5l-134 298l-162 -204v-94q0 -8 -6 -13.5t-13 -5.5h-43q-7 0 -13 5.5t-6 13.5v530q0 8 6 13.5t13 5.5h43q7 0 13 -5.5t6 -13.5v-310l248 316q4 5 11 9t12 4h51z
M277 -99q0 19 12.5 32t31.5 13t31.5 -13t13.5 -32q0 -7 -2 -16t-7.5 -22t-15 -31.5t-24.5 -44.5q-3 -6 -10 -6q-2 0 -6 2l-21 7q-6 3 -6 10q0 2 0.5 3.5t0.5 2.5l19 61q-8 6 -12.5 15t-4.5 19z" />
    <glyph glyph-name="uni013C" unicode="&#x13c;" horiz-adv-x="281" 
d="M181 19q0 -8 -6 -13.5t-13 -5.5h-43q-7 0 -13 5.5t-6 13.5v530q0 8 6 13.5t13 5.5h43q7 0 13 -5.5t6 -13.5v-530zM97 -99q0 19 12.5 32t31.5 13t31.5 -13t13.5 -32q0 -7 -2 -16t-7.5 -22t-15 -31.5t-24.5 -44.5q-3 -6 -10 -6q-2 0 -6 2l-21 7q-6 3 -6 10q0 2 0.5 3.5
t0.5 2.5l19 61q-8 6 -12.5 15t-4.5 19z" />
    <glyph glyph-name="itilde" unicode="&#x129;" horiz-adv-x="281" 
d="M181 19q0 -8 -6 -13.5t-13 -5.5h-43q-7 0 -13 5.5t-6 13.5v530q0 8 6 13.5t13 5.5h43q7 0 13 -5.5t6 -13.5v-530zM204 632q-20 0 -34.5 5.5t-28 11.5t-28.5 11.5t-35 5.5q-14 0 -27 -4.5t-24 -10.5q-4 -2 -8 -2q-13 0 -18 10l-15 27q-2 4 -2 8q0 13 9 18q41 30 85 30
q12 0 27.5 -5.5l32 -11.5t33.5 -11.5t33 -5.5q14 0 27 4.5t24 10.5q4 2 8 2q13 0 18 -10l15 -27q2 -4 2 -8q0 -5 -2 -10.5t-7 -7.5q-41 -30 -85 -30z" />
    <glyph glyph-name="uni0123" unicode="&#x123;" horiz-adv-x="619" 
d="M476 45q-33 -26 -76.5 -40t-89.5 -14q-63 0 -113 21t-85 59.5t-53.5 91.5t-18.5 117t18.5 118t53.5 93t85 61t113 22q73 0 132 -24.5t93 -73.5q2 -3 2 -9q0 -12 -8 -17l-27 -21q-3 -2 -9 -2q-9 0 -17 8q-32 38 -75.5 50.5t-88.5 12.5q-50 0 -86 -17t-59.5 -46t-35 -69
t-11.5 -86q0 -47 11 -86.5t34 -67.5t59 -43.5t86 -15.5q20 0 43.5 5.5t46 15t41 23t28.5 29.5v83h-70q-8 0 -13.5 6t-5.5 13v38q0 7 5.5 13t13.5 6h131q7 0 13 -5.5t6 -13.5v-261q0 -8 -6 -13.5t-13 -5.5h-25q-7 0 -11.5 6t-7.5 13zM312 733q2 6 8.5 10t11.5 4h34
q5 0 10 -4.5t5 -10.5l-39 -85q-2 -6 -6 -10.5t-9 -4.5h-34q-5 0 -10 4.5t-5 10.5z" />
    <glyph glyph-name="uni0122" unicode="&#x122;" horiz-adv-x="619" 
d="M476 45q-33 -26 -76.5 -40t-89.5 -14q-63 0 -113 21t-85 59.5t-53.5 91.5t-18.5 117t18.5 118t53.5 93t85 61t113 22q73 0 132 -24.5t93 -73.5q2 -3 2 -9q0 -12 -8 -17l-27 -21q-3 -2 -9 -2q-9 0 -17 8q-32 38 -75.5 50.5t-88.5 12.5q-50 0 -86 -17t-59.5 -46t-35 -69
t-11.5 -86q0 -47 11 -86.5t34 -67.5t59 -43.5t86 -15.5q20 0 43.5 5.5t46 15t41 23t28.5 29.5v83h-70q-8 0 -13.5 6t-5.5 13v38q0 7 5.5 13t13.5 6h131q7 0 13 -5.5t6 -13.5v-261q0 -8 -6 -13.5t-13 -5.5h-25q-7 0 -11.5 6t-7.5 13zM274 -99q0 19 12.5 32t31.5 13t31.5 -13
t13.5 -32q0 -7 -2 -16t-7.5 -22t-15 -31.5t-24.5 -44.5q-3 -6 -10 -6q-2 0 -6 2l-21 7q-6 3 -6 10q0 2 0.5 3.5t0.5 2.5l19 61q-8 6 -12.5 15t-4.5 19z" />
    <glyph glyph-name="Emacron" unicode="&#x112;" horiz-adv-x="561" 
d="M390 322q8 0 13.5 -6t5.5 -13v-38q0 -7 -5.5 -13t-13.5 -6h-209v-170h291q8 0 13.5 -6t5.5 -13v-38q0 -7 -5.5 -13t-13.5 -6h-353q-7 0 -13 5.5t-6 13.5v530q0 8 6 13.5t13 5.5h353q8 0 13.5 -6t5.5 -13v-38q0 -7 -5.5 -13t-13.5 -6h-291v-170h209zM416 708q8 0 13.5 -6
t5.5 -13v-38q0 -7 -5.5 -13t-13.5 -6h-258q-8 0 -13.5 6t-5.5 13v38q0 7 5.5 13t13.5 6h258z" />
    <glyph glyph-name="Imacron" unicode="&#x12a;" horiz-adv-x="281" 
d="M100 549q0 8 6 13.5t13 5.5h43q7 0 13 -5.5t6 -13.5v-530q0 -8 -6 -13.5t-13 -5.5h-43q-7 0 -13 5.5t-6 13.5v530zM259 708q8 0 13.5 -6t5.5 -13v-38q0 -7 -5.5 -13t-13.5 -6h-237q-8 0 -13.5 6t-5.5 13v38q0 7 5.5 13t13.5 6h237z" />
    <glyph glyph-name="Itilde" unicode="&#x128;" horiz-adv-x="281" 
d="M181 19q0 -8 -6 -13.5t-13 -5.5h-43q-7 0 -13 5.5t-6 13.5v530q0 8 6 13.5t13 5.5h43q7 0 13 -5.5t6 -13.5v-530zM204 632q-20 0 -34.5 5.5t-28 11.5t-28.5 11.5t-35 5.5q-14 0 -27 -4.5t-24 -10.5q-4 -2 -8 -2q-13 0 -18 10l-15 27q-2 4 -2 8q0 13 9 18q41 30 85 30
q12 0 27.5 -5.5l32 -11.5t33.5 -11.5t33 -5.5q14 0 27 4.5t24 10.5q4 2 8 2q13 0 18 -10l15 -27q2 -4 2 -8q0 -5 -2 -10.5t-7 -7.5q-41 -30 -85 -30z" />
    <glyph glyph-name="uni0136" unicode="&#x136;" horiz-adv-x="604" 
d="M503 568q7 0 13.5 -5.5t6.5 -13.5l-123 -160l164 -370q0 -8 -6 -13.5t-13 -5.5h-46q-7 0 -12.5 5.5t-9.5 13.5l-134 298l-162 -204v-94q0 -8 -6 -13.5t-13 -5.5h-43q-7 0 -13 5.5t-6 13.5v530q0 8 6 13.5t13 5.5h43q7 0 13 -5.5t6 -13.5v-310l248 316q4 5 11 9t12 4h51z
M277 -99q0 19 12.5 32t31.5 13t31.5 -13t13.5 -32q0 -7 -2 -16t-7.5 -22t-15 -31.5t-24.5 -44.5q-3 -6 -10 -6q-2 0 -6 2l-21 7q-6 3 -6 10q0 2 0.5 3.5t0.5 2.5l19 61q-8 6 -12.5 15t-4.5 19z" />
    <glyph glyph-name="uni013B" unicode="&#x13b;" horiz-adv-x="523" 
d="M181 76h273q8 0 13.5 -6t5.5 -13v-38q0 -7 -5.5 -13t-13.5 -6h-335q-7 0 -13 5.5t-6 13.5v530q0 8 6 13.5t13 5.5h43q7 0 13 -5.5t6 -13.5v-473zM250 -99q0 19 12.5 32t31.5 13t31.5 -13t13.5 -32q0 -7 -2 -16t-7.5 -22t-15 -31.5t-24.5 -44.5q-3 -6 -10 -6q-2 0 -6 2
l-21 7q-6 3 -6 10q0 2 0.5 3.5t0.5 2.5l19 61q-8 6 -12.5 15t-4.5 19z" />
    <glyph glyph-name="Tbar" unicode="&#x166;" horiz-adv-x="513" 
d="M216 315v177h-152q-8 0 -13.5 6t-5.5 13v38q0 7 5.5 13t13.5 6h385q8 0 13.5 -6t5.5 -13v-38q0 -7 -5.5 -13t-13.5 -6h-152v-177h93q8 0 13.5 -6t5.5 -13v-38q0 -7 -5.5 -13t-13.5 -6h-93v-220q0 -8 -6 -13.5t-13 -5.5h-43q-7 0 -13 5.5t-6 13.5v220h-93q-8 0 -13.5 6
t-5.5 13v38q0 7 5.5 13t13.5 6h93z" />
    <glyph glyph-name="Umacron" unicode="&#x16a;" 
d="M317 -9q-128 0 -182.5 67.5t-54.5 208.5v282q0 8 6 13.5t13 5.5h43q7 0 13 -5.5t6 -13.5v-282q0 -48 5.5 -85t22.5 -62.5t47.5 -39t80.5 -13.5t80.5 13.5t47.5 39t22.5 62.5t5.5 85v282q0 8 6 13.5t13 5.5h43q7 0 13 -5.5t6 -13.5v-282q0 -141 -54.5 -208.5t-182.5 -67.5
zM447 708q8 0 13.5 -6t5.5 -13v-38q0 -7 -5.5 -13t-13.5 -6h-258q-8 0 -13.5 6t-5.5 13v38q0 7 5.5 13t13.5 6h258z" />
    <glyph glyph-name="Eng" unicode="&#x14a;" horiz-adv-x="644" 
d="M463 -1q-8 2 -13.5 9t-8.5 12l-260 412v-413q0 -8 -6 -13.5t-13 -5.5h-43q-7 0 -13 5.5t-6 13.5v530q0 8 6 13.5t13 5.5h51q12 0 18 -7t10 -13l265 -420v421q0 8 6 13.5t13 5.5h43q7 0 13 -5.5t6 -13.5v-563q0 -62 -10 -109t-34 -79t-62.5 -48.5t-95.5 -16.5
q-43 0 -80 9.5t-64.5 28t-45.5 45t-24 60.5q0 8 6 13.5t13 5.5h36q10 0 16 -5.5t10 -13.5q11 -20 23.5 -33t28.5 -20.5t35.5 -10.5t45.5 -3q39 0 63 14.5t36.5 40t17 60t4.5 75.5z" />
    <glyph glyph-name="emacron" unicode="&#x113;" horiz-adv-x="561" 
d="M390 322q8 0 13.5 -6t5.5 -13v-38q0 -7 -5.5 -13t-13.5 -6h-209v-170h291q8 0 13.5 -6t5.5 -13v-38q0 -7 -5.5 -13t-13.5 -6h-353q-7 0 -13 5.5t-6 13.5v530q0 8 6 13.5t13 5.5h353q8 0 13.5 -6t5.5 -13v-38q0 -7 -5.5 -13t-13.5 -6h-291v-170h209zM416 708q8 0 13.5 -6
t5.5 -13v-38q0 -7 -5.5 -13t-13.5 -6h-258q-8 0 -13.5 6t-5.5 13v38q0 7 5.5 13t13.5 6h258z" />
    <glyph glyph-name="imacron" unicode="&#x12b;" horiz-adv-x="281" 
d="M100 549q0 8 6 13.5t13 5.5h43q7 0 13 -5.5t6 -13.5v-530q0 -8 -6 -13.5t-13 -5.5h-43q-7 0 -13 5.5t-6 13.5v530zM259 708q8 0 13.5 -6t5.5 -13v-38q0 -7 -5.5 -13t-13.5 -6h-237q-8 0 -13.5 6t-5.5 13v38q0 7 5.5 13t13.5 6h237z" />
    <glyph glyph-name="eng" unicode="&#x14b;" horiz-adv-x="644" 
d="M463 -1q-8 2 -13.5 9t-8.5 12l-260 412v-413q0 -8 -6 -13.5t-13 -5.5h-43q-7 0 -13 5.5t-6 13.5v530q0 8 6 13.5t13 5.5h51q12 0 18 -7t10 -13l265 -420v421q0 8 6 13.5t13 5.5h43q7 0 13 -5.5t6 -13.5v-563q0 -62 -10 -109t-34 -79t-62.5 -48.5t-95.5 -16.5
q-43 0 -80 9.5t-64.5 28t-45.5 45t-24 60.5q0 8 6 13.5t13 5.5h36q10 0 16 -5.5t10 -13.5q11 -20 23.5 -33t28.5 -20.5t35.5 -10.5t45.5 -3q39 0 63 14.5t36.5 40t17 60t4.5 75.5z" />
    <glyph glyph-name="Edotaccent" unicode="&#x116;" horiz-adv-x="561" 
d="M390 322q8 0 13.5 -6t5.5 -13v-38q0 -7 -5.5 -13t-13.5 -6h-209v-170h291q8 0 13.5 -6t5.5 -13v-38q0 -7 -5.5 -13t-13.5 -6h-353q-7 0 -13 5.5t-6 13.5v530q0 8 6 13.5t13 5.5h353q8 0 13.5 -6t5.5 -13v-38q0 -7 -5.5 -13t-13.5 -6h-291v-170h209zM252 678
q0 19 13.5 32.5t32.5 13.5t32.5 -13.5t13.5 -32.5t-13.5 -32.5t-32.5 -13.5t-32.5 13.5t-13.5 32.5z" />
    <glyph glyph-name="edotaccent" unicode="&#x117;" horiz-adv-x="561" 
d="M390 322q8 0 13.5 -6t5.5 -13v-38q0 -7 -5.5 -13t-13.5 -6h-209v-170h291q8 0 13.5 -6t5.5 -13v-38q0 -7 -5.5 -13t-13.5 -6h-353q-7 0 -13 5.5t-6 13.5v530q0 8 6 13.5t13 5.5h353q8 0 13.5 -6t5.5 -13v-38q0 -7 -5.5 -13t-13.5 -6h-291v-170h209zM252 678
q0 19 13.5 32.5t32.5 13.5t32.5 -13.5t13.5 -32.5t-13.5 -32.5t-32.5 -13.5t-32.5 13.5t-13.5 32.5z" />
    <glyph glyph-name="Iogonek" unicode="&#x12e;" horiz-adv-x="281" 
d="M181 19q0 -8 -6 -13.5t-13 -5.5h-29q-11 0 -20.5 -11t-9.5 -26t9.5 -24t20.5 -9q9 0 14 2t14 7q1 1 4 1q5 0 7 -1q8 -7 12.5 -15.5t8.5 -19.5q0 -2 -1 -3.5t-2 -3.5q-17 -16 -31.5 -19.5t-30.5 -3.5q-15 0 -31.5 3.5t-30 13.5t-22 27.5t-8.5 44.5q0 42 20 63.5t44 27.5
v495q0 8 6 13.5t13 5.5h43q7 0 13 -5.5t6 -13.5v-530z" />
    <glyph glyph-name="uni0145" unicode="&#x145;" horiz-adv-x="644" 
d="M544 19q0 -8 -6 -13.5t-13 -5.5h-56q-12 0 -18 7t-10 13l-260 412v-413q0 -8 -6 -13.5t-13 -5.5h-43q-7 0 -13 5.5t-6 13.5v530q0 8 6 13.5t13 5.5h51q12 0 18 -7t10 -13l265 -420v421q0 8 6 13.5t13 5.5h43q7 0 13 -5.5t6 -13.5v-530zM286 -99q0 19 12.5 32t31.5 13
t31.5 -13t13.5 -32q0 -7 -2 -16t-7.5 -22t-15 -31.5t-24.5 -44.5q-3 -6 -10 -6q-2 0 -6 2l-21 7q-6 3 -6 10q0 2 0.5 3.5t0.5 2.5l19 61q-8 6 -12.5 15t-4.5 19z" />
    <glyph glyph-name="Omacron" unicode="&#x14c;" horiz-adv-x="630" 
d="M315 67q51 0 86 15.5t56.5 43.5t31.5 67.5t10 86.5q0 46 -10 86t-31.5 69.5t-56.5 46t-86 16.5t-86 -16.5t-56.5 -46t-31.5 -69.5t-10 -86q0 -47 10 -86.5t31.5 -67.5t56.5 -43.5t86 -15.5zM315 -9q-63 0 -112.5 21t-83 59.5t-51.5 91.5t-18 117t18 118t51.5 93t83 61
t112.5 22t112.5 -22t83 -61t51.5 -93t18 -118t-18 -117t-51.5 -91.5t-83 -59.5t-112.5 -21zM444 708q8 0 13.5 -6t5.5 -13v-38q0 -7 -5.5 -13t-13.5 -6h-258q-8 0 -13.5 6t-5.5 13v38q0 7 5.5 13t13.5 6h258z" />
    <glyph glyph-name="iogonek" unicode="&#x12f;" horiz-adv-x="281" 
d="M181 19q0 -8 -6 -13.5t-13 -5.5h-29q-11 0 -20.5 -11t-9.5 -26t9.5 -24t20.5 -9q9 0 14 2t14 7q1 1 4 1q5 0 7 -1q8 -7 12.5 -15.5t8.5 -19.5q0 -2 -1 -3.5t-2 -3.5q-17 -16 -31.5 -19.5t-30.5 -3.5q-15 0 -31.5 3.5t-30 13.5t-22 27.5t-8.5 44.5q0 42 20 63.5t44 27.5
v495q0 8 6 13.5t13 5.5h43q7 0 13 -5.5t6 -13.5v-530z" />
    <glyph glyph-name="uni0146" unicode="&#x146;" horiz-adv-x="644" 
d="M544 19q0 -8 -6 -13.5t-13 -5.5h-56q-12 0 -18 7t-10 13l-260 412v-413q0 -8 -6 -13.5t-13 -5.5h-43q-7 0 -13 5.5t-6 13.5v530q0 8 6 13.5t13 5.5h51q12 0 18 -7t10 -13l265 -420v421q0 8 6 13.5t13 5.5h43q7 0 13 -5.5t6 -13.5v-530zM286 -99q0 19 12.5 32t31.5 13
t31.5 -13t13.5 -32q0 -7 -2 -16t-7.5 -22t-15 -31.5t-24.5 -44.5q-3 -6 -10 -6q-2 0 -6 2l-21 7q-6 3 -6 10q0 2 0.5 3.5t0.5 2.5l19 61q-8 6 -12.5 15t-4.5 19z" />
    <glyph glyph-name="omacron" unicode="&#x14d;" horiz-adv-x="630" 
d="M315 67q51 0 86 15.5t56.5 43.5t31.5 67.5t10 86.5q0 46 -10 86t-31.5 69.5t-56.5 46t-86 16.5t-86 -16.5t-56.5 -46t-31.5 -69.5t-10 -86q0 -47 10 -86.5t31.5 -67.5t56.5 -43.5t86 -15.5zM315 -9q-63 0 -112.5 21t-83 59.5t-51.5 91.5t-18 117t18 118t51.5 93t83 61
t112.5 22t112.5 -22t83 -61t51.5 -93t18 -118t-18 -117t-51.5 -91.5t-83 -59.5t-112.5 -21zM446 708q8 0 13.5 -6t5.5 -13v-38q0 -7 -5.5 -13t-13.5 -6h-258q-8 0 -13.5 6t-5.5 13v38q0 7 5.5 13t13.5 6h258z" />
    <glyph glyph-name="Utilde" unicode="&#x168;" 
d="M317 -9q-128 0 -182.5 67.5t-54.5 208.5v282q0 8 6 13.5t13 5.5h43q7 0 13 -5.5t6 -13.5v-282q0 -48 5.5 -85t22.5 -62.5t47.5 -39t80.5 -13.5t80.5 13.5t47.5 39t22.5 62.5t5.5 85v282q0 8 6 13.5t13 5.5h43q7 0 13 -5.5t6 -13.5v-282q0 -141 -54.5 -208.5t-182.5 -67.5
zM381 632q-20 0 -34.5 5.5t-28 11.5t-28.5 11.5t-35 5.5q-14 0 -27 -4.5t-24 -10.5q-4 -2 -8 -2q-13 0 -18 10l-15 27q-2 4 -2 8q0 13 9 18q41 30 85 30q12 0 27.5 -5.5l32 -11.5t33.5 -11.5t33 -5.5q14 0 27 4.5t24 10.5q4 2 8 2q13 0 18 -10l15 -27q2 -4 2 -8
q0 -5 -2 -10.5t-7 -7.5q-41 -30 -85 -30z" />
    <glyph glyph-name="Uogonek" unicode="&#x172;" 
d="M554 267q0 -128 -44 -195t-147 -78q-8 -12 -13.5 -31t-5.5 -36q0 -15 8 -25t19 -10q9 0 16 2t18 10q1 1 4 1q5 0 7 -1q8 -7 12.5 -15.5t8.5 -19.5q0 -2 -1 -3.5t-2 -3.5q-17 -16 -34.5 -21t-33.5 -5q-15 0 -31 4t-28.5 14t-20.5 28t-8 45q0 14 6.5 34t11.5 31
q-117 5 -166.5 72.5t-49.5 202.5v282q0 8 6 13.5t13 5.5h43q7 0 13 -5.5t6 -13.5v-282q0 -48 5.5 -85t22.5 -62.5t47.5 -39t80.5 -13.5t80.5 13.5t47.5 39t22.5 62.5t5.5 85v282q0 8 6 13.5t13 5.5h43q7 0 13 -5.5t6 -13.5v-282v0z" />
    <glyph glyph-name="amacron" unicode="&#x101;" horiz-adv-x="576" 
d="M330 568q7 0 12.5 -6t7.5 -14l181 -529q0 -8 -6 -13.5t-13 -5.5h-41q-7 0 -13 5.5t-8 13.5l-34 96h-256l-34 -96q-2 -8 -8 -13.5t-13 -5.5h-41q-7 0 -13 5.5t-6 13.5l181 529q2 8 7.5 14t12.5 6h84zM288 499l-101 -308h202zM417 708q8 0 13.5 -6t5.5 -13v-38
q0 -7 -5.5 -13t-13.5 -6h-258q-8 0 -13.5 6t-5.5 13v38q0 7 5.5 13t13.5 6h258z" />
    <glyph glyph-name="uogonek" unicode="&#x173;" 
d="M554 267q0 -128 -44 -195t-147 -78q-8 -12 -13.5 -31t-5.5 -36q0 -15 8 -25t19 -10q9 0 16 2t18 10q1 1 4 1q5 0 7 -1q8 -7 12.5 -15.5t8.5 -19.5q0 -2 -1 -3.5t-2 -3.5q-17 -16 -34.5 -21t-33.5 -5q-15 0 -31 4t-28.5 14t-20.5 28t-8 45q0 14 6.5 34t11.5 31
q-117 5 -166.5 72.5t-49.5 202.5v282q0 8 6 13.5t13 5.5h43q7 0 13 -5.5t6 -13.5v-282q0 -48 5.5 -85t22.5 -62.5t47.5 -39t80.5 -13.5t80.5 13.5t47.5 39t22.5 62.5t5.5 85v282q0 8 6 13.5t13 5.5h43q7 0 13 -5.5t6 -13.5v-282v0z" />
    <glyph glyph-name="utilde" unicode="&#x169;" 
d="M317 -9q-128 0 -182.5 67.5t-54.5 208.5v282q0 8 6 13.5t13 5.5h43q7 0 13 -5.5t6 -13.5v-282q0 -48 5.5 -85t22.5 -62.5t47.5 -39t80.5 -13.5t80.5 13.5t47.5 39t22.5 62.5t5.5 85v282q0 8 6 13.5t13 5.5h43q7 0 13 -5.5t6 -13.5v-282q0 -141 -54.5 -208.5t-182.5 -67.5
zM381 632q-20 0 -34.5 5.5t-28 11.5t-28.5 11.5t-35 5.5q-14 0 -27 -4.5t-24 -10.5q-4 -2 -8 -2q-13 0 -18 10l-15 27q-2 4 -2 8q0 13 9 18q41 30 85 30q12 0 27.5 -5.5l32 -11.5t33.5 -11.5t33 -5.5q14 0 27 4.5t24 10.5q4 2 8 2q13 0 18 -10l15 -27q2 -4 2 -8
q0 -5 -2 -10.5t-7 -7.5q-41 -30 -85 -30z" />
    <glyph glyph-name="kgreenlandic" unicode="&#x138;" horiz-adv-x="604" 
d="M503 568q7 0 13.5 -5.5t6.5 -13.5l-123 -160l164 -370q0 -8 -6 -13.5t-13 -5.5h-46q-7 0 -12.5 5.5t-9.5 13.5l-134 298l-162 -204v-94q0 -8 -6 -13.5t-13 -5.5h-43q-7 0 -13 5.5t-6 13.5v530q0 8 6 13.5t13 5.5h43q7 0 13 -5.5t6 -13.5v-310l248 316q4 5 11 9t12 4h51z
" />
    <glyph glyph-name="uni03A9" unicode="&#x3a9;" horiz-adv-x="932" 
d="M466 498q-50 0 -84.5 -15.5t-56.5 -43.5t-31.5 -67t-9.5 -87v-266q0 -8 -6 -13.5t-13 -5.5h-146q-8 0 -13.5 6t-5.5 13v38q0 7 5.5 13t13.5 6h84v227q0 63 17.5 113.5t51.5 85.5t82.5 53.5t111.5 18.5t111.5 -18.5t82.5 -53.5t51.5 -85.5t17.5 -113.5v-227h84
q8 0 13.5 -6t5.5 -13v-38q0 -7 -5.5 -13t-13.5 -6h-146q-7 0 -13 5.5t-6 13.5v266q0 48 -9.5 87t-31.5 67t-56.5 43.5t-84.5 15.5z" />
    <glyph glyph-name="uni0219" unicode="&#x219;" horiz-adv-x="558" 
d="M490 456q0 -8 -4 -17t-11 -9h-49q-3 0 -10 3.5t-15 17.5q-8 16 -22.5 25.5t-32.5 14t-39.5 6t-44.5 1.5q-59 0 -90 -20t-31 -54q0 -27 27 -44.5t68 -31.5t88.5 -27.5t88.5 -33.5t68 -49t27 -74q0 -49 -16.5 -82t-46 -53t-70 -28.5t-87.5 -8.5q-42 0 -78.5 8.5t-65 24
t-48.5 38.5t-29 52q0 8 3.5 17t14.5 9h44q11 0 16.5 -5.5t10.5 -15.5q7 -15 21.5 -25t32.5 -16t38.5 -8.5t39.5 -2.5q24 0 49 2t45 11t32.5 26.5t12.5 47.5q0 31 -27 50t-68 33t-88.5 27t-88.5 32.5t-68 48.5t-27 75q0 71 54 112t147 41q42 0 80 -7.5t68.5 -22.5t51.5 -37
t29 -51zM252 -99q0 19 12.5 32t31.5 13t31.5 -13t13.5 -32q0 -7 -2 -16t-7.5 -22t-15 -31.5t-24.5 -44.5q-3 -6 -10 -6q-2 0 -6 2l-21 7q-6 3 -6 10q0 2 0.5 3.5t0.5 2.5l19 61q-8 6 -12.5 15t-4.5 19z" />
    <glyph glyph-name="uni021A" unicode="&#x21a;" horiz-adv-x="513" 
d="M297 19q0 -8 -6 -13.5t-13 -5.5h-43q-7 0 -13 5.5t-6 13.5v473h-152q-8 0 -13.5 6t-5.5 13v38q0 7 5.5 13t13.5 6h385q8 0 13.5 -6t5.5 -13v-38q0 -7 -5.5 -13t-13.5 -6h-152v-473zM213 -99q0 19 12.5 32t31.5 13t31.5 -13t13.5 -32q0 -7 -2 -16t-7.5 -22t-15 -31.5
t-24.5 -44.5q-3 -6 -10 -6q-2 0 -6 2l-21 7q-6 3 -6 10q0 2 0.5 3.5t0.5 2.5l19 61q-8 6 -12.5 15t-4.5 19z" />
    <glyph glyph-name="uni021B" unicode="&#x21b;" horiz-adv-x="513" 
d="M297 19q0 -8 -6 -13.5t-13 -5.5h-43q-7 0 -13 5.5t-6 13.5v473h-152q-8 0 -13.5 6t-5.5 13v38q0 7 5.5 13t13.5 6h385q8 0 13.5 -6t5.5 -13v-38q0 -7 -5.5 -13t-13.5 -6h-152v-473zM213 -99q0 19 12.5 32t31.5 13t31.5 -13t13.5 -32q0 -7 -2 -16t-7.5 -22t-15 -31.5
t-24.5 -44.5q-3 -6 -10 -6q-2 0 -6 2l-21 7q-6 3 -6 10q0 2 0.5 3.5t0.5 2.5l19 61q-8 6 -12.5 15t-4.5 19z" />
    <glyph glyph-name="uni0218" unicode="&#x218;" horiz-adv-x="558" 
d="M490 456q0 -8 -4 -17t-11 -9h-49q-3 0 -10 3.5t-15 17.5q-8 16 -22.5 25.5t-32.5 14t-39.5 6t-44.5 1.5q-59 0 -90 -20t-31 -54q0 -27 27 -44.5t68 -31.5t88.5 -27.5t88.5 -33.5t68 -49t27 -74q0 -49 -16.5 -82t-46 -53t-70 -28.5t-87.5 -8.5q-42 0 -78.5 8.5t-65 24
t-48.5 38.5t-29 52q0 8 3.5 17t14.5 9h44q11 0 16.5 -5.5t10.5 -15.5q7 -15 21.5 -25t32.5 -16t38.5 -8.5t39.5 -2.5q24 0 49 2t45 11t32.5 26.5t12.5 47.5q0 31 -27 50t-68 33t-88.5 27t-88.5 32.5t-68 48.5t-27 75q0 71 54 112t147 41q42 0 80 -7.5t68.5 -22.5t51.5 -37
t29 -51zM252 -99q0 19 12.5 32t31.5 13t31.5 -13t13.5 -32q0 -7 -2 -16t-7.5 -22t-15 -31.5t-24.5 -44.5q-3 -6 -10 -6q-2 0 -6 2l-21 7q-6 3 -6 10q0 2 0.5 3.5t0.5 2.5l19 61q-8 6 -12.5 15t-4.5 19z" />
    <glyph glyph-name="uni0156" unicode="&#x156;" horiz-adv-x="577" 
d="M343 155q-24 -3 -52 -3h-110v-133q0 -8 -6 -13.5t-13 -5.5h-43q-7 0 -13 5.5t-6 13.5v530q0 8 6 13.5t13 5.5h167q62 0 107.5 -15t75 -41.5t44 -63.5t14.5 -82v-9q0 -68 -27 -115t-85 -70l73 -153q0 -8 -6 -13.5t-13 -5.5h-41q-7 0 -12.5 6t-8.5 13zM181 492v-264h105
q53 0 84.5 10.5t48.5 28t22 41t5 49.5v9q0 26 -5 49t-22 40t-48.5 27t-84.5 10h-105zM252 -99q0 19 12.5 32t31.5 13t31.5 -13t13.5 -32q0 -7 -2 -16t-7.5 -22t-15 -31.5t-24.5 -44.5q-3 -6 -10 -6q-2 0 -6 2l-21 7q-6 3 -6 10q0 2 0.5 3.5t0.5 2.5l19 61q-8 6 -12.5 15
t-4.5 19z" />
    <glyph glyph-name="uni0157" unicode="&#x157;" horiz-adv-x="577" 
d="M343 155q-24 -3 -52 -3h-110v-133q0 -8 -6 -13.5t-13 -5.5h-43q-7 0 -13 5.5t-6 13.5v530q0 8 6 13.5t13 5.5h167q62 0 107.5 -15t75 -41.5t44 -63.5t14.5 -82v-9q0 -68 -27 -115t-85 -70l73 -153q0 -8 -6 -13.5t-13 -5.5h-41q-7 0 -12.5 6t-8.5 13zM181 492v-264h105
q53 0 84.5 10.5t48.5 28t22 41t5 49.5v9q0 26 -5 49t-22 40t-48.5 27t-84.5 10h-105zM252 -99q0 19 12.5 32t31.5 13t31.5 -13t13.5 -32q0 -7 -2 -16t-7.5 -22t-15 -31.5t-24.5 -44.5q-3 -6 -10 -6q-2 0 -6 2l-21 7q-6 3 -6 10q0 2 0.5 3.5t0.5 2.5l19 61q-8 6 -12.5 15
t-4.5 19z" />
    <glyph glyph-name="gbreve" unicode="&#x11f;" horiz-adv-x="619" 
d="M476 45q-33 -26 -76.5 -40t-89.5 -14q-63 0 -113 21t-85 59.5t-53.5 91.5t-18.5 117t18.5 118t53.5 93t85 61t113 22q73 0 132 -24.5t93 -73.5q2 -3 2 -9q0 -12 -8 -17l-27 -21q-3 -2 -9 -2q-9 0 -17 8q-32 38 -75.5 50.5t-88.5 12.5q-50 0 -86 -17t-59.5 -46t-35 -69
t-11.5 -86q0 -47 11 -86.5t34 -67.5t59 -43.5t86 -15.5q20 0 43.5 5.5t46 15t41 23t28.5 29.5v83h-70q-8 0 -13.5 6t-5.5 13v38q0 7 5.5 13t13.5 6h131q7 0 13 -5.5t6 -13.5v-261q0 -8 -6 -13.5t-13 -5.5h-25q-7 0 -11.5 6t-7.5 13zM305 632q-42 0 -70 11t-45 29t-24 41
t-7 48q0 7 5.5 12t11.5 5h37q6 0 11.5 -5t5.5 -12q1 -16 4 -29t10.5 -22t22 -14t37.5 -5t37.5 5t22 14t10.5 22t4 29q0 7 5.5 12t11.5 5h37q6 0 11.5 -5t5.5 -12q0 -25 -7 -48t-24 -41t-44.5 -29t-68.5 -11z" />
    <glyph glyph-name="Idotaccent" unicode="&#x130;" horiz-adv-x="281" 
d="M100 549q0 8 6 13.5t13 5.5h43q7 0 13 -5.5t6 -13.5v-539q0 -8 -6 -13.5t-13 -5.5h-43q-7 0 -13 5.5t-6 13.5v539zM95 678q0 19 13.5 32.5t32.5 13.5t32.5 -13.5t13.5 -32.5t-13.5 -32.5t-32.5 -13.5t-32.5 13.5t-13.5 32.5z" />
    <glyph glyph-name="Gbreve" unicode="&#x11e;" horiz-adv-x="619" 
d="M476 45q-33 -26 -76.5 -40t-89.5 -14q-63 0 -113 21t-85 59.5t-53.5 91.5t-18.5 117t18.5 118t53.5 93t85 61t113 22q73 0 132 -24.5t93 -73.5q2 -3 2 -9q0 -12 -8 -17l-27 -21q-3 -2 -9 -2q-9 0 -17 8q-32 38 -75.5 50.5t-88.5 12.5q-50 0 -86 -17t-59.5 -46t-35 -69
t-11.5 -86q0 -47 11 -86.5t34 -67.5t59 -43.5t86 -15.5q20 0 43.5 5.5t46 15t41 23t28.5 29.5v83h-70q-8 0 -13.5 6t-5.5 13v38q0 7 5.5 13t13.5 6h131q7 0 13 -5.5t6 -13.5v-261q0 -8 -6 -13.5t-13 -5.5h-25q-7 0 -11.5 6t-7.5 13zM305 632q-42 0 -70 11t-45 29t-24 41
t-7 48q0 7 5.5 12t11.5 5h37q6 0 11.5 -5t5.5 -12q1 -16 4 -29t10.5 -22t22 -14t37.5 -5t37.5 5t22 14t10.5 22t4 29q0 7 5.5 12t11.5 5h37q6 0 11.5 -5t5.5 -12q0 -25 -7 -48t-24 -41t-44.5 -29t-68.5 -11z" />
    <glyph glyph-name="Numero" unicode="&#x2116;" horiz-adv-x="1203" 
d="M544 19q0 -8 -6 -13.5t-13 -5.5h-56q-12 0 -18 7t-10 13l-260 412v-413q0 -8 -6 -13.5t-13 -5.5h-43q-7 0 -13 5.5t-6 13.5v530q0 8 6 13.5t13 5.5h51q12 0 18 -7t10 -13l265 -420v421q0 8 6 13.5t13 5.5h43q7 0 13 -5.5t6 -13.5v-530zM905 270q35 0 58 8.5t36 23.5
t18 36t5 46t-5 46t-18 36t-36 23.5t-58 8.5t-58 -8.5t-36 -23.5t-18 -36t-5 -46t5 -46t18 -36t36 -23.5t58 -8.5zM905 194q-60 0 -98.5 16t-60.5 42.5t-30.5 61t-8.5 70.5t8.5 70.5t30.5 61t60.5 42.5t98.5 16t98.5 -16t60.5 -42.5t30.5 -61t8.5 -70.5t-8.5 -70.5t-30.5 -61
t-60.5 -42.5t-98.5 -16zM1084 117q8 0 13.5 -6t5.5 -13v-38q0 -7 -5.5 -13t-13.5 -6h-358q-8 0 -13.5 6t-5.5 13v38q0 7 5.5 13t13.5 6h358z" />
    <glyph glyph-name="Cdotaccent" unicode="&#x10a;" horiz-adv-x="577" 
d="M535 94q-34 -51 -92 -77t-133 -26q-63 0 -113 21t-85 59.5t-53.5 91.5t-18.5 117t18.5 118t53.5 93t85 61t113 22q73 0 132 -24.5t93 -73.5q2 -3 2 -9q0 -12 -8 -17l-27 -21q-3 -2 -9 -2q-9 0 -17 8q-32 38 -75.5 50.5t-88.5 12.5q-50 0 -86 -17t-59.5 -46t-35 -69
t-11.5 -86q0 -47 11 -86.5t34 -67.5t59 -43.5t86 -15.5q45 0 89 14.5t76 53.5q8 8 18 8q6 0 9 -2l27 -20q8 -5 8 -17q0 -7 -2 -10zM262 678q0 19 13.5 32.5t32.5 13.5t32.5 -13.5t13.5 -32.5t-13.5 -32.5t-32.5 -13.5t-32.5 13.5t-13.5 32.5z" />
    <glyph glyph-name="ccircumflex" unicode="&#x109;" horiz-adv-x="577" 
d="M535 94q-34 -51 -92 -77t-133 -26q-63 0 -113 21t-85 59.5t-53.5 91.5t-18.5 117t18.5 118t53.5 93t85 61t113 22q73 0 132 -24.5t93 -73.5q2 -3 2 -9q0 -12 -8 -17l-27 -21q-3 -2 -9 -2q-9 0 -17 8q-32 38 -75.5 50.5t-88.5 12.5q-50 0 -86 -17t-59.5 -46t-35 -69
t-11.5 -86q0 -47 11 -86.5t34 -67.5t59 -43.5t86 -15.5q45 0 89 14.5t76 53.5q8 8 18 8q6 0 9 -2l27 -20q8 -5 8 -17q0 -7 -2 -10zM355 809q6 0 13.5 -5t9.5 -10l69 -144q0 -7 -4.5 -12.5t-12.5 -5.5h-41q-8 0 -15.5 6t-9.5 12l-47 109l-48 -109q-2 -6 -9.5 -12t-15.5 -6
h-40q-8 0 -12.5 5.5t-4.5 12.5l69 144q2 5 9.5 10t13.5 5h76z" />
    <glyph glyph-name="cdotaccent" unicode="&#x10b;" horiz-adv-x="577" 
d="M535 94q-34 -51 -92 -77t-133 -26q-63 0 -113 21t-85 59.5t-53.5 91.5t-18.5 117t18.5 118t53.5 93t85 61t113 22q73 0 132 -24.5t93 -73.5q2 -3 2 -9q0 -12 -8 -17l-27 -21q-3 -2 -9 -2q-9 0 -17 8q-32 38 -75.5 50.5t-88.5 12.5q-50 0 -86 -17t-59.5 -46t-35 -69
t-11.5 -86q0 -47 11 -86.5t34 -67.5t59 -43.5t86 -15.5q45 0 89 14.5t76 53.5q8 8 18 8q6 0 9 -2l27 -20q8 -5 8 -17q0 -7 -2 -10zM262 678q0 19 13.5 32.5t32.5 13.5t32.5 -13.5t13.5 -32.5t-13.5 -32.5t-32.5 -13.5t-32.5 13.5t-13.5 32.5z" />
    <glyph glyph-name="Hcircumflex" unicode="&#x124;" horiz-adv-x="633" 
d="M181 228v-209q0 -8 -6 -13.5t-13 -5.5h-43q-7 0 -13 5.5t-6 13.5v530q0 8 6 13.5t13 5.5h43q7 0 13 -5.5t6 -13.5v-245h271v245q0 8 6 13.5t13 5.5h43q7 0 13 -5.5t6 -13.5v-530q0 -8 -6 -13.5t-13 -5.5h-43q-7 0 -13 5.5t-6 13.5v209h-271zM354 809q6 0 13.5 -5t9.5 -10
l69 -144q0 -7 -4.5 -12.5t-12.5 -5.5h-41q-8 0 -15.5 6t-9.5 12l-47 109l-48 -109q-2 -6 -9.5 -12t-15.5 -6h-40q-8 0 -12.5 5.5t-4.5 12.5l69 144q2 5 9.5 10t13.5 5h76z" />
    <glyph glyph-name="hbar" unicode="&#x127;" horiz-adv-x="677" 
d="M122 496v53q0 8 6 13.5t13 5.5h43q7 0 13 -5.5t6 -13.5v-53h271v53q0 8 6 13.5t13 5.5h43q7 0 13 -5.5t6 -13.5v-53h48q8 0 13.5 -6t5.5 -13v-38q0 -7 -5.5 -13t-13.5 -6h-48v-401q0 -8 -6 -13.5t-13 -5.5h-43q-7 0 -13 5.5t-6 13.5v209h-271v-209q0 -8 -6 -13.5
t-13 -5.5h-43q-7 0 -13 5.5t-6 13.5v401h-48q-8 0 -13.5 6t-5.5 13v38q0 7 5.5 13t13.5 6h48zM474 304v116h-271v-116h271z" />
    <glyph glyph-name="hcircumflex" unicode="&#x125;" horiz-adv-x="633" 
d="M181 228v-209q0 -8 -6 -13.5t-13 -5.5h-43q-7 0 -13 5.5t-6 13.5v530q0 8 6 13.5t13 5.5h43q7 0 13 -5.5t6 -13.5v-245h271v245q0 8 6 13.5t13 5.5h43q7 0 13 -5.5t6 -13.5v-530q0 -8 -6 -13.5t-13 -5.5h-43q-7 0 -13 5.5t-6 13.5v209h-271zM354 809q6 0 13.5 -5t9.5 -10
l69 -144q0 -7 -4.5 -12.5t-12.5 -5.5h-41q-8 0 -15.5 6t-9.5 12l-47 109l-48 -109q-2 -6 -9.5 -12t-15.5 -6h-40q-8 0 -12.5 5.5t-4.5 12.5l69 144q2 5 9.5 10t13.5 5h76z" />
    <glyph glyph-name="jcircumflex" unicode="&#x135;" horiz-adv-x="559" 
d="M121 130q11 -20 23.5 -33t28.5 -20.5t35.5 -10.5t45.5 -3q50 0 79 17.5t43.5 48t18 71.5t3.5 88v204h-148q-8 0 -13.5 6t-5.5 13v38q0 7 5.5 13t13.5 6h210q8 0 13.5 -6t5.5 -13v-292q0 -64 -12 -114t-39 -84.5t-70 -53t-104 -18.5q-43 0 -80 9.5t-64.5 28t-45.5 45
t-24 60.5q0 8 6 13.5t13 5.5h36q10 0 16 -5.5t10 -13.5zM385 809q6 0 13.5 -5t9.5 -10l69 -144q0 -7 -4.5 -12.5t-12.5 -5.5h-41q-8 0 -15.5 6t-9.5 12l-47 109l-48 -109q-2 -6 -9.5 -12t-15.5 -6h-40q-8 0 -12.5 5.5t-4.5 12.5l69 144q2 5 9.5 10t13.5 5h76z" />
    <glyph glyph-name="Scircumflex" unicode="&#x15c;" horiz-adv-x="558" 
d="M490 456q0 -8 -4 -17t-11 -9h-49q-3 0 -10 3.5t-15 17.5q-8 16 -22.5 25.5t-32.5 14t-39.5 6t-44.5 1.5q-59 0 -90 -20t-31 -54q0 -27 27 -44.5t68 -31.5t88.5 -27.5t88.5 -33.5t68 -49t27 -74q0 -49 -16.5 -82t-46 -53t-70 -28.5t-87.5 -8.5q-42 0 -78.5 8.5t-65 24
t-48.5 38.5t-29 52q0 8 3.5 17t14.5 9h44q11 0 16.5 -5.5t10.5 -15.5q7 -15 21.5 -25t32.5 -16t38.5 -8.5t39.5 -2.5q24 0 49 2t45 11t32.5 26.5t12.5 47.5q0 31 -27 50t-68 33t-88.5 27t-88.5 32.5t-68 48.5t-27 75q0 71 54 112t147 41q42 0 80 -7.5t68.5 -22.5t51.5 -37
t29 -51zM314 809q6 0 13.5 -5t9.5 -10l69 -144q0 -7 -4.5 -12.5t-12.5 -5.5h-41q-8 0 -15.5 6t-9.5 12l-47 109l-48 -109q-2 -6 -9.5 -12t-15.5 -6h-40q-8 0 -12.5 5.5t-4.5 12.5l69 144q2 5 9.5 10t13.5 5h76z" />
    <glyph glyph-name="Ubreve" unicode="&#x16c;" 
d="M317 -9q-128 0 -182.5 67.5t-54.5 208.5v282q0 8 6 13.5t13 5.5h43q7 0 13 -5.5t6 -13.5v-282q0 -48 5.5 -85t22.5 -62.5t47.5 -39t80.5 -13.5t80.5 13.5t47.5 39t22.5 62.5t5.5 85v282q0 8 6 13.5t13 5.5h43q7 0 13 -5.5t6 -13.5v-282q0 -141 -54.5 -208.5t-182.5 -67.5
zM318 632q-42 0 -70 11t-45 29t-24 41t-7 48q0 7 5.5 12t11.5 5h37q6 0 11.5 -5t5.5 -12q1 -16 4 -29t10.5 -22t22 -14t37.5 -5t37.5 5t22 14t10.5 22t4 29q0 7 5.5 12t11.5 5h37q6 0 11.5 -5t5.5 -12q0 -25 -7 -48t-24 -41t-44.5 -29t-68.5 -11z" />
    <glyph glyph-name="Gcircumflex" unicode="&#x11c;" horiz-adv-x="619" 
d="M476 45q-33 -26 -76.5 -40t-89.5 -14q-63 0 -113 21t-85 59.5t-53.5 91.5t-18.5 117t18.5 118t53.5 93t85 61t113 22q73 0 132 -24.5t93 -73.5q2 -3 2 -9q0 -12 -8 -17l-27 -21q-3 -2 -9 -2q-9 0 -17 8q-32 38 -75.5 50.5t-88.5 12.5q-50 0 -86 -17t-59.5 -46t-35 -69
t-11.5 -86q0 -47 11 -86.5t34 -67.5t59 -43.5t86 -15.5q20 0 43.5 5.5t46 15t41 23t28.5 29.5v83h-70q-8 0 -13.5 6t-5.5 13v38q0 7 5.5 13t13.5 6h131q7 0 13 -5.5t6 -13.5v-261q0 -8 -6 -13.5t-13 -5.5h-25q-7 0 -11.5 6t-7.5 13zM348 809q6 0 13.5 -5t9.5 -10l69 -144
q0 -7 -4.5 -12.5t-12.5 -5.5h-41q-8 0 -15.5 6t-9.5 12l-47 109l-48 -109q-2 -6 -9.5 -12t-15.5 -6h-40q-8 0 -12.5 5.5t-4.5 12.5l69 144q2 5 9.5 10t13.5 5h76z" />
    <glyph glyph-name="Gdotaccent" unicode="&#x120;" horiz-adv-x="619" 
d="M476 45q-33 -26 -76.5 -40t-89.5 -14q-63 0 -113 21t-85 59.5t-53.5 91.5t-18.5 117t18.5 118t53.5 93t85 61t113 22q73 0 132 -24.5t93 -73.5q2 -3 2 -9q0 -12 -8 -17l-27 -21q-3 -2 -9 -2q-9 0 -17 8q-32 38 -75.5 50.5t-88.5 12.5q-50 0 -86 -17t-59.5 -46t-35 -69
t-11.5 -86q0 -47 11 -86.5t34 -67.5t59 -43.5t86 -15.5q20 0 43.5 5.5t46 15t41 23t28.5 29.5v83h-70q-8 0 -13.5 6t-5.5 13v38q0 7 5.5 13t13.5 6h131q7 0 13 -5.5t6 -13.5v-261q0 -8 -6 -13.5t-13 -5.5h-25q-7 0 -11.5 6t-7.5 13zM265 678q0 19 13.5 32.5t32.5 13.5
t32.5 -13.5t13.5 -32.5t-13.5 -32.5t-32.5 -13.5t-32.5 13.5t-13.5 32.5z" />
    <glyph glyph-name="Jcircumflex" unicode="&#x134;" horiz-adv-x="559" 
d="M121 130q11 -20 23.5 -33t28.5 -20.5t35.5 -10.5t45.5 -3q50 0 79 17.5t43.5 48t18 71.5t3.5 88v204h-148q-8 0 -13.5 6t-5.5 13v38q0 7 5.5 13t13.5 6h210q8 0 13.5 -6t5.5 -13v-292q0 -64 -12 -114t-39 -84.5t-70 -53t-104 -18.5q-43 0 -80 9.5t-64.5 28t-45.5 45
t-24 60.5q0 8 6 13.5t13 5.5h36q10 0 16 -5.5t10 -13.5zM385 809q6 0 13.5 -5t9.5 -10l69 -144q0 -7 -4.5 -12.5t-12.5 -5.5h-41q-8 0 -15.5 6t-9.5 12l-47 109l-48 -109q-2 -6 -9.5 -12t-15.5 -6h-40q-8 0 -12.5 5.5t-4.5 12.5l69 144q2 5 9.5 10t13.5 5h76z" />
    <glyph glyph-name="Ccircumflex" unicode="&#x108;" horiz-adv-x="577" 
d="M535 94q-34 -51 -92 -77t-133 -26q-63 0 -113 21t-85 59.5t-53.5 91.5t-18.5 117t18.5 118t53.5 93t85 61t113 22q73 0 132 -24.5t93 -73.5q2 -3 2 -9q0 -12 -8 -17l-27 -21q-3 -2 -9 -2q-9 0 -17 8q-32 38 -75.5 50.5t-88.5 12.5q-50 0 -86 -17t-59.5 -46t-35 -69
t-11.5 -86q0 -47 11 -86.5t34 -67.5t59 -43.5t86 -15.5q45 0 89 14.5t76 53.5q8 8 18 8q6 0 9 -2l27 -20q8 -5 8 -17q0 -7 -2 -10zM355 809q6 0 13.5 -5t9.5 -10l69 -144q0 -7 -4.5 -12.5t-12.5 -5.5h-41q-8 0 -15.5 6t-9.5 12l-47 109l-48 -109q-2 -6 -9.5 -12t-15.5 -6
h-40q-8 0 -12.5 5.5t-4.5 12.5l69 144q2 5 9.5 10t13.5 5h76z" />
    <glyph glyph-name="gdotaccent" unicode="&#x121;" horiz-adv-x="619" 
d="M476 45q-33 -26 -76.5 -40t-89.5 -14q-63 0 -113 21t-85 59.5t-53.5 91.5t-18.5 117t18.5 118t53.5 93t85 61t113 22q73 0 132 -24.5t93 -73.5q2 -3 2 -9q0 -12 -8 -17l-27 -21q-3 -2 -9 -2q-9 0 -17 8q-32 38 -75.5 50.5t-88.5 12.5q-50 0 -86 -17t-59.5 -46t-35 -69
t-11.5 -86q0 -47 11 -86.5t34 -67.5t59 -43.5t86 -15.5q20 0 43.5 5.5t46 15t41 23t28.5 29.5v83h-70q-8 0 -13.5 6t-5.5 13v38q0 7 5.5 13t13.5 6h131q7 0 13 -5.5t6 -13.5v-261q0 -8 -6 -13.5t-13 -5.5h-25q-7 0 -11.5 6t-7.5 13zM265 678q0 19 13.5 32.5t32.5 13.5
t32.5 -13.5t13.5 -32.5t-13.5 -32.5t-32.5 -13.5t-32.5 13.5t-13.5 32.5z" />
    <glyph glyph-name="gcircumflex" unicode="&#x11d;" horiz-adv-x="619" 
d="M476 45q-33 -26 -76.5 -40t-89.5 -14q-63 0 -113 21t-85 59.5t-53.5 91.5t-18.5 117t18.5 118t53.5 93t85 61t113 22q73 0 132 -24.5t93 -73.5q2 -3 2 -9q0 -12 -8 -17l-27 -21q-3 -2 -9 -2q-9 0 -17 8q-32 38 -75.5 50.5t-88.5 12.5q-50 0 -86 -17t-59.5 -46t-35 -69
t-11.5 -86q0 -47 11 -86.5t34 -67.5t59 -43.5t86 -15.5q20 0 43.5 5.5t46 15t41 23t28.5 29.5v83h-70q-8 0 -13.5 6t-5.5 13v38q0 7 5.5 13t13.5 6h131q7 0 13 -5.5t6 -13.5v-261q0 -8 -6 -13.5t-13 -5.5h-25q-7 0 -11.5 6t-7.5 13zM348 809q6 0 13.5 -5t9.5 -10l69 -144
q0 -7 -4.5 -12.5t-12.5 -5.5h-41q-8 0 -15.5 6t-9.5 12l-47 109l-48 -109q-2 -6 -9.5 -12t-15.5 -6h-40q-8 0 -12.5 5.5t-4.5 12.5l69 144q2 5 9.5 10t13.5 5h76z" />
    <glyph glyph-name="ubreve" unicode="&#x16d;" 
d="M317 -9q-128 0 -182.5 67.5t-54.5 208.5v282q0 8 6 13.5t13 5.5h43q7 0 13 -5.5t6 -13.5v-282q0 -48 5.5 -85t22.5 -62.5t47.5 -39t80.5 -13.5t80.5 13.5t47.5 39t22.5 62.5t5.5 85v282q0 8 6 13.5t13 5.5h43q7 0 13 -5.5t6 -13.5v-282q0 -141 -54.5 -208.5t-182.5 -67.5
zM318 632q-42 0 -70 11t-45 29t-24 41t-7 48q0 7 5.5 12t11.5 5h37q6 0 11.5 -5t5.5 -12q1 -16 4 -29t10.5 -22t22 -14t37.5 -5t37.5 5t22 14t10.5 22t4 29q0 7 5.5 12t11.5 5h37q6 0 11.5 -5t5.5 -12q0 -25 -7 -48t-24 -41t-44.5 -29t-68.5 -11z" />
    <glyph glyph-name="scircumflex" unicode="&#x15d;" horiz-adv-x="558" 
d="M490 456q0 -8 -4 -17t-11 -9h-49q-3 0 -10 3.5t-15 17.5q-8 16 -22.5 25.5t-32.5 14t-39.5 6t-44.5 1.5q-59 0 -90 -20t-31 -54q0 -27 27 -44.5t68 -31.5t88.5 -27.5t88.5 -33.5t68 -49t27 -74q0 -49 -16.5 -82t-46 -53t-70 -28.5t-87.5 -8.5q-42 0 -78.5 8.5t-65 24
t-48.5 38.5t-29 52q0 8 3.5 17t14.5 9h44q11 0 16.5 -5.5t10.5 -15.5q7 -15 21.5 -25t32.5 -16t38.5 -8.5t39.5 -2.5q24 0 49 2t45 11t32.5 26.5t12.5 47.5q0 31 -27 50t-68 33t-88.5 27t-88.5 32.5t-68 48.5t-27 75q0 71 54 112t147 41q42 0 80 -7.5t68.5 -22.5t51.5 -37
t29 -51zM314 809q6 0 13.5 -5t9.5 -10l69 -144q0 -7 -4.5 -12.5t-12.5 -5.5h-41q-8 0 -15.5 6t-9.5 12l-47 109l-48 -109q-2 -6 -9.5 -12t-15.5 -6h-40q-8 0 -12.5 5.5t-4.5 12.5l69 144q2 5 9.5 10t13.5 5h76z" />
    <glyph glyph-name="Hbar" unicode="&#x126;" horiz-adv-x="677" 
d="M122 496v53q0 8 6 13.5t13 5.5h43q7 0 13 -5.5t6 -13.5v-53h271v53q0 8 6 13.5t13 5.5h43q7 0 13 -5.5t6 -13.5v-53h48q8 0 13.5 -6t5.5 -13v-38q0 -7 -5.5 -13t-13.5 -6h-48v-401q0 -8 -6 -13.5t-13 -5.5h-43q-7 0 -13 5.5t-6 13.5v209h-271v-209q0 -8 -6 -13.5
t-13 -5.5h-43q-7 0 -13 5.5t-6 13.5v401h-48q-8 0 -13.5 6t-5.5 13v38q0 7 5.5 13t13.5 6h48zM474 304v116h-271v-116h271z" />
    </font>
</defs>
</svg>
